# MagicaVoxel @ Ephtracy

# group
o 

# material
mtllib kitchen_box.mtl
usemtl palette

# normals
vn -1 0 0
vn 1 0 0
vn 0 0 1
vn 0 0 -1
vn 0 -1 0
vn 0 1 0

# texcoords
vt 0.107422 0.5
vt 0.142578 0.5
vt 0.166016 0.5

# verts
v -1.2 0 1.1
v -1.2 0 -1.2
v -1.2 0.3 0.4
v -1.2 0.3 -0.0999999
v -1.2 0.4 0.4
v -1.2 0.4 -0.0999999
v -1.2 0.4 -0.2
v -1.2 0.5 -0.0999999
v -1.2 0.5 -0.2
v -1.2 0.5 -1.1
v -1.2 0.6 -0.2
v -1.2 0.6 -1.1
v -1.2 1.2 -0.0999999
v -1.2 1.2 -0.5
v -1.2 1.3 0.2
v -1.2 1.3 -0.0999999
v -1.2 1.3 -0.3
v -1.2 1.3 -0.5
v -1.2 1.4 0.4
v -1.2 1.4 0.2
v -1.2 1.4 0
v -1.2 1.4 -0.3
v -1.2 1.5 0.5
v -1.2 1.5 0.4
v -1.2 1.5 0
v -1.2 1.6 0.5
v -1.2 1.6 0.4
v -1.2 2 0.9
v -1.2 2 0.8
v -1.2 2.1 0.9
v -1.2 2.1 0.8
v -1.2 2.1 0.7
v -1.2 2.3 0.8
v -1.2 2.3 0.7
v -1.2 2.3 0.6
v -1.2 2.3 -0.7
v -1.2 2.3 -0.8
v -1.2 2.4 0.7
v -1.2 2.4 0.6
v -1.2 2.4 0.5
v -1.2 2.4 -0.5
v -1.2 2.4 -0.7
v -1.2 2.4 -0.8
v -1.2 2.4 -1.1
v -1.2 2.5 0.5
v -1.2 2.5 -0.0999999
v -1.2 2.5 -0.5
v -1.2 2.5 -1
v -1.2 2.6 0.6
v -1.2 2.6 -0.0999999
v -1.2 2.6 -1
v -1.2 2.6 -1.1
v -1.2 2.6 -1.2
v -1.2 2.7 -1.1
v -1.2 2.7 -1.2
v -1.2 2.9 1.1
v -1.2 2.9 1
v -1.2 3 1.1
v -1.2 3 1
v -1.2 3 -1.2
v -1.1 0 1.2
v -1.1 0 1.1
v -1.1 0 -1.2
v -1.1 0 -1.3
v -1.1 2.6 -1.2
v -1.1 2.7 -1.2
v -1.1 2.8 1.2
v -1.1 2.8 1.1
v -1.1 2.9 1.1
v -1.1 3 1.2
v -1.1 3 1.1
v -1.1 3 -1.2
v -1.1 3 -1.3
v 0.7 1.2 1.1
v 0.7 1.2 1
v 0.7 1.6 1.1
v 0.7 1.6 1
v 0.7 2.4 0.6
v 0.7 2.4 -0.7
v 0.7 2.8 0.6
v 0.7 2.8 -0.7
v 0.7 2.9 0.6
v 0.7 2.9 -0.7
v 1 0 1.1
v 1 0 1
v 1 2.6 1.1
v 1 2.6 1
v 1.1 0 1.2
v 1.1 0 1.1
v 1.1 0.1 1.2
v 1.1 0.1 1.1
v 1.1 2.7 1.2
v 1.1 2.7 1.1
v -1 0 1.2
v -1 0 1.1
v -1 2.7 1.2
v -1 2.7 1.1
v -0.9 0 1.1
v -0.9 0 1
v -0.9 2.6 1.1
v -0.9 2.6 1
v -0.6 2.4 0.6
v -0.6 2.4 -0.7
v -0.6 2.8 0.6
v -0.6 2.8 -0.7
v -0.6 2.9 0.6
v -0.6 2.9 -0.7
v 0.8 1.2 1.1
v 0.8 1.2 1
v 0.8 1.6 1.1
v 0.8 1.6 1
v 1.2 0 1.2
v 1.2 0 1.1
v 1.2 0 -1.2
v 1.2 0 -1.3
v 1.2 0.1 1.2
v 1.2 0.1 1.1
v 1.2 0.2 -1.2
v 1.2 0.3 -1.2
v 1.2 1 1.1
v 1.2 1 -1.2
v 1.2 1.2 1.1
v 1.2 1.2 -1.2
v 1.2 2.2 1.1
v 1.2 2.4 1.1
v 1.2 2.5 -1.2
v 1.2 2.9 -1.2
v 1.2 3 1.2
v 1.2 3 1.1
v 1.2 3 -1.2
v 1.2 3 -1.3
v 1.3 0 1.1
v 1.3 0 0.3
v 1.3 0 -1.2
v 1.3 0.1 1.1
v 1.3 0.1 0.3
v 1.3 0.1 -0.7
v 1.3 0.1 -1.1
v 1.3 0.2 -0.4
v 1.3 0.2 -0.7
v 1.3 0.2 -1.1
v 1.3 0.2 -1.2
v 1.3 0.3 -0.4
v 1.3 0.3 -1.2
v 1.3 0.6 0.6
v 1.3 0.6 0.5
v 1.3 0.6 -0.5
v 1.3 0.6 -1
v 1.3 0.7 0.8
v 1.3 0.7 0.7
v 1.3 0.7 0.6
v 1.3 0.7 0.5
v 1.3 0.7 -0.5
v 1.3 0.7 -1
v 1.3 0.7 -1.1
v 1.3 0.8 0.9
v 1.3 0.8 0.8
v 1.3 0.8 0.7
v 1.3 0.9 0.8
v 1.3 0.9 0.4
v 1.3 1 1.1
v 1.3 1 0.9
v 1.3 1 0.4
v 1.3 1 0.2
v 1.3 1 -1
v 1.3 1 -1.1
v 1.3 1 -1.2
v 1.3 1.2 1.1
v 1.3 1.2 0.2
v 1.3 1.2 -1.1
v 1.3 1.2 -1.2
v 1.3 1.7 -0.5
v 1.3 1.7 -0.6
v 1.3 1.8 -0.4
v 1.3 1.8 -0.5
v 1.3 1.8 -0.6
v 1.3 1.9 -0.3
v 1.3 1.9 -0.4
v 1.3 1.9 -0.5
v 1.3 2 0.5
v 1.3 2 -0.3
v 1.3 2 -0.4
v 1.3 2.1 0.8
v 1.3 2.1 0.5
v 1.3 2.1 -0.3
v 1.3 2.2 1.1
v 1.3 2.2 0.8
v 1.3 2.3 0.8
v 1.3 2.3 0.5
v 1.3 2.4 1.1
v 1.3 2.4 0.8
v 1.3 2.5 -0.3
v 1.3 2.5 -1.2
v 1.3 2.6 -0.3
v 1.3 2.6 -0.6
v 1.3 2.7 -0.6
v 1.3 2.7 -1
v 1.3 2.8 -1
v 1.3 2.8 -1.1
v 1.3 2.9 -1.1
v 1.3 2.9 -1.2
v 1.3 3 1.1
v 1.3 3 -1.2
v -1.1 0 1.2
v -1.1 2.8 1.2
v -1.1 3 1.2
v -1 0 1.2
v -1 2.7 1.2
v -1 2.8 1.2
v -1 3 1.2
v -0.4 2.9 1.2
v -0.4 3 1.2
v -0.3 2.8 1.2
v -0.3 2.9 1.2
v -0.3 3 1.2
v 0.3 2.7 1.2
v 0.3 2.8 1.2
v 0.4 2.7 1.2
v 0.4 2.9 1.2
v 0.5 2.7 1.2
v 0.5 2.8 1.2
v 0.7 2.7 1.2
v 0.7 2.8 1.2
v 1.1 0 1.2
v 1.1 0.1 1.2
v 1.1 2.7 1.2
v 1.2 0 1.2
v 1.2 0.1 1.2
v 1.2 3 1.2
v -1.2 0 1.1
v -1.2 2.9 1.1
v -1.2 3 1.1
v -1.1 0 1.1
v -1.1 2.8 1.1
v -1.1 2.9 1.1
v -1.1 3 1.1
v -1 0 1.1
v -1 2.7 1.1
v -0.9 0 1.1
v -0.9 2.6 1.1
v 0.3 2.7 1.1
v 0.4 2.7 1.1
v 0.5 2.7 1.1
v 0.7 1.2 1.1
v 0.7 1.6 1.1
v 0.7 2.7 1.1
v 0.8 1.2 1.1
v 0.8 1.6 1.1
v 1 0 1.1
v 1 2.6 1.1
v 1.1 0 1.1
v 1.1 0.1 1.1
v 1.1 2.7 1.1
v 1.2 0 1.1
v 1.2 0.1 1.1
v 1.2 1 1.1
v 1.2 1.2 1.1
v 1.2 2.2 1.1
v 1.2 2.4 1.1
v 1.2 3 1.1
v 1.3 0 1.1
v 1.3 0.1 1.1
v 1.3 1 1.1
v 1.3 1.2 1.1
v 1.3 2.2 1.1
v 1.3 2.4 1.1
v 1.3 3 1.1
v -0.9 0 1
v -0.9 2.6 1
v 0.7 1.2 1
v 0.7 1.6 1
v 0.8 1.2 1
v 0.8 1.6 1
v 1 0 1
v 1 2.6 1
v -0.6 2.4 -0.7
v -0.6 2.8 -0.7
v -0.6 2.9 -0.7
v 0.7 2.4 -0.7
v 0.7 2.8 -0.7
v 0.7 2.9 -0.7
v -0.6 2.4 0.6
v -0.6 2.8 0.6
v -0.6 2.9 0.6
v 0.7 2.4 0.6
v 0.7 2.8 0.6
v 0.7 2.9 0.6
v -1.2 0 -1.2
v -1.2 2.6 -1.2
v -1.2 2.7 -1.2
v -1.2 3 -1.2
v -1.1 0 -1.2
v -1.1 2.6 -1.2
v -1.1 2.7 -1.2
v -1.1 3 -1.2
v 1.2 0 -1.2
v 1.2 0.2 -1.2
v 1.2 0.3 -1.2
v 1.2 1 -1.2
v 1.2 1.2 -1.2
v 1.2 2.5 -1.2
v 1.2 2.9 -1.2
v 1.2 3 -1.2
v 1.3 0 -1.2
v 1.3 0.2 -1.2
v 1.3 0.3 -1.2
v 1.3 1 -1.2
v 1.3 1.2 -1.2
v 1.3 2.5 -1.2
v 1.3 2.9 -1.2
v 1.3 3 -1.2
v -1.1 0 -1.3
v -1.1 3 -1.3
v 1.2 0 -1.3
v 1.2 3 -1.3
v -1.1 0 1.2
v -1 0 1.2
v 1.1 0 1.2
v 1.2 0 1.2
v -1.2 0 1.1
v -1.1 0 1.1
v -1 0 1.1
v -0.9 0 1.1
v 1 0 1.1
v 1.1 0 1.1
v 1.2 0 1.1
v 1.3 0 1.1
v -0.9 0 1
v 1 0 1
v -0.9 0 0.9
v 1 0 0.9
v 1.2 0 0.3
v 1.3 0 0.3
v -1.2 0 -1.2
v -1.1 0 -1.2
v 1.2 0 -1.2
v 1.3 0 -1.2
v -1.1 0 -1.3
v 1.2 0 -1.3
v 0.7 1.2 1.1
v 0.8 1.2 1.1
v 0.7 1.2 1
v 0.8 1.2 1
v -0.9 2.6 1.1
v 1 2.6 1.1
v -0.9 2.6 1
v 1 2.6 1
v -1 2.7 1.2
v 0.3 2.7 1.2
v 0.4 2.7 1.2
v 0.5 2.7 1.2
v 0.7 2.7 1.2
v 1.1 2.7 1.2
v -1 2.7 1.1
v 0.3 2.7 1.1
v 0.4 2.7 1.1
v 0.5 2.7 1.1
v 0.7 2.7 1.1
v 1.1 2.7 1.1
v -0.6 2.9 0.6
v 0.7 2.9 0.6
v -0.6 2.9 -0.7
v 0.7 2.9 -0.7
v 0.7 1.6 1.1
v 0.8 1.6 1.1
v 0.7 1.6 1
v 0.8 1.6 1
v -0.6 2.4 0.6
v 0.7 2.4 0.6
v -0.6 2.4 -0.7
v 0.7 2.4 -0.7
v -1.1 3 1.2
v -1 3 1.2
v -0.4 3 1.2
v -0.3 3 1.2
v 1.2 3 1.2
v -1.2 3 1.1
v -1.1 3 1.1
v -1 3 1.1
v -0.4 3 1.1
v -0.3 3 1.1
v 1.2 3 1.1
v 1.3 3 1.1
v -1.2 3 1
v -1.1 3 1
v -1.2 3 -1.2
v -1.1 3 -1.2
v 1.2 3 -1.2
v 1.3 3 -1.2
v -1.1 3 -1.3
v 1.2 3 -1.3

# faces
f 3/3/1 2/3/1 1/3/1
f 4/3/1 2/3/1 3/3/1
f 5/3/1 3/3/1 1/3/1
f 5/1/1 4/1/1 3/1/1
f 6/3/1 2/3/1 4/3/1
f 6/1/1 4/1/1 5/1/1
f 7/3/1 2/3/1 6/3/1
f 8/3/1 6/3/1 5/3/1
f 8/1/1 7/1/1 6/1/1
f 9/3/1 2/3/1 7/3/1
f 9/1/1 7/1/1 8/1/1
f 10/3/1 2/3/1 9/3/1
f 11/3/1 9/3/1 8/3/1
f 11/1/1 10/1/1 9/1/1
f 12/3/1 2/3/1 10/3/1
f 12/1/1 10/1/1 11/1/1
f 13/3/1 8/3/1 5/3/1
f 13/3/1 11/3/1 8/3/1
f 13/3/1 12/3/1 11/3/1
f 14/3/1 12/3/1 13/3/1
f 15/3/1 13/3/1 5/3/1
f 16/1/1 14/1/1 13/1/1
f 16/3/1 13/3/1 15/3/1
f 17/1/1 14/1/1 16/1/1
f 18/3/1 12/3/1 14/3/1
f 18/1/1 14/1/1 17/1/1
f 19/3/1 5/3/1 1/3/1
f 19/3/1 15/3/1 5/3/1
f 20/1/1 17/1/1 16/1/1
f 20/3/1 15/3/1 19/3/1
f 20/1/1 16/1/1 15/1/1
f 21/1/1 17/1/1 20/1/1
f 22/3/1 18/3/1 17/3/1
f 22/1/1 17/1/1 21/1/1
f 23/3/1 19/3/1 1/3/1
f 24/1/1 21/1/1 20/1/1
f 24/3/1 19/3/1 23/3/1
f 24/1/1 20/1/1 19/1/1
f 25/3/1 22/3/1 21/3/1
f 25/1/1 21/1/1 24/1/1
f 26/3/1 23/3/1 1/3/1
f 26/1/1 24/1/1 23/1/1
f 27/3/1 25/3/1 24/3/1
f 27/1/1 24/1/1 26/1/1
f 28/3/1 26/3/1 1/3/1
f 28/3/1 27/3/1 26/3/1
f 29/3/1 27/3/1 28/3/1
f 30/3/1 28/3/1 1/3/1
f 30/1/1 29/1/1 28/1/1
f 31/3/1 27/3/1 29/3/1
f 31/1/1 29/1/1 30/1/1
f 32/3/1 27/3/1 31/3/1
f 33/3/1 31/3/1 30/3/1
f 33/1/1 32/1/1 31/1/1
f 34/3/1 27/3/1 32/3/1
f 34/1/1 32/1/1 33/1/1
f 35/3/1 27/3/1 34/3/1
f 36/3/1 12/3/1 18/3/1
f 36/3/1 27/3/1 35/3/1
f 36/3/1 18/3/1 22/3/1
f 36/3/1 22/3/1 25/3/1
f 36/3/1 25/3/1 27/3/1
f 37/3/1 12/3/1 36/3/1
f 38/1/1 35/1/1 34/1/1
f 38/3/1 34/3/1 33/3/1
f 39/3/1 36/3/1 35/3/1
f 39/1/1 35/1/1 38/1/1
f 40/3/1 36/3/1 39/3/1
f 41/3/1 36/3/1 40/3/1
f 42/1/1 37/1/1 36/1/1
f 42/3/1 36/3/1 41/3/1
f 43/3/1 12/3/1 37/3/1
f 43/1/1 37/1/1 42/1/1
f 44/3/1 2/3/1 12/3/1
f 44/3/1 12/3/1 43/3/1
f 45/3/1 41/3/1 40/3/1
f 45/1/1 40/1/1 39/1/1
f 46/3/1 41/3/1 45/3/1
f 47/1/1 42/1/1 41/1/1
f 47/3/1 41/3/1 46/3/1
f 47/1/1 43/1/1 42/1/1
f 47/1/1 44/1/1 43/1/1
f 48/1/1 44/1/1 47/1/1
f 49/1/1 46/1/1 45/1/1
f 49/1/1 45/1/1 39/1/1
f 49/3/1 39/3/1 38/3/1
f 50/3/1 48/3/1 47/3/1
f 50/1/1 46/1/1 49/1/1
f 50/3/1 47/3/1 46/3/1
f 51/1/1 44/1/1 48/1/1
f 51/3/1 48/3/1 50/3/1
f 52/3/1 2/3/1 44/3/1
f 52/1/1 44/1/1 51/1/1
f 53/3/1 2/3/1 52/3/1
f 54/3/1 50/3/1 49/3/1
f 54/3/1 51/3/1 50/3/1
f 54/1/1 53/1/1 52/1/1
f 54/3/1 52/3/1 51/3/1
f 55/1/1 53/1/1 54/1/1
f 56/3/1 49/3/1 38/3/1
f 56/3/1 38/3/1 33/3/1
f 56/3/1 55/3/1 54/3/1
f 56/3/1 54/3/1 49/3/1
f 56/3/1 30/3/1 1/3/1
f 56/3/1 33/3/1 30/3/1
f 57/3/1 55/3/1 56/3/1
f 58/1/1 57/1/1 56/1/1
f 59/3/1 55/3/1 57/3/1
f 59/1/1 57/1/1 58/1/1
f 60/3/1 55/3/1 59/3/1
f 65/3/1 64/3/1 63/3/1
f 66/3/1 64/3/1 65/3/1
f 67/3/1 62/3/1 61/3/1
f 68/3/1 62/3/1 67/3/1
f 69/1/1 68/1/1 67/1/1
f 70/1/1 69/1/1 67/1/1
f 71/1/1 69/1/1 70/1/1
f 72/3/1 64/3/1 66/3/1
f 73/3/1 64/3/1 72/3/1
f 76/2/1 75/2/1 74/2/1
f 77/2/1 75/2/1 76/2/1
f 80/1/1 79/1/1 78/1/1
f 81/1/1 79/1/1 80/1/1
f 82/3/1 81/3/1 80/3/1
f 83/3/1 81/3/1 82/3/1
f 86/3/1 85/3/1 84/3/1
f 87/3/1 85/3/1 86/3/1
f 90/1/1 89/1/1 88/1/1
f 91/1/1 89/1/1 90/1/1
f 92/3/1 91/3/1 90/3/1
f 93/3/1 91/3/1 92/3/1
f 94/3/2 95/3/2 96/3/2
f 96/3/2 95/3/2 97/3/2
f 98/3/2 99/3/2 100/3/2
f 100/3/2 99/3/2 101/3/2
f 102/1/2 103/1/2 104/1/2
f 104/1/2 103/1/2 105/1/2
f 104/3/2 105/3/2 106/3/2
f 106/3/2 105/3/2 107/3/2
f 108/2/2 109/2/2 110/2/2
f 110/2/2 109/2/2 111/2/2
f 112/1/2 113/1/2 116/1/2
f 116/1/2 113/1/2 117/1/2
f 114/3/2 115/3/2 118/3/2
f 118/3/2 115/3/2 119/3/2
f 116/3/2 117/3/2 120/3/2
f 119/3/2 115/3/2 121/3/2
f 116/3/2 120/3/2 122/3/2
f 121/3/2 115/3/2 123/3/2
f 116/3/2 122/3/2 124/3/2
f 116/3/2 124/3/2 125/3/2
f 123/3/2 115/3/2 126/3/2
f 126/3/2 115/3/2 127/3/2
f 116/3/2 125/3/2 128/3/2
f 128/3/2 125/3/2 129/3/2
f 127/3/2 115/3/2 130/3/2
f 130/3/2 115/3/2 131/3/2
f 132/1/2 133/1/2 135/1/2
f 133/3/2 134/3/2 136/3/2
f 135/1/2 133/1/2 136/1/2
f 136/3/2 134/3/2 137/3/2
f 137/3/2 134/3/2 138/3/2
f 135/3/2 136/3/2 139/3/2
f 136/3/2 137/3/2 139/3/2
f 137/1/2 138/1/2 140/1/2
f 139/3/2 137/3/2 140/3/2
f 138/3/2 134/3/2 141/3/2
f 140/1/2 138/1/2 141/1/2
f 141/3/2 134/3/2 142/3/2
f 139/1/2 140/1/2 143/1/2
f 135/3/2 139/3/2 143/3/2
f 141/1/2 142/1/2 143/1/2
f 140/1/2 141/1/2 143/1/2
f 143/1/2 142/1/2 144/1/2
f 135/3/2 143/3/2 145/3/2
f 143/3/2 144/3/2 145/3/2
f 145/3/2 144/3/2 146/3/2
f 146/3/2 144/3/2 147/3/2
f 147/3/2 144/3/2 148/3/2
f 135/3/2 145/3/2 149/3/2
f 149/3/2 145/3/2 150/3/2
f 145/1/2 146/1/2 151/1/2
f 150/3/2 145/3/2 151/3/2
f 146/3/2 147/3/2 152/3/2
f 151/1/2 146/1/2 152/1/2
f 147/1/2 148/1/2 153/1/2
f 152/3/2 147/3/2 153/3/2
f 148/3/2 144/3/2 154/3/2
f 153/1/2 148/1/2 154/1/2
f 154/3/2 144/3/2 155/3/2
f 135/3/2 149/3/2 156/3/2
f 149/1/2 150/1/2 157/1/2
f 156/3/2 149/3/2 157/3/2
f 152/3/2 153/3/2 158/3/2
f 157/1/2 150/1/2 158/1/2
f 150/3/2 151/3/2 158/3/2
f 151/3/2 152/3/2 158/3/2
f 153/3/2 154/3/2 158/3/2
f 156/1/2 157/1/2 159/1/2
f 157/3/2 158/3/2 159/3/2
f 158/3/2 154/3/2 160/3/2
f 159/3/2 158/3/2 160/3/2
f 135/3/2 156/3/2 161/3/2
f 156/1/2 159/1/2 162/1/2
f 161/3/2 156/3/2 162/3/2
f 159/1/2 160/1/2 162/1/2
f 160/3/2 154/3/2 163/3/2
f 162/1/2 160/1/2 163/1/2
f 163/3/2 154/3/2 164/3/2
f 154/1/2 155/1/2 165/1/2
f 164/3/2 154/3/2 165/3/2
f 155/3/2 144/3/2 166/3/2
f 165/1/2 155/1/2 166/1/2
f 166/3/2 144/3/2 167/3/2
f 161/1/2 162/1/2 168/1/2
f 163/1/2 164/1/2 168/1/2
f 162/1/2 163/1/2 168/1/2
f 164/3/2 165/3/2 169/3/2
f 168/1/2 164/1/2 169/1/2
f 165/3/2 166/3/2 169/3/2
f 166/1/2 167/1/2 170/1/2
f 169/3/2 166/3/2 170/3/2
f 170/1/2 167/1/2 171/1/2
f 168/3/2 169/3/2 172/3/2
f 169/3/2 170/3/2 172/3/2
f 170/3/2 171/3/2 172/3/2
f 172/3/2 171/3/2 173/3/2
f 168/3/2 172/3/2 174/3/2
f 172/1/2 173/1/2 175/1/2
f 174/3/2 172/3/2 175/3/2
f 173/3/2 171/3/2 176/3/2
f 175/1/2 173/1/2 176/1/2
f 168/3/2 174/3/2 177/3/2
f 174/1/2 175/1/2 178/1/2
f 177/3/2 174/3/2 178/3/2
f 175/3/2 176/3/2 179/3/2
f 178/1/2 175/1/2 179/1/2
f 168/3/2 177/3/2 180/3/2
f 177/1/2 178/1/2 181/1/2
f 180/3/2 177/3/2 181/3/2
f 178/3/2 179/3/2 182/3/2
f 181/1/2 178/1/2 182/1/2
f 168/3/2 180/3/2 183/3/2
f 180/1/2 181/1/2 184/1/2
f 183/3/2 180/3/2 184/3/2
f 181/3/2 182/3/2 185/3/2
f 184/1/2 181/1/2 185/1/2
f 168/3/2 183/3/2 186/3/2
f 183/1/2 184/1/2 187/1/2
f 186/3/2 183/3/2 187/3/2
f 186/1/2 187/1/2 188/1/2
f 187/1/2 184/1/2 188/1/2
f 184/3/2 185/3/2 189/3/2
f 188/1/2 184/1/2 189/1/2
f 186/1/2 188/1/2 190/1/2
f 188/3/2 189/3/2 191/3/2
f 190/1/2 188/1/2 191/1/2
f 185/3/2 182/3/2 192/3/2
f 191/3/2 189/3/2 192/3/2
f 190/3/2 191/3/2 192/3/2
f 189/3/2 185/3/2 192/3/2
f 179/3/2 176/3/2 193/3/2
f 192/3/2 182/3/2 193/3/2
f 176/3/2 171/3/2 193/3/2
f 182/3/2 179/3/2 193/3/2
f 190/3/2 192/3/2 194/3/2
f 192/1/2 193/1/2 194/1/2
f 194/1/2 193/1/2 195/1/2
f 194/3/2 195/3/2 196/3/2
f 195/1/2 193/1/2 196/1/2
f 196/1/2 193/1/2 197/1/2
f 196/3/2 197/3/2 198/3/2
f 197/1/2 193/1/2 198/1/2
f 198/1/2 193/1/2 199/1/2
f 198/3/2 199/3/2 200/3/2
f 199/1/2 193/1/2 200/1/2
f 200/1/2 193/1/2 201/1/2
f 190/3/2 194/3/2 202/3/2
f 194/3/2 196/3/2 202/3/2
f 200/3/2 201/3/2 202/3/2
f 198/3/2 200/3/2 202/3/2
f 196/3/2 198/3/2 202/3/2
f 202/3/2 201/3/2 203/3/2
f 207/3/3 205/3/3 204/3/3
f 208/3/3 205/3/3 207/3/3
f 209/1/3 206/1/3 205/1/3
f 209/3/3 205/3/3 208/3/3
f 210/1/3 206/1/3 209/1/3
f 211/3/3 209/3/3 208/3/3
f 211/3/3 210/3/3 209/3/3
f 212/3/3 210/3/3 211/3/3
f 213/3/3 211/3/3 208/3/3
f 214/1/3 212/1/3 211/1/3
f 214/3/3 211/3/3 213/3/3
f 215/1/3 212/1/3 214/1/3
f 216/3/3 213/3/3 208/3/3
f 217/1/3 214/1/3 213/1/3
f 217/3/3 213/3/3 216/3/3
f 218/1/3 217/1/3 216/1/3
f 219/3/3 215/3/3 214/3/3
f 219/1/3 217/1/3 218/1/3
f 219/1/3 214/1/3 217/1/3
f 220/3/3 219/3/3 218/3/3
f 221/3/3 219/3/3 220/3/3
f 222/1/3 221/1/3 220/1/3
f 223/3/3 219/3/3 221/3/3
f 223/1/3 221/1/3 222/1/3
f 226/3/3 223/3/3 222/3/3
f 227/1/3 225/1/3 224/1/3
f 228/3/3 226/3/3 225/3/3
f 228/1/3 225/1/3 227/1/3
f 229/3/3 215/3/3 219/3/3
f 229/3/3 226/3/3 228/3/3
f 229/3/3 219/3/3 223/3/3
f 229/3/3 223/3/3 226/3/3
f 233/3/3 231/3/3 230/3/3
f 234/3/3 231/3/3 233/3/3
f 235/1/3 232/1/3 231/1/3
f 235/3/3 231/3/3 234/3/3
f 236/1/3 232/1/3 235/1/3
f 239/3/3 238/3/3 237/3/3
f 240/3/3 238/3/3 239/3/3
f 241/3/3 238/3/3 240/3/3
f 242/3/3 241/3/3 240/3/3
f 243/3/3 242/3/3 240/3/3
f 246/3/3 243/3/3 240/3/3
f 247/2/3 245/2/3 244/2/3
f 248/2/3 245/2/3 247/2/3
f 250/3/3 246/3/3 240/3/3
f 251/3/3 250/3/3 249/3/3
f 252/3/3 250/3/3 251/3/3
f 253/3/3 246/3/3 250/3/3
f 253/3/3 250/3/3 252/3/3
f 261/1/3 255/1/3 254/1/3
f 262/3/3 256/3/3 255/3/3
f 262/1/3 255/1/3 261/1/3
f 263/1/3 257/1/3 256/1/3
f 263/3/3 256/3/3 262/3/3
f 264/3/3 258/3/3 257/3/3
f 264/1/3 257/1/3 263/1/3
f 265/1/3 259/1/3 258/1/3
f 265/3/3 258/3/3 264/3/3
f 266/3/3 260/3/3 259/3/3
f 266/1/3 259/1/3 265/1/3
f 267/3/3 260/3/3 266/3/3
f 270/1/3 269/1/3 268/1/3
f 271/1/3 269/1/3 270/1/3
f 272/1/3 270/1/3 268/1/3
f 273/1/3 269/1/3 271/1/3
f 274/1/3 272/1/3 268/1/3
f 274/1/3 273/1/3 272/1/3
f 275/1/3 269/1/3 273/1/3
f 275/1/3 273/1/3 274/1/3
f 279/1/3 277/1/3 276/1/3
f 280/3/3 278/3/3 277/3/3
f 280/1/3 277/1/3 279/1/3
f 281/3/3 278/3/3 280/3/3
f 282/1/4 283/1/4 285/1/4
f 283/1/4 284/1/4 285/1/4
f 285/1/4 284/1/4 286/1/4
f 286/1/4 284/1/4 287/1/4
f 288/3/4 289/3/4 292/3/4
f 289/1/4 290/1/4 293/1/4
f 292/3/4 289/3/4 293/3/4
f 290/3/4 291/3/4 294/3/4
f 293/1/4 290/1/4 294/1/4
f 294/3/4 291/3/4 295/3/4
f 296/3/4 297/3/4 304/3/4
f 297/1/4 298/1/4 305/1/4
f 304/3/4 297/3/4 305/3/4
f 298/3/4 299/3/4 306/3/4
f 305/1/4 298/1/4 306/1/4
f 299/1/4 300/1/4 307/1/4
f 306/3/4 299/3/4 307/3/4
f 300/3/4 301/3/4 308/3/4
f 307/1/4 300/1/4 308/1/4
f 301/1/4 302/1/4 309/1/4
f 308/3/4 301/3/4 309/3/4
f 302/3/4 303/3/4 310/3/4
f 309/1/4 302/1/4 310/1/4
f 310/3/4 303/3/4 311/3/4
f 312/3/4 313/3/4 314/3/4
f 314/3/4 313/3/4 315/3/4
f 321/3/5 317/3/5 316/3/5
f 322/3/5 317/3/5 321/3/5
f 325/1/5 319/1/5 318/1/5
f 326/1/5 319/1/5 325/1/5
f 328/3/5 323/3/5 322/3/5
f 328/3/5 321/3/5 320/3/5
f 328/3/5 322/3/5 321/3/5
f 329/3/5 326/3/5 325/3/5
f 329/3/5 325/3/5 324/3/5
f 330/3/5 328/3/5 320/3/5
f 330/1/5 329/1/5 328/1/5
f 331/3/5 326/3/5 329/3/5
f 331/1/5 329/1/5 330/1/5
f 332/1/5 327/1/5 326/1/5
f 332/3/5 326/3/5 331/3/5
f 332/3/5 331/3/5 330/3/5
f 333/1/5 327/1/5 332/1/5
f 334/3/5 330/3/5 320/3/5
f 334/3/5 332/3/5 330/3/5
f 334/3/5 333/3/5 332/3/5
f 335/3/5 333/3/5 334/3/5
f 336/3/5 333/3/5 335/3/5
f 337/3/5 333/3/5 336/3/5
f 338/3/5 336/3/5 335/3/5
f 339/3/5 336/3/5 338/3/5
f 342/2/5 341/2/5 340/2/5
f 343/2/5 341/2/5 342/2/5
f 346/3/5 345/3/5 344/3/5
f 347/3/5 345/3/5 346/3/5
f 354/3/5 349/3/5 348/3/5
f 355/1/5 350/1/5 349/1/5
f 355/3/5 349/3/5 354/3/5
f 356/3/5 351/3/5 350/3/5
f 356/1/5 350/1/5 355/1/5
f 357/1/5 352/1/5 351/1/5
f 357/3/5 351/3/5 356/3/5
f 358/3/5 353/3/5 352/3/5
f 358/1/5 352/1/5 357/1/5
f 359/3/5 353/3/5 358/3/5
f 362/3/5 361/3/5 360/3/5
f 363/3/5 361/3/5 362/3/5
f 364/2/6 365/2/6 366/2/6
f 366/2/6 365/2/6 367/2/6
f 368/1/6 369/1/6 370/1/6
f 370/1/6 369/1/6 371/1/6
f 372/1/6 373/1/6 378/1/6
f 373/3/6 374/3/6 379/3/6
f 378/1/6 373/1/6 379/1/6
f 374/1/6 375/1/6 380/1/6
f 379/3/6 374/3/6 380/3/6
f 375/3/6 376/3/6 381/3/6
f 380/1/6 375/1/6 381/1/6
f 381/3/6 376/3/6 382/3/6
f 377/1/6 378/1/6 384/1/6
f 379/3/6 380/3/6 385/3/6
f 384/1/6 378/1/6 385/1/6
f 382/3/6 383/3/6 385/3/6
f 381/3/6 382/3/6 385/3/6
f 380/3/6 381/3/6 385/3/6
f 378/3/6 379/3/6 385/3/6
f 384/3/6 385/3/6 386/3/6
f 385/3/6 383/3/6 387/3/6
f 386/3/6 385/3/6 387/3/6
f 387/3/6 383/3/6 388/3/6
f 388/3/6 383/3/6 389/3/6
f 387/3/6 388/3/6 390/3/6
f 390/3/6 388/3/6 391/3/6
