# MagicaVoxel @ Ephtracy

# group
o 

# material
mtllib Racovina_kitchen.mtl
usemtl palette

# normals
vn -1 0 0
vn 1 0 0
vn 0 0 1
vn 0 0 -1
vn 0 -1 0
vn 0 1 0

# texcoords
vt 0.00195312 0.5
vt 0.00585938 0.5
vt 0.107422 0.5
vt 0.142578 0.5
vt 0.166016 0.5
vt 0.189453 0.5
vt 0.193359 0.5
vt 0.197266 0.5
vt 0.201172 0.5

# verts
v -1.2 0 1.1
v -1.2 0 -1.2
v -1.2 0.3 0.4
v -1.2 0.3 -0.0999999
v -1.2 0.4 0.4
v -1.2 0.4 -0.0999999
v -1.2 0.4 -0.2
v -1.2 0.5 -0.0999999
v -1.2 0.5 -0.2
v -1.2 0.5 -1.1
v -1.2 0.6 -0.2
v -1.2 0.6 -1.1
v -1.2 1.2 -0.0999999
v -1.2 1.2 -0.5
v -1.2 1.3 0.2
v -1.2 1.3 -0.0999999
v -1.2 1.3 -0.3
v -1.2 1.3 -0.5
v -1.2 1.4 0.4
v -1.2 1.4 0.2
v -1.2 1.4 0
v -1.2 1.4 -0.3
v -1.2 1.5 0.5
v -1.2 1.5 0.4
v -1.2 1.5 0
v -1.2 1.6 0.5
v -1.2 1.6 0.4
v -1.2 2 0.9
v -1.2 2 0.8
v -1.2 2.1 0.9
v -1.2 2.1 0.8
v -1.2 2.1 0.7
v -1.2 2.3 0.8
v -1.2 2.3 0.7
v -1.2 2.3 0.6
v -1.2 2.3 -0.7
v -1.2 2.3 -0.8
v -1.2 2.4 0.7
v -1.2 2.4 0.6
v -1.2 2.4 0.5
v -1.2 2.4 -0.5
v -1.2 2.4 -0.7
v -1.2 2.4 -0.8
v -1.2 2.4 -1.1
v -1.2 2.5 0.5
v -1.2 2.5 -0.0999999
v -1.2 2.5 -0.5
v -1.2 2.5 -1
v -1.2 2.6 0.6
v -1.2 2.6 -0.0999999
v -1.2 2.6 -1
v -1.2 2.6 -1.1
v -1.2 2.6 -1.2
v -1.2 2.7 -1.1
v -1.2 2.7 -1.2
v -1.2 2.9 1.1
v -1.2 2.9 1
v -1.2 3 1.1
v -1.2 3 1
v -1.2 3 -1.2
v -1.1 0 1.2
v -1.1 0 1.1
v -1.1 0 -1.2
v -1.1 0 -1.3
v -1.1 2.6 -1.2
v -1.1 2.7 -1.2
v -1.1 2.8 1.2
v -1.1 2.8 1.1
v -1.1 2.9 1.1
v -1.1 3 1.2
v -1.1 3 1.1
v -1.1 3 -1.2
v -1.1 3 -1.3
v -0.3 3 -1.1
v -0.3 3 -1.3
v -0.3 3.1 -1.1
v -0.3 3.1 -1.3
v -0.2 3.1 -1.2
v -0.2 3.1 -1.3
v -0.2 3.2 -1.2
v -0.2 3.2 -1.3
v -0.1 3.1 -1.1
v -0.1 3.1 -1.2
v -0.1 3.2 -1.2
v -0.1 3.2 -1.3
v -0.1 3.7 -0.6
v -0.1 3.7 -0.7
v -0.1 3.8 -0.6
v -0.1 3.8 -0.7
v -0.1 3.8 -1.1
v -0.1 3.9 -0.6
v -0.1 3.9 -0.7
v -0.1 3.9 -1.2
v -0.1 3.9 -1.3
v -0.1 4 -0.7
v -0.1 4 -1.2
v 0.6 3 -1
v 0.6 3 -1.1
v 0.6 3 -1.2
v 0.6 3 -1.3
v 0.6 3.1 -1
v 0.6 3.1 -1.1
v 0.6 3.1 -1.2
v 0.6 3.1 -1.3
v 0.6 3.2 -1
v 0.6 3.2 -1.3
v 0.7 1.2 1.1
v 0.7 1.2 1
v 0.7 1.6 1.1
v 0.7 1.6 1
v 0.7 2.4 0.6
v 0.7 2.4 -0.7
v 0.7 2.9 0.6
v 0.7 2.9 -0.7
v 0.8 2.9 0.7
v 0.8 2.9 -0.8
v 0.8 3 0.7
v 0.8 3 -0.8
v 1 0 1.1
v 1 0 1
v 1 2.6 1.1
v 1 2.6 1
v 1.1 0 1.2
v 1.1 0 1.1
v 1.1 0.1 1.2
v 1.1 0.1 1.1
v 1.1 2.7 1.2
v 1.1 2.7 1.1
v -1 0 1.2
v -1 0 1.1
v -1 2.7 1.2
v -1 2.7 1.1
v -0.9 0 1.1
v -0.9 0 1
v -0.9 2.6 1.1
v -0.9 2.6 1
v -0.7 2.9 0.7
v -0.7 2.9 -0.8
v -0.7 3 0.7
v -0.7 3 -0.8
v -0.6 2.4 0.6
v -0.6 2.4 -0.7
v -0.6 2.9 0.6
v -0.6 2.9 -0.7
v 0.0999999 3.1 -1.1
v 0.0999999 3.1 -1.2
v 0.0999999 3.2 -1.2
v 0.0999999 3.2 -1.3
v 0.0999999 3.7 -0.6
v 0.0999999 3.7 -0.7
v 0.0999999 3.8 -0.6
v 0.0999999 3.8 -0.7
v 0.0999999 3.8 -1.1
v 0.0999999 3.9 -0.6
v 0.0999999 3.9 -0.7
v 0.0999999 3.9 -1.2
v 0.0999999 3.9 -1.3
v 0.0999999 4 -0.7
v 0.0999999 4 -1.2
v 0.2 3.1 -1.2
v 0.2 3.1 -1.3
v 0.2 3.2 -1.2
v 0.2 3.2 -1.3
v 0.3 3 -1.1
v 0.3 3 -1.3
v 0.3 3.1 -1.1
v 0.3 3.1 -1.3
v 0.8 1.2 1.1
v 0.8 1.2 1
v 0.8 1.6 1.1
v 0.8 1.6 1
v 1.1 3 -1
v 1.1 3 -1.3
v 1.1 3.1 -1
v 1.1 3.1 -1.3
v 1.1 3.2 -1
v 1.1 3.2 -1.3
v 1.2 0 1.2
v 1.2 0 1.1
v 1.2 0 -1.2
v 1.2 0 -1.3
v 1.2 0.1 1.2
v 1.2 0.1 1.1
v 1.2 0.2 -1.2
v 1.2 0.3 -1.2
v 1.2 1 1.1
v 1.2 1 -1.2
v 1.2 1.2 1.1
v 1.2 1.2 -1.2
v 1.2 2.2 1.1
v 1.2 2.4 1.1
v 1.2 2.5 -1.2
v 1.2 2.9 -1.2
v 1.2 3 1.2
v 1.2 3 1.1
v 1.2 3 -1.2
v 1.2 3 -1.3
v 1.3 0 1.1
v 1.3 0 0.3
v 1.3 0 -1.2
v 1.3 0.1 1.1
v 1.3 0.1 0.3
v 1.3 0.1 -0.7
v 1.3 0.1 -1.1
v 1.3 0.2 -0.4
v 1.3 0.2 -0.7
v 1.3 0.2 -1.1
v 1.3 0.2 -1.2
v 1.3 0.3 -0.4
v 1.3 0.3 -1.2
v 1.3 0.6 0.6
v 1.3 0.6 0.5
v 1.3 0.6 -0.5
v 1.3 0.6 -1
v 1.3 0.7 0.8
v 1.3 0.7 0.7
v 1.3 0.7 0.6
v 1.3 0.7 0.5
v 1.3 0.7 -0.5
v 1.3 0.7 -1
v 1.3 0.7 -1.1
v 1.3 0.8 0.9
v 1.3 0.8 0.8
v 1.3 0.8 0.7
v 1.3 0.9 0.8
v 1.3 0.9 0.4
v 1.3 1 1.1
v 1.3 1 0.9
v 1.3 1 0.4
v 1.3 1 0.2
v 1.3 1 -1
v 1.3 1 -1.1
v 1.3 1 -1.2
v 1.3 1.2 1.1
v 1.3 1.2 0.2
v 1.3 1.2 -1.1
v 1.3 1.2 -1.2
v 1.3 1.7 -0.5
v 1.3 1.7 -0.6
v 1.3 1.8 -0.4
v 1.3 1.8 -0.5
v 1.3 1.8 -0.6
v 1.3 1.9 -0.3
v 1.3 1.9 -0.4
v 1.3 1.9 -0.5
v 1.3 2 0.5
v 1.3 2 -0.3
v 1.3 2 -0.4
v 1.3 2.1 0.8
v 1.3 2.1 0.5
v 1.3 2.1 -0.3
v 1.3 2.2 1.1
v 1.3 2.2 0.8
v 1.3 2.3 0.8
v 1.3 2.3 0.5
v 1.3 2.4 1.1
v 1.3 2.4 0.8
v 1.3 2.5 -0.3
v 1.3 2.5 -1.2
v 1.3 2.6 -0.3
v 1.3 2.6 -0.6
v 1.3 2.7 -0.6
v 1.3 2.7 -1
v 1.3 2.8 -1
v 1.3 2.8 -1.1
v 1.3 2.9 -1.1
v 1.3 2.9 -1.2
v 1.3 3 1.1
v 1.3 3 -1.2
v -1.1 0 1.2
v -1.1 2.8 1.2
v -1.1 3 1.2
v -1 0 1.2
v -1 2.7 1.2
v -1 2.8 1.2
v -1 3 1.2
v -0.4 2.9 1.2
v -0.4 3 1.2
v -0.3 2.8 1.2
v -0.3 2.9 1.2
v -0.3 3 1.2
v 0.3 2.7 1.2
v 0.3 2.8 1.2
v 0.4 2.7 1.2
v 0.4 2.9 1.2
v 0.5 2.7 1.2
v 0.5 2.8 1.2
v 0.7 2.7 1.2
v 0.7 2.8 1.2
v 1.1 0 1.2
v 1.1 0.1 1.2
v 1.1 2.7 1.2
v 1.2 0 1.2
v 1.2 0.1 1.2
v 1.2 3 1.2
v -1.2 0 1.1
v -1.2 2.9 1.1
v -1.2 3 1.1
v -1.1 0 1.1
v -1.1 2.8 1.1
v -1.1 2.9 1.1
v -1.1 3 1.1
v -1 0 1.1
v -1 2.7 1.1
v -0.9 0 1.1
v -0.9 2.6 1.1
v 0.3 2.7 1.1
v 0.4 2.7 1.1
v 0.5 2.7 1.1
v 0.7 1.2 1.1
v 0.7 1.6 1.1
v 0.7 2.7 1.1
v 0.8 1.2 1.1
v 0.8 1.6 1.1
v 1 0 1.1
v 1 2.6 1.1
v 1.1 0 1.1
v 1.1 0.1 1.1
v 1.1 2.7 1.1
v 1.2 0 1.1
v 1.2 0.1 1.1
v 1.2 1 1.1
v 1.2 1.2 1.1
v 1.2 2.2 1.1
v 1.2 2.4 1.1
v 1.2 3 1.1
v 1.3 0 1.1
v 1.3 0.1 1.1
v 1.3 1 1.1
v 1.3 1.2 1.1
v 1.3 2.2 1.1
v 1.3 2.4 1.1
v 1.3 3 1.1
v -0.9 0 1
v -0.9 2.6 1
v 0.7 1.2 1
v 0.7 1.6 1
v 0.8 1.2 1
v 0.8 1.6 1
v 1 0 1
v 1 2.6 1
v -0.1 3.7 -0.6
v -0.1 3.8 -0.6
v -0.1 3.9 -0.6
v 0.0999999 3.7 -0.6
v 0.0999999 3.8 -0.6
v 0.0999999 3.9 -0.6
v -0.6 2.4 -0.7
v -0.6 2.9 -0.7
v -0.1 3.9 -0.7
v -0.1 4 -0.7
v 0.0999999 3.9 -0.7
v 0.0999999 4 -0.7
v 0.7 2.4 -0.7
v 0.7 2.9 -0.7
v -0.7 2.9 -0.8
v -0.7 3 -0.8
v 0.8 2.9 -0.8
v 0.8 3 -0.8
v 0.6 3 -1
v 0.6 3.1 -1
v 0.6 3.2 -1
v 1 3 -1
v 1.1 3 -1
v 1.1 3.1 -1
v 1.1 3.2 -1
v -0.3 3 -1.1
v -0.3 3.1 -1.1
v -0.1 3.1 -1.1
v -0.1 3.8 -1.1
v 0.0999999 3.1 -1.1
v 0.0999999 3.8 -1.1
v 0.3 3 -1.1
v 0.3 3.1 -1.1
v -0.2 3.1 -1.2
v -0.2 3.2 -1.2
v -0.1 3.1 -1.2
v -0.1 3.2 -1.2
v 0.0999999 3.1 -1.2
v 0.0999999 3.2 -1.2
v 0.2 3.1 -1.2
v 0.2 3.2 -1.2
v -0.7 2.9 0.7
v -0.7 3 0.7
v 0.8 2.9 0.7
v 0.8 3 0.7
v -0.6 2.4 0.6
v -0.6 2.9 0.6
v 0.7 2.4 0.6
v 0.7 2.9 0.6
v -0.1 3.7 -0.7
v -0.1 3.8 -0.7
v 0.0999999 3.7 -0.7
v 0.0999999 3.8 -0.7
v -1.2 0 -1.2
v -1.2 2.6 -1.2
v -1.2 2.7 -1.2
v -1.2 3 -1.2
v -1.1 0 -1.2
v -1.1 2.6 -1.2
v -1.1 2.7 -1.2
v -1.1 3 -1.2
v -0.1 3.9 -1.2
v -0.1 4 -1.2
v 0.0999999 3.9 -1.2
v 0.0999999 4 -1.2
v 1.2 0 -1.2
v 1.2 0.2 -1.2
v 1.2 0.3 -1.2
v 1.2 1 -1.2
v 1.2 1.2 -1.2
v 1.2 2.5 -1.2
v 1.2 2.9 -1.2
v 1.2 3 -1.2
v 1.3 0 -1.2
v 1.3 0.2 -1.2
v 1.3 0.3 -1.2
v 1.3 1 -1.2
v 1.3 1.2 -1.2
v 1.3 2.5 -1.2
v 1.3 2.9 -1.2
v 1.3 3 -1.2
v -1.1 0 -1.3
v -1.1 3 -1.3
v -0.3 3 -1.3
v -0.3 3.1 -1.3
v -0.2 3.1 -1.3
v -0.2 3.2 -1.3
v -0.1 3.1 -1.3
v -0.1 3.2 -1.3
v -0.1 3.9 -1.3
v 0.0999999 3.1 -1.3
v 0.0999999 3.2 -1.3
v 0.0999999 3.9 -1.3
v 0.2 3.1 -1.3
v 0.2 3.2 -1.3
v 0.3 3 -1.3
v 0.3 3.1 -1.3
v 0.6 3 -1.3
v 0.6 3.1 -1.3
v 0.6 3.2 -1.3
v 1.1 3 -1.3
v 1.1 3.1 -1.3
v 1.1 3.2 -1.3
v 1.2 0 -1.3
v 1.2 3 -1.3
v -1.1 0 1.2
v -1 0 1.2
v 1.1 0 1.2
v 1.2 0 1.2
v -1.2 0 1.1
v -1.1 0 1.1
v -1 0 1.1
v -0.9 0 1.1
v 1 0 1.1
v 1.1 0 1.1
v 1.2 0 1.1
v 1.3 0 1.1
v -0.9 0 1
v 1 0 1
v -0.9 0 0.9
v 1 0 0.9
v 1.2 0 0.3
v 1.3 0 0.3
v -1.2 0 -1.2
v -1.1 0 -1.2
v 1.2 0 -1.2
v 1.3 0 -1.2
v -1.1 0 -1.3
v 1.2 0 -1.3
v 0.7 1.2 1.1
v 0.8 1.2 1.1
v 0.7 1.2 1
v 0.8 1.2 1
v -0.9 2.6 1.1
v 1 2.6 1.1
v -0.9 2.6 1
v 1 2.6 1
v -1 2.7 1.2
v 0.3 2.7 1.2
v 0.4 2.7 1.2
v 0.5 2.7 1.2
v 0.7 2.7 1.2
v 1.1 2.7 1.2
v -1 2.7 1.1
v 0.3 2.7 1.1
v 0.4 2.7 1.1
v 0.5 2.7 1.1
v 0.7 2.7 1.1
v 1.1 2.7 1.1
v -0.1 3.7 -0.6
v 0.0999999 3.7 -0.6
v -0.1 3.7 -0.7
v 0.0999999 3.7 -0.7
v -0.1 3.8 -0.7
v 0.0999999 3.8 -0.7
v -0.1 3.8 -1.1
v 0.0999999 3.8 -1.1
v 0.7 1.6 1.1
v 0.8 1.6 1.1
v 0.7 1.6 1
v 0.8 1.6 1
v -0.6 2.4 0.6
v 0.7 2.4 0.6
v -0.6 2.4 -0.7
v 0.7 2.4 -0.7
v -0.7 2.9 0.7
v 0.8 2.9 0.7
v -0.6 2.9 0.6
v 0.7 2.9 0.6
v -0.6 2.9 -0.7
v 0.7 2.9 -0.7
v -0.7 2.9 -0.8
v 0.8 2.9 -0.8
v -1.1 3 1.2
v -1 3 1.2
v -0.4 3 1.2
v -0.3 3 1.2
v 1.2 3 1.2
v -1.2 3 1.1
v -1.1 3 1.1
v -1 3 1.1
v -0.4 3 1.1
v -0.3 3 1.1
v 1.2 3 1.1
v 1.3 3 1.1
v -1.2 3 1
v -1.1 3 1
v -0.9 3 0.9
v 1 3 0.9
v -0.7 3 0.7
v 0.8 3 0.7
v -0.7 3 -0.8
v 0.8 3 -0.8
v -0.9 3 -1
v 0.6 3 -1
v 1 3 -1
v 1.1 3 -1
v -0.3 3 -1.1
v 0.3 3 -1.1
v 0.6 3 -1.1
v -1.2 3 -1.2
v -1.1 3 -1.2
v 0.6 3 -1.2
v 1.2 3 -1.2
v 1.3 3 -1.2
v -1.1 3 -1.3
v -0.3 3 -1.3
v 0.3 3 -1.3
v 0.6 3 -1.3
v 1.1 3 -1.3
v 1.2 3 -1.3
v -0.3 3.1 -1.1
v -0.1 3.1 -1.1
v 0.0999999 3.1 -1.1
v 0.3 3.1 -1.1
v -0.2 3.1 -1.2
v -0.1 3.1 -1.2
v 0.0999999 3.1 -1.2
v 0.2 3.1 -1.2
v -0.3 3.1 -1.3
v -0.2 3.1 -1.3
v 0.2 3.1 -1.3
v 0.3 3.1 -1.3
v 0.6 3.2 -1
v 1.1 3.2 -1
v -0.2 3.2 -1.2
v -0.1 3.2 -1.2
v 0.0999999 3.2 -1.2
v 0.2 3.2 -1.2
v -0.2 3.2 -1.3
v -0.1 3.2 -1.3
v 0.0999999 3.2 -1.3
v 0.2 3.2 -1.3
v 0.6 3.2 -1.3
v 1.1 3.2 -1.3
v -0.1 3.9 -0.6
v 0.0999999 3.9 -0.6
v -0.1 3.9 -0.7
v 0.0999999 3.9 -0.7
v -0.1 3.9 -1.2
v 0.0999999 3.9 -1.2
v -0.1 3.9 -1.3
v 0.0999999 3.9 -1.3
v -0.1 4 -0.7
v 0.0999999 4 -0.7
v -0.1 4 -1.2
v 0.0999999 4 -1.2

# faces
f 3/5/1 2/5/1 1/5/1
f 4/5/1 2/5/1 3/5/1
f 5/5/1 3/5/1 1/5/1
f 5/3/1 4/3/1 3/3/1
f 6/5/1 2/5/1 4/5/1
f 6/3/1 4/3/1 5/3/1
f 7/5/1 2/5/1 6/5/1
f 8/5/1 6/5/1 5/5/1
f 8/3/1 7/3/1 6/3/1
f 9/5/1 2/5/1 7/5/1
f 9/3/1 7/3/1 8/3/1
f 10/5/1 2/5/1 9/5/1
f 11/5/1 9/5/1 8/5/1
f 11/3/1 10/3/1 9/3/1
f 12/5/1 2/5/1 10/5/1
f 12/3/1 10/3/1 11/3/1
f 13/5/1 8/5/1 5/5/1
f 13/5/1 11/5/1 8/5/1
f 13/5/1 12/5/1 11/5/1
f 14/5/1 12/5/1 13/5/1
f 15/5/1 13/5/1 5/5/1
f 16/3/1 14/3/1 13/3/1
f 16/5/1 13/5/1 15/5/1
f 17/3/1 14/3/1 16/3/1
f 18/5/1 12/5/1 14/5/1
f 18/3/1 14/3/1 17/3/1
f 19/5/1 5/5/1 1/5/1
f 19/5/1 15/5/1 5/5/1
f 20/3/1 17/3/1 16/3/1
f 20/5/1 15/5/1 19/5/1
f 20/3/1 16/3/1 15/3/1
f 21/3/1 17/3/1 20/3/1
f 22/5/1 18/5/1 17/5/1
f 22/3/1 17/3/1 21/3/1
f 23/5/1 19/5/1 1/5/1
f 24/3/1 21/3/1 20/3/1
f 24/5/1 19/5/1 23/5/1
f 24/3/1 20/3/1 19/3/1
f 25/5/1 22/5/1 21/5/1
f 25/3/1 21/3/1 24/3/1
f 26/5/1 23/5/1 1/5/1
f 26/3/1 24/3/1 23/3/1
f 27/5/1 25/5/1 24/5/1
f 27/3/1 24/3/1 26/3/1
f 28/5/1 26/5/1 1/5/1
f 28/5/1 27/5/1 26/5/1
f 29/5/1 27/5/1 28/5/1
f 30/5/1 28/5/1 1/5/1
f 30/3/1 29/3/1 28/3/1
f 31/5/1 27/5/1 29/5/1
f 31/3/1 29/3/1 30/3/1
f 32/5/1 27/5/1 31/5/1
f 33/5/1 31/5/1 30/5/1
f 33/3/1 32/3/1 31/3/1
f 34/5/1 27/5/1 32/5/1
f 34/3/1 32/3/1 33/3/1
f 35/5/1 27/5/1 34/5/1
f 36/5/1 12/5/1 18/5/1
f 36/5/1 27/5/1 35/5/1
f 36/5/1 18/5/1 22/5/1
f 36/5/1 22/5/1 25/5/1
f 36/5/1 25/5/1 27/5/1
f 37/5/1 12/5/1 36/5/1
f 38/3/1 35/3/1 34/3/1
f 38/5/1 34/5/1 33/5/1
f 39/5/1 36/5/1 35/5/1
f 39/3/1 35/3/1 38/3/1
f 40/5/1 36/5/1 39/5/1
f 41/5/1 36/5/1 40/5/1
f 42/3/1 37/3/1 36/3/1
f 42/5/1 36/5/1 41/5/1
f 43/5/1 12/5/1 37/5/1
f 43/3/1 37/3/1 42/3/1
f 44/5/1 2/5/1 12/5/1
f 44/5/1 12/5/1 43/5/1
f 45/5/1 41/5/1 40/5/1
f 45/3/1 40/3/1 39/3/1
f 46/5/1 41/5/1 45/5/1
f 47/3/1 42/3/1 41/3/1
f 47/5/1 41/5/1 46/5/1
f 47/3/1 43/3/1 42/3/1
f 47/3/1 44/3/1 43/3/1
f 48/3/1 44/3/1 47/3/1
f 49/3/1 46/3/1 45/3/1
f 49/3/1 45/3/1 39/3/1
f 49/5/1 39/5/1 38/5/1
f 50/5/1 48/5/1 47/5/1
f 50/3/1 46/3/1 49/3/1
f 50/5/1 47/5/1 46/5/1
f 51/3/1 44/3/1 48/3/1
f 51/5/1 48/5/1 50/5/1
f 52/5/1 2/5/1 44/5/1
f 52/3/1 44/3/1 51/3/1
f 53/5/1 2/5/1 52/5/1
f 54/5/1 50/5/1 49/5/1
f 54/5/1 51/5/1 50/5/1
f 54/3/1 53/3/1 52/3/1
f 54/5/1 52/5/1 51/5/1
f 55/3/1 53/3/1 54/3/1
f 56/5/1 49/5/1 38/5/1
f 56/5/1 38/5/1 33/5/1
f 56/5/1 55/5/1 54/5/1
f 56/5/1 54/5/1 49/5/1
f 56/5/1 30/5/1 1/5/1
f 56/5/1 33/5/1 30/5/1
f 57/5/1 55/5/1 56/5/1
f 58/3/1 57/3/1 56/3/1
f 59/5/1 55/5/1 57/5/1
f 59/3/1 57/3/1 58/3/1
f 60/5/1 55/5/1 59/5/1
f 65/5/1 64/5/1 63/5/1
f 66/5/1 64/5/1 65/5/1
f 67/5/1 62/5/1 61/5/1
f 68/5/1 62/5/1 67/5/1
f 69/3/1 68/3/1 67/3/1
f 70/3/1 69/3/1 67/3/1
f 71/3/1 69/3/1 70/3/1
f 72/5/1 64/5/1 66/5/1
f 73/5/1 64/5/1 72/5/1
f 76/7/1 75/7/1 74/7/1
f 77/7/1 75/7/1 76/7/1
f 80/2/1 79/2/1 78/2/1
f 81/2/1 79/2/1 80/2/1
f 84/6/1 83/6/1 82/6/1
f 88/7/1 87/7/1 86/7/1
f 89/7/1 87/7/1 88/7/1
f 90/6/1 84/6/1 82/6/1
f 90/6/1 85/6/1 84/6/1
f 91/6/1 89/6/1 88/6/1
f 91/6/1 90/6/1 89/6/1
f 92/6/1 90/6/1 91/6/1
f 93/6/1 85/6/1 90/6/1
f 93/6/1 90/6/1 92/6/1
f 94/6/1 85/6/1 93/6/1
f 95/6/1 93/6/1 92/6/1
f 96/6/1 93/6/1 95/6/1
f 101/9/1 98/9/1 97/9/1
f 102/8/1 99/8/1 98/8/1
f 102/9/1 98/9/1 101/9/1
f 103/9/1 100/9/1 99/9/1
f 103/8/1 99/8/1 102/8/1
f 104/9/1 100/9/1 103/9/1
f 105/8/1 102/8/1 101/8/1
f 105/8/1 103/8/1 102/8/1
f 105/8/1 104/8/1 103/8/1
f 106/8/1 104/8/1 105/8/1
f 109/4/1 108/4/1 107/4/1
f 110/4/1 108/4/1 109/4/1
f 113/3/1 112/3/1 111/3/1
f 114/3/1 112/3/1 113/3/1
f 117/3/1 116/3/1 115/3/1
f 118/3/1 116/3/1 117/3/1
f 121/5/1 120/5/1 119/5/1
f 122/5/1 120/5/1 121/5/1
f 125/3/1 124/3/1 123/3/1
f 126/3/1 124/3/1 125/3/1
f 127/5/1 126/5/1 125/5/1
f 128/5/1 126/5/1 127/5/1
f 129/5/2 130/5/2 131/5/2
f 131/5/2 130/5/2 132/5/2
f 133/5/2 134/5/2 135/5/2
f 135/5/2 134/5/2 136/5/2
f 137/3/2 138/3/2 139/3/2
f 139/3/2 138/3/2 140/3/2
f 141/3/2 142/3/2 143/3/2
f 143/3/2 142/3/2 144/3/2
f 145/6/2 146/6/2 147/6/2
f 149/7/2 150/7/2 151/7/2
f 151/7/2 150/7/2 152/7/2
f 145/6/2 147/6/2 153/6/2
f 147/6/2 148/6/2 153/6/2
f 151/6/2 152/6/2 154/6/2
f 152/6/2 153/6/2 154/6/2
f 154/6/2 153/6/2 155/6/2
f 153/6/2 148/6/2 156/6/2
f 155/6/2 153/6/2 156/6/2
f 156/6/2 148/6/2 157/6/2
f 155/6/2 156/6/2 158/6/2
f 158/6/2 156/6/2 159/6/2
f 160/1/2 161/1/2 162/1/2
f 162/1/2 161/1/2 163/1/2
f 164/7/2 165/7/2 166/7/2
f 166/7/2 165/7/2 167/7/2
f 168/4/2 169/4/2 170/4/2
f 170/4/2 169/4/2 171/4/2
f 172/9/2 173/9/2 174/9/2
f 174/9/2 173/9/2 175/9/2
f 174/8/2 175/8/2 176/8/2
f 176/8/2 175/8/2 177/8/2
f 178/3/2 179/3/2 182/3/2
f 182/3/2 179/3/2 183/3/2
f 180/5/2 181/5/2 184/5/2
f 184/5/2 181/5/2 185/5/2
f 182/5/2 183/5/2 186/5/2
f 185/5/2 181/5/2 187/5/2
f 182/5/2 186/5/2 188/5/2
f 187/5/2 181/5/2 189/5/2
f 182/5/2 188/5/2 190/5/2
f 182/5/2 190/5/2 191/5/2
f 189/5/2 181/5/2 192/5/2
f 192/5/2 181/5/2 193/5/2
f 182/5/2 191/5/2 194/5/2
f 194/5/2 191/5/2 195/5/2
f 193/5/2 181/5/2 196/5/2
f 196/5/2 181/5/2 197/5/2
f 198/3/2 199/3/2 201/3/2
f 199/5/2 200/5/2 202/5/2
f 201/3/2 199/3/2 202/3/2
f 202/5/2 200/5/2 203/5/2
f 203/5/2 200/5/2 204/5/2
f 201/5/2 202/5/2 205/5/2
f 202/5/2 203/5/2 205/5/2
f 203/3/2 204/3/2 206/3/2
f 205/5/2 203/5/2 206/5/2
f 204/5/2 200/5/2 207/5/2
f 206/3/2 204/3/2 207/3/2
f 207/5/2 200/5/2 208/5/2
f 205/3/2 206/3/2 209/3/2
f 201/5/2 205/5/2 209/5/2
f 207/3/2 208/3/2 209/3/2
f 206/3/2 207/3/2 209/3/2
f 209/3/2 208/3/2 210/3/2
f 201/5/2 209/5/2 211/5/2
f 209/5/2 210/5/2 211/5/2
f 211/5/2 210/5/2 212/5/2
f 212/5/2 210/5/2 213/5/2
f 213/5/2 210/5/2 214/5/2
f 201/5/2 211/5/2 215/5/2
f 215/5/2 211/5/2 216/5/2
f 211/3/2 212/3/2 217/3/2
f 216/5/2 211/5/2 217/5/2
f 212/5/2 213/5/2 218/5/2
f 217/3/2 212/3/2 218/3/2
f 213/3/2 214/3/2 219/3/2
f 218/5/2 213/5/2 219/5/2
f 214/5/2 210/5/2 220/5/2
f 219/3/2 214/3/2 220/3/2
f 220/5/2 210/5/2 221/5/2
f 201/5/2 215/5/2 222/5/2
f 215/3/2 216/3/2 223/3/2
f 222/5/2 215/5/2 223/5/2
f 218/5/2 219/5/2 224/5/2
f 223/3/2 216/3/2 224/3/2
f 216/5/2 217/5/2 224/5/2
f 217/5/2 218/5/2 224/5/2
f 219/5/2 220/5/2 224/5/2
f 222/3/2 223/3/2 225/3/2
f 223/5/2 224/5/2 225/5/2
f 224/5/2 220/5/2 226/5/2
f 225/5/2 224/5/2 226/5/2
f 201/5/2 222/5/2 227/5/2
f 222/3/2 225/3/2 228/3/2
f 227/5/2 222/5/2 228/5/2
f 225/3/2 226/3/2 228/3/2
f 226/5/2 220/5/2 229/5/2
f 228/3/2 226/3/2 229/3/2
f 229/5/2 220/5/2 230/5/2
f 220/3/2 221/3/2 231/3/2
f 230/5/2 220/5/2 231/5/2
f 221/5/2 210/5/2 232/5/2
f 231/3/2 221/3/2 232/3/2
f 232/5/2 210/5/2 233/5/2
f 227/3/2 228/3/2 234/3/2
f 229/3/2 230/3/2 234/3/2
f 228/3/2 229/3/2 234/3/2
f 230/5/2 231/5/2 235/5/2
f 234/3/2 230/3/2 235/3/2
f 231/5/2 232/5/2 235/5/2
f 232/3/2 233/3/2 236/3/2
f 235/5/2 232/5/2 236/5/2
f 236/3/2 233/3/2 237/3/2
f 234/5/2 235/5/2 238/5/2
f 235/5/2 236/5/2 238/5/2
f 236/5/2 237/5/2 238/5/2
f 238/5/2 237/5/2 239/5/2
f 234/5/2 238/5/2 240/5/2
f 238/3/2 239/3/2 241/3/2
f 240/5/2 238/5/2 241/5/2
f 239/5/2 237/5/2 242/5/2
f 241/3/2 239/3/2 242/3/2
f 234/5/2 240/5/2 243/5/2
f 240/3/2 241/3/2 244/3/2
f 243/5/2 240/5/2 244/5/2
f 241/5/2 242/5/2 245/5/2
f 244/3/2 241/3/2 245/3/2
f 234/5/2 243/5/2 246/5/2
f 243/3/2 244/3/2 247/3/2
f 246/5/2 243/5/2 247/5/2
f 244/5/2 245/5/2 248/5/2
f 247/3/2 244/3/2 248/3/2
f 234/5/2 246/5/2 249/5/2
f 246/3/2 247/3/2 250/3/2
f 249/5/2 246/5/2 250/5/2
f 247/5/2 248/5/2 251/5/2
f 250/3/2 247/3/2 251/3/2
f 234/5/2 249/5/2 252/5/2
f 249/3/2 250/3/2 253/3/2
f 252/5/2 249/5/2 253/5/2
f 252/3/2 253/3/2 254/3/2
f 253/3/2 250/3/2 254/3/2
f 250/5/2 251/5/2 255/5/2
f 254/3/2 250/3/2 255/3/2
f 252/3/2 254/3/2 256/3/2
f 254/5/2 255/5/2 257/5/2
f 256/3/2 254/3/2 257/3/2
f 251/5/2 248/5/2 258/5/2
f 257/5/2 255/5/2 258/5/2
f 256/5/2 257/5/2 258/5/2
f 255/5/2 251/5/2 258/5/2
f 245/5/2 242/5/2 259/5/2
f 258/5/2 248/5/2 259/5/2
f 242/5/2 237/5/2 259/5/2
f 248/5/2 245/5/2 259/5/2
f 256/5/2 258/5/2 260/5/2
f 258/3/2 259/3/2 260/3/2
f 260/3/2 259/3/2 261/3/2
f 260/5/2 261/5/2 262/5/2
f 261/3/2 259/3/2 262/3/2
f 262/3/2 259/3/2 263/3/2
f 262/5/2 263/5/2 264/5/2
f 263/3/2 259/3/2 264/3/2
f 264/3/2 259/3/2 265/3/2
f 264/5/2 265/5/2 266/5/2
f 265/3/2 259/3/2 266/3/2
f 266/3/2 259/3/2 267/3/2
f 256/5/2 260/5/2 268/5/2
f 260/5/2 262/5/2 268/5/2
f 266/5/2 267/5/2 268/5/2
f 264/5/2 266/5/2 268/5/2
f 262/5/2 264/5/2 268/5/2
f 268/5/2 267/5/2 269/5/2
f 273/5/3 271/5/3 270/5/3
f 274/5/3 271/5/3 273/5/3
f 275/3/3 272/3/3 271/3/3
f 275/5/3 271/5/3 274/5/3
f 276/3/3 272/3/3 275/3/3
f 277/5/3 275/5/3 274/5/3
f 277/5/3 276/5/3 275/5/3
f 278/5/3 276/5/3 277/5/3
f 279/5/3 277/5/3 274/5/3
f 280/3/3 278/3/3 277/3/3
f 280/5/3 277/5/3 279/5/3
f 281/3/3 278/3/3 280/3/3
f 282/5/3 279/5/3 274/5/3
f 283/3/3 280/3/3 279/3/3
f 283/5/3 279/5/3 282/5/3
f 284/3/3 283/3/3 282/3/3
f 285/5/3 281/5/3 280/5/3
f 285/3/3 283/3/3 284/3/3
f 285/3/3 280/3/3 283/3/3
f 286/5/3 285/5/3 284/5/3
f 287/5/3 285/5/3 286/5/3
f 288/3/3 287/3/3 286/3/3
f 289/5/3 285/5/3 287/5/3
f 289/3/3 287/3/3 288/3/3
f 292/5/3 289/5/3 288/5/3
f 293/3/3 291/3/3 290/3/3
f 294/5/3 292/5/3 291/5/3
f 294/3/3 291/3/3 293/3/3
f 295/5/3 281/5/3 285/5/3
f 295/5/3 292/5/3 294/5/3
f 295/5/3 285/5/3 289/5/3
f 295/5/3 289/5/3 292/5/3
f 299/5/3 297/5/3 296/5/3
f 300/5/3 297/5/3 299/5/3
f 301/3/3 298/3/3 297/3/3
f 301/5/3 297/5/3 300/5/3
f 302/3/3 298/3/3 301/3/3
f 305/5/3 304/5/3 303/5/3
f 306/5/3 304/5/3 305/5/3
f 307/5/3 304/5/3 306/5/3
f 308/5/3 307/5/3 306/5/3
f 309/5/3 308/5/3 306/5/3
f 312/5/3 309/5/3 306/5/3
f 313/4/3 311/4/3 310/4/3
f 314/4/3 311/4/3 313/4/3
f 316/5/3 312/5/3 306/5/3
f 317/5/3 316/5/3 315/5/3
f 318/5/3 316/5/3 317/5/3
f 319/5/3 312/5/3 316/5/3
f 319/5/3 316/5/3 318/5/3
f 327/3/3 321/3/3 320/3/3
f 328/5/3 322/5/3 321/5/3
f 328/3/3 321/3/3 327/3/3
f 329/3/3 323/3/3 322/3/3
f 329/5/3 322/5/3 328/5/3
f 330/5/3 324/5/3 323/5/3
f 330/3/3 323/3/3 329/3/3
f 331/3/3 325/3/3 324/3/3
f 331/5/3 324/5/3 330/5/3
f 332/5/3 326/5/3 325/5/3
f 332/3/3 325/3/3 331/3/3
f 333/5/3 326/5/3 332/5/3
f 336/3/3 335/3/3 334/3/3
f 337/3/3 335/3/3 336/3/3
f 338/3/3 336/3/3 334/3/3
f 339/3/3 335/3/3 337/3/3
f 340/3/3 338/3/3 334/3/3
f 340/3/3 339/3/3 338/3/3
f 341/3/3 335/3/3 339/3/3
f 341/3/3 339/3/3 340/3/3
f 345/7/3 343/7/3 342/7/3
f 346/6/3 344/6/3 343/6/3
f 346/7/3 343/7/3 345/7/3
f 347/6/3 344/6/3 346/6/3
f 352/6/3 351/6/3 350/6/3
f 353/6/3 351/6/3 352/6/3
f 354/3/3 349/3/3 348/3/3
f 355/3/3 349/3/3 354/3/3
f 358/3/3 357/3/3 356/3/3
f 359/3/3 357/3/3 358/3/3
f 363/9/3 361/9/3 360/9/3
f 364/9/3 361/9/3 363/9/3
f 365/8/3 362/8/3 361/8/3
f 365/9/3 361/9/3 364/9/3
f 366/8/3 362/8/3 365/8/3
f 369/7/3 368/7/3 367/7/3
f 371/7/3 369/7/3 367/7/3
f 371/6/3 370/6/3 369/6/3
f 372/6/3 370/6/3 371/6/3
f 373/7/3 371/7/3 367/7/3
f 374/7/3 371/7/3 373/7/3
f 377/2/3 376/2/3 375/2/3
f 378/2/3 376/2/3 377/2/3
f 381/1/3 380/1/3 379/1/3
f 382/1/3 380/1/3 381/1/3
f 383/3/4 384/3/4 385/3/4
f 385/3/4 384/3/4 386/3/4
f 387/3/4 388/3/4 389/3/4
f 389/3/4 388/3/4 390/3/4
f 391/7/4 392/7/4 393/7/4
f 393/7/4 392/7/4 394/7/4
f 395/5/4 396/5/4 399/5/4
f 396/3/4 397/3/4 400/3/4
f 399/5/4 396/5/4 400/5/4
f 397/5/4 398/5/4 401/5/4
f 400/3/4 397/3/4 401/3/4
f 401/5/4 398/5/4 402/5/4
f 403/6/4 404/6/4 405/6/4
f 405/6/4 404/6/4 406/6/4
f 407/5/4 408/5/4 415/5/4
f 408/3/4 409/3/4 416/3/4
f 415/5/4 408/5/4 416/5/4
f 409/5/4 410/5/4 417/5/4
f 416/3/4 409/3/4 417/3/4
f 410/3/4 411/3/4 418/3/4
f 417/5/4 410/5/4 418/5/4
f 411/5/4 412/5/4 419/5/4
f 418/3/4 411/3/4 419/3/4
f 412/3/4 413/3/4 420/3/4
f 419/5/4 412/5/4 420/5/4
f 413/5/4 414/5/4 421/5/4
f 420/3/4 413/3/4 421/3/4
f 421/5/4 414/5/4 422/5/4
f 423/5/4 424/5/4 425/5/4
f 425/7/4 426/7/4 427/7/4
f 425/7/4 427/7/4 429/7/4
f 427/2/4 428/2/4 429/2/4
f 429/2/4 428/2/4 430/2/4
f 425/7/4 429/7/4 432/7/4
f 430/6/4 431/6/4 432/6/4
f 429/6/4 430/6/4 432/6/4
f 432/6/4 431/6/4 433/6/4
f 433/6/4 431/6/4 434/6/4
f 425/7/4 432/7/4 435/7/4
f 432/1/4 433/1/4 435/1/4
f 435/1/4 433/1/4 436/1/4
f 423/5/4 425/5/4 437/5/4
f 425/7/4 435/7/4 437/7/4
f 437/7/4 435/7/4 438/7/4
f 423/5/4 437/5/4 439/5/4
f 439/9/4 440/9/4 442/9/4
f 423/5/4 439/5/4 442/5/4
f 440/8/4 441/8/4 443/8/4
f 442/9/4 440/9/4 443/9/4
f 443/8/4 441/8/4 444/8/4
f 423/5/4 442/5/4 445/5/4
f 445/5/4 442/5/4 446/5/4
f 452/5/5 448/5/5 447/5/5
f 453/5/5 448/5/5 452/5/5
f 456/3/5 450/3/5 449/3/5
f 457/3/5 450/3/5 456/3/5
f 459/5/5 454/5/5 453/5/5
f 459/5/5 452/5/5 451/5/5
f 459/5/5 453/5/5 452/5/5
f 460/5/5 457/5/5 456/5/5
f 460/5/5 456/5/5 455/5/5
f 461/5/5 459/5/5 451/5/5
f 461/3/5 460/3/5 459/3/5
f 462/5/5 457/5/5 460/5/5
f 462/3/5 460/3/5 461/3/5
f 463/3/5 458/3/5 457/3/5
f 463/5/5 457/5/5 462/5/5
f 463/5/5 462/5/5 461/5/5
f 464/3/5 458/3/5 463/3/5
f 465/5/5 461/5/5 451/5/5
f 465/5/5 463/5/5 461/5/5
f 465/5/5 464/5/5 463/5/5
f 466/5/5 464/5/5 465/5/5
f 467/5/5 464/5/5 466/5/5
f 468/5/5 464/5/5 467/5/5
f 469/5/5 467/5/5 466/5/5
f 470/5/5 467/5/5 469/5/5
f 473/4/5 472/4/5 471/4/5
f 474/4/5 472/4/5 473/4/5
f 477/5/5 476/5/5 475/5/5
f 478/5/5 476/5/5 477/5/5
f 485/5/5 480/5/5 479/5/5
f 486/3/5 481/3/5 480/3/5
f 486/5/5 480/5/5 485/5/5
f 487/5/5 482/5/5 481/5/5
f 487/3/5 481/3/5 486/3/5
f 488/3/5 483/3/5 482/3/5
f 488/5/5 482/5/5 487/5/5
f 489/5/5 484/5/5 483/5/5
f 489/3/5 483/3/5 488/3/5
f 490/5/5 484/5/5 489/5/5
f 493/7/5 492/7/5 491/7/5
f 494/7/5 492/7/5 493/7/5
f 497/6/5 496/6/5 495/6/5
f 498/6/5 496/6/5 497/6/5
f 499/4/6 500/4/6 501/4/6
f 501/4/6 500/4/6 502/4/6
f 503/3/6 504/3/6 505/3/6
f 505/3/6 504/3/6 506/3/6
f 507/3/6 508/3/6 509/3/6
f 509/3/6 508/3/6 510/3/6
f 507/3/6 509/3/6 511/3/6
f 510/3/6 508/3/6 512/3/6
f 507/3/6 511/3/6 513/3/6
f 511/3/6 512/3/6 513/3/6
f 512/3/6 508/3/6 514/3/6
f 513/3/6 512/3/6 514/3/6
f 515/3/6 516/3/6 521/3/6
f 516/5/6 517/5/6 522/5/6
f 521/3/6 516/3/6 522/3/6
f 517/3/6 518/3/6 523/3/6
f 522/5/6 517/5/6 523/5/6
f 518/5/6 519/5/6 524/5/6
f 523/3/6 518/3/6 524/3/6
f 524/5/6 519/5/6 525/5/6
f 520/3/6 521/3/6 527/3/6
f 522/5/6 523/5/6 528/5/6
f 527/3/6 521/3/6 528/3/6
f 525/5/6 526/5/6 528/5/6
f 524/5/6 525/5/6 528/5/6
f 523/5/6 524/5/6 528/5/6
f 521/5/6 522/5/6 528/5/6
f 527/5/6 528/5/6 529/5/6
f 528/5/6 526/5/6 529/5/6
f 529/5/6 526/5/6 530/5/6
f 529/3/6 530/3/6 531/3/6
f 531/3/6 530/3/6 532/3/6
f 529/3/6 531/3/6 533/3/6
f 532/3/6 530/3/6 534/3/6
f 527/5/6 529/5/6 535/5/6
f 533/3/6 534/3/6 535/3/6
f 529/3/6 533/3/6 535/3/6
f 535/3/6 534/3/6 536/3/6
f 534/3/6 530/3/6 537/3/6
f 536/3/6 534/3/6 537/3/6
f 530/5/6 526/5/6 537/5/6
f 537/5/6 526/5/6 538/5/6
f 535/5/6 536/5/6 539/5/6
f 539/5/6 536/5/6 540/5/6
f 540/5/6 536/5/6 541/5/6
f 527/5/6 535/5/6 542/5/6
f 535/5/6 539/5/6 542/5/6
f 542/5/6 539/5/6 543/5/6
f 540/5/6 541/5/6 544/5/6
f 538/5/6 526/5/6 545/5/6
f 545/5/6 526/5/6 546/5/6
f 543/5/6 539/5/6 547/5/6
f 547/5/6 539/5/6 548/5/6
f 540/5/6 544/5/6 549/5/6
f 549/5/6 544/5/6 550/5/6
f 538/5/6 545/5/6 551/5/6
f 551/5/6 545/5/6 552/5/6
f 553/7/6 554/7/6 557/7/6
f 557/7/6 554/7/6 558/7/6
f 555/7/6 556/7/6 559/7/6
f 559/7/6 556/7/6 560/7/6
f 553/7/6 557/7/6 561/7/6
f 561/7/6 557/7/6 562/7/6
f 560/7/6 556/7/6 563/7/6
f 563/7/6 556/7/6 564/7/6
f 567/2/6 568/2/6 571/2/6
f 571/2/6 568/2/6 572/2/6
f 569/1/6 570/1/6 573/1/6
f 573/1/6 570/1/6 574/1/6
f 565/8/6 566/8/6 575/8/6
f 575/8/6 566/8/6 576/8/6
f 577/6/6 578/6/6 579/6/6
f 579/6/6 578/6/6 580/6/6
f 581/6/6 582/6/6 583/6/6
f 583/6/6 582/6/6 584/6/6
f 585/6/6 586/6/6 587/6/6
f 587/6/6 586/6/6 588/6/6
