# MagicaVoxel @ Ephtracy

# group
o 

# material
mtllib Sofa.mtl
usemtl palette

# normals
vn -1 0 0
vn 1 0 0
vn 0 0 1
vn 0 0 -1
vn 0 -1 0
vn 0 1 0

# texcoords
vt 0.0996094 0.5
vt 0.103516 0.5
vt 0.146484 0.5
vt 0.150391 0.5

# verts
v -1.9 0.1 0.7
v -1.9 0.1 0.6
v -1.9 0.1 -0.5
v -1.9 0.1 -0.6
v -1.9 0.1 -0.9
v -1.9 0.3 0.7
v -1.9 0.3 0.6
v -1.9 0.3 -0.5
v -1.9 0.3 -0.6
v -1.9 0.5 0.7
v -1.9 0.5 -0.7
v -1.9 1.6 -0.7
v -1.9 1.6 -0.9
v -1.8 0.1 0.8
v -1.8 0.1 0.7
v -1.8 0.1 -0.4
v -1.8 0.1 -0.5
v -1.8 0.1 -0.9
v -1.8 0.1 -1
v -1.8 0.3 0.8
v -1.8 0.3 0.7
v -1.8 0.3 -0.4
v -1.8 0.3 -0.5
v -1.8 0.4 0.8
v -1.8 0.4 0.7
v -1.8 0.5 0.8
v -1.8 0.5 0.7
v -1.8 0.5 -0.7
v -1.8 0.6 0.7
v -1.8 0.6 0.6
v -1.8 0.6 -0.6
v -1.8 0.7 0.6
v -1.8 0.7 0.5
v -1.8 0.8 0.5
v -1.8 0.8 0.3
v -1.8 0.9 0.3
v -1.8 0.9 0.1
v -1.8 1 0.1
v -1.8 1 -0.6
v -1.8 1.5 -0.6
v -1.8 1.5 -0.7
v -1.8 1.6 -0.6
v -1.8 1.6 -0.7
v -1.8 1.6 -0.9
v -1.8 1.6 -1
v -1.7 1 -0.5
v -1.7 1 -0.6
v -1.7 1.5 -0.5
v -1.7 1.5 -0.6
v -0.9 0.6 0.6
v -0.9 0.6 -0.6
v -0.9 0.7 0.6
v -0.9 0.7 -0.5
v -0.9 1.5 -0.5
v -0.9 1.5 -0.6
v 1 0.6 0.6
v 1 0.6 -0.6
v 1 0.7 0.6
v 1 0.7 -0.5
v 1 1.5 -0.5
v 1 1.5 -0.6
v 1.7 0.1 0.8
v 1.7 0.1 0.6
v 1.7 0.1 -0.4
v 1.7 0.1 -0.6
v 1.7 0.3 0.8
v 1.7 0.3 0.6
v 1.7 0.3 -0.4
v 1.7 0.3 -0.6
v 1.7 0.7 0.5
v 1.7 0.7 -0.5
v 1.7 0.8 0.5
v 1.7 0.8 0.3
v 1.7 0.9 0.3
v 1.7 0.9 0.1
v 1.7 1 0.1
v 1.7 1 -0.5
v -1.7 0.1 0.8
v -1.7 0.1 0.6
v -1.7 0.1 -0.4
v -1.7 0.1 -0.6
v -1.7 0.3 0.8
v -1.7 0.3 0.6
v -1.7 0.3 -0.4
v -1.7 0.3 -0.6
v -1.7 0.7 0.5
v -1.7 0.7 -0.5
v -1.7 0.8 0.5
v -1.7 0.8 0.3
v -1.7 0.9 0.3
v -1.7 0.9 0.1
v -1.7 1 0.1
v -1.7 1 -0.5
v -1 0.6 0.6
v -1 0.6 -0.6
v -1 0.7 0.6
v -1 0.7 -0.5
v -1 1.5 -0.5
v -1 1.5 -0.6
v 0.9 0.6 0.6
v 0.9 0.6 -0.6
v 0.9 0.7 0.6
v 0.9 0.7 -0.5
v 0.9 1.5 -0.5
v 0.9 1.5 -0.6
v 1.7 1 -0.5
v 1.7 1 -0.6
v 1.7 1.5 -0.5
v 1.7 1.5 -0.6
v 1.8 0.1 0.8
v 1.8 0.1 0.7
v 1.8 0.1 -0.4
v 1.8 0.1 -0.5
v 1.8 0.1 -0.9
v 1.8 0.1 -1
v 1.8 0.3 0.8
v 1.8 0.3 0.7
v 1.8 0.3 -0.4
v 1.8 0.3 -0.5
v 1.8 0.4 0.8
v 1.8 0.4 0.7
v 1.8 0.5 0.8
v 1.8 0.5 0.7
v 1.8 0.5 -0.7
v 1.8 0.6 0.7
v 1.8 0.6 0.6
v 1.8 0.6 -0.6
v 1.8 0.7 0.6
v 1.8 0.7 0.5
v 1.8 0.8 0.5
v 1.8 0.8 0.3
v 1.8 0.9 0.3
v 1.8 0.9 0.1
v 1.8 1 0.1
v 1.8 1 -0.6
v 1.8 1.5 -0.6
v 1.8 1.5 -0.7
v 1.8 1.6 -0.6
v 1.8 1.6 -0.7
v 1.8 1.6 -0.9
v 1.8 1.6 -1
v 1.9 0.1 0.7
v 1.9 0.1 0.6
v 1.9 0.1 -0.5
v 1.9 0.1 -0.6
v 1.9 0.1 -0.9
v 1.9 0.3 0.7
v 1.9 0.3 0.6
v 1.9 0.3 -0.5
v 1.9 0.3 -0.6
v 1.9 0.4 0.7
v 1.9 0.4 -0.8
v 1.9 0.5 0.7
v 1.9 0.5 -0.7
v 1.9 1.6 -0.7
v 1.9 1.6 -0.8
v 1.9 1.6 -0.9
v -1.8 0.1 0.8
v -1.8 0.3 0.8
v -1.8 0.4 0.8
v -1.8 0.5 0.8
v -1.7 0.1 0.8
v -1.7 0.3 0.8
v 1.7 0.1 0.8
v 1.7 0.3 0.8
v 1.8 0.1 0.8
v 1.8 0.3 0.8
v 1.8 0.4 0.8
v 1.8 0.5 0.8
v -1.9 0.1 0.7
v -1.9 0.3 0.7
v -1.9 0.5 0.7
v -1.8 0.1 0.7
v -1.8 0.3 0.7
v -1.8 0.4 0.7
v -1.8 0.5 0.7
v -1.8 0.6 0.7
v -1.7 0.5 0.7
v -1.7 0.6 0.7
v 1.7 0.5 0.7
v 1.7 0.6 0.7
v 1.8 0.1 0.7
v 1.8 0.3 0.7
v 1.8 0.4 0.7
v 1.8 0.5 0.7
v 1.8 0.6 0.7
v 1.9 0.1 0.7
v 1.9 0.3 0.7
v 1.9 0.4 0.7
v 1.9 0.5 0.7
v -1.8 0.6 0.6
v -1.8 0.7 0.6
v -1.7 0.6 0.6
v -1.7 0.7 0.6
v -1 0.6 0.6
v -1 0.7 0.6
v -0.9 0.6 0.6
v -0.9 0.7 0.6
v 0.9 0.6 0.6
v 0.9 0.7 0.6
v 1 0.6 0.6
v 1 0.7 0.6
v 1.7 0.6 0.6
v 1.7 0.7 0.6
v 1.8 0.6 0.6
v 1.8 0.7 0.6
v -1.8 0.7 0.5
v -1.8 0.8 0.5
v -1.7 0.7 0.5
v -1.7 0.8 0.5
v 1.7 0.7 0.5
v 1.7 0.8 0.5
v 1.8 0.7 0.5
v 1.8 0.8 0.5
v -1.8 0.8 0.3
v -1.8 0.9 0.3
v -1.7 0.8 0.3
v -1.7 0.9 0.3
v 1.7 0.8 0.3
v 1.7 0.9 0.3
v 1.8 0.8 0.3
v 1.8 0.9 0.3
v -1.8 0.9 0.1
v -1.8 1 0.1
v -1.7 0.9 0.1
v -1.7 1 0.1
v 1.7 0.9 0.1
v 1.7 1 0.1
v 1.8 0.9 0.1
v 1.8 1 0.1
v -1.8 0.1 -0.4
v -1.8 0.3 -0.4
v -1.7 0.1 -0.4
v -1.7 0.3 -0.4
v 1.7 0.1 -0.4
v 1.7 0.3 -0.4
v 1.8 0.1 -0.4
v 1.8 0.3 -0.4
v -1.9 0.1 -0.5
v -1.9 0.3 -0.5
v -1.8 0.1 -0.5
v -1.8 0.3 -0.5
v -1.7 0.7 -0.5
v -1.7 1 -0.5
v -1.7 1.5 -0.5
v -1.6 0.7 -0.5
v -1.6 1.4 -0.5
v -1.1 0.7 -0.5
v -1.1 1.4 -0.5
v -1 0.7 -0.5
v -1 1.5 -0.5
v -0.9 0.7 -0.5
v -0.9 1.5 -0.5
v -0.8 0.7 -0.5
v -0.8 1.4 -0.5
v 0.8 0.7 -0.5
v 0.8 1.4 -0.5
v 0.9 0.7 -0.5
v 0.9 1.5 -0.5
v 1 0.7 -0.5
v 1 1.5 -0.5
v 1.1 0.7 -0.5
v 1.1 1.4 -0.5
v 1.6 0.7 -0.5
v 1.6 1.4 -0.5
v 1.7 0.7 -0.5
v 1.7 1 -0.5
v 1.7 1.5 -0.5
v 1.8 0.1 -0.5
v 1.8 0.3 -0.5
v 1.9 0.1 -0.5
v 1.9 0.3 -0.5
v -1.8 1 -0.6
v -1.8 1.5 -0.6
v -1.8 1.6 -0.6
v -1.7 0.1 -0.6
v -1.7 0.3 -0.6
v -1.7 1 -0.6
v -1.7 1.5 -0.6
v -1 0.6 -0.6
v -1 1.5 -0.6
v -0.9 0.6 -0.6
v -0.9 1.5 -0.6
v 0.9 0.6 -0.6
v 0.9 1.5 -0.6
v 1 0.6 -0.6
v 1 1.5 -0.6
v 1.7 0.1 -0.6
v 1.7 0.3 -0.6
v 1.7 1 -0.6
v 1.7 1.5 -0.6
v 1.8 1 -0.6
v 1.8 1.5 -0.6
v 1.8 1.6 -0.6
v -1.9 0.5 -0.7
v -1.9 1.6 -0.7
v -1.8 0.5 -0.7
v -1.8 1.5 -0.7
v -1.8 1.6 -0.7
v 1.8 0.5 -0.7
v 1.8 1.5 -0.7
v 1.8 1.6 -0.7
v 1.9 0.5 -0.7
v 1.9 1.6 -0.7
v -1.9 0.1 0.6
v -1.9 0.3 0.6
v -1.7 0.1 0.6
v -1.7 0.3 0.6
v 1.7 0.1 0.6
v 1.7 0.3 0.6
v 1.9 0.1 0.6
v 1.9 0.3 0.6
v -1.9 0.1 -0.9
v -1.9 1.6 -0.9
v -1.8 0.1 -0.9
v -1.8 1.6 -0.9
v 1.8 0.1 -0.9
v 1.8 1.6 -0.9
v 1.9 0.1 -0.9
v 1.9 1.6 -0.9
v -1.8 0.1 -1
v -1.8 1.6 -1
v -1.6 0.1 -1
v -1.6 1.4 -1
v 1.6 0.1 -1
v 1.6 1.4 -1
v 1.8 0.1 -1
v 1.8 1.6 -1
v -1.8 0.1 0.8
v -1.7 0.1 0.8
v 1.7 0.1 0.8
v 1.8 0.1 0.8
v -1.9 0.1 0.7
v -1.8 0.1 0.7
v 1.8 0.1 0.7
v 1.9 0.1 0.7
v -1.9 0.1 0.6
v -1.7 0.1 0.6
v 1.7 0.1 0.6
v 1.9 0.1 0.6
v -1.8 0.1 -0.4
v -1.7 0.1 -0.4
v 1.7 0.1 -0.4
v 1.8 0.1 -0.4
v -1.9 0.1 -0.5
v -1.8 0.1 -0.5
v 1.8 0.1 -0.5
v 1.9 0.1 -0.5
v -1.9 0.1 -0.6
v -1.7 0.1 -0.6
v 1.7 0.1 -0.6
v 1.9 0.1 -0.6
v -1.9 0.1 -0.9
v -1.8 0.1 -0.9
v -1.6 0.1 -0.9
v 1.6 0.1 -0.9
v 1.8 0.1 -0.9
v 1.9 0.1 -0.9
v -1.8 0.1 -1
v -1.6 0.1 -1
v 1.6 0.1 -1
v 1.8 0.1 -1
v -1.7 0.3 0.8
v 1.7 0.3 0.8
v -1.9 0.3 0.6
v -1.7 0.3 0.6
v 1.7 0.3 0.6
v 1.9 0.3 0.6
v -1.8 0.3 -0.4
v -1.7 0.3 -0.4
v 1.7 0.3 -0.4
v 1.8 0.3 -0.4
v -1.9 0.3 -0.5
v -1.8 0.3 -0.5
v 1.8 0.3 -0.5
v 1.9 0.3 -0.5
v -1.7 0.3 -0.6
v 1.7 0.3 -0.6
v -1.8 0.5 0.8
v 1.8 0.5 0.8
v -1.9 0.5 0.7
v -1.8 0.5 0.7
v -1.7 0.5 0.7
v 1.7 0.5 0.7
v 1.8 0.5 0.7
v 1.9 0.5 0.7
v -1.9 0.5 -0.7
v -1.8 0.5 -0.7
v 1.8 0.5 -0.7
v 1.9 0.5 -0.7
v -1.8 0.6 0.7
v -1.7 0.6 0.7
v 1.7 0.6 0.7
v 1.8 0.6 0.7
v -1.8 0.6 0.6
v -1.7 0.6 0.6
v -1 0.6 0.6
v -0.9 0.6 0.6
v 0.9 0.6 0.6
v 1 0.6 0.6
v 1.7 0.6 0.6
v 1.8 0.6 0.6
v -1 0.6 -0.6
v -0.9 0.6 -0.6
v 0.9 0.6 -0.6
v 1 0.6 -0.6
v -1.8 0.7 0.6
v -1.7 0.7 0.6
v -1 0.7 0.6
v -0.9 0.7 0.6
v 0.9 0.7 0.6
v 1 0.7 0.6
v 1.7 0.7 0.6
v 1.8 0.7 0.6
v -1.8 0.7 0.5
v -1.7 0.7 0.5
v -1.6 0.7 0.5
v -1.1 0.7 0.5
v -0.8 0.7 0.5
v 0.8 0.7 0.5
v 1.1 0.7 0.5
v 1.6 0.7 0.5
v 1.7 0.7 0.5
v 1.8 0.7 0.5
v -1.7 0.7 -0.5
v -1.6 0.7 -0.5
v -1.1 0.7 -0.5
v -1 0.7 -0.5
v -0.9 0.7 -0.5
v -0.8 0.7 -0.5
v 0.8 0.7 -0.5
v 0.9 0.7 -0.5
v 1 0.7 -0.5
v 1.1 0.7 -0.5
v 1.6 0.7 -0.5
v 1.7 0.7 -0.5
v -1.8 0.8 0.5
v -1.7 0.8 0.5
v 1.7 0.8 0.5
v 1.8 0.8 0.5
v -1.8 0.8 0.3
v -1.7 0.8 0.3
v 1.7 0.8 0.3
v 1.8 0.8 0.3
v -1.8 0.9 0.3
v -1.7 0.9 0.3
v 1.7 0.9 0.3
v 1.8 0.9 0.3
v -1.8 0.9 0.1
v -1.7 0.9 0.1
v 1.7 0.9 0.1
v 1.8 0.9 0.1
v -1.8 1 0.1
v -1.7 1 0.1
v 1.7 1 0.1
v 1.8 1 0.1
v -1.7 1 -0.5
v 1.7 1 -0.5
v -1.8 1 -0.6
v -1.7 1 -0.6
v 1.7 1 -0.6
v 1.8 1 -0.6
v -1.7 1.5 -0.5
v -1 1.5 -0.5
v -0.9 1.5 -0.5
v 0.9 1.5 -0.5
v 1 1.5 -0.5
v 1.7 1.5 -0.5
v -1.7 1.5 -0.6
v -1 1.5 -0.6
v -0.9 1.5 -0.6
v 0.9 1.5 -0.6
v 1 1.5 -0.6
v 1.7 1.5 -0.6
v -1.8 1.6 -0.6
v 1.8 1.6 -0.6
v -1.9 1.6 -0.7
v -1.8 1.6 -0.7
v 1.8 1.6 -0.7
v 1.9 1.6 -0.7
v -1.8 1.6 -0.8
v 1.9 1.6 -0.8
v -1.9 1.6 -0.9
v -1.8 1.6 -0.9
v 1.8 1.6 -0.9
v 1.9 1.6 -0.9
v -1.8 1.6 -1
v 1.8 1.6 -1

# faces
f 6/4/1 2/4/1 1/4/1
f 7/4/1 2/4/1 6/4/1
f 8/4/1 4/4/1 3/4/1
f 9/2/1 5/2/1 4/2/1
f 9/4/1 4/4/1 8/4/1
f 10/2/1 8/2/1 7/2/1
f 10/2/1 7/2/1 6/2/1
f 10/2/1 9/2/1 8/2/1
f 11/2/1 5/2/1 9/2/1
f 11/2/1 9/2/1 10/2/1
f 12/2/1 5/2/1 11/2/1
f 13/2/1 5/2/1 12/2/1
f 20/4/1 15/4/1 14/4/1
f 21/4/1 15/4/1 20/4/1
f 22/4/1 17/4/1 16/4/1
f 23/4/1 17/4/1 22/4/1
f 24/2/1 21/2/1 20/2/1
f 25/2/1 21/2/1 24/2/1
f 26/3/1 25/3/1 24/3/1
f 27/3/1 25/3/1 26/3/1
f 29/3/1 28/3/1 27/3/1
f 30/3/1 28/3/1 29/3/1
f 31/3/1 28/3/1 30/3/1
f 32/4/1 31/4/1 30/4/1
f 33/4/1 31/4/1 32/4/1
f 34/4/1 31/4/1 33/4/1
f 35/4/1 31/4/1 34/4/1
f 36/4/1 31/4/1 35/4/1
f 37/4/1 31/4/1 36/4/1
f 38/4/1 31/4/1 37/4/1
f 39/3/1 28/3/1 31/3/1
f 39/4/1 31/4/1 38/4/1
f 40/3/1 28/3/1 39/3/1
f 41/3/1 28/3/1 40/3/1
f 42/2/1 41/2/1 40/2/1
f 43/2/1 41/2/1 42/2/1
f 44/3/1 19/3/1 18/3/1
f 45/3/1 19/3/1 44/3/1
f 48/3/1 47/3/1 46/3/1
f 49/3/1 47/3/1 48/3/1
f 52/3/1 51/3/1 50/3/1
f 53/3/1 51/3/1 52/3/1
f 54/3/1 51/3/1 53/3/1
f 55/3/1 51/3/1 54/3/1
f 58/3/1 57/3/1 56/3/1
f 59/3/1 57/3/1 58/3/1
f 60/3/1 57/3/1 59/3/1
f 61/3/1 57/3/1 60/3/1
f 66/4/1 63/4/1 62/4/1
f 67/4/1 63/4/1 66/4/1
f 68/4/1 65/4/1 64/4/1
f 69/4/1 65/4/1 68/4/1
f 72/4/1 71/4/1 70/4/1
f 73/4/1 71/4/1 72/4/1
f 74/4/1 71/4/1 73/4/1
f 75/4/1 71/4/1 74/4/1
f 76/4/1 71/4/1 75/4/1
f 77/4/1 71/4/1 76/4/1
f 78/4/2 79/4/2 82/4/2
f 82/4/2 79/4/2 83/4/2
f 80/4/2 81/4/2 84/4/2
f 84/4/2 81/4/2 85/4/2
f 86/4/2 87/4/2 88/4/2
f 88/4/2 87/4/2 89/4/2
f 89/4/2 87/4/2 90/4/2
f 90/4/2 87/4/2 91/4/2
f 91/4/2 87/4/2 92/4/2
f 92/4/2 87/4/2 93/4/2
f 94/3/2 95/3/2 96/3/2
f 96/3/2 95/3/2 97/3/2
f 97/3/2 95/3/2 98/3/2
f 98/3/2 95/3/2 99/3/2
f 100/3/2 101/3/2 102/3/2
f 102/3/2 101/3/2 103/3/2
f 103/3/2 101/3/2 104/3/2
f 104/3/2 101/3/2 105/3/2
f 106/3/2 107/3/2 108/3/2
f 108/3/2 107/3/2 109/3/2
f 110/4/2 111/4/2 116/4/2
f 116/4/2 111/4/2 117/4/2
f 112/4/2 113/4/2 118/4/2
f 118/4/2 113/4/2 119/4/2
f 116/2/2 117/2/2 120/2/2
f 120/2/2 117/2/2 121/2/2
f 120/3/2 121/3/2 122/3/2
f 122/3/2 121/3/2 123/3/2
f 123/3/2 124/3/2 125/3/2
f 125/3/2 124/3/2 126/3/2
f 126/3/2 124/3/2 127/3/2
f 126/4/2 127/4/2 128/4/2
f 128/4/2 127/4/2 129/4/2
f 129/4/2 127/4/2 130/4/2
f 130/4/2 127/4/2 131/4/2
f 131/4/2 127/4/2 132/4/2
f 132/4/2 127/4/2 133/4/2
f 133/4/2 127/4/2 134/4/2
f 127/3/2 124/3/2 135/3/2
f 134/4/2 127/4/2 135/4/2
f 135/3/2 124/3/2 136/3/2
f 136/3/2 124/3/2 137/3/2
f 136/2/2 137/2/2 138/2/2
f 138/2/2 137/2/2 139/2/2
f 114/3/2 115/3/2 140/3/2
f 140/3/2 115/3/2 141/3/2
f 142/4/2 143/4/2 147/4/2
f 147/4/2 143/4/2 148/4/2
f 144/4/2 145/4/2 149/4/2
f 145/2/2 146/2/2 150/2/2
f 149/4/2 145/4/2 150/4/2
f 148/2/2 149/2/2 151/2/2
f 147/2/2 148/2/2 151/2/2
f 149/2/2 150/2/2 151/2/2
f 150/2/2 146/2/2 152/2/2
f 151/2/2 150/2/2 152/2/2
f 151/3/2 152/3/2 153/3/2
f 153/3/2 152/3/2 154/3/2
f 154/3/2 152/3/2 155/3/2
f 152/2/2 146/2/2 156/2/2
f 155/3/2 152/3/2 156/3/2
f 156/2/2 146/2/2 157/2/2
f 162/4/3 159/4/3 158/4/3
f 163/2/3 160/2/3 159/2/3
f 163/4/3 159/4/3 162/4/3
f 165/2/3 160/2/3 163/2/3
f 166/4/3 165/4/3 164/4/3
f 167/2/3 160/2/3 165/2/3
f 167/4/3 165/4/3 166/4/3
f 168/3/3 161/3/3 160/3/3
f 168/2/3 160/2/3 167/2/3
f 169/3/3 161/3/3 168/3/3
f 173/4/3 171/4/3 170/4/3
f 174/2/3 172/2/3 171/2/3
f 174/4/3 171/4/3 173/4/3
f 175/2/3 172/2/3 174/2/3
f 176/2/3 172/2/3 175/2/3
f 178/3/3 177/3/3 176/3/3
f 179/3/3 177/3/3 178/3/3
f 180/2/3 179/2/3 178/2/3
f 181/2/3 179/2/3 180/2/3
f 185/3/3 181/3/3 180/3/3
f 186/3/3 181/3/3 185/3/3
f 187/4/3 183/4/3 182/4/3
f 188/2/3 184/2/3 183/2/3
f 188/4/3 183/4/3 187/4/3
f 189/3/3 185/3/3 184/3/3
f 189/2/3 184/2/3 188/2/3
f 190/3/3 185/3/3 189/3/3
f 193/4/3 192/4/3 191/4/3
f 194/4/3 192/4/3 193/4/3
f 195/3/3 194/3/3 193/3/3
f 196/3/3 194/3/3 195/3/3
f 199/3/3 198/3/3 197/3/3
f 200/3/3 198/3/3 199/3/3
f 203/3/3 202/3/3 201/3/3
f 204/3/3 202/3/3 203/3/3
f 205/4/3 204/4/3 203/4/3
f 206/4/3 204/4/3 205/4/3
f 209/4/3 208/4/3 207/4/3
f 210/4/3 208/4/3 209/4/3
f 213/4/3 212/4/3 211/4/3
f 214/4/3 212/4/3 213/4/3
f 217/4/3 216/4/3 215/4/3
f 218/4/3 216/4/3 217/4/3
f 221/4/3 220/4/3 219/4/3
f 222/4/3 220/4/3 221/4/3
f 225/4/3 224/4/3 223/4/3
f 226/4/3 224/4/3 225/4/3
f 229/4/3 228/4/3 227/4/3
f 230/4/3 228/4/3 229/4/3
f 233/4/3 232/4/3 231/4/3
f 234/4/3 232/4/3 233/4/3
f 237/4/3 236/4/3 235/4/3
f 238/4/3 236/4/3 237/4/3
f 241/4/3 240/4/3 239/4/3
f 242/4/3 240/4/3 241/4/3
f 246/3/3 244/3/3 243/3/3
f 246/3/3 245/3/3 244/3/3
f 247/3/3 245/3/3 246/3/3
f 248/4/3 247/4/3 246/4/3
f 249/3/3 245/3/3 247/3/3
f 249/4/3 247/4/3 248/4/3
f 250/3/3 249/3/3 248/3/3
f 251/3/3 245/3/3 249/3/3
f 251/3/3 249/3/3 250/3/3
f 254/3/3 253/3/3 252/3/3
f 255/3/3 253/3/3 254/3/3
f 256/4/3 255/4/3 254/4/3
f 257/3/3 253/3/3 255/3/3
f 257/4/3 255/4/3 256/4/3
f 258/3/3 257/3/3 256/3/3
f 259/3/3 253/3/3 257/3/3
f 259/3/3 257/3/3 258/3/3
f 262/3/3 261/3/3 260/3/3
f 263/3/3 261/3/3 262/3/3
f 264/4/3 263/4/3 262/4/3
f 265/3/3 261/3/3 263/3/3
f 265/4/3 263/4/3 264/4/3
f 266/3/3 265/3/3 264/3/3
f 267/3/3 265/3/3 266/3/3
f 268/3/3 261/3/3 265/3/3
f 268/3/3 265/3/3 267/3/3
f 271/4/3 270/4/3 269/4/3
f 272/4/3 270/4/3 271/4/3
f 278/3/3 274/3/3 273/3/3
f 279/2/3 275/2/3 274/2/3
f 279/3/3 274/3/3 278/3/3
f 281/2/3 275/2/3 279/2/3
f 282/2/3 281/2/3 280/2/3
f 283/2/3 275/2/3 281/2/3
f 283/2/3 281/2/3 282/2/3
f 285/2/3 275/2/3 283/2/3
f 286/2/3 285/2/3 284/2/3
f 287/2/3 275/2/3 285/2/3
f 287/2/3 285/2/3 286/2/3
f 288/2/3 277/2/3 276/2/3
f 289/2/3 277/2/3 288/2/3
f 291/2/3 275/2/3 287/2/3
f 292/3/3 291/3/3 290/3/3
f 293/2/3 275/2/3 291/2/3
f 293/3/3 291/3/3 292/3/3
f 294/2/3 275/2/3 293/2/3
f 297/2/3 296/2/3 295/2/3
f 298/2/3 296/2/3 297/2/3
f 299/2/3 296/2/3 298/2/3
f 303/3/3 301/3/3 300/3/3
f 303/3/3 302/3/3 301/3/3
f 304/3/3 302/3/3 303/3/3
f 305/4/4 306/4/4 307/4/4
f 307/4/4 306/4/4 308/4/4
f 309/4/4 310/4/4 311/4/4
f 311/4/4 310/4/4 312/4/4
f 313/2/4 314/2/4 315/2/4
f 315/2/4 314/2/4 316/2/4
f 317/2/4 318/2/4 319/2/4
f 319/2/4 318/2/4 320/2/4
f 321/3/4 322/3/4 323/3/4
f 323/3/4 322/3/4 324/3/4
f 323/4/4 324/4/4 325/4/4
f 324/3/4 322/3/4 326/3/4
f 325/4/4 324/4/4 326/4/4
f 325/3/4 326/3/4 327/3/4
f 326/3/4 322/3/4 328/3/4
f 327/3/4 326/3/4 328/3/4
f 334/4/5 330/4/5 329/4/5
f 335/4/5 332/4/5 331/4/5
f 337/4/5 334/4/5 333/4/5
f 338/4/5 330/4/5 334/4/5
f 338/4/5 334/4/5 337/4/5
f 339/4/5 336/4/5 335/4/5
f 339/4/5 335/4/5 331/4/5
f 340/4/5 336/4/5 339/4/5
f 346/4/5 342/4/5 341/4/5
f 347/4/5 344/4/5 343/4/5
f 349/4/5 346/4/5 345/4/5
f 350/4/5 342/4/5 346/4/5
f 350/4/5 346/4/5 349/4/5
f 351/4/5 348/4/5 347/4/5
f 351/4/5 347/4/5 343/4/5
f 352/4/5 348/4/5 351/4/5
f 353/2/5 350/2/5 349/2/5
f 353/2/5 351/2/5 350/2/5
f 353/2/5 352/2/5 351/2/5
f 354/2/5 352/2/5 353/2/5
f 355/2/5 352/2/5 354/2/5
f 356/2/5 352/2/5 355/2/5
f 357/2/5 352/2/5 356/2/5
f 358/2/5 352/2/5 357/2/5
f 359/3/5 355/3/5 354/3/5
f 360/4/5 356/4/5 355/4/5
f 360/3/5 355/3/5 359/3/5
f 361/3/5 357/3/5 356/3/5
f 361/4/5 356/4/5 360/4/5
f 362/3/5 357/3/5 361/3/5
f 366/2/5 364/2/5 363/2/5
f 367/2/5 364/2/5 366/2/5
f 369/2/5 366/2/5 365/2/5
f 369/2/5 368/2/5 367/2/5
f 369/2/5 367/2/5 366/2/5
f 370/2/5 368/2/5 369/2/5
f 371/2/5 368/2/5 370/2/5
f 372/2/5 368/2/5 371/2/5
f 373/2/5 369/2/5 365/2/5
f 374/2/5 369/2/5 373/2/5
f 375/2/5 368/2/5 372/2/5
f 376/2/5 368/2/5 375/2/5
f 377/2/5 371/2/5 370/2/5
f 378/2/5 371/2/5 377/2/5
f 379/3/6 380/3/6 382/3/6
f 382/3/6 380/3/6 383/3/6
f 383/3/6 380/3/6 384/3/6
f 384/3/6 380/3/6 385/3/6
f 381/2/6 382/2/6 387/2/6
f 387/2/6 382/2/6 388/2/6
f 385/3/6 386/3/6 389/3/6
f 389/3/6 386/3/6 390/3/6
f 391/3/6 392/3/6 395/3/6
f 392/2/6 393/2/6 396/2/6
f 395/3/6 392/3/6 396/3/6
f 396/2/6 393/2/6 397/2/6
f 397/2/6 393/2/6 398/2/6
f 398/2/6 393/2/6 399/2/6
f 399/2/6 393/2/6 400/2/6
f 393/3/6 394/3/6 401/3/6
f 400/2/6 393/2/6 401/2/6
f 401/3/6 394/3/6 402/3/6
f 397/2/6 398/2/6 403/2/6
f 403/2/6 398/2/6 404/2/6
f 399/2/6 400/2/6 405/2/6
f 405/2/6 400/2/6 406/2/6
f 407/4/6 408/4/6 415/4/6
f 408/3/6 409/3/6 416/3/6
f 415/4/6 408/4/6 416/4/6
f 416/3/6 409/3/6 417/3/6
f 417/3/6 409/3/6 418/3/6
f 410/3/6 411/3/6 419/3/6
f 419/3/6 411/3/6 420/3/6
f 412/3/6 413/3/6 421/3/6
f 421/3/6 413/3/6 422/3/6
f 413/4/6 414/4/6 423/4/6
f 422/3/6 413/3/6 423/3/6
f 423/4/6 414/4/6 424/4/6
f 416/3/6 417/3/6 425/3/6
f 417/4/6 418/4/6 426/4/6
f 425/3/6 417/3/6 426/3/6
f 418/3/6 409/3/6 427/3/6
f 426/4/6 418/4/6 427/4/6
f 427/3/6 409/3/6 428/3/6
f 410/3/6 419/3/6 429/3/6
f 419/4/6 420/4/6 430/4/6
f 429/3/6 419/3/6 430/3/6
f 420/3/6 411/3/6 431/3/6
f 430/4/6 420/4/6 431/4/6
f 431/3/6 411/3/6 432/3/6
f 412/3/6 421/3/6 433/3/6
f 421/4/6 422/4/6 434/4/6
f 433/3/6 421/3/6 434/3/6
f 422/3/6 423/3/6 435/3/6
f 434/4/6 422/4/6 435/4/6
f 435/3/6 423/3/6 436/3/6
f 437/4/6 438/4/6 441/4/6
f 441/4/6 438/4/6 442/4/6
f 439/4/6 440/4/6 443/4/6
f 443/4/6 440/4/6 444/4/6
f 445/4/6 446/4/6 449/4/6
f 449/4/6 446/4/6 450/4/6
f 447/4/6 448/4/6 451/4/6
f 451/4/6 448/4/6 452/4/6
f 453/4/6 454/4/6 457/4/6
f 455/4/6 456/4/6 458/4/6
f 453/4/6 457/4/6 459/4/6
f 459/4/6 457/4/6 460/4/6
f 458/4/6 456/4/6 461/4/6
f 461/4/6 456/4/6 462/4/6
f 463/3/6 464/3/6 469/3/6
f 469/3/6 464/3/6 470/3/6
f 465/3/6 466/3/6 471/3/6
f 471/3/6 466/3/6 472/3/6
f 467/3/6 468/3/6 473/3/6
f 473/3/6 468/3/6 474/3/6
f 475/2/6 476/2/6 478/2/6
f 478/2/6 476/2/6 479/2/6
f 477/2/6 478/2/6 481/2/6
f 479/3/6 480/3/6 481/3/6
f 478/3/6 479/3/6 481/3/6
f 481/3/6 480/3/6 482/3/6
f 477/2/6 481/2/6 483/2/6
f 481/2/6 482/2/6 483/2/6
f 483/2/6 482/2/6 484/2/6
f 484/2/6 482/2/6 485/2/6
f 485/2/6 482/2/6 486/2/6
f 484/3/6 485/3/6 487/3/6
f 487/3/6 485/3/6 488/3/6
