# MagicaVoxel @ Ephtracy

# group
o 

# material
mtllib tymbochka.mtl
usemtl palette

# normals
vn -1 0 0
vn 1 0 0
vn 0 0 1
vn 0 0 -1
vn 0 -1 0
vn 0 1 0

# texcoords
vt 0.970703 0.5
vt 0.974609 0.5
vt 0.978516 0.5
vt 0.982422 0.5

# verts
v -1.5 0 1.4
v -1.5 0 1.3
v -1.5 0 -1.5
v -1.5 2.8 1.3
v -1.5 2.8 -1.5
v -1.5 2.9 1.4
v -1.5 2.9 -1.5
v -1.4 0 1.5
v -1.4 0 1.4
v -1.4 0.1 1.5
v -1.4 0.1 1.4
v -1.4 0.7 1.5
v -1.4 0.7 1.4
v -1.4 0.8 1.5
v -1.4 0.8 1.4
v -1.4 0.9 1.5
v -1.4 0.9 1.4
v -1.4 1 1.5
v -1.4 1 1.4
v -1.4 1.7 1.5
v -1.4 1.7 1.4
v -1.4 1.8 1.5
v -1.4 1.8 1.4
v -1.4 2 1.5
v -1.4 2 1.4
v -1.4 2.1 1.5
v -1.4 2.1 1.4
v -1.4 2.7 1.5
v -1.4 2.7 1.4
v -1.4 2.8 1.5
v -1.4 2.8 1.4
v -1.4 2.9 1.5
v -1.4 2.9 1.4
v -1.4 2.9 -1.5
v -1.4 3 1.5
v -1.4 3 1.4
v -1.4 3 -1.5
v -1 0.4 1.6
v -1 0.4 1.5
v -1 0.5 1.6
v -1 0.5 1.5
v -1 1.4 1.6
v -1 1.4 1.5
v -1 1.5 1.6
v -1 1.5 1.5
v -0.5 2.5 1.6
v -0.5 2.5 1.5
v -0.5 2.6 1.6
v -0.5 2.6 1.5
v 0 1 1.5
v 0 1 1.4
v 0 1.2 1.4
v 0 1.5 1.4
v 0 2 1.5
v 0 2 1.4
v 0.5 0.4 1.6
v 0.5 0.4 1.5
v 0.5 0.5 1.6
v 0.5 0.5 1.5
v 0.5 1.4 1.6
v 0.5 1.4 1.5
v 0.5 1.5 1.6
v 0.5 1.5 1.5
v -0.7 0.4 1.6
v -0.7 0.4 1.5
v -0.7 0.5 1.6
v -0.7 0.5 1.5
v -0.7 1.4 1.6
v -0.7 1.4 1.5
v -0.7 1.5 1.6
v -0.7 1.5 1.5
v -0.1 1 1.5
v -0.1 1 1.4
v -0.1 1.2 1.4
v -0.1 1.5 1.4
v -0.1 2 1.5
v -0.1 2 1.4
v 0.4 2.5 1.6
v 0.4 2.5 1.5
v 0.4 2.6 1.6
v 0.4 2.6 1.5
v 0.8 0.4 1.6
v 0.8 0.4 1.5
v 0.8 0.5 1.6
v 0.8 0.5 1.5
v 0.8 1.4 1.6
v 0.8 1.4 1.5
v 0.8 1.5 1.6
v 0.8 1.5 1.5
v 1.4 0 1.5
v 1.4 0 1.4
v 1.4 0.1 1.5
v 1.4 0.1 1.4
v 1.4 0.8 1.5
v 1.4 0.8 1.4
v 1.4 0.9 1.5
v 1.4 0.9 1.4
v 1.4 1 1.5
v 1.4 1 1.4
v 1.4 2 1.5
v 1.4 2 1.4
v 1.4 2.1 1.5
v 1.4 2.1 1.4
v 1.4 2.9 1.5
v 1.4 2.9 1.4
v 1.4 2.9 -1.5
v 1.4 3 1.5
v 1.4 3 1.4
v 1.4 3 -1.5
v 1.5 0 1.4
v 1.5 0 1.3
v 1.5 0 -1.5
v 1.5 2.7 1.3
v 1.5 2.7 -1.5
v 1.5 2.9 1.4
v 1.5 2.9 -1.5
v -1 0.4 1.6
v -1 0.5 1.6
v -1 1.4 1.6
v -1 1.5 1.6
v -0.7 0.4 1.6
v -0.7 0.5 1.6
v -0.7 1.4 1.6
v -0.7 1.5 1.6
v -0.5 2.5 1.6
v -0.5 2.6 1.6
v 0.4 2.5 1.6
v 0.4 2.6 1.6
v 0.5 0.4 1.6
v 0.5 0.5 1.6
v 0.5 1.4 1.6
v 0.5 1.5 1.6
v 0.8 0.4 1.6
v 0.8 0.5 1.6
v 0.8 1.4 1.6
v 0.8 1.5 1.6
v -1.4 0 1.5
v -1.4 0.1 1.5
v -1.4 0.7 1.5
v -1.4 0.8 1.5
v -1.4 0.9 1.5
v -1.4 1 1.5
v -1.4 1.7 1.5
v -1.4 1.8 1.5
v -1.4 2 1.5
v -1.4 2.1 1.5
v -1.4 2.7 1.5
v -1.4 2.8 1.5
v -1.4 2.9 1.5
v -1.4 3 1.5
v -1.3 0 1.5
v -1.3 0.1 1.5
v -1.3 0.2 1.5
v -1.2 0.1 1.5
v -1.2 0.2 1.5
v -1.2 1.7 1.5
v -1.2 1.8 1.5
v -1.1 1.7 1.5
v -1.1 1.8 1.5
v -1.1 2.7 1.5
v -1.1 2.8 1.5
v -1 0.4 1.5
v -1 0.5 1.5
v -1 0.7 1.5
v -1 0.8 1.5
v -1 1.4 1.5
v -1 1.5 1.5
v -1 1.7 1.5
v -1 1.8 1.5
v -1 2.7 1.5
v -1 2.8 1.5
v -0.9 2.1 1.5
v -0.9 2.2 1.5
v -0.9 2.7 1.5
v -0.9 2.8 1.5
v -0.8 2.1 1.5
v -0.8 2.2 1.5
v -0.7 0.4 1.5
v -0.7 0.5 1.5
v -0.7 1.4 1.5
v -0.7 1.5 1.5
v -0.7 2.1 1.5
v -0.7 2.2 1.5
v -0.5 0.2 1.5
v -0.5 0.3 1.5
v -0.5 2.1 1.5
v -0.5 2.2 1.5
v -0.5 2.5 1.5
v -0.5 2.6 1.5
v -0.1 0.2 1.5
v -0.1 0.3 1.5
v -0.1 1 1.5
v -0.1 2 1.5
v 0 1 1.5
v 0 2 1.5
v 0.1 0.2 1.5
v 0.1 0.3 1.5
v 0.2 0.2 1.5
v 0.2 0.3 1.5
v 0.4 2.5 1.5
v 0.4 2.6 1.5
v 0.5 0.4 1.5
v 0.5 0.5 1.5
v 0.5 1.4 1.5
v 0.5 1.5 1.5
v 0.6 2.8 1.5
v 0.6 2.9 1.5
v 0.7 1.9 1.5
v 0.7 2 1.5
v 0.7 2.8 1.5
v 0.7 2.9 1.5
v 0.8 0.4 1.5
v 0.8 0.5 1.5
v 0.8 1.4 1.5
v 0.8 1.5 1.5
v 0.8 1.9 1.5
v 0.8 2 1.5
v 0.8 2.8 1.5
v 0.8 2.9 1.5
v 0.9 2.8 1.5
v 0.9 2.9 1.5
v 1 1.9 1.5
v 1 2 1.5
v 1 2.8 1.5
v 1 2.9 1.5
v 1.2 0.7 1.5
v 1.2 0.8 1.5
v 1.2 2.8 1.5
v 1.2 2.9 1.5
v 1.3 0.7 1.5
v 1.3 0.8 1.5
v 1.3 0.9 1.5
v 1.3 1.9 1.5
v 1.3 2 1.5
v 1.4 0 1.5
v 1.4 0.1 1.5
v 1.4 0.8 1.5
v 1.4 0.9 1.5
v 1.4 1 1.5
v 1.4 2 1.5
v 1.4 2.1 1.5
v 1.4 2.9 1.5
v 1.4 3 1.5
v -1.5 0 1.4
v -1.5 2.9 1.4
v -1.4 0 1.4
v -1.4 0.1 1.4
v -1.4 0.7 1.4
v -1.4 0.8 1.4
v -1.4 0.9 1.4
v -1.4 1 1.4
v -1.4 1.7 1.4
v -1.4 1.8 1.4
v -1.4 2 1.4
v -1.4 2.1 1.4
v -1.4 2.7 1.4
v -1.4 2.8 1.4
v -1.4 2.9 1.4
v -0.9 2.1 1.4
v -0.8 2.1 1.4
v -0.7 2.1 1.4
v -0.5 2.1 1.4
v -0.1 1 1.4
v -0.1 1.2 1.4
v -0.1 1.5 1.4
v -0.1 2 1.4
v 0 1 1.4
v 0 1.2 1.4
v 0 1.5 1.4
v 0 2 1.4
v 0.7 2 1.4
v 0.8 2 1.4
v 1 2 1.4
v 1.3 0.9 1.4
v 1.3 2 1.4
v 1.4 0 1.4
v 1.4 0.1 1.4
v 1.4 0.8 1.4
v 1.4 0.9 1.4
v 1.4 1 1.4
v 1.4 2 1.4
v 1.4 2.1 1.4
v 1.4 2.9 1.4
v 1.5 0 1.4
v 1.5 2.9 1.4
v -1.5 0 -1.5
v -1.5 2.8 -1.5
v -1.5 2.9 -1.5
v -1.4 2.8 -1.5
v -1.4 2.9 -1.5
v -1.4 3 -1.5
v 1.4 2.7 -1.5
v 1.4 2.9 -1.5
v 1.4 3 -1.5
v 1.5 0 -1.5
v 1.5 2.7 -1.5
v 1.5 2.9 -1.5
v -1.4 0 1.5
v -1.3 0 1.5
v 1.4 0 1.5
v -1.5 0 1.4
v -1.4 0 1.4
v -1.3 0 1.4
v 1.4 0 1.4
v 1.5 0 1.4
v -1.5 0 1.3
v -1.4 0 1.3
v -1.3 0 1.3
v 1.5 0 1.3
v -1.5 0 -1.5
v 1.5 0 -1.5
v -1 0.4 1.6
v -0.7 0.4 1.6
v 0.5 0.4 1.6
v 0.8 0.4 1.6
v -1 0.4 1.5
v -0.7 0.4 1.5
v 0.5 0.4 1.5
v 0.8 0.4 1.5
v -1.4 1 1.5
v -0.1 1 1.5
v 0 1 1.5
v 1.4 1 1.5
v -1.4 1 1.4
v -0.1 1 1.4
v 0 1 1.4
v 1.4 1 1.4
v -1 1.4 1.6
v -0.7 1.4 1.6
v 0.5 1.4 1.6
v 0.8 1.4 1.6
v -1 1.4 1.5
v -0.7 1.4 1.5
v 0.5 1.4 1.5
v 0.8 1.4 1.5
v -1.4 2.1 1.5
v -0.9 2.1 1.5
v -0.8 2.1 1.5
v -0.7 2.1 1.5
v -0.5 2.1 1.5
v 1.4 2.1 1.5
v -1.4 2.1 1.4
v -0.9 2.1 1.4
v -0.8 2.1 1.4
v -0.7 2.1 1.4
v -0.5 2.1 1.4
v 1.4 2.1 1.4
v -0.5 2.5 1.6
v 0.4 2.5 1.6
v -0.5 2.5 1.5
v 0.4 2.5 1.5
v -1 0.5 1.6
v -0.7 0.5 1.6
v 0.5 0.5 1.6
v 0.8 0.5 1.6
v -1 0.5 1.5
v -0.7 0.5 1.5
v 0.5 0.5 1.5
v 0.8 0.5 1.5
v -1.4 0.9 1.5
v 1.3 0.9 1.5
v 1.4 0.9 1.5
v -1.4 0.9 1.4
v 1.3 0.9 1.4
v 1.4 0.9 1.4
v -1 1.5 1.6
v -0.7 1.5 1.6
v 0.5 1.5 1.6
v 0.8 1.5 1.6
v -1 1.5 1.5
v -0.7 1.5 1.5
v 0.5 1.5 1.5
v 0.8 1.5 1.5
v -1.4 2 1.5
v -0.1 2 1.5
v 0 2 1.5
v 0.7 2 1.5
v 0.8 2 1.5
v 1 2 1.5
v 1.3 2 1.5
v 1.4 2 1.5
v -1.4 2 1.4
v -0.1 2 1.4
v 0 2 1.4
v 0.7 2 1.4
v 0.8 2 1.4
v 1 2 1.4
v 1.3 2 1.4
v 1.4 2 1.4
v -0.5 2.6 1.6
v 0.4 2.6 1.6
v -0.5 2.6 1.5
v 0.4 2.6 1.5
v -1.5 2.9 1.4
v -1.4 2.9 1.4
v 1.4 2.9 1.4
v 1.5 2.9 1.4
v -1.5 2.9 -1.5
v -1.4 2.9 -1.5
v 1.4 2.9 -1.5
v 1.5 2.9 -1.5
v -1.4 3 1.5
v 1.4 3 1.5
v -1.4 3 1.4
v 1.4 3 1.4
v -1.4 3 -1.5
v 1.4 3 -1.5

# faces
f 4/4/1 2/4/1 1/4/1
f 4/1/1 3/1/1 2/1/1
f 5/1/1 3/1/1 4/1/1
f 6/4/1 4/4/1 1/4/1
f 6/4/1 5/4/1 4/4/1
f 7/4/1 5/4/1 6/4/1
f 10/3/1 9/3/1 8/3/1
f 11/3/1 9/3/1 10/3/1
f 12/1/1 11/1/1 10/1/1
f 13/1/1 11/1/1 12/1/1
f 14/3/1 13/3/1 12/3/1
f 15/3/1 13/3/1 14/3/1
f 16/1/1 15/1/1 14/1/1
f 17/1/1 15/1/1 16/1/1
f 20/1/1 19/1/1 18/1/1
f 21/1/1 19/1/1 20/1/1
f 22/3/1 21/3/1 20/3/1
f 23/3/1 21/3/1 22/3/1
f 24/1/1 23/1/1 22/1/1
f 25/1/1 23/1/1 24/1/1
f 28/1/1 27/1/1 26/1/1
f 29/1/1 27/1/1 28/1/1
f 30/3/1 29/3/1 28/3/1
f 31/3/1 29/3/1 30/3/1
f 32/1/1 31/1/1 30/1/1
f 33/1/1 31/1/1 32/1/1
f 35/4/1 33/4/1 32/4/1
f 36/1/1 34/1/1 33/1/1
f 36/4/1 33/4/1 35/4/1
f 37/1/1 34/1/1 36/1/1
f 40/2/1 39/2/1 38/2/1
f 41/2/1 39/2/1 40/2/1
f 44/2/1 43/2/1 42/2/1
f 45/2/1 43/2/1 44/2/1
f 48/2/1 47/2/1 46/2/1
f 49/2/1 47/2/1 48/2/1
f 52/1/1 51/1/1 50/1/1
f 53/1/1 52/1/1 50/1/1
f 54/1/1 53/1/1 50/1/1
f 55/1/1 53/1/1 54/1/1
f 58/2/1 57/2/1 56/2/1
f 59/2/1 57/2/1 58/2/1
f 62/2/1 61/2/1 60/2/1
f 63/2/1 61/2/1 62/2/1
f 64/2/2 65/2/2 66/2/2
f 66/2/2 65/2/2 67/2/2
f 68/2/2 69/2/2 70/2/2
f 70/2/2 69/2/2 71/2/2
f 72/1/2 73/1/2 74/1/2
f 72/1/2 74/1/2 75/1/2
f 72/1/2 75/1/2 76/1/2
f 76/1/2 75/1/2 77/1/2
f 78/2/2 79/2/2 80/2/2
f 80/2/2 79/2/2 81/2/2
f 82/2/2 83/2/2 84/2/2
f 84/2/2 83/2/2 85/2/2
f 86/2/2 87/2/2 88/2/2
f 88/2/2 87/2/2 89/2/2
f 90/4/2 91/4/2 92/4/2
f 92/4/2 91/4/2 93/4/2
f 92/1/2 93/1/2 94/1/2
f 94/1/2 93/1/2 95/1/2
f 94/3/2 95/3/2 96/3/2
f 96/3/2 95/3/2 97/3/2
f 98/1/2 99/1/2 100/1/2
f 100/1/2 99/1/2 101/1/2
f 102/1/2 103/1/2 104/1/2
f 104/1/2 103/1/2 105/1/2
f 104/4/2 105/4/2 107/4/2
f 105/1/2 106/1/2 108/1/2
f 107/4/2 105/4/2 108/4/2
f 108/1/2 106/1/2 109/1/2
f 110/4/2 111/4/2 113/4/2
f 111/1/2 112/1/2 113/1/2
f 113/1/2 112/1/2 114/1/2
f 110/4/2 113/4/2 115/4/2
f 113/4/2 114/4/2 115/4/2
f 115/4/2 114/4/2 116/4/2
f 121/2/3 118/2/3 117/2/3
f 122/2/3 118/2/3 121/2/3
f 123/2/3 120/2/3 119/2/3
f 124/2/3 120/2/3 123/2/3
f 127/2/3 126/2/3 125/2/3
f 128/2/3 126/2/3 127/2/3
f 133/2/3 130/2/3 129/2/3
f 134/2/3 130/2/3 133/2/3
f 135/2/3 132/2/3 131/2/3
f 136/2/3 132/2/3 135/2/3
f 151/3/3 138/3/3 137/3/3
f 152/1/3 139/1/3 138/1/3
f 152/3/3 138/3/3 151/3/3
f 153/1/3 139/1/3 152/1/3
f 154/4/3 152/4/3 151/4/3
f 154/3/3 153/3/3 152/3/3
f 155/1/3 139/1/3 153/1/3
f 155/3/3 153/3/3 154/3/3
f 156/1/3 143/1/3 142/1/3
f 156/3/3 144/3/3 143/3/3
f 157/1/3 145/1/3 144/1/3
f 157/3/3 144/3/3 156/3/3
f 158/1/3 156/1/3 142/1/3
f 158/1/3 157/1/3 156/1/3
f 159/1/3 145/1/3 157/1/3
f 159/1/3 157/1/3 158/1/3
f 160/1/3 147/1/3 146/1/3
f 160/3/3 148/3/3 147/3/3
f 161/1/3 149/1/3 148/1/3
f 161/3/3 148/3/3 160/3/3
f 162/1/3 139/1/3 155/1/3
f 162/1/3 155/1/3 154/1/3
f 163/1/3 139/1/3 162/1/3
f 164/3/3 140/3/3 139/3/3
f 164/1/3 139/1/3 163/1/3
f 165/1/3 141/1/3 140/1/3
f 165/3/3 140/3/3 164/3/3
f 166/1/3 158/1/3 142/1/3
f 167/1/3 158/1/3 166/1/3
f 168/3/3 159/3/3 158/3/3
f 168/1/3 158/1/3 167/1/3
f 169/1/3 145/1/3 159/1/3
f 169/3/3 159/3/3 168/3/3
f 170/1/3 161/1/3 160/1/3
f 170/1/3 160/1/3 146/1/3
f 171/1/3 149/1/3 161/1/3
f 171/1/3 161/1/3 170/1/3
f 172/1/3 170/1/3 146/1/3
f 173/1/3 170/1/3 172/1/3
f 174/3/3 171/3/3 170/3/3
f 174/1/3 170/1/3 173/1/3
f 175/1/3 149/1/3 171/1/3
f 175/3/3 171/3/3 174/3/3
f 176/3/3 173/3/3 172/3/3
f 177/1/3 174/1/3 173/1/3
f 177/3/3 173/3/3 176/3/3
f 177/1/3 175/1/3 174/1/3
f 178/1/3 162/1/3 154/1/3
f 179/1/3 164/1/3 163/1/3
f 179/1/3 165/1/3 164/1/3
f 180/1/3 166/1/3 142/1/3
f 181/1/3 168/1/3 167/1/3
f 181/1/3 169/1/3 168/1/3
f 182/1/3 177/1/3 176/1/3
f 183/1/3 175/1/3 177/1/3
f 183/1/3 177/1/3 182/1/3
f 184/1/3 178/1/3 154/1/3
f 184/1/3 179/1/3 178/1/3
f 185/1/3 179/1/3 184/1/3
f 186/3/3 183/3/3 182/3/3
f 187/1/3 175/1/3 183/1/3
f 187/3/3 183/3/3 186/3/3
f 188/1/3 175/1/3 187/1/3
f 189/1/3 175/1/3 188/1/3
f 190/1/3 184/1/3 154/1/3
f 190/3/3 185/3/3 184/3/3
f 191/1/3 179/1/3 185/1/3
f 191/3/3 185/3/3 190/3/3
f 192/1/3 180/1/3 142/1/3
f 192/1/3 181/1/3 180/1/3
f 193/1/3 145/1/3 169/1/3
f 193/1/3 181/1/3 192/1/3
f 193/1/3 169/1/3 181/1/3
f 196/1/3 190/1/3 154/1/3
f 196/1/3 191/1/3 190/1/3
f 197/1/3 179/1/3 191/1/3
f 197/1/3 191/1/3 196/1/3
f 198/1/3 196/1/3 154/1/3
f 198/3/3 197/3/3 196/3/3
f 199/1/3 179/1/3 197/1/3
f 199/3/3 197/3/3 198/3/3
f 200/1/3 187/1/3 186/1/3
f 200/1/3 188/1/3 187/1/3
f 201/1/3 175/1/3 189/1/3
f 202/1/3 179/1/3 199/1/3
f 202/1/3 199/1/3 198/1/3
f 203/1/3 165/1/3 179/1/3
f 203/1/3 179/1/3 202/1/3
f 204/1/3 195/1/3 194/1/3
f 205/1/3 195/1/3 204/1/3
f 206/1/3 149/1/3 175/1/3
f 206/1/3 201/1/3 200/1/3
f 206/1/3 175/1/3 201/1/3
f 207/4/3 150/4/3 149/4/3
f 207/1/3 149/1/3 206/1/3
f 208/1/3 195/1/3 205/1/3
f 209/1/3 195/1/3 208/1/3
f 210/1/3 206/1/3 200/1/3
f 210/3/3 207/3/3 206/3/3
f 211/4/3 150/4/3 207/4/3
f 211/3/3 207/3/3 210/3/3
f 212/1/3 202/1/3 198/1/3
f 213/1/3 165/1/3 203/1/3
f 214/1/3 204/1/3 194/1/3
f 215/1/3 208/1/3 205/1/3
f 216/3/3 209/3/3 208/3/3
f 216/1/3 208/1/3 215/1/3
f 217/3/3 209/3/3 216/3/3
f 218/1/3 210/1/3 200/1/3
f 218/1/3 211/1/3 210/1/3
f 219/4/3 150/4/3 211/4/3
f 219/1/3 211/1/3 218/1/3
f 220/1/3 218/1/3 200/1/3
f 220/3/3 219/3/3 218/3/3
f 221/4/3 150/4/3 219/4/3
f 221/3/3 219/3/3 220/3/3
f 222/1/3 215/1/3 214/1/3
f 222/1/3 217/1/3 216/1/3
f 222/1/3 216/1/3 215/1/3
f 223/1/3 217/1/3 222/1/3
f 224/1/3 221/1/3 220/1/3
f 224/1/3 220/1/3 200/1/3
f 225/4/3 150/4/3 221/4/3
f 225/1/3 221/1/3 224/1/3
f 226/1/3 213/1/3 212/1/3
f 226/1/3 165/1/3 213/1/3
f 227/1/3 141/1/3 165/1/3
f 227/1/3 165/1/3 226/1/3
f 228/1/3 224/1/3 200/1/3
f 228/3/3 225/3/3 224/3/3
f 229/4/3 150/4/3 225/4/3
f 229/3/3 225/3/3 228/3/3
f 230/1/3 226/1/3 212/1/3
f 230/3/3 227/3/3 226/3/3
f 231/1/3 141/1/3 227/1/3
f 231/3/3 227/3/3 230/3/3
f 232/1/3 141/1/3 231/1/3
f 233/3/3 223/3/3 222/3/3
f 233/1/3 222/1/3 214/1/3
f 234/3/3 223/3/3 233/3/3
f 235/4/3 154/4/3 151/4/3
f 236/1/3 230/1/3 212/1/3
f 236/4/3 154/4/3 235/4/3
f 236/1/3 198/1/3 154/1/3
f 236/1/3 212/1/3 198/1/3
f 236/1/3 231/1/3 230/1/3
f 237/3/3 232/3/3 231/3/3
f 237/1/3 231/1/3 236/1/3
f 238/3/3 232/3/3 237/3/3
f 239/1/3 234/1/3 233/1/3
f 239/1/3 233/1/3 214/1/3
f 239/1/3 214/1/3 194/1/3
f 240/1/3 234/1/3 239/1/3
f 241/1/3 229/1/3 228/1/3
f 241/1/3 228/1/3 200/1/3
f 241/1/3 200/1/3 186/1/3
f 242/4/3 150/4/3 229/4/3
f 242/1/3 229/1/3 241/1/3
f 243/4/3 150/4/3 242/4/3
f 246/4/3 245/4/3 244/4/3
f 247/4/3 245/4/3 246/4/3
f 248/4/3 245/4/3 247/4/3
f 249/4/3 245/4/3 248/4/3
f 250/4/3 245/4/3 249/4/3
f 251/4/3 245/4/3 250/4/3
f 252/4/3 245/4/3 251/4/3
f 253/4/3 245/4/3 252/4/3
f 254/4/3 245/4/3 253/4/3
f 255/4/3 245/4/3 254/4/3
f 256/4/3 245/4/3 255/4/3
f 257/4/3 245/4/3 256/4/3
f 258/4/3 245/4/3 257/4/3
f 259/4/3 255/4/3 254/4/3
f 260/4/3 259/4/3 254/4/3
f 261/4/3 260/4/3 254/4/3
f 262/4/3 261/4/3 254/4/3
f 263/4/3 251/4/3 250/4/3
f 266/4/3 262/4/3 254/4/3
f 267/4/3 263/4/3 250/4/3
f 267/4/3 264/4/3 263/4/3
f 268/3/3 265/3/3 264/3/3
f 268/4/3 264/4/3 267/4/3
f 269/4/3 266/4/3 265/4/3
f 269/3/3 265/3/3 268/3/3
f 270/4/3 262/4/3 266/4/3
f 270/4/3 266/4/3 269/4/3
f 271/4/3 262/4/3 270/4/3
f 272/4/3 262/4/3 271/4/3
f 273/4/3 262/4/3 272/4/3
f 274/4/3 267/4/3 250/4/3
f 275/4/3 262/4/3 273/4/3
f 279/4/3 267/4/3 274/4/3
f 280/4/3 267/4/3 279/4/3
f 281/4/3 262/4/3 275/4/3
f 282/4/3 262/4/3 281/4/3
f 284/4/3 282/4/3 281/4/3
f 284/4/3 283/4/3 282/4/3
f 284/4/3 281/4/3 280/4/3
f 284/4/3 277/4/3 276/4/3
f 284/4/3 280/4/3 279/4/3
f 284/4/3 279/4/3 278/4/3
f 284/4/3 278/4/3 277/4/3
f 285/4/3 283/4/3 284/4/3
f 286/1/4 287/1/4 289/1/4
f 287/4/4 288/4/4 289/4/4
f 289/4/4 288/4/4 290/4/4
f 286/1/4 289/1/4 292/1/4
f 290/1/4 291/1/4 292/1/4
f 289/1/4 290/1/4 292/1/4
f 292/1/4 291/1/4 293/1/4
f 293/1/4 291/1/4 294/1/4
f 286/1/4 292/1/4 295/1/4
f 292/4/4 293/4/4 296/4/4
f 295/1/4 292/1/4 296/1/4
f 296/4/4 293/4/4 297/4/4
f 302/3/5 299/3/5 298/3/5
f 303/4/5 300/4/5 299/4/5
f 303/3/5 299/3/5 302/3/5
f 304/4/5 300/4/5 303/4/5
f 306/4/5 302/4/5 301/4/5
f 307/1/5 303/1/5 302/1/5
f 307/4/5 302/4/5 306/4/5
f 308/4/5 305/4/5 304/4/5
f 308/1/5 303/1/5 307/1/5
f 308/4/5 304/4/5 303/4/5
f 309/4/5 305/4/5 308/4/5
f 310/1/5 307/1/5 306/1/5
f 310/1/5 308/1/5 307/1/5
f 310/1/5 309/1/5 308/1/5
f 311/1/5 309/1/5 310/1/5
f 316/2/5 313/2/5 312/2/5
f 317/2/5 313/2/5 316/2/5
f 318/2/5 315/2/5 314/2/5
f 319/2/5 315/2/5 318/2/5
f 324/1/5 321/1/5 320/1/5
f 325/1/5 321/1/5 324/1/5
f 326/1/5 323/1/5 322/1/5
f 327/1/5 323/1/5 326/1/5
f 332/2/5 329/2/5 328/2/5
f 333/2/5 329/2/5 332/2/5
f 334/2/5 331/2/5 330/2/5
f 335/2/5 331/2/5 334/2/5
f 342/1/5 337/1/5 336/1/5
f 343/3/5 338/3/5 337/3/5
f 343/1/5 337/1/5 342/1/5
f 344/1/5 339/1/5 338/1/5
f 344/3/5 338/3/5 343/3/5
f 345/3/5 340/3/5 339/3/5
f 345/1/5 339/1/5 344/1/5
f 346/1/5 341/1/5 340/1/5
f 346/3/5 340/3/5 345/3/5
f 347/1/5 341/1/5 346/1/5
f 350/2/5 349/2/5 348/2/5
f 351/2/5 349/2/5 350/2/5
f 352/2/6 353/2/6 356/2/6
f 356/2/6 353/2/6 357/2/6
f 354/2/6 355/2/6 358/2/6
f 358/2/6 355/2/6 359/2/6
f 360/1/6 361/1/6 363/1/6
f 361/3/6 362/3/6 364/3/6
f 363/1/6 361/1/6 364/1/6
f 364/3/6 362/3/6 365/3/6
f 366/2/6 367/2/6 370/2/6
f 370/2/6 367/2/6 371/2/6
f 368/2/6 369/2/6 372/2/6
f 372/2/6 369/2/6 373/2/6
f 374/1/6 375/1/6 382/1/6
f 382/1/6 375/1/6 383/1/6
f 376/1/6 377/1/6 384/1/6
f 377/3/6 378/3/6 385/3/6
f 384/1/6 377/1/6 385/1/6
f 378/1/6 379/1/6 386/1/6
f 385/3/6 378/3/6 386/3/6
f 379/3/6 380/3/6 387/3/6
f 386/1/6 379/1/6 387/1/6
f 380/1/6 381/1/6 388/1/6
f 387/3/6 380/3/6 388/3/6
f 388/1/6 381/1/6 389/1/6
f 390/2/6 391/2/6 392/2/6
f 392/2/6 391/2/6 393/2/6
f 394/4/6 395/4/6 398/4/6
f 398/4/6 395/4/6 399/4/6
f 396/4/6 397/4/6 400/4/6
f 400/4/6 397/4/6 401/4/6
f 402/4/6 403/4/6 404/4/6
f 404/4/6 403/4/6 405/4/6
f 404/1/6 405/1/6 406/1/6
f 406/1/6 405/1/6 407/1/6
