# MagicaVoxel @ Ephtracy

# group
o 

# material
mtllib lopatka.mtl
usemtl palette

# normals
vn -1 0 0
vn 1 0 0
vn 0 0 1
vn 0 0 -1
vn 0 -1 0
vn 0 1 0

# texcoords
vt 0.501953 0.5
vt 0.505859 0.5
vt 0.509766 0.5
vt 0.775391 0.5

# verts
v -7 20.9 -3.4
v -7 20.9 -3.6
v -7 21.1 -3.4
v -7 21.1 -3.6
v -6.8 20.7 -3.3
v -6.8 20.7 -4.8
v -6.8 20.9 -3.4
v -6.8 20.9 -3.6
v -6.8 21.1 -3.4
v -6.8 21.1 -3.6
v -6.8 21.3 -3.3
v -6.8 21.3 -4.8
v 4.2 20.7 -3.3
v 4.2 20.7 -4.8
v 4.2 20.9 -3.4
v 4.2 20.9 -3.6
v 4.2 21.1 -3.4
v 4.2 21.1 -3.6
v 4.2 21.3 -3.3
v 4.2 21.3 -4.8
v 6.3 0 5
v 6.3 0 4.8
v 6.3 0.6 5
v 6.3 0.6 4.8
v 6.4 0.6 5
v 6.4 0.6 4.8
v 6.4 0.8 5
v 6.4 0.8 4.8
v 6.4 2.3 5
v 6.4 2.3 4.8
v 6.4 2.5 5
v 6.4 2.5 4.8
v 6.5 0.8 5
v 6.5 0.8 4.8
v 6.5 2.3 5
v 6.5 2.3 4.8
v 6.5 2.5 5
v 6.5 2.5 4.8
v 6.5 2.6 5
v 6.5 2.6 4.8
v 6.8 0 4.9
v 6.8 0 4.8
v 6.8 0.5 4.9
v 6.8 0.5 4.8
v -6.7 20.7 -3.3
v -6.7 20.7 -4.8
v -6.7 20.9 -3.4
v -6.7 20.9 -3.6
v -6.7 21.1 -3.4
v -6.7 21.1 -3.6
v -6.7 21.3 -3.3
v -6.7 21.3 -4.8
v 4.3 20.7 -3.3
v 4.3 20.7 -4.8
v 4.3 20.9 -3.4
v 4.3 20.9 -3.6
v 4.3 21.1 -3.4
v 4.3 21.1 -3.6
v 4.3 21.3 -3.3
v 4.3 21.3 -4.8
v 4.5 20.9 -3.4
v 4.5 20.9 -3.6
v 4.5 21.1 -3.4
v 4.5 21.1 -3.6
v 6.4 0 4.9
v 6.4 0 4.8
v 6.4 0.5 4.9
v 6.4 0.5 4.8
v 6.7 0.8 5
v 6.7 0.8 4.8
v 6.7 2.3 5
v 6.7 2.3 4.8
v 6.7 2.5 5
v 6.7 2.5 4.8
v 6.7 2.6 5
v 6.7 2.6 4.8
v 6.8 0.6 5
v 6.8 0.6 4.8
v 6.8 0.8 5
v 6.8 0.8 4.8
v 6.8 2.3 5
v 6.8 2.3 4.8
v 6.8 2.5 5
v 6.8 2.5 4.8
v 6.9 0 5
v 6.9 0 4.8
v 6.9 0.6 5
v 6.9 0.6 4.8
v 6.3 0 5
v 6.3 0.6 5
v 6.4 0 5
v 6.4 0.6 5
v 6.4 0.8 5
v 6.4 2.3 5
v 6.4 2.5 5
v 6.5 0 5
v 6.5 0.4 5
v 6.5 0.5 5
v 6.5 0.8 5
v 6.5 2.3 5
v 6.5 2.5 5
v 6.5 2.6 5
v 6.7 0 5
v 6.7 0.4 5
v 6.7 0.5 5
v 6.7 0.8 5
v 6.7 2.3 5
v 6.7 2.5 5
v 6.7 2.6 5
v 6.8 0 5
v 6.8 0.6 5
v 6.8 0.8 5
v 6.8 2.3 5
v 6.8 2.5 5
v 6.9 0 5
v 6.9 0.6 5
v -6.8 20.7 -3.3
v -6.8 21.3 -3.3
v -6.7 20.7 -3.3
v -6.7 21.3 -3.3
v 4.2 20.7 -3.3
v 4.2 21.3 -3.3
v 4.3 20.7 -3.3
v 4.3 21.3 -3.3
v -7 20.9 -3.4
v -7 21.1 -3.4
v -6.8 20.9 -3.4
v -6.8 21.1 -3.4
v -6.7 20.9 -3.4
v -6.7 21.1 -3.4
v 4.2 20.9 -3.4
v 4.2 21.1 -3.4
v 4.3 20.9 -3.4
v 4.3 21.1 -3.4
v 4.5 20.9 -3.4
v 4.5 21.1 -3.4
v 6.4 0 4.9
v 6.4 0.5 4.9
v 6.5 0 4.9
v 6.5 0.4 4.9
v 6.7 0 4.9
v 6.7 0.4 4.9
v 6.8 0 4.9
v 6.8 0.5 4.9
v 6.3 0 4.8
v 6.3 0.6 4.8
v 6.4 0 4.8
v 6.4 0.5 4.8
v 6.4 0.6 4.8
v 6.4 0.8 4.8
v 6.4 2.3 4.8
v 6.4 2.5 4.8
v 6.5 0.6 4.8
v 6.5 0.8 4.8
v 6.5 2.3 4.8
v 6.5 2.5 4.8
v 6.5 2.6 4.8
v 6.7 0.6 4.8
v 6.7 0.8 4.8
v 6.7 2.3 4.8
v 6.7 2.5 4.8
v 6.7 2.6 4.8
v 6.8 0 4.8
v 6.8 0.5 4.8
v 6.8 0.6 4.8
v 6.8 0.8 4.8
v 6.8 2.3 4.8
v 6.8 2.5 4.8
v 6.9 0 4.8
v 6.9 0.6 4.8
v -7 20.9 -3.6
v -7 21.1 -3.6
v -6.8 20.9 -3.6
v -6.8 21.1 -3.6
v -6.7 20.9 -3.6
v -6.7 21.1 -3.6
v 4.2 20.9 -3.6
v 4.2 21.1 -3.6
v 4.3 20.9 -3.6
v 4.3 21.1 -3.6
v 4.5 20.9 -3.6
v 4.5 21.1 -3.6
v -6.8 20.7 -4.8
v -6.8 21.3 -4.8
v -6.7 20.7 -4.8
v -6.7 21.3 -4.8
v 4.2 20.7 -4.8
v 4.2 21.3 -4.8
v 4.3 20.7 -4.8
v 4.3 21.3 -4.8
v 6.3 0 5
v 6.4 0 5
v 6.5 0 5
v 6.7 0 5
v 6.8 0 5
v 6.9 0 5
v 6.4 0 4.9
v 6.5 0 4.9
v 6.7 0 4.9
v 6.8 0 4.9
v 6.3 0 4.8
v 6.4 0 4.8
v 6.8 0 4.8
v 6.9 0 4.8
v 6.4 0.5 4.9
v 6.8 0.5 4.9
v 6.4 0.5 4.8
v 6.8 0.5 4.8
v 6.4 2.3 5
v 6.5 2.3 5
v 6.7 2.3 5
v 6.8 2.3 5
v 6.4 2.3 4.8
v 6.5 2.3 4.8
v 6.7 2.3 4.8
v 6.8 2.3 4.8
v -6.8 20.7 -3.3
v -6.7 20.7 -3.3
v 4.2 20.7 -3.3
v 4.3 20.7 -3.3
v -6.8 20.7 -4.8
v -6.7 20.7 -4.8
v 4.2 20.7 -4.8
v 4.3 20.7 -4.8
v -7 20.9 -3.4
v -6.8 20.9 -3.4
v -6.7 20.9 -3.4
v 4.2 20.9 -3.4
v 4.3 20.9 -3.4
v 4.5 20.9 -3.4
v -7 20.9 -3.6
v -6.8 20.9 -3.6
v -6.7 20.9 -3.6
v 4.2 20.9 -3.6
v 4.3 20.9 -3.6
v 4.5 20.9 -3.6
v 6.3 0.6 5
v 6.4 0.6 5
v 6.8 0.6 5
v 6.9 0.6 5
v 6.3 0.6 4.8
v 6.4 0.6 4.8
v 6.8 0.6 4.8
v 6.9 0.6 4.8
v 6.4 0.8 5
v 6.5 0.8 5
v 6.7 0.8 5
v 6.8 0.8 5
v 6.4 0.8 4.8
v 6.5 0.8 4.8
v 6.7 0.8 4.8
v 6.8 0.8 4.8
v 6.4 2.5 5
v 6.5 2.5 5
v 6.7 2.5 5
v 6.8 2.5 5
v 6.4 2.5 4.8
v 6.5 2.5 4.8
v 6.7 2.5 4.8
v 6.8 2.5 4.8
v 6.5 2.6 5
v 6.7 2.6 5
v 6.5 2.6 4.8
v 6.7 2.6 4.8
v -7 21.1 -3.4
v -6.8 21.1 -3.4
v -6.7 21.1 -3.4
v 4.2 21.1 -3.4
v 4.3 21.1 -3.4
v 4.5 21.1 -3.4
v -7 21.1 -3.6
v -6.8 21.1 -3.6
v -6.7 21.1 -3.6
v 4.2 21.1 -3.6
v 4.3 21.1 -3.6
v 4.5 21.1 -3.6
v -6.8 21.3 -3.3
v -6.7 21.3 -3.3
v 4.2 21.3 -3.3
v 4.3 21.3 -3.3
v -6.8 21.3 -4.8
v -6.7 21.3 -4.8
v 4.2 21.3 -4.8
v 4.3 21.3 -4.8

# faces
f 3/4/1 2/4/1 1/4/1
f 4/4/1 2/4/1 3/4/1
f 7/4/1 6/4/1 5/4/1
f 8/4/1 6/4/1 7/4/1
f 9/4/1 7/4/1 5/4/1
f 10/4/1 6/4/1 8/4/1
f 11/4/1 9/4/1 5/4/1
f 11/4/1 10/4/1 9/4/1
f 12/4/1 6/4/1 10/4/1
f 12/4/1 10/4/1 11/4/1
f 15/4/1 14/4/1 13/4/1
f 16/4/1 14/4/1 15/4/1
f 17/4/1 15/4/1 13/4/1
f 18/4/1 14/4/1 16/4/1
f 19/4/1 17/4/1 13/4/1
f 19/4/1 18/4/1 17/4/1
f 20/4/1 14/4/1 18/4/1
f 20/4/1 18/4/1 19/4/1
f 23/3/1 22/3/1 21/3/1
f 24/3/1 22/3/1 23/3/1
f 27/1/1 26/1/1 25/1/1
f 28/1/1 26/1/1 27/1/1
f 31/2/1 30/2/1 29/2/1
f 32/2/1 30/2/1 31/2/1
f 35/2/1 34/2/1 33/2/1
f 36/2/1 34/2/1 35/2/1
f 39/2/1 38/2/1 37/2/1
f 40/2/1 38/2/1 39/2/1
f 43/3/1 42/3/1 41/3/1
f 44/3/1 42/3/1 43/3/1
f 45/4/2 46/4/2 47/4/2
f 47/4/2 46/4/2 48/4/2
f 45/4/2 47/4/2 49/4/2
f 48/4/2 46/4/2 50/4/2
f 45/4/2 49/4/2 51/4/2
f 49/4/2 50/4/2 51/4/2
f 50/4/2 46/4/2 52/4/2
f 51/4/2 50/4/2 52/4/2
f 53/4/2 54/4/2 55/4/2
f 55/4/2 54/4/2 56/4/2
f 53/4/2 55/4/2 57/4/2
f 56/4/2 54/4/2 58/4/2
f 53/4/2 57/4/2 59/4/2
f 57/4/2 58/4/2 59/4/2
f 58/4/2 54/4/2 60/4/2
f 59/4/2 58/4/2 60/4/2
f 61/4/2 62/4/2 63/4/2
f 63/4/2 62/4/2 64/4/2
f 65/3/2 66/3/2 67/3/2
f 67/3/2 66/3/2 68/3/2
f 69/2/2 70/2/2 71/2/2
f 71/2/2 70/2/2 72/2/2
f 73/2/2 74/2/2 75/2/2
f 75/2/2 74/2/2 76/2/2
f 77/1/2 78/1/2 79/1/2
f 79/1/2 78/1/2 80/1/2
f 81/2/2 82/2/2 83/2/2
f 83/2/2 82/2/2 84/2/2
f 85/3/2 86/3/2 87/3/2
f 87/3/2 86/3/2 88/3/2
f 91/3/3 90/3/3 89/3/3
f 92/3/3 90/3/3 91/3/3
f 96/1/3 92/1/3 91/1/3
f 96/1/3 93/1/3 92/1/3
f 97/1/3 93/1/3 96/1/3
f 98/1/3 93/1/3 97/1/3
f 99/1/3 93/1/3 98/1/3
f 100/2/3 95/2/3 94/2/3
f 101/2/3 95/2/3 100/2/3
f 103/3/3 97/3/3 96/3/3
f 104/1/3 98/1/3 97/1/3
f 104/3/3 97/3/3 103/3/3
f 105/3/3 99/3/3 98/3/3
f 105/1/3 98/1/3 104/1/3
f 106/2/3 102/2/3 101/2/3
f 106/3/3 99/3/3 105/3/3
f 106/2/3 100/2/3 99/2/3
f 106/2/3 101/2/3 100/2/3
f 107/2/3 102/2/3 106/2/3
f 108/2/3 102/2/3 107/2/3
f 109/2/3 102/2/3 108/2/3
f 110/1/3 104/1/3 103/1/3
f 110/1/3 105/1/3 104/1/3
f 110/1/3 106/1/3 105/1/3
f 111/1/3 106/1/3 110/1/3
f 112/1/3 106/1/3 111/1/3
f 113/2/3 108/2/3 107/2/3
f 114/2/3 108/2/3 113/2/3
f 115/3/3 111/3/3 110/3/3
f 116/3/3 111/3/3 115/3/3
f 119/4/3 118/4/3 117/4/3
f 120/4/3 118/4/3 119/4/3
f 123/4/3 122/4/3 121/4/3
f 124/4/3 122/4/3 123/4/3
f 127/4/3 126/4/3 125/4/3
f 128/4/3 126/4/3 127/4/3
f 131/4/3 130/4/3 129/4/3
f 132/4/3 130/4/3 131/4/3
f 135/4/3 134/4/3 133/4/3
f 136/4/3 134/4/3 135/4/3
f 137/1/4 138/1/4 139/1/4
f 139/1/4 138/1/4 140/1/4
f 139/3/4 140/3/4 141/3/4
f 140/1/4 138/1/4 142/1/4
f 141/3/4 140/3/4 142/3/4
f 141/1/4 142/1/4 143/1/4
f 142/1/4 138/1/4 144/1/4
f 143/1/4 142/1/4 144/1/4
f 145/3/4 146/3/4 147/3/4
f 147/3/4 146/3/4 148/3/4
f 148/3/4 146/3/4 149/3/4
f 148/3/4 149/3/4 153/3/4
f 149/1/4 150/1/4 153/1/4
f 153/1/4 150/1/4 154/1/4
f 151/2/4 152/2/4 155/2/4
f 155/2/4 152/2/4 156/2/4
f 153/3/4 154/3/4 158/3/4
f 148/3/4 153/3/4 158/3/4
f 156/2/4 157/2/4 159/2/4
f 158/3/4 154/3/4 159/3/4
f 155/2/4 156/2/4 159/2/4
f 154/2/4 155/2/4 159/2/4
f 159/2/4 157/2/4 160/2/4
f 160/2/4 157/2/4 161/2/4
f 161/2/4 157/2/4 162/2/4
f 148/3/4 158/3/4 164/3/4
f 158/1/4 159/1/4 165/1/4
f 164/3/4 158/3/4 165/3/4
f 165/1/4 159/1/4 166/1/4
f 160/2/4 161/2/4 167/2/4
f 167/2/4 161/2/4 168/2/4
f 163/3/4 164/3/4 169/3/4
f 164/3/4 165/3/4 169/3/4
f 169/3/4 165/3/4 170/3/4
f 171/4/4 172/4/4 173/4/4
f 173/4/4 172/4/4 174/4/4
f 175/4/4 176/4/4 177/4/4
f 177/4/4 176/4/4 178/4/4
f 179/4/4 180/4/4 181/4/4
f 181/4/4 180/4/4 182/4/4
f 183/4/4 184/4/4 185/4/4
f 185/4/4 184/4/4 186/4/4
f 187/4/4 188/4/4 189/4/4
f 189/4/4 188/4/4 190/4/4
f 197/3/5 192/3/5 191/3/5
f 197/1/5 193/1/5 192/1/5
f 198/3/5 194/3/5 193/3/5
f 198/1/5 193/1/5 197/1/5
f 199/1/5 195/1/5 194/1/5
f 199/3/5 194/3/5 198/3/5
f 200/3/5 196/3/5 195/3/5
f 200/1/5 195/1/5 199/1/5
f 201/3/5 197/3/5 191/3/5
f 202/3/5 197/3/5 201/3/5
f 203/3/5 196/3/5 200/3/5
f 204/3/5 196/3/5 203/3/5
f 207/3/5 206/3/5 205/3/5
f 208/3/5 206/3/5 207/3/5
f 213/2/5 210/2/5 209/2/5
f 214/2/5 210/2/5 213/2/5
f 215/2/5 212/2/5 211/2/5
f 216/2/5 212/2/5 215/2/5
f 221/4/5 218/4/5 217/4/5
f 222/4/5 218/4/5 221/4/5
f 223/4/5 220/4/5 219/4/5
f 224/4/5 220/4/5 223/4/5
f 231/4/5 226/4/5 225/4/5
f 232/4/5 226/4/5 231/4/5
f 233/4/5 228/4/5 227/4/5
f 234/4/5 228/4/5 233/4/5
f 235/4/5 230/4/5 229/4/5
f 236/4/5 230/4/5 235/4/5
f 237/3/6 238/3/6 241/3/6
f 241/3/6 238/3/6 242/3/6
f 239/3/6 240/3/6 243/3/6
f 243/3/6 240/3/6 244/3/6
f 245/1/6 246/1/6 249/1/6
f 249/1/6 246/1/6 250/1/6
f 247/1/6 248/1/6 251/1/6
f 251/1/6 248/1/6 252/1/6
f 253/2/6 254/2/6 257/2/6
f 257/2/6 254/2/6 258/2/6
f 255/2/6 256/2/6 259/2/6
f 259/2/6 256/2/6 260/2/6
f 261/2/6 262/2/6 263/2/6
f 263/2/6 262/2/6 264/2/6
f 265/4/6 266/4/6 271/4/6
f 271/4/6 266/4/6 272/4/6
f 267/4/6 268/4/6 273/4/6
f 273/4/6 268/4/6 274/4/6
f 269/4/6 270/4/6 275/4/6
f 275/4/6 270/4/6 276/4/6
f 277/4/6 278/4/6 281/4/6
f 281/4/6 278/4/6 282/4/6
f 279/4/6 280/4/6 283/4/6
f 283/4/6 280/4/6 284/4/6
