# MagicaVoxel @ Ephtracy

# group
o 

# material
mtllib Lamp_for_table.mtl
usemtl palette

# normals
vn -1 0 0
vn 1 0 0
vn 0 0 1
vn 0 0 -1
vn 0 -1 0
vn 0 1 0

# texcoords
vt 0.166016 0.5
vt 0.169922 0.5
vt 0.177734 0.5

# verts
v -1.2 1.9 0.7
v -1.2 1.9 -0.8
v -1.2 2.3 0.7
v -1.2 2.3 -0.8
v -1.2 2.5 0.7
v -1.2 2.5 -0.8
v -1.1 1.9 0.9
v -1.1 1.9 0.7
v -1.1 1.9 -0.8
v -1.1 1.9 -1
v -1.1 2.3 0.9
v -1.1 2.3 0.7
v -1.1 2.3 -0.8
v -1.1 2.3 -1
v -1.1 2.5 0.9
v -1.1 2.5 0.7
v -1.1 2.5 -0.8
v -1.1 2.5 -1
v -0.9 1.9 1.1
v -0.9 1.9 0.9
v -0.9 1.9 -1
v -0.9 1.9 -1.2
v -0.9 2.3 1.1
v -0.9 2.3 0.9
v -0.9 2.3 -1
v -0.9 2.3 -1.2
v -0.9 2.5 1.1
v -0.9 2.5 0.9
v -0.9 2.5 -1
v -0.9 2.5 -1.2
v -0.7 1.9 1.2
v -0.7 1.9 1.1
v -0.7 2.3 1.2
v -0.7 2.3 1.1
v -0.7 2.5 1.2
v -0.7 2.5 1.1
v -0.6 1.9 -1.2
v -0.6 1.9 -1.3
v -0.6 2.3 -1.2
v -0.6 2.3 -1.3
v -0.6 2.5 -1.2
v -0.6 2.5 -1.3
v -0.5 0 0.4
v -0.5 0 -0.6
v -0.5 0.1 0.4
v -0.5 0.1 -0.6
v -0.4 0 0.5
v -0.4 0 0.4
v -0.4 0 -0.6
v -0.4 0 -0.7
v -0.4 0.1 0.5
v -0.4 0.1 0.4
v -0.4 0.1 -0.6
v -0.4 0.1 -0.7
v -0.3 0 0.6
v -0.3 0 0.5
v -0.3 0 -0.7
v -0.3 0 -0.8
v -0.3 0.1 0.6
v -0.3 0.1 0.5
v -0.3 0.1 -0.7
v -0.3 0.1 -0.8
v -0.2 0.1 -0.6
v -0.2 0.1 -0.7
v -0.2 0.2 -0.6
v -0.2 0.2 -0.7
v -0.1 0.1 0
v -0.1 0.1 -0.2
v -0.1 2.3 0
v -0.1 2.3 -0.2
v 0 0.1 0.1
v 0 0.1 0
v 0 0.1 -0.2
v 0 0.1 -0.3
v 0 2.3 0.1
v 0 2.3 0
v 0 2.3 -0.2
v 0 2.3 -0.3
v 0.0999999 0.1 -0.6
v 0.0999999 0.1 -0.7
v 0.0999999 0.2 -0.6
v 0.0999999 0.2 -0.7
v 0.7 1.9 -1.1
v 0.7 1.9 -1.2
v 0.7 2.3 -1.1
v 0.7 2.3 -1.2
v 0.8 1.9 1.1
v 0.8 1.9 1
v 0.8 2.3 1.1
v 0.8 2.3 1
v 0.9 1.9 1
v 0.9 1.9 0.9
v 0.9 1.9 -1
v 0.9 1.9 -1.1
v 0.9 2.3 1
v 0.9 2.3 0.9
v 0.9 2.3 -1
v 0.9 2.3 -1.1
v 1 1.9 0.9
v 1 1.9 0.8
v 1 1.9 -0.9
v 1 1.9 -1
v 1 2.3 0.9
v 1 2.3 0.8
v 1 2.3 -0.9
v 1 2.3 -1
v 1.1 1.9 0.8
v 1.1 1.9 0.7
v 1.1 1.9 -0.7
v 1.1 1.9 -0.9
v 1.1 2.3 0.8
v 1.1 2.3 0.7
v 1.1 2.3 -0.7
v 1.1 2.3 -0.9
v 1.2 1.9 0.7
v 1.2 1.9 -0.7
v 1.2 2.3 0.7
v 1.2 2.3 0.3
v 1.2 2.3 -0.6
v 1.2 2.3 -0.7
v -1.1 1.9 0.7
v -1.1 1.9 -0.8
v -1.1 2.3 0.7
v -1.1 2.3 -0.8
v -1 1.9 0.8
v -1 1.9 0.7
v -1 1.9 -0.8
v -1 1.9 -0.9
v -1 2.3 0.8
v -1 2.3 0.7
v -1 2.3 -0.8
v -1 2.3 -0.9
v -0.9 1.9 0.9
v -0.9 1.9 0.8
v -0.9 1.9 -0.9
v -0.9 1.9 -1
v -0.9 2.3 0.9
v -0.9 2.3 0.8
v -0.9 2.3 -0.9
v -0.9 2.3 -1
v -0.8 1.9 1
v -0.8 1.9 0.9
v -0.8 1.9 -1
v -0.8 1.9 -1.1
v -0.8 2.3 1
v -0.8 2.3 0.9
v -0.8 2.3 -1
v -0.8 2.3 -1.1
v -0.7 1.9 1.1
v -0.7 1.9 1
v -0.7 2.3 1.1
v -0.7 2.3 1
v -0.6 1.9 -1.1
v -0.6 1.9 -1.2
v -0.6 2.3 -1.1
v -0.6 2.3 -1.2
v -0.1 0.1 -0.6
v -0.1 0.1 -0.7
v -0.1 0.2 -0.6
v -0.1 0.2 -0.7
v 0.2 0.1 0.1
v 0.2 0.1 0
v 0.2 0.1 -0.2
v 0.2 0.1 -0.3
v 0.2 2.3 0.1
v 0.2 2.3 0
v 0.2 2.3 -0.2
v 0.2 2.3 -0.3
v 0.3 0.1 0
v 0.3 0.1 -0.2
v 0.3 0.1 -0.6
v 0.3 0.1 -0.7
v 0.3 0.2 -0.6
v 0.3 0.2 -0.7
v 0.3 2.3 0
v 0.3 2.3 -0.2
v 0.5 0 0.6
v 0.5 0 0.5
v 0.5 0 -0.7
v 0.5 0 -0.8
v 0.5 0.1 0.6
v 0.5 0.1 0.5
v 0.5 0.1 -0.7
v 0.5 0.1 -0.8
v 0.6 0 0.5
v 0.6 0 0.4
v 0.6 0 -0.5
v 0.6 0 -0.7
v 0.6 0.1 0.5
v 0.6 0.1 0.4
v 0.6 0.1 -0.5
v 0.6 0.1 -0.7
v 0.7 0 0.4
v 0.7 0 -0.5
v 0.7 0.1 0.4
v 0.7 0.1 -0.5
v 0.7 1.9 -1.2
v 0.7 1.9 -1.3
v 0.7 2.3 -1.2
v 0.7 2.3 -1.3
v 0.7 2.5 -1.2
v 0.7 2.5 -1.3
v 0.8 1.9 1.2
v 0.8 1.9 1.1
v 0.8 2.3 1.2
v 0.8 2.3 1.1
v 0.8 2.5 1.2
v 0.8 2.5 1.1
v 1 1.9 1.1
v 1 1.9 0.9
v 1 1.9 -1
v 1 1.9 -1.2
v 1 2.3 1.1
v 1 2.3 0.9
v 1 2.3 -1
v 1 2.3 -1.2
v 1 2.5 1.1
v 1 2.5 0.9
v 1 2.5 -1
v 1 2.5 -1.2
v 1.2 1.9 0.9
v 1.2 1.9 0.7
v 1.2 1.9 -0.7
v 1.2 1.9 -1
v 1.2 2.3 0.9
v 1.2 2.3 0.7
v 1.2 2.3 -0.7
v 1.2 2.3 -1
v 1.2 2.5 0.9
v 1.2 2.5 0.7
v 1.2 2.5 -0.7
v 1.2 2.5 -1
v 1.3 1.9 0.7
v 1.3 1.9 -0.7
v 1.3 2.3 0.7
v 1.3 2.3 -0.7
v 1.3 2.5 0.7
v 1.3 2.5 -0.7
v -0.7 1.9 1.2
v -0.7 2.3 1.2
v -0.7 2.5 1.2
v 0.8 1.9 1.2
v 0.8 2.3 1.2
v 0.8 2.5 1.2
v -0.9 1.9 1.1
v -0.9 2.3 1.1
v -0.9 2.5 1.1
v -0.7 1.9 1.1
v -0.7 2.3 1.1
v -0.7 2.5 1.1
v 0.8 1.9 1.1
v 0.8 2.3 1.1
v 0.8 2.5 1.1
v 1 1.9 1.1
v 1 2.3 1.1
v 1 2.5 1.1
v -1.1 1.9 0.9
v -1.1 2.3 0.9
v -1.1 2.5 0.9
v -0.9 1.9 0.9
v -0.9 2.3 0.9
v -0.9 2.5 0.9
v 1 1.9 0.9
v 1 2.3 0.9
v 1 2.5 0.9
v 1.2 1.9 0.9
v 1.2 2.3 0.9
v 1.2 2.5 0.9
v -1.2 1.9 0.7
v -1.2 2.3 0.7
v -1.2 2.5 0.7
v -1.1 1.9 0.7
v -1.1 2.3 0.7
v -1.1 2.5 0.7
v 1.2 1.9 0.7
v 1.2 2.3 0.7
v 1.2 2.5 0.7
v 1.3 1.9 0.7
v 1.3 2.3 0.7
v 1.3 2.5 0.7
v -0.3 0 0.6
v -0.3 0.1 0.6
v 0.5 0 0.6
v 0.5 0.1 0.6
v -0.4 0 0.5
v -0.4 0.1 0.5
v -0.3 0 0.5
v -0.3 0.1 0.5
v 0.5 0 0.5
v 0.5 0.1 0.5
v 0.6 0 0.5
v 0.6 0.1 0.5
v -0.5 0 0.4
v -0.5 0.1 0.4
v -0.4 0 0.4
v -0.4 0.1 0.4
v 0.6 0 0.4
v 0.6 0.1 0.4
v 0.7 0 0.4
v 0.7 0.1 0.4
v 0 0.1 0.1
v 0 2.3 0.1
v 0.2 0.1 0.1
v 0.2 2.3 0.1
v -0.1 0.1 0
v -0.1 2.3 0
v 0 0.1 0
v 0 2.3 0
v 0.2 0.1 0
v 0.2 2.3 0
v 0.3 0.1 0
v 0.3 2.3 0
v -0.2 0.1 -0.6
v -0.2 0.2 -0.6
v -0.1 0.1 -0.6
v -0.1 0.2 -0.6
v 0.0999999 0.1 -0.6
v 0.0999999 0.2 -0.6
v 0.3 0.1 -0.6
v 0.3 0.2 -0.6
v 1.1 1.9 -0.7
v 1.1 2.3 -0.7
v 1.2 1.9 -0.7
v 1.2 2.3 -0.7
v -1.1 1.9 -0.8
v -1.1 2.3 -0.8
v -1 1.9 -0.8
v -1 2.3 -0.8
v -1 1.9 -0.9
v -1 2.3 -0.9
v -0.9 1.9 -0.9
v -0.9 2.3 -0.9
v 1 1.9 -0.9
v 1 2.3 -0.9
v 1.1 1.9 -0.9
v 1.1 2.3 -0.9
v -0.9 1.9 -1
v -0.9 2.3 -1
v -0.8 1.9 -1
v -0.8 2.3 -1
v 0.9 1.9 -1
v 0.9 2.3 -1
v 1 1.9 -1
v 1 2.3 -1
v -0.8 1.9 -1.1
v -0.8 2.3 -1.1
v -0.6 1.9 -1.1
v -0.6 2.3 -1.1
v 0.7 1.9 -1.1
v 0.7 2.3 -1.1
v 0.8 2.3 -1.1
v 0.9 1.9 -1.1
v 0.9 2.3 -1.1
v -0.6 1.9 -1.2
v -0.6 2.3 -1.2
v 0.7 1.9 -1.2
v 0.7 2.3 -1.2
v -0.7 1.9 1.1
v -0.7 2.3 1.1
v -0.6 2.3 1.1
v 0.7 2.3 1.1
v 0.8 1.9 1.1
v 0.8 2.3 1.1
v -0.8 1.9 1
v -0.8 2.3 1
v -0.7 1.9 1
v -0.7 2.3 1
v 0.8 1.9 1
v 0.8 2.3 1
v 0.9 1.9 1
v 0.9 2.3 1
v -0.9 1.9 0.9
v -0.9 2.3 0.9
v -0.8 1.9 0.9
v -0.8 2.3 0.9
v 0.9 1.9 0.9
v 0.9 2.3 0.9
v 1 1.9 0.9
v 1 2.3 0.9
v -1 1.9 0.8
v -1 2.3 0.8
v -0.9 1.9 0.8
v -0.9 2.3 0.8
v 1 1.9 0.8
v 1 2.3 0.8
v 1.1 1.9 0.8
v 1.1 2.3 0.8
v -1.1 1.9 0.7
v -1.1 2.3 0.7
v -1 1.9 0.7
v -1 2.3 0.7
v 1.1 1.9 0.7
v 1.1 2.3 0.7
v 1.2 1.9 0.7
v 1.2 2.3 0.7
v -0.1 0.1 -0.2
v -0.1 2.3 -0.2
v 0 0.1 -0.2
v 0 2.3 -0.2
v 0.2 0.1 -0.2
v 0.2 2.3 -0.2
v 0.3 0.1 -0.2
v 0.3 2.3 -0.2
v 0 0.1 -0.3
v 0 2.3 -0.3
v 0.2 0.1 -0.3
v 0.2 2.3 -0.3
v 0.6 0 -0.5
v 0.6 0.1 -0.5
v 0.7 0 -0.5
v 0.7 0.1 -0.5
v -0.5 0 -0.6
v -0.5 0.1 -0.6
v -0.4 0 -0.6
v -0.4 0.1 -0.6
v -0.4 0 -0.7
v -0.4 0.1 -0.7
v -0.3 0 -0.7
v -0.3 0.1 -0.7
v -0.2 0.1 -0.7
v -0.2 0.2 -0.7
v -0.1 0.1 -0.7
v -0.1 0.2 -0.7
v 0.0999999 0.1 -0.7
v 0.0999999 0.2 -0.7
v 0.3 0.1 -0.7
v 0.3 0.2 -0.7
v 0.5 0 -0.7
v 0.5 0.1 -0.7
v 0.6 0 -0.7
v 0.6 0.1 -0.7
v 1.2 1.9 -0.7
v 1.2 2.3 -0.7
v 1.2 2.5 -0.7
v 1.3 1.9 -0.7
v 1.3 2.3 -0.7
v 1.3 2.5 -0.7
v -1.2 1.9 -0.8
v -1.2 2.3 -0.8
v -1.2 2.5 -0.8
v -1.1 1.9 -0.8
v -1.1 2.3 -0.8
v -1.1 2.5 -0.8
v -0.3 0 -0.8
v -0.3 0.1 -0.8
v 0.5 0 -0.8
v 0.5 0.1 -0.8
v -1.1 1.9 -1
v -1.1 2.3 -1
v -1.1 2.5 -1
v -0.9 1.9 -1
v -0.9 2.3 -1
v -0.9 2.5 -1
v 1 1.9 -1
v 1 2.3 -1
v 1 2.5 -1
v 1.2 1.9 -1
v 1.2 2.3 -1
v 1.2 2.5 -1
v -0.9 1.9 -1.2
v -0.9 2.3 -1.2
v -0.9 2.5 -1.2
v -0.6 1.9 -1.2
v -0.6 2.3 -1.2
v -0.6 2.5 -1.2
v 0.7 1.9 -1.2
v 0.7 2.3 -1.2
v 0.7 2.5 -1.2
v 1 1.9 -1.2
v 1 2.3 -1.2
v 1 2.5 -1.2
v -0.6 1.9 -1.3
v -0.6 2.3 -1.3
v -0.6 2.5 -1.3
v 0.7 1.9 -1.3
v 0.7 2.3 -1.3
v 0.7 2.5 -1.3
v -0.3 0 0.6
v 0.5 0 0.6
v -0.4 0 0.5
v -0.3 0 0.5
v 0.5 0 0.5
v 0.6 0 0.5
v -0.5 0 0.4
v -0.4 0 0.4
v 0.6 0 0.4
v 0.7 0 0.4
v 0.6 0 -0.5
v 0.7 0 -0.5
v -0.5 0 -0.6
v -0.4 0 -0.6
v -0.4 0 -0.7
v -0.3 0 -0.7
v 0.5 0 -0.7
v 0.6 0 -0.7
v -0.3 0 -0.8
v 0.5 0 -0.8
v -0.7 1.9 1.2
v 0.8 1.9 1.2
v -0.9 1.9 1.1
v -0.7 1.9 1.1
v 0.8 1.9 1.1
v 1 1.9 1.1
v -0.8 1.9 1
v -0.7 1.9 1
v 0.8 1.9 1
v 0.9 1.9 1
v -1.1 1.9 0.9
v -0.9 1.9 0.9
v -0.8 1.9 0.9
v 0.9 1.9 0.9
v 1 1.9 0.9
v 1.2 1.9 0.9
v -1 1.9 0.8
v -0.9 1.9 0.8
v 1 1.9 0.8
v 1.1 1.9 0.8
v -1.2 1.9 0.7
v -1.1 1.9 0.7
v -1 1.9 0.7
v 1.1 1.9 0.7
v 1.2 1.9 0.7
v 1.3 1.9 0.7
v 1.1 1.9 -0.7
v 1.2 1.9 -0.7
v 1.3 1.9 -0.7
v -1.2 1.9 -0.8
v -1.1 1.9 -0.8
v -1 1.9 -0.8
v -1 1.9 -0.9
v -0.9 1.9 -0.9
v 1 1.9 -0.9
v 1.1 1.9 -0.9
v -1.1 1.9 -1
v -0.9 1.9 -1
v -0.8 1.9 -1
v 0.9 1.9 -1
v 1 1.9 -1
v 1.2 1.9 -1
v -0.8 1.9 -1.1
v -0.6 1.9 -1.1
v 0.7 1.9 -1.1
v 0.9 1.9 -1.1
v -0.9 1.9 -1.2
v -0.6 1.9 -1.2
v 0.7 1.9 -1.2
v 1 1.9 -1.2
v -0.6 1.9 -1.3
v 0.7 1.9 -1.3
v -0.7 2.3 1.1
v -0.6 2.3 1.1
v 0.7 2.3 1.1
v 0.8 2.3 1.1
v -0.8 2.3 1
v -0.7 2.3 1
v 0.8 2.3 1
v 0.9 2.3 1
v -0.9 2.3 0.9
v -0.8 2.3 0.9
v 0.9 2.3 0.9
v 1 2.3 0.9
v -1 2.3 0.8
v -0.9 2.3 0.8
v 0.7 2.3 0.8
v 1 2.3 0.8
v 1.1 2.3 0.8
v -1.1 2.3 0.7
v -1 2.3 0.7
v -0.6 2.3 0.7
v 1.1 2.3 0.7
v 1.2 2.3 0.7
v 1.1 2.3 0.3
v 1.2 2.3 0.3
v 0 2.3 0.1
v 0.2 2.3 0.1
v -0.1 2.3 0
v 0 2.3 0
v 0.2 2.3 0
v 0.3 2.3 0
v -0.1 2.3 -0.2
v 0 2.3 -0.2
v 0.2 2.3 -0.2
v 0.3 2.3 -0.2
v 0 2.3 -0.3
v 0.2 2.3 -0.3
v 0.8 2.3 -0.6
v 1.2 2.3 -0.6
v 1.1 2.3 -0.7
v 1.2 2.3 -0.7
v -1.1 2.3 -0.8
v -1 2.3 -0.8
v -1 2.3 -0.9
v -0.9 2.3 -0.9
v -0.6 2.3 -0.9
v 1 2.3 -0.9
v 1.1 2.3 -0.9
v -0.9 2.3 -1
v -0.8 2.3 -1
v 0.9 2.3 -1
v 1 2.3 -1
v -0.8 2.3 -1.1
v -0.6 2.3 -1.1
v 0.7 2.3 -1.1
v 0.8 2.3 -1.1
v 0.9 2.3 -1.1
v -0.6 2.3 -1.2
v 0.7 2.3 -1.2
v -0.3 0.1 0.6
v 0.5 0.1 0.6
v -0.4 0.1 0.5
v -0.3 0.1 0.5
v 0.5 0.1 0.5
v 0.6 0.1 0.5
v -0.5 0.1 0.4
v -0.4 0.1 0.4
v 0.6 0.1 0.4
v 0.7 0.1 0.4
v 0 0.1 0.1
v 0.2 0.1 0.1
v -0.1 0.1 0
v 0 0.1 0
v 0.2 0.1 0
v 0.3 0.1 0
v -0.1 0.1 -0.2
v 0 0.1 -0.2
v 0.2 0.1 -0.2
v 0.3 0.1 -0.2
v 0 0.1 -0.3
v 0.2 0.1 -0.3
v 0.6 0.1 -0.5
v 0.7 0.1 -0.5
v -0.5 0.1 -0.6
v -0.4 0.1 -0.6
v -0.2 0.1 -0.6
v -0.1 0.1 -0.6
v 0.0999999 0.1 -0.6
v 0.3 0.1 -0.6
v -0.4 0.1 -0.7
v -0.3 0.1 -0.7
v -0.2 0.1 -0.7
v -0.1 0.1 -0.7
v 0.0999999 0.1 -0.7
v 0.3 0.1 -0.7
v 0.5 0.1 -0.7
v 0.6 0.1 -0.7
v -0.3 0.1 -0.8
v 0.5 0.1 -0.8
v -0.2 0.2 -0.6
v -0.1 0.2 -0.6
v 0.0999999 0.2 -0.6
v 0.3 0.2 -0.6
v -0.2 0.2 -0.7
v -0.1 0.2 -0.7
v 0.0999999 0.2 -0.7
v 0.3 0.2 -0.7
v -0.7 2.5 1.2
v 0.8 2.5 1.2
v -0.9 2.5 1.1
v -0.7 2.5 1.1
v 0.8 2.5 1.1
v 1 2.5 1.1
v -1.1 2.5 0.9
v -0.9 2.5 0.9
v 1 2.5 0.9
v 1.2 2.5 0.9
v -1.2 2.5 0.7
v -1.1 2.5 0.7
v 1.2 2.5 0.7
v 1.3 2.5 0.7
v 1.2 2.5 -0.7
v 1.3 2.5 -0.7
v -1.2 2.5 -0.8
v -1.1 2.5 -0.8
v -1.1 2.5 -1
v -0.9 2.5 -1
v 1 2.5 -1
v 1.2 2.5 -1
v -0.9 2.5 -1.2
v -0.6 2.5 -1.2
v 0.7 2.5 -1.2
v 1 2.5 -1.2
v -0.6 2.5 -1.3
v 0.7 2.5 -1.3

# faces
f 3/1/1 2/1/1 1/1/1
f 4/1/1 2/1/1 3/1/1
f 5/2/1 4/2/1 3/2/1
f 6/2/1 4/2/1 5/2/1
f 11/1/1 8/1/1 7/1/1
f 12/1/1 8/1/1 11/1/1
f 13/1/1 10/1/1 9/1/1
f 14/1/1 10/1/1 13/1/1
f 15/2/1 12/2/1 11/2/1
f 16/2/1 12/2/1 15/2/1
f 17/2/1 14/2/1 13/2/1
f 18/2/1 14/2/1 17/2/1
f 23/1/1 20/1/1 19/1/1
f 24/1/1 20/1/1 23/1/1
f 25/1/1 22/1/1 21/1/1
f 26/1/1 22/1/1 25/1/1
f 27/2/1 24/2/1 23/2/1
f 28/2/1 24/2/1 27/2/1
f 29/2/1 26/2/1 25/2/1
f 30/2/1 26/2/1 29/2/1
f 33/1/1 32/1/1 31/1/1
f 34/1/1 32/1/1 33/1/1
f 35/2/1 34/2/1 33/2/1
f 36/2/1 34/2/1 35/2/1
f 39/1/1 38/1/1 37/1/1
f 40/1/1 38/1/1 39/1/1
f 41/2/1 40/2/1 39/2/1
f 42/2/1 40/2/1 41/2/1
f 45/1/1 44/1/1 43/1/1
f 46/1/1 44/1/1 45/1/1
f 51/1/1 48/1/1 47/1/1
f 52/1/1 48/1/1 51/1/1
f 53/1/1 50/1/1 49/1/1
f 54/1/1 50/1/1 53/1/1
f 59/1/1 56/1/1 55/1/1
f 60/1/1 56/1/1 59/1/1
f 61/1/1 58/1/1 57/1/1
f 62/1/1 58/1/1 61/1/1
f 65/3/1 64/3/1 63/3/1
f 66/3/1 64/3/1 65/3/1
f 69/1/1 68/1/1 67/1/1
f 70/1/1 68/1/1 69/1/1
f 75/1/1 72/1/1 71/1/1
f 76/1/1 72/1/1 75/1/1
f 77/1/1 74/1/1 73/1/1
f 78/1/1 74/1/1 77/1/1
f 81/3/1 80/3/1 79/3/1
f 82/3/1 80/3/1 81/3/1
f 85/1/1 84/1/1 83/1/1
f 86/1/1 84/1/1 85/1/1
f 89/1/1 88/1/1 87/1/1
f 90/1/1 88/1/1 89/1/1
f 95/1/1 92/1/1 91/1/1
f 96/1/1 92/1/1 95/1/1
f 97/1/1 94/1/1 93/1/1
f 98/1/1 94/1/1 97/1/1
f 103/1/1 100/1/1 99/1/1
f 104/1/1 100/1/1 103/1/1
f 105/1/1 102/1/1 101/1/1
f 106/1/1 102/1/1 105/1/1
f 111/1/1 108/1/1 107/1/1
f 112/1/1 108/1/1 111/1/1
f 113/1/1 110/1/1 109/1/1
f 114/1/1 110/1/1 113/1/1
f 117/1/1 116/1/1 115/1/1
f 118/1/1 116/1/1 117/1/1
f 119/1/1 116/1/1 118/1/1
f 120/1/1 116/1/1 119/1/1
f 121/1/2 122/1/2 123/1/2
f 123/1/2 122/1/2 124/1/2
f 125/1/2 126/1/2 129/1/2
f 129/1/2 126/1/2 130/1/2
f 127/1/2 128/1/2 131/1/2
f 131/1/2 128/1/2 132/1/2
f 133/1/2 134/1/2 137/1/2
f 137/1/2 134/1/2 138/1/2
f 135/1/2 136/1/2 139/1/2
f 139/1/2 136/1/2 140/1/2
f 141/1/2 142/1/2 145/1/2
f 145/1/2 142/1/2 146/1/2
f 143/1/2 144/1/2 147/1/2
f 147/1/2 144/1/2 148/1/2
f 149/1/2 150/1/2 151/1/2
f 151/1/2 150/1/2 152/1/2
f 153/1/2 154/1/2 155/1/2
f 155/1/2 154/1/2 156/1/2
f 157/3/2 158/3/2 159/3/2
f 159/3/2 158/3/2 160/3/2
f 161/1/2 162/1/2 165/1/2
f 165/1/2 162/1/2 166/1/2
f 163/1/2 164/1/2 167/1/2
f 167/1/2 164/1/2 168/1/2
f 171/3/2 172/3/2 173/3/2
f 173/3/2 172/3/2 174/3/2
f 169/1/2 170/1/2 175/1/2
f 175/1/2 170/1/2 176/1/2
f 177/1/2 178/1/2 181/1/2
f 181/1/2 178/1/2 182/1/2
f 179/1/2 180/1/2 183/1/2
f 183/1/2 180/1/2 184/1/2
f 185/1/2 186/1/2 189/1/2
f 189/1/2 186/1/2 190/1/2
f 187/1/2 188/1/2 191/1/2
f 191/1/2 188/1/2 192/1/2
f 193/1/2 194/1/2 195/1/2
f 195/1/2 194/1/2 196/1/2
f 197/1/2 198/1/2 199/1/2
f 199/1/2 198/1/2 200/1/2
f 199/2/2 200/2/2 201/2/2
f 201/2/2 200/2/2 202/2/2
f 203/1/2 204/1/2 205/1/2
f 205/1/2 204/1/2 206/1/2
f 205/2/2 206/2/2 207/2/2
f 207/2/2 206/2/2 208/2/2
f 209/1/2 210/1/2 213/1/2
f 213/1/2 210/1/2 214/1/2
f 211/1/2 212/1/2 215/1/2
f 215/1/2 212/1/2 216/1/2
f 213/2/2 214/2/2 217/2/2
f 217/2/2 214/2/2 218/2/2
f 215/2/2 216/2/2 219/2/2
f 219/2/2 216/2/2 220/2/2
f 221/1/2 222/1/2 225/1/2
f 225/1/2 222/1/2 226/1/2
f 223/1/2 224/1/2 227/1/2
f 227/1/2 224/1/2 228/1/2
f 225/2/2 226/2/2 229/2/2
f 229/2/2 226/2/2 230/2/2
f 227/2/2 228/2/2 231/2/2
f 231/2/2 228/2/2 232/2/2
f 233/1/2 234/1/2 235/1/2
f 235/1/2 234/1/2 236/1/2
f 235/2/2 236/2/2 237/2/2
f 237/2/2 236/2/2 238/2/2
f 242/1/3 240/1/3 239/1/3
f 243/2/3 241/2/3 240/2/3
f 243/1/3 240/1/3 242/1/3
f 244/2/3 241/2/3 243/2/3
f 248/1/3 246/1/3 245/1/3
f 249/2/3 247/2/3 246/2/3
f 249/1/3 246/1/3 248/1/3
f 250/2/3 247/2/3 249/2/3
f 254/1/3 252/1/3 251/1/3
f 255/2/3 253/2/3 252/2/3
f 255/1/3 252/1/3 254/1/3
f 256/2/3 253/2/3 255/2/3
f 260/1/3 258/1/3 257/1/3
f 261/2/3 259/2/3 258/2/3
f 261/1/3 258/1/3 260/1/3
f 262/2/3 259/2/3 261/2/3
f 266/1/3 264/1/3 263/1/3
f 267/2/3 265/2/3 264/2/3
f 267/1/3 264/1/3 266/1/3
f 268/2/3 265/2/3 267/2/3
f 272/1/3 270/1/3 269/1/3
f 273/2/3 271/2/3 270/2/3
f 273/1/3 270/1/3 272/1/3
f 274/2/3 271/2/3 273/2/3
f 278/1/3 276/1/3 275/1/3
f 279/2/3 277/2/3 276/2/3
f 279/1/3 276/1/3 278/1/3
f 280/2/3 277/2/3 279/2/3
f 283/1/3 282/1/3 281/1/3
f 284/1/3 282/1/3 283/1/3
f 287/1/3 286/1/3 285/1/3
f 288/1/3 286/1/3 287/1/3
f 291/1/3 290/1/3 289/1/3
f 292/1/3 290/1/3 291/1/3
f 295/1/3 294/1/3 293/1/3
f 296/1/3 294/1/3 295/1/3
f 299/1/3 298/1/3 297/1/3
f 300/1/3 298/1/3 299/1/3
f 303/1/3 302/1/3 301/1/3
f 304/1/3 302/1/3 303/1/3
f 307/1/3 306/1/3 305/1/3
f 308/1/3 306/1/3 307/1/3
f 311/1/3 310/1/3 309/1/3
f 312/1/3 310/1/3 311/1/3
f 315/3/3 314/3/3 313/3/3
f 316/3/3 314/3/3 315/3/3
f 319/3/3 318/3/3 317/3/3
f 320/3/3 318/3/3 319/3/3
f 323/1/3 322/1/3 321/1/3
f 324/1/3 322/1/3 323/1/3
f 327/1/3 326/1/3 325/1/3
f 328/1/3 326/1/3 327/1/3
f 331/1/3 330/1/3 329/1/3
f 332/1/3 330/1/3 331/1/3
f 335/1/3 334/1/3 333/1/3
f 336/1/3 334/1/3 335/1/3
f 339/1/3 338/1/3 337/1/3
f 340/1/3 338/1/3 339/1/3
f 343/1/3 342/1/3 341/1/3
f 344/1/3 342/1/3 343/1/3
f 347/1/3 346/1/3 345/1/3
f 348/1/3 346/1/3 347/1/3
f 351/1/3 350/1/3 349/1/3
f 352/1/3 351/1/3 349/1/3
f 353/1/3 351/1/3 352/1/3
f 356/1/3 355/1/3 354/1/3
f 357/1/3 355/1/3 356/1/3
f 358/1/4 359/1/4 360/1/4
f 358/1/4 360/1/4 361/1/4
f 358/1/4 361/1/4 362/1/4
f 362/1/4 361/1/4 363/1/4
f 364/1/4 365/1/4 366/1/4
f 366/1/4 365/1/4 367/1/4
f 368/1/4 369/1/4 370/1/4
f 370/1/4 369/1/4 371/1/4
f 372/1/4 373/1/4 374/1/4
f 374/1/4 373/1/4 375/1/4
f 376/1/4 377/1/4 378/1/4
f 378/1/4 377/1/4 379/1/4
f 380/1/4 381/1/4 382/1/4
f 382/1/4 381/1/4 383/1/4
f 384/1/4 385/1/4 386/1/4
f 386/1/4 385/1/4 387/1/4
f 388/1/4 389/1/4 390/1/4
f 390/1/4 389/1/4 391/1/4
f 392/1/4 393/1/4 394/1/4
f 394/1/4 393/1/4 395/1/4
f 396/1/4 397/1/4 398/1/4
f 398/1/4 397/1/4 399/1/4
f 400/1/4 401/1/4 402/1/4
f 402/1/4 401/1/4 403/1/4
f 404/1/4 405/1/4 406/1/4
f 406/1/4 405/1/4 407/1/4
f 408/1/4 409/1/4 410/1/4
f 410/1/4 409/1/4 411/1/4
f 412/1/4 413/1/4 414/1/4
f 414/1/4 413/1/4 415/1/4
f 416/1/4 417/1/4 418/1/4
f 418/1/4 417/1/4 419/1/4
f 420/3/4 421/3/4 422/3/4
f 422/3/4 421/3/4 423/3/4
f 424/3/4 425/3/4 426/3/4
f 426/3/4 425/3/4 427/3/4
f 428/1/4 429/1/4 430/1/4
f 430/1/4 429/1/4 431/1/4
f 432/1/4 433/1/4 435/1/4
f 433/2/4 434/2/4 436/2/4
f 435/1/4 433/1/4 436/1/4
f 436/2/4 434/2/4 437/2/4
f 438/1/4 439/1/4 441/1/4
f 439/2/4 440/2/4 442/2/4
f 441/1/4 439/1/4 442/1/4
f 442/2/4 440/2/4 443/2/4
f 444/1/4 445/1/4 446/1/4
f 446/1/4 445/1/4 447/1/4
f 448/1/4 449/1/4 451/1/4
f 449/2/4 450/2/4 452/2/4
f 451/1/4 449/1/4 452/1/4
f 452/2/4 450/2/4 453/2/4
f 454/1/4 455/1/4 457/1/4
f 455/2/4 456/2/4 458/2/4
f 457/1/4 455/1/4 458/1/4
f 458/2/4 456/2/4 459/2/4
f 460/1/4 461/1/4 463/1/4
f 461/2/4 462/2/4 464/2/4
f 463/1/4 461/1/4 464/1/4
f 464/2/4 462/2/4 465/2/4
f 466/1/4 467/1/4 469/1/4
f 467/2/4 468/2/4 470/2/4
f 469/1/4 467/1/4 470/1/4
f 470/2/4 468/2/4 471/2/4
f 472/1/4 473/1/4 475/1/4
f 473/2/4 474/2/4 476/2/4
f 475/1/4 473/1/4 476/1/4
f 476/2/4 474/2/4 477/2/4
f 481/1/5 479/1/5 478/1/5
f 482/1/5 479/1/5 481/1/5
f 485/1/5 481/1/5 480/1/5
f 485/1/5 483/1/5 482/1/5
f 485/1/5 482/1/5 481/1/5
f 486/1/5 483/1/5 485/1/5
f 488/1/5 485/1/5 484/1/5
f 488/1/5 487/1/5 486/1/5
f 488/1/5 486/1/5 485/1/5
f 489/1/5 487/1/5 488/1/5
f 490/1/5 488/1/5 484/1/5
f 491/1/5 488/1/5 490/1/5
f 492/1/5 488/1/5 491/1/5
f 493/1/5 488/1/5 492/1/5
f 494/1/5 488/1/5 493/1/5
f 495/1/5 488/1/5 494/1/5
f 496/1/5 494/1/5 493/1/5
f 497/1/5 494/1/5 496/1/5
f 501/1/5 499/1/5 498/1/5
f 502/1/5 499/1/5 501/1/5
f 504/1/5 501/1/5 500/1/5
f 505/1/5 501/1/5 504/1/5
f 506/1/5 503/1/5 502/1/5
f 507/1/5 503/1/5 506/1/5
f 509/1/5 504/1/5 500/1/5
f 510/1/5 504/1/5 509/1/5
f 511/1/5 503/1/5 507/1/5
f 512/1/5 503/1/5 511/1/5
f 514/1/5 509/1/5 508/1/5
f 515/1/5 509/1/5 514/1/5
f 516/1/5 513/1/5 512/1/5
f 517/1/5 513/1/5 516/1/5
f 519/1/5 514/1/5 508/1/5
f 520/1/5 514/1/5 519/1/5
f 521/1/5 513/1/5 517/1/5
f 522/1/5 513/1/5 521/1/5
f 525/1/5 523/1/5 522/1/5
f 526/1/5 523/1/5 525/1/5
f 527/1/5 519/1/5 518/1/5
f 528/1/5 519/1/5 527/1/5
f 530/1/5 529/1/5 528/1/5
f 533/1/5 525/1/5 524/1/5
f 534/1/5 531/1/5 530/1/5
f 534/1/5 530/1/5 528/1/5
f 535/1/5 531/1/5 534/1/5
f 538/1/5 533/1/5 532/1/5
f 539/1/5 525/1/5 533/1/5
f 539/1/5 533/1/5 538/1/5
f 540/1/5 536/1/5 535/1/5
f 543/1/5 538/1/5 537/1/5
f 544/1/5 541/1/5 540/1/5
f 544/1/5 540/1/5 535/1/5
f 545/1/5 541/1/5 544/1/5
f 546/1/5 543/1/5 542/1/5
f 547/1/5 538/1/5 543/1/5
f 547/1/5 543/1/5 546/1/5
f 548/1/5 546/1/5 545/1/5
f 549/1/5 546/1/5 548/1/5
f 555/2/5 551/2/5 550/2/5
f 556/2/5 553/2/5 552/2/5
f 559/2/5 555/2/5 554/2/5
f 560/2/5 557/2/5 556/2/5
f 563/2/5 559/2/5 558/2/5
f 564/2/5 561/2/5 560/2/5
f 564/1/5 552/1/5 551/1/5
f 564/2/5 556/2/5 552/2/5
f 564/2/5 560/2/5 556/2/5
f 565/2/5 561/2/5 564/2/5
f 568/2/5 563/2/5 562/2/5
f 569/1/5 566/1/5 565/1/5
f 569/2/5 559/2/5 563/2/5
f 569/2/5 563/2/5 568/2/5
f 569/2/5 551/2/5 555/2/5
f 569/1/5 565/1/5 564/1/5
f 569/1/5 564/1/5 551/1/5
f 569/2/5 555/2/5 559/2/5
f 570/1/5 566/1/5 569/1/5
f 572/1/5 569/1/5 568/1/5
f 572/2/5 571/2/5 570/2/5
f 572/1/5 570/1/5 569/1/5
f 573/2/5 571/2/5 572/2/5
f 574/1/5 572/1/5 568/1/5
f 574/1/5 573/1/5 572/1/5
f 575/1/5 573/1/5 574/1/5
f 576/1/5 574/1/5 568/1/5
f 577/1/5 574/1/5 576/1/5
f 578/1/5 573/1/5 575/1/5
f 579/1/5 573/1/5 578/1/5
f 580/1/5 576/1/5 568/1/5
f 583/1/5 573/1/5 579/1/5
f 584/1/5 581/1/5 580/1/5
f 585/1/5 583/1/5 582/1/5
f 586/1/5 573/1/5 583/1/5
f 586/1/5 585/1/5 584/1/5
f 586/1/5 583/1/5 585/1/5
f 587/1/5 573/1/5 586/1/5
f 588/2/5 587/2/5 586/2/5
f 589/2/5 587/2/5 588/2/5
f 590/2/5 568/2/5 567/2/5
f 591/1/5 584/1/5 580/1/5
f 591/2/5 568/2/5 590/2/5
f 591/1/5 580/1/5 568/1/5
f 591/1/5 586/1/5 584/1/5
f 592/1/5 586/1/5 591/1/5
f 593/1/5 586/1/5 592/1/5
f 594/1/5 586/1/5 593/1/5
f 595/2/5 588/2/5 586/2/5
f 596/2/5 588/2/5 595/2/5
f 597/2/5 594/2/5 593/2/5
f 598/2/5 594/2/5 597/2/5
f 599/2/5 595/2/5 586/2/5
f 600/2/5 595/2/5 599/2/5
f 601/2/5 594/2/5 598/2/5
f 602/1/5 586/1/5 594/1/5
f 602/2/5 594/2/5 601/2/5
f 603/1/5 586/1/5 602/1/5
f 604/2/5 599/2/5 586/2/5
f 604/1/5 586/1/5 603/1/5
f 605/2/5 599/2/5 604/2/5
f 606/2/5 603/2/5 602/2/5
f 607/2/5 603/2/5 606/2/5
f 608/1/6 609/1/6 611/1/6
f 611/1/6 609/1/6 612/1/6
f 610/1/6 611/1/6 615/1/6
f 612/1/6 613/1/6 615/1/6
f 611/1/6 612/1/6 615/1/6
f 615/1/6 613/1/6 616/1/6
f 614/1/6 615/1/6 618/1/6
f 616/1/6 617/1/6 618/1/6
f 615/1/6 616/1/6 618/1/6
f 618/1/6 617/1/6 619/1/6
f 614/1/6 618/1/6 620/1/6
f 620/1/6 618/1/6 621/1/6
f 619/1/6 617/1/6 622/1/6
f 622/1/6 617/1/6 623/1/6
f 614/1/6 620/1/6 624/1/6
f 623/1/6 617/1/6 627/1/6
f 624/1/6 625/1/6 628/1/6
f 626/1/6 627/1/6 629/1/6
f 627/1/6 617/1/6 630/1/6
f 628/1/6 629/1/6 630/1/6
f 629/1/6 627/1/6 630/1/6
f 630/1/6 617/1/6 631/1/6
f 624/1/6 628/1/6 632/1/6
f 614/1/6 624/1/6 632/1/6
f 628/1/6 630/1/6 632/1/6
f 632/1/6 630/1/6 633/1/6
f 633/1/6 630/1/6 634/1/6
f 634/1/6 630/1/6 635/1/6
f 635/1/6 630/1/6 636/1/6
f 636/1/6 630/1/6 637/1/6
f 633/1/6 634/1/6 638/1/6
f 638/1/6 634/1/6 639/1/6
f 639/1/6 634/1/6 640/1/6
f 635/1/6 636/1/6 641/1/6
f 641/1/6 636/1/6 642/1/6
f 637/1/6 630/1/6 643/1/6
f 643/1/6 630/1/6 644/1/6
f 644/1/6 630/1/6 645/1/6
f 641/1/6 642/1/6 646/1/6
f 639/1/6 640/1/6 646/1/6
f 643/1/6 644/1/6 646/1/6
f 642/1/6 643/1/6 646/1/6
f 640/1/6 641/1/6 646/1/6
f 646/1/6 644/1/6 647/1/6
f 648/3/6 649/3/6 652/3/6
f 652/3/6 649/3/6 653/3/6
f 650/3/6 651/3/6 654/3/6
f 654/3/6 651/3/6 655/3/6
f 656/2/6 657/2/6 659/2/6
f 659/2/6 657/2/6 660/2/6
f 658/2/6 659/2/6 663/2/6
f 660/2/6 661/2/6 663/2/6
f 659/2/6 660/2/6 663/2/6
f 663/2/6 661/2/6 664/2/6
f 662/2/6 663/2/6 667/2/6
f 664/2/6 665/2/6 667/2/6
f 663/2/6 664/2/6 667/2/6
f 667/2/6 665/2/6 668/2/6
f 666/2/6 667/2/6 670/2/6
f 668/2/6 669/2/6 670/2/6
f 667/2/6 668/2/6 670/2/6
f 670/2/6 669/2/6 671/2/6
f 666/2/6 670/2/6 672/2/6
f 672/2/6 670/2/6 673/2/6
f 673/2/6 670/2/6 674/2/6
f 674/2/6 670/2/6 675/2/6
f 675/2/6 670/2/6 676/2/6
f 676/2/6 670/2/6 677/2/6
f 675/2/6 676/2/6 678/2/6
f 678/2/6 676/2/6 679/2/6
f 679/2/6 676/2/6 680/2/6
f 680/2/6 676/2/6 681/2/6
f 679/2/6 680/2/6 682/2/6
f 682/2/6 680/2/6 683/2/6
