# MagicaVoxel @ Ephtracy

# group
o 

# material
mtllib balcon.mtl
usemtl palette

# normals
vn -1 0 0
vn 1 0 0
vn 0 0 1
vn 0 0 -1
vn 0 -1 0
vn 0 1 0

# texcoords
vt 0.826172 0.5
vt 0.837891 0.5
vt 0.841797 0.5
vt 0.994141 0.5

# verts
v -12 0.2 -4.8
v -12 0.2 -5
v -12 25.6 -4.8
v -12 25.6 -5
v -11.4 1.6 -4.7
v -11.4 1.6 -4.8
v -11.4 20.3 -4.7
v -11.4 20.3 -4.8
v -11.2 2.7 -4.6
v -11.2 2.7 -4.7
v -11.2 2.8 -4.6
v -11.2 2.8 -4.7
v -11.1 8 -4.6
v -11.1 8 -4.7
v -11.1 8.1 -4.4
v -11.1 8.1 -4.6
v -11.1 8.1 -4.7
v -11.1 8.5 -4.4
v -11.1 8.5 -4.7
v -9.7 2.8 -4.6
v -9.7 2.8 -4.7
v -9.7 8 -4.6
v -9.7 8 -4.7
v -7.9 2.8 -4.6
v -7.9 2.8 -4.7
v -7.9 8 -4.6
v -7.9 8 -4.7
v -6.5 8.5 -4.7
v -6.5 8.5 -5
v -6.5 19.9 -4.7
v -6.5 19.9 -5
v -6.4 12.1 -4.4
v -6.4 12.1 -4.7
v -6.4 12.2 -4.6
v -6.4 12.2 -4.7
v -6.4 13.2 -4.6
v -6.4 13.2 -4.7
v -6.4 13.3 -4.4
v -6.4 13.3 -4.7
v -6 7.5 -3.6
v -6 7.5 -4.8
v -6 8.1 -3.6
v -6 8.1 -4.8
v -5.5 7.5 -4.8
v -5.5 7.5 -4.9
v -5.5 7.6 -4.8
v -5.5 7.6 -4.9
v -4.3 7.6 -4.8
v -4.3 7.6 -4.9
v -4.3 8.1 -4.8
v -4.3 8.1 -4.9
v -0.8 8.5 -4.8
v -0.8 8.5 -5
v -0.8 19.9 -4.8
v -0.8 19.9 -5
v 4 17.1 -4.8
v 4 17.1 -5
v 4 19.5 -4.8
v 4 19.5 -5
v 4.2 17.4 -4.5
v 4.2 17.4 -4.8
v 4.2 17.5 -4.6
v 4.2 17.5 -4.8
v 4.2 18.8 -4.6
v 4.2 18.8 -4.8
v 4.2 18.9 -4.5
v 4.2 18.9 -4.8
v 4.4 8.5 -4.8
v 4.4 8.5 -5
v 4.4 16.7 -4.8
v 4.4 16.7 -5
v -11 8.5 -4.7
v -11 8.5 -5
v -11 19.9 -4.7
v -11 19.9 -5
v -9.6 2.8 -4.6
v -9.6 2.8 -4.7
v -9.6 8 -4.6
v -9.6 8 -4.7
v -7.8 2.8 -4.6
v -7.8 2.8 -4.7
v -7.8 8 -4.6
v -7.8 8 -4.7
v -6.4 2.7 -4.6
v -6.4 2.7 -4.7
v -6.4 2.8 -4.6
v -6.4 2.8 -4.7
v -6.4 8 -4.6
v -6.4 8 -4.7
v -6.4 8.1 -4.4
v -6.4 8.1 -4.6
v -6.4 8.1 -4.7
v -6.4 8.5 -4.4
v -6.4 8.5 -4.7
v -6.2 12.1 -4.4
v -6.2 12.1 -4.7
v -6.2 12.2 -4.6
v -6.2 12.2 -4.7
v -6.2 13.2 -4.6
v -6.2 13.2 -4.7
v -6.2 13.3 -4.4
v -6.2 13.3 -4.7
v -6.1 1.6 -4.7
v -6.1 1.6 -4.8
v -6.1 20.3 -4.7
v -6.1 20.3 -4.8
v -6 7.5 -4.8
v -6 7.5 -4.9
v -6 8.1 -4.8
v -6 8.1 -4.9
v -5.3 8.5 -4.8
v -5.3 8.5 -5
v -5.3 19.9 -4.8
v -5.3 19.9 -5
v -0.3 8.5 -4.8
v -0.3 8.5 -5
v -0.3 16.7 -4.8
v -0.3 16.7 -5
v 0 17.1 -4.8
v 0 17.1 -5
v 0 19.5 -4.8
v 0 19.5 -5
v 4.3 17.4 -4.5
v 4.3 17.4 -4.8
v 4.3 17.5 -4.6
v 4.3 17.5 -4.8
v 4.3 18.8 -4.6
v 4.3 18.8 -4.8
v 4.3 18.9 -4.5
v 4.3 18.9 -4.8
v 5.1 7.5 -3.6
v 5.1 7.5 -4.8
v 5.1 8.1 -3.6
v 5.1 8.1 -4.8
v 5.6 0.2 -4.8
v 5.6 0.2 -5
v 5.6 25.6 -4.8
v 5.6 25.6 -5
v -6 7.5 -3.6
v -6 8.1 -3.6
v 5.1 7.5 -3.6
v 5.1 8.1 -3.6
v -11.1 8.1 -4.4
v -11.1 8.5 -4.4
v -6.4 8.1 -4.4
v -6.4 8.5 -4.4
v -6.4 12.1 -4.4
v -6.4 13.3 -4.4
v -6.2 12.1 -4.4
v -6.2 13.3 -4.4
v 4.2 17.4 -4.5
v 4.2 18.9 -4.5
v 4.3 17.4 -4.5
v 4.3 18.9 -4.5
v -11.2 2.7 -4.6
v -11.2 2.8 -4.6
v -11.1 8 -4.6
v -11.1 8.1 -4.6
v -9.7 2.8 -4.6
v -9.7 8 -4.6
v -9.6 2.8 -4.6
v -9.6 8 -4.6
v -7.9 2.8 -4.6
v -7.9 8 -4.6
v -7.8 2.8 -4.6
v -7.8 8 -4.6
v -6.4 2.7 -4.6
v -6.4 2.8 -4.6
v -6.4 8 -4.6
v -6.4 8.1 -4.6
v -11.4 1.6 -4.7
v -11.4 20.3 -4.7
v -11.2 2.7 -4.7
v -11.2 2.8 -4.7
v -11.1 2.8 -4.7
v -11.1 8 -4.7
v -11.1 8.1 -4.7
v -11.1 8.5 -4.7
v -11 8.5 -4.7
v -11 19.9 -4.7
v -9.7 2.8 -4.7
v -9.7 8 -4.7
v -9.6 2.8 -4.7
v -9.6 8 -4.7
v -7.9 2.8 -4.7
v -7.9 8 -4.7
v -7.8 2.8 -4.7
v -7.8 8 -4.7
v -6.5 8.5 -4.7
v -6.5 19.9 -4.7
v -6.4 2.7 -4.7
v -6.4 2.8 -4.7
v -6.4 8 -4.7
v -6.4 8.1 -4.7
v -6.4 8.5 -4.7
v -6.4 12.1 -4.7
v -6.4 12.2 -4.7
v -6.4 13.2 -4.7
v -6.4 13.3 -4.7
v -6.2 12.1 -4.7
v -6.2 12.2 -4.7
v -6.2 13.2 -4.7
v -6.2 13.3 -4.7
v -6.1 1.6 -4.7
v -6.1 20.3 -4.7
v -12 0.2 -4.8
v -12 25.6 -4.8
v -11.5 1.4 -4.8
v -11.5 20.3 -4.8
v -11.4 1.5 -4.8
v -11.4 1.6 -4.8
v -11.4 20.3 -4.8
v -6.1 1.5 -4.8
v -6.1 1.6 -4.8
v -6.1 20.3 -4.8
v -6 1.4 -4.8
v -6 7.5 -4.8
v -6 8.1 -4.8
v -5.7 8.1 -4.8
v -5.7 20.3 -4.8
v -5.3 8.5 -4.8
v -5.3 19.9 -4.8
v -0.8 8.5 -4.8
v -0.8 19.9 -4.8
v -0.3 8.5 -4.8
v -0.3 16.7 -4.8
v -0.3 16.9 -4.8
v -0.3 17.8 -4.8
v -0.3 18.5 -4.8
v -0.3 19.5 -4.8
v -0.2 16.9 -4.8
v -0.2 17.8 -4.8
v -0.2 18.5 -4.8
v -0.2 19.5 -4.8
v -0.2 19.7 -4.8
v -0.2 19.8 -4.8
v 0 17.1 -4.8
v 0 19.5 -4.8
v 0.0999994 16.8 -4.8
v 0.0999994 16.9 -4.8
v 4 17.1 -4.8
v 4 19.5 -4.8
v 4.2 16.9 -4.8
v 4.2 17.4 -4.8
v 4.2 17.5 -4.8
v 4.2 18.8 -4.8
v 4.2 18.9 -4.8
v 4.2 19.7 -4.8
v 4.3 16.8 -4.8
v 4.3 17.4 -4.8
v 4.3 17.5 -4.8
v 4.3 18.8 -4.8
v 4.3 18.9 -4.8
v 4.3 19.8 -4.8
v 4.4 8.5 -4.8
v 4.4 16.7 -4.8
v 4.8 8.1 -4.8
v 4.8 20.3 -4.8
v 5.1 7.5 -4.8
v 5.1 8.1 -4.8
v 5.6 0.2 -4.8
v 5.6 25.6 -4.8
v -6 7.5 -4.9
v -6 8.1 -4.9
v -5.7 8.1 -4.9
v -5.5 7.5 -4.9
v -5.5 7.6 -4.9
v -4.3 7.6 -4.9
v -4.3 8.1 -4.9
v -6.4 12.2 -4.6
v -6.4 13.2 -4.6
v -6.2 12.2 -4.6
v -6.2 13.2 -4.6
v 4.2 17.5 -4.6
v 4.2 18.8 -4.6
v 4.3 17.5 -4.6
v 4.3 18.8 -4.6
v -6 7.5 -4.8
v -6 8.1 -4.8
v -5.7 8.1 -4.8
v -5.5 7.5 -4.8
v -5.5 7.6 -4.8
v -4.3 7.6 -4.8
v -4.3 8.1 -4.8
v -12 0.2 -5
v -12 25.6 -5
v -11.1 8.4 -5
v -11.1 20 -5
v -11 8.5 -5
v -11 19.9 -5
v -6.5 8.5 -5
v -6.5 19.9 -5
v -6.4 8.4 -5
v -6.4 20 -5
v -5.4 8.4 -5
v -5.4 19.9 -5
v -5.3 8.5 -5
v -5.3 19.9 -5
v -5.3 20 -5
v -0.8 8.5 -5
v -0.8 19.9 -5
v -0.8 20 -5
v -0.7 8.4 -5
v -0.7 19.9 -5
v -0.400001 8.4 -5
v -0.400001 16.8 -5
v -0.3 8.5 -5
v -0.3 16.7 -5
v -0.1 17 -5
v -0.1 19.6 -5
v 0 17.1 -5
v 0 19.5 -5
v 4 17.1 -5
v 4 19.5 -5
v 4.1 17 -5
v 4.1 19.6 -5
v 4.4 8.4 -5
v 4.4 8.5 -5
v 4.4 16.7 -5
v 4.5 8.5 -5
v 4.5 16.8 -5
v 5.6 0.2 -5
v 5.6 25.6 -5
v -12 0.2 -4.8
v 5.6 0.2 -4.8
v -12 0.2 -5
v 5.6 0.2 -5
v -11.4 1.6 -4.7
v -6.1 1.6 -4.7
v -11.4 1.6 -4.8
v -6.1 1.6 -4.8
v -11.2 2.7 -4.6
v -6.4 2.7 -4.6
v -11.2 2.7 -4.7
v -6.4 2.7 -4.7
v -6 7.5 -3.6
v 5.1 7.5 -3.6
v -6 7.5 -4.8
v 5.1 7.5 -4.8
v -11.1 8 -4.6
v -9.7 8 -4.6
v -9.6 8 -4.6
v -7.9 8 -4.6
v -7.8 8 -4.6
v -6.4 8 -4.6
v -11.1 8 -4.7
v -9.7 8 -4.7
v -9.6 8 -4.7
v -7.9 8 -4.7
v -7.8 8 -4.7
v -6.4 8 -4.7
v -11.1 8.1 -4.4
v -6.4 8.1 -4.4
v -11.1 8.1 -4.6
v -6.4 8.1 -4.6
v -6 8.1 -4.8
v -5.7 8.1 -4.8
v -4.3 8.1 -4.8
v -6 8.1 -4.9
v -5.7 8.1 -4.9
v -4.3 8.1 -4.9
v -6.4 12.1 -4.4
v -6.2 12.1 -4.4
v -6.4 12.1 -4.7
v -6.2 12.1 -4.7
v -6.4 13.2 -4.6
v -6.2 13.2 -4.6
v -6.4 13.2 -4.7
v -6.2 13.2 -4.7
v -0.3 16.7 -4.8
v 4.4 16.7 -4.8
v -0.3 16.7 -5
v 4.4 16.7 -5
v 4.2 17.4 -4.5
v 4.3 17.4 -4.5
v 4.2 17.4 -4.8
v 4.3 17.4 -4.8
v 4.2 18.8 -4.6
v 4.3 18.8 -4.6
v 4.2 18.8 -4.8
v 4.3 18.8 -4.8
v 0 19.5 -4.8
v 4 19.5 -4.8
v 0 19.5 -5
v 4 19.5 -5
v -11 19.9 -4.7
v -6.5 19.9 -4.7
v -5.3 19.9 -4.8
v -0.8 19.9 -4.8
v -11 19.9 -5
v -6.5 19.9 -5
v -5.3 19.9 -5
v -0.8 19.9 -5
v -11.2 2.8 -4.6
v -9.7 2.8 -4.6
v -9.6 2.8 -4.6
v -7.9 2.8 -4.6
v -7.8 2.8 -4.6
v -6.4 2.8 -4.6
v -11.2 2.8 -4.7
v -11.1 2.8 -4.7
v -9.7 2.8 -4.7
v -9.6 2.8 -4.7
v -7.9 2.8 -4.7
v -7.8 2.8 -4.7
v -6.4 2.8 -4.7
v -6 7.5 -4.8
v -5.5 7.5 -4.8
v -6 7.5 -4.9
v -5.5 7.5 -4.9
v -5.5 7.6 -4.8
v -4.3 7.6 -4.8
v -5.5 7.6 -4.9
v -4.3 7.6 -4.9
v -6 8.1 -3.6
v 5.1 8.1 -3.6
v -6 8.1 -4.8
v -5.7 8.1 -4.8
v 4.8 8.1 -4.8
v 5.1 8.1 -4.8
v -11.1 8.5 -4.4
v -6.4 8.5 -4.4
v -11.1 8.5 -4.7
v -11 8.5 -4.7
v -6.5 8.5 -4.7
v -6.4 8.5 -4.7
v -5.3 8.5 -4.8
v -0.8 8.5 -4.8
v -0.3 8.5 -4.8
v 4.4 8.5 -4.8
v -11 8.5 -5
v -6.5 8.5 -5
v -5.3 8.5 -5
v -0.8 8.5 -5
v -0.3 8.5 -5
v 4.4 8.5 -5
v -6.4 12.2 -4.6
v -6.2 12.2 -4.6
v -6.4 12.2 -4.7
v -6.2 12.2 -4.7
v -6.4 13.3 -4.4
v -6.2 13.3 -4.4
v -6.4 13.3 -4.7
v -6.2 13.3 -4.7
v 0 17.1 -4.8
v 4 17.1 -4.8
v 0 17.1 -5
v 4 17.1 -5
v 4.2 17.5 -4.6
v 4.3 17.5 -4.6
v 4.2 17.5 -4.8
v 4.3 17.5 -4.8
v 4.2 18.9 -4.5
v 4.3 18.9 -4.5
v 4.2 18.9 -4.8
v 4.3 18.9 -4.8
v -11.4 20.3 -4.7
v -6.1 20.3 -4.7
v -11.4 20.3 -4.8
v -6.1 20.3 -4.8
v -12 25.6 -4.8
v 5.6 25.6 -4.8
v -12 25.6 -5
v 5.6 25.6 -5

# faces
f 3/1/1 2/1/1 1/1/1
f 4/1/1 2/1/1 3/1/1
f 7/2/1 6/2/1 5/2/1
f 8/2/1 6/2/1 7/2/1
f 11/4/1 10/4/1 9/4/1
f 12/4/1 10/4/1 11/4/1
f 16/4/1 14/4/1 13/4/1
f 17/4/1 14/4/1 16/4/1
f 18/2/1 16/2/1 15/2/1
f 18/2/1 17/2/1 16/2/1
f 19/2/1 17/2/1 18/2/1
f 22/4/1 21/4/1 20/4/1
f 23/4/1 21/4/1 22/4/1
f 26/4/1 25/4/1 24/4/1
f 27/4/1 25/4/1 26/4/1
f 30/2/1 29/2/1 28/2/1
f 31/2/1 29/2/1 30/2/1
f 34/4/1 33/4/1 32/4/1
f 35/4/1 33/4/1 34/4/1
f 36/4/1 34/4/1 32/4/1
f 38/4/1 36/4/1 32/4/1
f 38/4/1 37/4/1 36/4/1
f 39/4/1 37/4/1 38/4/1
f 42/2/1 41/2/1 40/2/1
f 43/2/1 41/2/1 42/2/1
f 46/1/1 45/1/1 44/1/1
f 47/1/1 45/1/1 46/1/1
f 50/1/1 49/1/1 48/1/1
f 51/1/1 49/1/1 50/1/1
f 54/2/1 53/2/1 52/2/1
f 55/2/1 53/2/1 54/2/1
f 58/2/1 57/2/1 56/2/1
f 59/2/1 57/2/1 58/2/1
f 62/2/1 61/2/1 60/2/1
f 63/2/1 61/2/1 62/2/1
f 64/2/1 62/2/1 60/2/1
f 66/2/1 64/2/1 60/2/1
f 66/2/1 65/2/1 64/2/1
f 67/2/1 65/2/1 66/2/1
f 70/2/1 69/2/1 68/2/1
f 71/2/1 69/2/1 70/2/1
f 72/2/2 73/2/2 74/2/2
f 74/2/2 73/2/2 75/2/2
f 76/4/2 77/4/2 78/4/2
f 78/4/2 77/4/2 79/4/2
f 80/4/2 81/4/2 82/4/2
f 82/4/2 81/4/2 83/4/2
f 84/4/2 85/4/2 86/4/2
f 86/4/2 85/4/2 87/4/2
f 88/4/2 89/4/2 91/4/2
f 91/4/2 89/4/2 92/4/2
f 90/2/2 91/2/2 93/2/2
f 91/2/2 92/2/2 93/2/2
f 93/2/2 92/2/2 94/2/2
f 95/4/2 96/4/2 97/4/2
f 97/4/2 96/4/2 98/4/2
f 95/4/2 97/4/2 99/4/2
f 95/4/2 99/4/2 101/4/2
f 99/4/2 100/4/2 101/4/2
f 101/4/2 100/4/2 102/4/2
f 103/2/2 104/2/2 105/2/2
f 105/2/2 104/2/2 106/2/2
f 107/3/2 108/3/2 109/3/2
f 109/3/2 108/3/2 110/3/2
f 111/2/2 112/2/2 113/2/2
f 113/2/2 112/2/2 114/2/2
f 115/2/2 116/2/2 117/2/2
f 117/2/2 116/2/2 118/2/2
f 119/2/2 120/2/2 121/2/2
f 121/2/2 120/2/2 122/2/2
f 123/2/2 124/2/2 125/2/2
f 125/2/2 124/2/2 126/2/2
f 123/2/2 125/2/2 127/2/2
f 123/2/2 127/2/2 129/2/2
f 127/2/2 128/2/2 129/2/2
f 129/2/2 128/2/2 130/2/2
f 131/2/2 132/2/2 133/2/2
f 133/2/2 132/2/2 134/2/2
f 135/1/2 136/1/2 137/1/2
f 137/1/2 136/1/2 138/1/2
f 141/2/3 140/2/3 139/2/3
f 142/2/3 140/2/3 141/2/3
f 145/2/3 144/2/3 143/2/3
f 146/2/3 144/2/3 145/2/3
f 149/4/3 148/4/3 147/4/3
f 150/4/3 148/4/3 149/4/3
f 153/2/3 152/2/3 151/2/3
f 154/2/3 152/2/3 153/2/3
f 159/4/3 156/4/3 155/4/3
f 160/4/3 158/4/3 157/4/3
f 161/4/3 159/4/3 155/4/3
f 161/4/3 160/4/3 159/4/3
f 162/4/3 158/4/3 160/4/3
f 162/4/3 160/4/3 161/4/3
f 163/4/3 161/4/3 155/4/3
f 164/4/3 158/4/3 162/4/3
f 165/4/3 163/4/3 155/4/3
f 165/4/3 164/4/3 163/4/3
f 166/4/3 158/4/3 164/4/3
f 166/4/3 164/4/3 165/4/3
f 167/4/3 165/4/3 155/4/3
f 168/4/3 165/4/3 167/4/3
f 169/4/3 158/4/3 166/4/3
f 170/4/3 158/4/3 169/4/3
f 173/2/3 172/2/3 171/2/3
f 174/2/3 172/2/3 173/2/3
f 175/2/3 172/2/3 174/2/3
f 176/2/3 172/2/3 175/2/3
f 177/2/3 172/2/3 176/2/3
f 178/2/3 172/2/3 177/2/3
f 179/2/3 172/2/3 178/2/3
f 180/2/3 172/2/3 179/2/3
f 181/3/3 176/3/3 175/3/3
f 182/3/3 176/3/3 181/3/3
f 185/3/3 184/3/3 183/3/3
f 186/3/3 184/3/3 185/3/3
f 190/2/3 172/2/3 180/2/3
f 191/2/3 173/2/3 171/2/3
f 192/3/3 188/3/3 187/3/3
f 193/3/3 188/3/3 192/3/3
f 195/2/3 190/2/3 189/2/3
f 196/2/3 190/2/3 195/2/3
f 197/2/3 190/2/3 196/2/3
f 198/2/3 190/2/3 197/2/3
f 199/2/3 190/2/3 198/2/3
f 200/2/3 194/2/3 193/2/3
f 200/2/3 192/2/3 191/2/3
f 200/2/3 193/2/3 192/2/3
f 200/2/3 196/2/3 195/2/3
f 200/2/3 195/2/3 194/2/3
f 201/2/3 198/2/3 197/2/3
f 202/2/3 198/2/3 201/2/3
f 203/2/3 190/2/3 199/2/3
f 204/2/3 202/2/3 201/2/3
f 204/2/3 203/2/3 202/2/3
f 204/2/3 191/2/3 171/2/3
f 204/2/3 200/2/3 191/2/3
f 204/2/3 201/2/3 200/2/3
f 205/2/3 190/2/3 203/2/3
f 205/2/3 203/2/3 204/2/3
f 205/2/3 172/2/3 190/2/3
f 208/1/3 207/1/3 206/1/3
f 209/1/3 207/1/3 208/1/3
f 210/3/3 209/3/3 208/3/3
f 211/3/3 209/3/3 210/3/3
f 212/1/3 207/1/3 209/1/3
f 212/3/3 209/3/3 211/3/3
f 213/4/3 211/4/3 210/4/3
f 213/3/3 210/3/3 208/3/3
f 214/4/3 211/4/3 213/4/3
f 215/1/3 207/1/3 212/1/3
f 216/1/3 208/1/3 206/1/3
f 216/3/3 215/3/3 214/3/3
f 216/3/3 214/3/3 213/3/3
f 216/3/3 213/3/3 208/3/3
f 217/3/3 215/3/3 216/3/3
f 218/3/3 215/3/3 217/3/3
f 219/3/3 215/3/3 218/3/3
f 220/1/3 207/1/3 215/1/3
f 220/3/3 215/3/3 219/3/3
f 221/2/3 220/2/3 219/2/3
f 222/2/3 220/2/3 221/2/3
f 223/2/3 221/2/3 219/2/3
f 224/2/3 220/2/3 222/2/3
f 225/2/3 223/2/3 219/2/3
f 225/2/3 224/2/3 223/2/3
f 226/2/3 224/2/3 225/2/3
f 227/2/3 224/2/3 226/2/3
f 228/2/3 224/2/3 227/2/3
f 229/2/3 224/2/3 228/2/3
f 230/2/3 224/2/3 229/2/3
f 231/2/3 227/2/3 226/2/3
f 231/4/3 228/4/3 227/4/3
f 232/2/3 229/2/3 228/2/3
f 232/4/3 228/4/3 231/4/3
f 233/4/3 230/4/3 229/4/3
f 233/2/3 229/2/3 232/2/3
f 234/2/3 224/2/3 230/2/3
f 234/4/3 230/4/3 233/4/3
f 235/2/3 224/2/3 234/2/3
f 236/2/3 224/2/3 235/2/3
f 237/2/3 233/2/3 232/2/3
f 237/2/3 232/2/3 231/2/3
f 237/2/3 234/2/3 233/2/3
f 237/2/3 235/2/3 234/2/3
f 238/2/3 235/2/3 237/2/3
f 239/2/3 231/2/3 226/2/3
f 239/2/3 237/2/3 231/2/3
f 240/2/3 237/2/3 239/2/3
f 241/2/3 237/2/3 240/2/3
f 242/2/3 235/2/3 238/2/3
f 243/2/3 241/2/3 240/2/3
f 243/2/3 242/2/3 241/2/3
f 243/4/3 240/4/3 239/4/3
f 244/2/3 242/2/3 243/2/3
f 245/2/3 242/2/3 244/2/3
f 246/2/3 242/2/3 245/2/3
f 247/2/3 242/2/3 246/2/3
f 248/4/3 236/4/3 235/4/3
f 248/2/3 242/2/3 247/2/3
f 248/2/3 235/2/3 242/2/3
f 249/2/3 239/2/3 226/2/3
f 249/4/3 243/4/3 239/4/3
f 249/4/3 244/4/3 243/4/3
f 250/4/3 244/4/3 249/4/3
f 251/4/3 246/4/3 245/4/3
f 252/4/3 246/4/3 251/4/3
f 253/4/3 248/4/3 247/4/3
f 254/2/3 224/2/3 236/2/3
f 254/4/3 236/4/3 248/4/3
f 254/4/3 248/4/3 253/4/3
f 255/2/3 225/2/3 219/2/3
f 256/2/3 253/2/3 252/2/3
f 256/2/3 250/2/3 249/2/3
f 256/2/3 254/2/3 253/2/3
f 256/2/3 251/2/3 250/2/3
f 256/2/3 252/2/3 251/2/3
f 256/2/3 249/2/3 226/2/3
f 257/2/3 255/2/3 219/2/3
f 257/2/3 256/2/3 255/2/3
f 258/1/3 207/1/3 220/1/3
f 258/2/3 256/2/3 257/2/3
f 258/2/3 220/2/3 224/2/3
f 258/2/3 224/2/3 254/2/3
f 258/2/3 254/2/3 256/2/3
f 259/1/3 217/1/3 216/1/3
f 260/1/3 258/1/3 257/1/3
f 261/1/3 216/1/3 206/1/3
f 261/1/3 260/1/3 259/1/3
f 261/1/3 259/1/3 216/1/3
f 262/1/3 258/1/3 260/1/3
f 262/1/3 260/1/3 261/1/3
f 262/1/3 207/1/3 258/1/3
f 265/1/3 264/1/3 263/1/3
f 266/1/3 265/1/3 263/1/3
f 267/1/3 265/1/3 266/1/3
f 268/1/3 265/1/3 267/1/3
f 269/1/3 265/1/3 268/1/3
f 270/4/4 271/4/4 272/4/4
f 272/4/4 271/4/4 273/4/4
f 274/2/4 275/2/4 276/2/4
f 276/2/4 275/2/4 277/2/4
f 278/2/4 279/2/4 280/2/4
f 278/2/4 280/2/4 281/2/4
f 281/2/4 280/2/4 282/2/4
f 282/2/4 280/2/4 283/2/4
f 283/2/4 280/2/4 284/2/4
f 285/1/4 286/1/4 287/1/4
f 287/1/4 286/1/4 288/1/4
f 287/2/4 288/2/4 289/2/4
f 289/2/4 288/2/4 290/2/4
f 287/2/4 289/2/4 291/2/4
f 290/2/4 288/2/4 292/2/4
f 285/1/4 287/1/4 293/1/4
f 291/2/4 292/2/4 293/2/4
f 287/2/4 291/2/4 293/2/4
f 292/2/4 288/2/4 294/2/4
f 293/2/4 292/2/4 294/2/4
f 288/1/4 286/1/4 294/1/4
f 285/1/4 293/1/4 295/1/4
f 293/1/4 294/1/4 295/1/4
f 295/1/4 294/1/4 296/1/4
f 295/2/4 296/2/4 297/2/4
f 296/1/4 294/1/4 298/1/4
f 297/2/4 296/2/4 298/2/4
f 294/1/4 286/1/4 299/1/4
f 298/1/4 294/1/4 299/1/4
f 295/2/4 297/2/4 300/2/4
f 298/2/4 299/2/4 301/2/4
f 299/1/4 286/1/4 302/1/4
f 301/2/4 299/2/4 302/2/4
f 300/2/4 301/2/4 303/2/4
f 285/1/4 295/1/4 303/1/4
f 295/2/4 300/2/4 303/2/4
f 301/1/4 302/1/4 304/1/4
f 303/2/4 301/2/4 304/2/4
f 285/1/4 303/1/4 305/1/4
f 303/1/4 304/1/4 305/1/4
f 305/1/4 304/1/4 306/1/4
f 305/2/4 306/2/4 307/2/4
f 307/2/4 306/2/4 308/2/4
f 306/1/4 304/1/4 309/1/4
f 309/1/4 304/1/4 310/1/4
f 309/2/4 310/2/4 311/2/4
f 311/2/4 310/2/4 312/2/4
f 309/2/4 311/2/4 313/2/4
f 312/2/4 310/2/4 314/2/4
f 306/1/4 309/1/4 315/1/4
f 313/2/4 314/2/4 315/2/4
f 309/2/4 313/2/4 315/2/4
f 314/2/4 310/2/4 316/2/4
f 315/2/4 314/2/4 316/2/4
f 310/1/4 304/1/4 316/1/4
f 285/1/4 305/1/4 317/1/4
f 305/2/4 307/2/4 317/2/4
f 317/2/4 307/2/4 318/2/4
f 308/2/4 306/2/4 319/2/4
f 317/1/4 318/1/4 320/1/4
f 318/2/4 319/2/4 320/2/4
f 319/2/4 306/2/4 321/2/4
f 320/2/4 319/2/4 321/2/4
f 315/1/4 316/1/4 321/1/4
f 306/1/4 315/1/4 321/1/4
f 317/1/4 320/1/4 322/1/4
f 285/1/4 317/1/4 322/1/4
f 320/1/4 321/1/4 322/1/4
f 302/1/4 286/1/4 323/1/4
f 322/1/4 321/1/4 323/1/4
f 304/1/4 302/1/4 323/1/4
f 316/1/4 304/1/4 323/1/4
f 321/1/4 316/1/4 323/1/4
f 326/1/5 325/1/5 324/1/5
f 327/1/5 325/1/5 326/1/5
f 330/2/5 329/2/5 328/2/5
f 331/2/5 329/2/5 330/2/5
f 334/4/5 333/4/5 332/4/5
f 335/4/5 333/4/5 334/4/5
f 338/2/5 337/2/5 336/2/5
f 339/2/5 337/2/5 338/2/5
f 346/4/5 341/4/5 340/4/5
f 347/4/5 341/4/5 346/4/5
f 348/4/5 343/4/5 342/4/5
f 349/4/5 343/4/5 348/4/5
f 350/4/5 345/4/5 344/4/5
f 351/4/5 345/4/5 350/4/5
f 354/2/5 353/2/5 352/2/5
f 355/2/5 353/2/5 354/2/5
f 359/3/5 357/3/5 356/3/5
f 360/2/5 358/2/5 357/2/5
f 360/3/5 357/3/5 359/3/5
f 361/2/5 358/2/5 360/2/5
f 364/4/5 363/4/5 362/4/5
f 365/4/5 363/4/5 364/4/5
f 368/4/5 367/4/5 366/4/5
f 369/4/5 367/4/5 368/4/5
f 372/2/5 371/2/5 370/2/5
f 373/2/5 371/2/5 372/2/5
f 376/2/5 375/2/5 374/2/5
f 377/2/5 375/2/5 376/2/5
f 380/2/5 379/2/5 378/2/5
f 381/2/5 379/2/5 380/2/5
f 384/2/5 383/2/5 382/2/5
f 385/2/5 383/2/5 384/2/5
f 390/2/5 387/2/5 386/2/5
f 391/2/5 387/2/5 390/2/5
f 392/2/5 389/2/5 388/2/5
f 393/2/5 389/2/5 392/2/5
f 394/4/6 395/4/6 400/4/6
f 400/4/6 395/4/6 401/4/6
f 401/4/6 395/4/6 402/4/6
f 396/4/6 397/4/6 403/4/6
f 403/4/6 397/4/6 404/4/6
f 398/4/6 399/4/6 405/4/6
f 405/4/6 399/4/6 406/4/6
f 407/1/6 408/1/6 409/1/6
f 409/1/6 408/1/6 410/1/6
f 411/1/6 412/1/6 413/1/6
f 413/1/6 412/1/6 414/1/6
f 415/2/6 416/2/6 417/2/6
f 417/2/6 416/2/6 418/2/6
f 418/2/6 416/2/6 419/2/6
f 419/2/6 416/2/6 420/2/6
f 421/2/6 422/2/6 423/2/6
f 423/2/6 422/2/6 424/2/6
f 424/2/6 422/2/6 425/2/6
f 425/2/6 422/2/6 426/2/6
f 424/2/6 425/2/6 431/2/6
f 431/2/6 425/2/6 432/2/6
f 427/2/6 428/2/6 433/2/6
f 433/2/6 428/2/6 434/2/6
f 429/2/6 430/2/6 435/2/6
f 435/2/6 430/2/6 436/2/6
f 437/4/6 438/4/6 439/4/6
f 439/4/6 438/4/6 440/4/6
f 441/4/6 442/4/6 443/4/6
f 443/4/6 442/4/6 444/4/6
f 445/2/6 446/2/6 447/2/6
f 447/2/6 446/2/6 448/2/6
f 449/2/6 450/2/6 451/2/6
f 451/2/6 450/2/6 452/2/6
f 453/2/6 454/2/6 455/2/6
f 455/2/6 454/2/6 456/2/6
f 457/2/6 458/2/6 459/2/6
f 459/2/6 458/2/6 460/2/6
f 461/1/6 462/1/6 463/1/6
f 463/1/6 462/1/6 464/1/6
