# MagicaVoxel @ Ephtracy

# group
o 

# material
mtllib kids_window.mtl
usemtl palette

# normals
vn -1 0 0
vn 1 0 0
vn 0 0 1
vn 0 0 -1
vn 0 -1 0
vn 0 1 0

# texcoords
vt 0.689453 0.5
vt 0.693359 0.5
vt 0.779297 0.5
vt 0.826172 0.5
vt 0.837891 0.5
vt 0.994141 0.5

# verts
v -12.8 0.2 -4.8
v -12.8 0.2 -5
v -12.8 25.6 -4.8
v -12.8 25.6 -5
v -9.4 7.5 -3.6
v -9.4 7.5 -4.8
v -9.4 8.1 -3.6
v -9.4 8.1 -4.8
v -6.3 7.5 -4.8
v -6.3 7.5 -4.9
v -6.3 7.6 -4.8
v -6.3 7.6 -4.9
v -5.1 7.6 -4.8
v -5.1 7.6 -4.9
v -5.1 8.1 -4.8
v -5.1 8.1 -4.9
v -4.2 8.5 -4.8
v -4.2 8.5 -5
v -4.2 19.9 -4.8
v -4.2 19.9 -5
v -3.8 7.5 -4.8
v -3.8 7.5 -4.9
v -3.8 8 -4.8
v -3.8 8 -4.9
v -3.8 8.1 -4.8
v -3.8 8.1 -4.9
v 0.599999 17.1 -4.8
v 0.599999 17.1 -5
v 0.599999 19.5 -4.8
v 0.599999 19.5 -5
v 0.799999 17.4 -4.5
v 0.799999 17.4 -4.8
v 0.799999 17.5 -4.6
v 0.799999 17.5 -4.8
v 0.799999 18.8 -4.6
v 0.799999 18.8 -4.8
v 0.799999 18.9 -4.5
v 0.799999 18.9 -4.8
v 1 8.5 -4.8
v 1 8.5 -5
v 1 16.7 -4.8
v 1 16.7 -5
v -8.7 8.5 -4.8
v -8.7 8.5 -5
v -8.7 19.9 -4.8
v -8.7 19.9 -5
v -6.8 7.5 -4.8
v -6.8 7.5 -4.9
v -6.8 8.1 -4.8
v -6.8 8.1 -4.9
v -3.9 7.5 -4.8
v -3.9 7.5 -4.9
v -3.9 8.1 -4.8
v -3.9 8.1 -4.9
v -3.7 8.5 -4.8
v -3.7 8.5 -5
v -3.7 16.7 -4.8
v -3.7 16.7 -5
v -3.4 17.1 -4.8
v -3.4 17.1 -5
v -3.4 19.5 -4.8
v -3.4 19.5 -5
v 0.9 17.4 -4.5
v 0.9 17.4 -4.8
v 0.9 17.5 -4.6
v 0.9 17.5 -4.8
v 0.9 18.8 -4.6
v 0.9 18.8 -4.8
v 0.9 18.9 -4.5
v 0.9 18.9 -4.8
v 1.7 7.5 -3.6
v 1.7 7.5 -4.8
v 1.7 8.1 -3.6
v 1.7 8.1 -4.8
v 4.8 0.2 -4.8
v 4.8 0.2 -5
v 4.8 25.6 -4.8
v 4.8 25.6 -5
v -9.4 7.5 -3.6
v -9.4 8.1 -3.6
v 1.7 7.5 -3.6
v 1.7 8.1 -3.6
v 0.799999 17.4 -4.5
v 0.799999 18.9 -4.5
v 0.9 17.4 -4.5
v 0.9 18.9 -4.5
v -12.8 0.2 -4.8
v -12.8 25.6 -4.8
v -12.4 0.2 -4.8
v -12.4 25.6 -4.8
v -11 0.2 -4.8
v -11 25.6 -4.8
v -10.2 0.2 -4.8
v -10.2 25.6 -4.8
v -9.4 7.5 -4.8
v -9.4 8.1 -4.8
v -9.1 8.1 -4.8
v -9.1 20.3 -4.8
v -8.8 0.2 -4.8
v -8.8 7.5 -4.8
v -8.8 20.3 -4.8
v -8.8 25.6 -4.8
v -8.7 8.5 -4.8
v -8.7 19.9 -4.8
v -8 0.2 -4.8
v -8 7.5 -4.8
v -8 20.3 -4.8
v -8 25.6 -4.8
v -6.6 0.2 -4.8
v -6.6 7.5 -4.8
v -6.6 20.3 -4.8
v -6.6 25.6 -4.8
v -5.8 0.2 -4.8
v -5.8 7.5 -4.8
v -5.8 20.3 -4.8
v -5.8 25.6 -4.8
v -4.4 0.2 -4.8
v -4.4 7.5 -4.8
v -4.4 20.3 -4.8
v -4.4 25.6 -4.8
v -4.2 8.5 -4.8
v -4.2 19.9 -4.8
v -3.7 8.5 -4.8
v -3.7 16.7 -4.8
v -3.7 16.9 -4.8
v -3.7 17.8 -4.8
v -3.7 18.5 -4.8
v -3.7 19.5 -4.8
v -3.6 0.2 -4.8
v -3.6 7.5 -4.8
v -3.6 16.9 -4.8
v -3.6 17.8 -4.8
v -3.6 18.5 -4.8
v -3.6 19.5 -4.8
v -3.6 19.7 -4.8
v -3.6 19.8 -4.8
v -3.6 20.3 -4.8
v -3.6 25.6 -4.8
v -3.4 17.1 -4.8
v -3.4 19.5 -4.8
v -3.3 16.8 -4.8
v -3.3 16.9 -4.8
v -2.2 0.2 -4.8
v -2.2 7.5 -4.8
v -2.2 20.3 -4.8
v -2.2 25.6 -4.8
v -1.4 0.2 -4.8
v -1.4 7.5 -4.8
v -1.4 20.3 -4.8
v -1.4 25.6 -4.8
v 0 0.2 -4.8
v 0 7.5 -4.8
v 0 20.3 -4.8
v 0 25.6 -4.8
v 0.599999 17.1 -4.8
v 0.599999 19.5 -4.8
v 0.799999 0.2 -4.8
v 0.799999 7.5 -4.8
v 0.799999 16.9 -4.8
v 0.799999 17.4 -4.8
v 0.799999 17.5 -4.8
v 0.799999 18.8 -4.8
v 0.799999 18.9 -4.8
v 0.799999 19.7 -4.8
v 0.799999 20.3 -4.8
v 0.799999 25.6 -4.8
v 0.9 16.8 -4.8
v 0.9 17.4 -4.8
v 0.9 17.5 -4.8
v 0.9 18.8 -4.8
v 0.9 18.9 -4.8
v 0.9 19.8 -4.8
v 1 8.5 -4.8
v 1 16.7 -4.8
v 1.4 8.1 -4.8
v 1.4 20.3 -4.8
v 1.7 7.5 -4.8
v 1.7 8.1 -4.8
v 2.2 0.2 -4.8
v 2.2 25.6 -4.8
v 3 0.2 -4.8
v 3 25.6 -4.8
v 4.4 0.2 -4.8
v 4.4 25.6 -4.8
v 4.8 0.2 -4.8
v 4.8 25.6 -4.8
v -6.8 7.5 -4.9
v -6.8 8.1 -4.9
v -6.6 7.5 -4.9
v -6.3 7.5 -4.9
v -6.3 7.6 -4.9
v -5.1 7.6 -4.9
v -5.1 8.1 -4.9
v -3.9 7.5 -4.9
v -3.9 8.1 -4.9
v -3.8 7.5 -4.9
v -3.8 8 -4.9
v -3.8 8.1 -4.9
v 0.799999 17.5 -4.6
v 0.799999 18.8 -4.6
v 0.9 17.5 -4.6
v 0.9 18.8 -4.6
v -6.8 7.5 -4.8
v -6.8 8.1 -4.8
v -6.6 7.5 -4.8
v -6.3 7.5 -4.8
v -6.3 7.6 -4.8
v -5.1 7.6 -4.8
v -5.1 8.1 -4.8
v -3.9 7.5 -4.8
v -3.9 8.1 -4.8
v -3.8 7.5 -4.8
v -3.8 8 -4.8
v -3.8 8.1 -4.8
v -12.8 0.2 -5
v -12.8 25.6 -5
v -12.7 0.2 -5
v -12.7 23.1 -5
v -12.4 23.1 -5
v -12.4 25.5 -5
v -12.4 25.6 -5
v -11 25.5 -5
v -11 25.6 -5
v -10.2 25.5 -5
v -10.2 25.6 -5
v -8.9 8.4 -5
v -8.9 19.9 -5
v -8.8 19.9 -5
v -8.8 20 -5
v -8.8 25.5 -5
v -8.8 25.6 -5
v -8.7 8.5 -5
v -8.7 19.9 -5
v -8 25.5 -5
v -8 25.6 -5
v -6.6 20.4 -5
v -6.6 25.5 -5
v -6.6 25.6 -5
v -5.8 20.3 -5
v -5.8 20.4 -5
v -5.8 25.6 -5
v -4.4 20.3 -5
v -4.4 25.6 -5
v -4.2 8.5 -5
v -4.2 19.9 -5
v -3.7 8.5 -5
v -3.7 16.7 -5
v -3.6 20.3 -5
v -3.6 25.6 -5
v -3.4 17.1 -5
v -3.4 19.5 -5
v -2.2 20.3 -5
v -2.2 25.5 -5
v -2.2 25.6 -5
v -1.4 20.3 -5
v -1.4 25.5 -5
v -1.4 25.6 -5
v 0 20.3 -5
v 0 25.6 -5
v 0.599999 17.1 -5
v 0.599999 19.5 -5
v 0.799999 20.3 -5
v 0.799999 25.6 -5
v 1 8.5 -5
v 1 16.7 -5
v 1.4 18.7 -5
v 1.4 20 -5
v 1.4 20.3 -5
v 1.5 8.4 -5
v 1.5 18.7 -5
v 2.2 18.7 -5
v 2.2 25.5 -5
v 2.2 25.6 -5
v 3 19.3 -5
v 3 25.5 -5
v 3 25.6 -5
v 4.4 8.7 -5
v 4.4 19.3 -5
v 4.4 25.6 -5
v 4.7 0.2 -5
v 4.7 8.7 -5
v 4.8 0.2 -5
v 4.8 25.6 -5
v -12.8 0.2 -4.8
v -12.4 0.2 -4.8
v -11 0.2 -4.8
v -10.2 0.2 -4.8
v -8.8 0.2 -4.8
v -8 0.2 -4.8
v -6.6 0.2 -4.8
v -5.8 0.2 -4.8
v -4.4 0.2 -4.8
v -3.6 0.2 -4.8
v -2.2 0.2 -4.8
v -1.4 0.2 -4.8
v 0 0.2 -4.8
v 0.799999 0.2 -4.8
v 2.2 0.2 -4.8
v 3 0.2 -4.8
v 4.4 0.2 -4.8
v 4.8 0.2 -4.8
v -12.7 0.2 -4.9
v -12.4 0.2 -4.9
v -11 0.2 -4.9
v -10.2 0.2 -4.9
v -8.8 0.2 -4.9
v -8 0.2 -4.9
v -6.6 0.2 -4.9
v -5.8 0.2 -4.9
v -4.4 0.2 -4.9
v -3.6 0.2 -4.9
v -2.2 0.2 -4.9
v -1.4 0.2 -4.9
v 0 0.2 -4.9
v 0.799999 0.2 -4.9
v 2.2 0.2 -4.9
v 3 0.2 -4.9
v 4.4 0.2 -4.9
v 4.7 0.2 -4.9
v -12.8 0.2 -5
v -12.7 0.2 -5
v 4.7 0.2 -5
v 4.8 0.2 -5
v -9.4 7.5 -3.6
v 1.7 7.5 -3.6
v -9.4 7.5 -4.8
v -8.8 7.5 -4.8
v -8 7.5 -4.8
v -6.6 7.5 -4.8
v -5.8 7.5 -4.8
v -4.4 7.5 -4.8
v -3.6 7.5 -4.8
v -2.2 7.5 -4.8
v -1.4 7.5 -4.8
v 0 7.5 -4.8
v 0.799999 7.5 -4.8
v 1.7 7.5 -4.8
v -6.8 8.1 -4.8
v -5.1 8.1 -4.8
v -3.9 8.1 -4.8
v -3.8 8.1 -4.8
v -6.8 8.1 -4.9
v -5.1 8.1 -4.9
v -3.9 8.1 -4.9
v -3.8 8.1 -4.9
v -3.7 16.7 -4.8
v 1 16.7 -4.8
v -3.7 16.7 -5
v 1 16.7 -5
v 0.799999 17.4 -4.5
v 0.9 17.4 -4.5
v 0.799999 17.4 -4.8
v 0.9 17.4 -4.8
v 0.799999 18.8 -4.6
v 0.9 18.8 -4.6
v 0.799999 18.8 -4.8
v 0.9 18.8 -4.8
v -3.4 19.5 -4.8
v 0.599999 19.5 -4.8
v -3.4 19.5 -5
v 0.599999 19.5 -5
v -8.7 19.9 -4.8
v -4.2 19.9 -4.8
v -8.7 19.9 -5
v -4.2 19.9 -5
v -6.8 7.5 -4.8
v -6.6 7.5 -4.8
v -6.3 7.5 -4.8
v -3.9 7.5 -4.8
v -3.8 7.5 -4.8
v -6.8 7.5 -4.9
v -6.6 7.5 -4.9
v -6.3 7.5 -4.9
v -3.9 7.5 -4.9
v -3.8 7.5 -4.9
v -6.3 7.6 -4.8
v -5.1 7.6 -4.8
v -6.3 7.6 -4.9
v -5.1 7.6 -4.9
v -9.4 8.1 -3.6
v 1.7 8.1 -3.6
v -9.4 8.1 -4.8
v -9.1 8.1 -4.8
v 1.4 8.1 -4.8
v 1.7 8.1 -4.8
v -8.7 8.5 -4.8
v -4.2 8.5 -4.8
v -3.7 8.5 -4.8
v 1 8.5 -4.8
v -8.7 8.5 -5
v -4.2 8.5 -5
v -3.7 8.5 -5
v 1 8.5 -5
v -3.4 17.1 -4.8
v 0.599999 17.1 -4.8
v -3.4 17.1 -5
v 0.599999 17.1 -5
v 0.799999 17.5 -4.6
v 0.9 17.5 -4.6
v 0.799999 17.5 -4.8
v 0.9 17.5 -4.8
v 0.799999 18.9 -4.5
v 0.9 18.9 -4.5
v 0.799999 18.9 -4.8
v 0.9 18.9 -4.8
v -12.8 25.6 -4.8
v -12.4 25.6 -4.8
v -11 25.6 -4.8
v -10.2 25.6 -4.8
v -8.8 25.6 -4.8
v -8 25.6 -4.8
v -6.6 25.6 -4.8
v -5.8 25.6 -4.8
v -4.4 25.6 -4.8
v -3.6 25.6 -4.8
v -2.2 25.6 -4.8
v -1.4 25.6 -4.8
v 0 25.6 -4.8
v 0.799999 25.6 -4.8
v 2.2 25.6 -4.8
v 3 25.6 -4.8
v 4.4 25.6 -4.8
v 4.8 25.6 -4.8
v -12.8 25.6 -5
v -12.4 25.6 -5
v -11 25.6 -5
v -10.2 25.6 -5
v -8.8 25.6 -5
v -8 25.6 -5
v -6.6 25.6 -5
v -5.8 25.6 -5
v -4.4 25.6 -5
v -3.6 25.6 -5
v -2.2 25.6 -5
v -1.4 25.6 -5
v 0 25.6 -5
v 0.799999 25.6 -5
v 2.2 25.6 -5
v 3 25.6 -5
v 4.4 25.6 -5
v 4.8 25.6 -5

# faces
f 3/2/1 2/2/1 1/2/1
f 4/2/1 2/2/1 3/2/1
f 7/5/1 6/5/1 5/5/1
f 8/5/1 6/5/1 7/5/1
f 11/4/1 10/4/1 9/4/1
f 12/4/1 10/4/1 11/4/1
f 15/4/1 14/4/1 13/4/1
f 16/4/1 14/4/1 15/4/1
f 19/5/1 18/5/1 17/5/1
f 20/5/1 18/5/1 19/5/1
f 23/3/1 22/3/1 21/3/1
f 24/3/1 22/3/1 23/3/1
f 25/5/1 24/5/1 23/5/1
f 26/5/1 24/5/1 25/5/1
f 29/5/1 28/5/1 27/5/1
f 30/5/1 28/5/1 29/5/1
f 33/5/1 32/5/1 31/5/1
f 34/5/1 32/5/1 33/5/1
f 35/5/1 33/5/1 31/5/1
f 37/5/1 35/5/1 31/5/1
f 37/5/1 36/5/1 35/5/1
f 38/5/1 36/5/1 37/5/1
f 41/5/1 40/5/1 39/5/1
f 42/5/1 40/5/1 41/5/1
f 43/5/2 44/5/2 45/5/2
f 45/5/2 44/5/2 46/5/2
f 47/4/2 48/4/2 49/4/2
f 49/4/2 48/4/2 50/4/2
f 51/4/2 52/4/2 53/4/2
f 53/4/2 52/4/2 54/4/2
f 55/5/2 56/5/2 57/5/2
f 57/5/2 56/5/2 58/5/2
f 59/5/2 60/5/2 61/5/2
f 61/5/2 60/5/2 62/5/2
f 63/5/2 64/5/2 65/5/2
f 65/5/2 64/5/2 66/5/2
f 63/5/2 65/5/2 67/5/2
f 63/5/2 67/5/2 69/5/2
f 67/5/2 68/5/2 69/5/2
f 69/5/2 68/5/2 70/5/2
f 71/5/2 72/5/2 73/5/2
f 73/5/2 72/5/2 74/5/2
f 75/2/2 76/2/2 77/2/2
f 77/2/2 76/2/2 78/2/2
f 81/5/3 80/5/3 79/5/3
f 82/5/3 80/5/3 81/5/3
f 85/5/3 84/5/3 83/5/3
f 86/5/3 84/5/3 85/5/3
f 89/2/3 88/2/3 87/2/3
f 90/2/3 88/2/3 89/2/3
f 91/1/3 90/1/3 89/1/3
f 92/1/3 90/1/3 91/1/3
f 93/2/3 92/2/3 91/2/3
f 94/2/3 92/2/3 93/2/3
f 95/1/3 94/1/3 93/1/3
f 96/1/3 94/1/3 95/1/3
f 97/1/3 94/1/3 96/1/3
f 98/1/3 94/1/3 97/1/3
f 99/1/3 95/1/3 93/1/3
f 100/1/3 95/1/3 99/1/3
f 101/1/3 94/1/3 98/1/3
f 101/5/3 98/5/3 97/5/3
f 102/1/3 94/1/3 101/1/3
f 103/5/3 101/5/3 97/5/3
f 104/5/3 101/5/3 103/5/3
f 105/2/3 100/2/3 99/2/3
f 106/2/3 100/2/3 105/2/3
f 107/5/3 101/5/3 104/5/3
f 107/2/3 102/2/3 101/2/3
f 108/2/3 102/2/3 107/2/3
f 109/1/3 106/1/3 105/1/3
f 110/1/3 106/1/3 109/1/3
f 111/5/3 107/5/3 104/5/3
f 111/1/3 108/1/3 107/1/3
f 112/1/3 108/1/3 111/1/3
f 113/2/3 110/2/3 109/2/3
f 114/2/3 110/2/3 113/2/3
f 115/5/3 111/5/3 104/5/3
f 115/2/3 112/2/3 111/2/3
f 116/2/3 112/2/3 115/2/3
f 117/1/3 114/1/3 113/1/3
f 118/1/3 114/1/3 117/1/3
f 119/5/3 115/5/3 104/5/3
f 119/1/3 116/1/3 115/1/3
f 120/1/3 116/1/3 119/1/3
f 121/5/3 103/5/3 97/5/3
f 122/5/3 119/5/3 104/5/3
f 123/5/3 121/5/3 97/5/3
f 123/5/3 122/5/3 121/5/3
f 124/5/3 122/5/3 123/5/3
f 125/5/3 122/5/3 124/5/3
f 126/5/3 122/5/3 125/5/3
f 127/5/3 122/5/3 126/5/3
f 128/5/3 122/5/3 127/5/3
f 129/2/3 118/2/3 117/2/3
f 130/2/3 118/2/3 129/2/3
f 131/5/3 125/5/3 124/5/3
f 131/6/3 126/6/3 125/6/3
f 132/5/3 127/5/3 126/5/3
f 132/6/3 126/6/3 131/6/3
f 133/6/3 128/6/3 127/6/3
f 133/5/3 127/5/3 132/5/3
f 134/5/3 122/5/3 128/5/3
f 134/6/3 128/6/3 133/6/3
f 135/5/3 122/5/3 134/5/3
f 136/5/3 122/5/3 135/5/3
f 137/5/3 119/5/3 122/5/3
f 137/5/3 122/5/3 136/5/3
f 137/2/3 120/2/3 119/2/3
f 138/2/3 120/2/3 137/2/3
f 139/5/3 133/5/3 132/5/3
f 139/5/3 135/5/3 134/5/3
f 139/5/3 132/5/3 131/5/3
f 139/5/3 134/5/3 133/5/3
f 140/5/3 135/5/3 139/5/3
f 141/5/3 131/5/3 124/5/3
f 141/5/3 139/5/3 131/5/3
f 142/5/3 139/5/3 141/5/3
f 143/1/3 130/1/3 129/1/3
f 144/1/3 130/1/3 143/1/3
f 145/1/3 138/1/3 137/1/3
f 145/5/3 137/5/3 136/5/3
f 146/1/3 138/1/3 145/1/3
f 147/2/3 144/2/3 143/2/3
f 148/2/3 144/2/3 147/2/3
f 149/5/3 145/5/3 136/5/3
f 149/2/3 146/2/3 145/2/3
f 150/2/3 146/2/3 149/2/3
f 151/1/3 148/1/3 147/1/3
f 152/1/3 148/1/3 151/1/3
f 153/5/3 149/5/3 136/5/3
f 153/1/3 150/1/3 149/1/3
f 154/1/3 150/1/3 153/1/3
f 155/5/3 139/5/3 142/5/3
f 156/5/3 135/5/3 140/5/3
f 157/2/3 152/2/3 151/2/3
f 158/2/3 152/2/3 157/2/3
f 159/5/3 155/5/3 142/5/3
f 159/6/3 142/6/3 141/6/3
f 159/5/3 156/5/3 155/5/3
f 160/5/3 156/5/3 159/5/3
f 161/5/3 156/5/3 160/5/3
f 162/5/3 156/5/3 161/5/3
f 163/5/3 156/5/3 162/5/3
f 164/6/3 136/6/3 135/6/3
f 164/5/3 156/5/3 163/5/3
f 164/5/3 135/5/3 156/5/3
f 165/5/3 153/5/3 136/5/3
f 165/2/3 154/2/3 153/2/3
f 166/2/3 154/2/3 165/2/3
f 167/5/3 141/5/3 124/5/3
f 167/6/3 159/6/3 141/6/3
f 167/6/3 160/6/3 159/6/3
f 168/6/3 160/6/3 167/6/3
f 169/6/3 162/6/3 161/6/3
f 170/6/3 162/6/3 169/6/3
f 171/6/3 164/6/3 163/6/3
f 172/6/3 136/6/3 164/6/3
f 172/5/3 165/5/3 136/5/3
f 172/6/3 164/6/3 171/6/3
f 173/5/3 123/5/3 97/5/3
f 174/5/3 168/5/3 167/5/3
f 174/5/3 171/5/3 170/5/3
f 174/5/3 172/5/3 171/5/3
f 174/5/3 169/5/3 168/5/3
f 174/5/3 170/5/3 169/5/3
f 174/5/3 167/5/3 124/5/3
f 175/5/3 173/5/3 97/5/3
f 175/5/3 174/5/3 173/5/3
f 176/5/3 165/5/3 172/5/3
f 176/5/3 174/5/3 175/5/3
f 176/1/3 166/1/3 165/1/3
f 176/5/3 172/5/3 174/5/3
f 177/1/3 158/1/3 157/1/3
f 178/1/3 176/1/3 175/1/3
f 179/1/3 177/1/3 157/1/3
f 179/1/3 178/1/3 177/1/3
f 180/1/3 166/1/3 176/1/3
f 180/1/3 178/1/3 179/1/3
f 180/1/3 176/1/3 178/1/3
f 181/2/3 180/2/3 179/2/3
f 182/2/3 180/2/3 181/2/3
f 183/1/3 182/1/3 181/1/3
f 184/1/3 182/1/3 183/1/3
f 185/2/3 184/2/3 183/2/3
f 186/2/3 184/2/3 185/2/3
f 189/4/3 188/4/3 187/4/3
f 190/4/3 188/4/3 189/4/3
f 191/4/3 188/4/3 190/4/3
f 192/4/3 188/4/3 191/4/3
f 193/4/3 188/4/3 192/4/3
f 196/4/3 195/4/3 194/4/3
f 197/4/3 195/4/3 196/4/3
f 198/4/3 195/4/3 197/4/3
f 199/5/4 200/5/4 201/5/4
f 201/5/4 200/5/4 202/5/4
f 203/5/4 204/5/4 205/5/4
f 205/5/4 204/5/4 206/5/4
f 206/5/4 204/5/4 207/5/4
f 207/5/4 204/5/4 208/5/4
f 208/5/4 204/5/4 209/5/4
f 210/5/4 211/5/4 212/5/4
f 212/5/4 211/5/4 213/5/4
f 213/5/4 211/5/4 214/5/4
f 215/2/4 216/2/4 217/2/4
f 217/2/4 216/2/4 218/2/4
f 217/4/4 218/4/4 219/4/4
f 218/2/4 216/2/4 219/2/4
f 219/2/4 216/2/4 220/2/4
f 220/2/4 216/2/4 221/2/4
f 219/4/4 220/4/4 222/4/4
f 220/1/4 221/1/4 222/1/4
f 222/1/4 221/1/4 223/1/4
f 219/4/4 222/4/4 224/4/4
f 222/2/4 223/2/4 224/2/4
f 224/2/4 223/2/4 225/2/4
f 217/4/4 219/4/4 226/4/4
f 219/4/4 224/4/4 226/4/4
f 226/4/4 224/4/4 227/4/4
f 226/5/4 227/5/4 228/5/4
f 227/4/4 224/4/4 228/4/4
f 228/4/4 224/4/4 229/4/4
f 224/1/4 225/1/4 230/1/4
f 229/4/4 224/4/4 230/4/4
f 230/1/4 225/1/4 231/1/4
f 228/5/4 229/5/4 232/5/4
f 226/5/4 228/5/4 232/5/4
f 232/5/4 229/5/4 233/5/4
f 230/2/4 231/2/4 234/2/4
f 229/4/4 230/4/4 234/4/4
f 234/2/4 231/2/4 235/2/4
f 229/4/4 234/4/4 236/4/4
f 234/1/4 235/1/4 237/1/4
f 236/4/4 234/4/4 237/4/4
f 237/1/4 235/1/4 238/1/4
f 229/4/4 236/4/4 239/4/4
f 236/2/4 237/2/4 240/2/4
f 239/4/4 236/4/4 240/4/4
f 237/2/4 238/2/4 240/2/4
f 240/2/4 238/2/4 241/2/4
f 229/4/4 239/4/4 242/4/4
f 239/1/4 240/1/4 242/1/4
f 240/1/4 241/1/4 242/1/4
f 242/1/4 241/1/4 243/1/4
f 226/5/4 232/5/4 244/5/4
f 233/5/4 229/5/4 245/5/4
f 226/5/4 244/5/4 246/5/4
f 244/5/4 245/5/4 246/5/4
f 246/5/4 245/5/4 247/5/4
f 229/4/4 242/4/4 248/4/4
f 242/2/4 243/2/4 248/2/4
f 248/2/4 243/2/4 249/2/4
f 247/5/4 245/5/4 250/5/4
f 250/5/4 245/5/4 251/5/4
f 229/4/4 248/4/4 252/4/4
f 248/1/4 249/1/4 252/1/4
f 252/1/4 249/1/4 253/1/4
f 253/1/4 249/1/4 254/1/4
f 229/4/4 252/4/4 255/4/4
f 252/4/4 253/4/4 255/4/4
f 253/2/4 254/2/4 256/2/4
f 255/4/4 253/4/4 256/4/4
f 256/2/4 254/2/4 257/2/4
f 229/4/4 255/4/4 258/4/4
f 255/1/4 256/1/4 258/1/4
f 256/1/4 257/1/4 258/1/4
f 258/1/4 257/1/4 259/1/4
f 247/5/4 250/5/4 260/5/4
f 251/5/4 245/5/4 261/5/4
f 229/4/4 258/4/4 262/4/4
f 258/2/4 259/2/4 262/2/4
f 262/2/4 259/2/4 263/2/4
f 226/5/4 246/5/4 264/5/4
f 247/5/4 260/5/4 265/5/4
f 260/5/4 261/5/4 265/5/4
f 265/5/4 261/5/4 266/5/4
f 264/5/4 265/5/4 266/5/4
f 245/5/4 229/5/4 267/5/4
f 266/5/4 261/5/4 267/5/4
f 261/5/4 245/5/4 267/5/4
f 229/4/4 262/4/4 267/4/4
f 262/1/4 263/1/4 268/1/4
f 267/4/4 262/4/4 268/4/4
f 217/4/4 226/4/4 269/4/4
f 264/5/4 266/5/4 269/5/4
f 226/5/4 264/5/4 269/5/4
f 267/1/4 268/1/4 270/1/4
f 269/5/4 266/5/4 270/5/4
f 266/1/4 267/1/4 270/1/4
f 269/4/4 270/4/4 271/4/4
f 270/1/4 268/1/4 271/1/4
f 268/1/4 263/1/4 272/1/4
f 271/1/4 268/1/4 272/1/4
f 272/1/4 263/1/4 273/1/4
f 271/4/4 272/4/4 274/4/4
f 272/2/4 273/2/4 275/2/4
f 274/4/4 272/4/4 275/4/4
f 275/2/4 273/2/4 276/2/4
f 269/4/4 271/4/4 277/4/4
f 271/4/4 274/4/4 277/4/4
f 275/1/4 276/1/4 278/1/4
f 277/4/4 274/4/4 278/4/4
f 274/1/4 275/1/4 278/1/4
f 278/1/4 276/1/4 279/1/4
f 217/4/4 269/4/4 280/4/4
f 269/4/4 277/4/4 280/4/4
f 278/2/4 279/2/4 281/2/4
f 280/4/4 277/4/4 281/4/4
f 277/2/4 278/2/4 281/2/4
f 280/2/4 281/2/4 282/2/4
f 281/2/4 279/2/4 283/2/4
f 282/2/4 281/2/4 283/2/4
f 302/2/5 285/2/5 284/2/5
f 303/1/5 286/1/5 285/1/5
f 303/2/5 285/2/5 302/2/5
f 304/2/5 287/2/5 286/2/5
f 304/1/5 286/1/5 303/1/5
f 305/1/5 288/1/5 287/1/5
f 305/2/5 287/2/5 304/2/5
f 306/2/5 289/2/5 288/2/5
f 306/1/5 288/1/5 305/1/5
f 307/1/5 290/1/5 289/1/5
f 307/2/5 289/2/5 306/2/5
f 308/2/5 291/2/5 290/2/5
f 308/1/5 290/1/5 307/1/5
f 309/1/5 292/1/5 291/1/5
f 309/2/5 291/2/5 308/2/5
f 310/2/5 293/2/5 292/2/5
f 310/1/5 292/1/5 309/1/5
f 311/1/5 294/1/5 293/1/5
f 311/2/5 293/2/5 310/2/5
f 312/2/5 295/2/5 294/2/5
f 312/1/5 294/1/5 311/1/5
f 313/1/5 296/1/5 295/1/5
f 313/2/5 295/2/5 312/2/5
f 314/2/5 297/2/5 296/2/5
f 314/1/5 296/1/5 313/1/5
f 315/1/5 298/1/5 297/1/5
f 315/2/5 297/2/5 314/2/5
f 316/2/5 299/2/5 298/2/5
f 316/1/5 298/1/5 315/1/5
f 317/1/5 300/1/5 299/1/5
f 317/2/5 299/2/5 316/2/5
f 318/2/5 301/2/5 300/2/5
f 318/1/5 300/1/5 317/1/5
f 319/2/5 301/2/5 318/2/5
f 320/2/5 302/2/5 284/2/5
f 321/4/5 317/4/5 316/4/5
f 321/2/5 302/2/5 320/2/5
f 321/4/5 303/4/5 302/4/5
f 321/4/5 319/4/5 318/4/5
f 321/4/5 318/4/5 317/4/5
f 321/4/5 316/4/5 315/4/5
f 321/4/5 315/4/5 314/4/5
f 321/4/5 314/4/5 313/4/5
f 321/4/5 313/4/5 312/4/5
f 321/4/5 312/4/5 311/4/5
f 321/4/5 311/4/5 310/4/5
f 321/4/5 310/4/5 309/4/5
f 321/4/5 309/4/5 308/4/5
f 321/4/5 308/4/5 307/4/5
f 321/4/5 307/4/5 306/4/5
f 321/4/5 306/4/5 305/4/5
f 321/4/5 305/4/5 304/4/5
f 321/4/5 304/4/5 303/4/5
f 322/2/5 301/2/5 319/2/5
f 322/4/5 319/4/5 321/4/5
f 323/2/5 301/2/5 322/2/5
f 326/5/5 325/5/5 324/5/5
f 327/5/5 325/5/5 326/5/5
f 328/5/5 325/5/5 327/5/5
f 329/5/5 325/5/5 328/5/5
f 330/5/5 325/5/5 329/5/5
f 331/5/5 325/5/5 330/5/5
f 332/5/5 325/5/5 331/5/5
f 333/5/5 325/5/5 332/5/5
f 334/5/5 325/5/5 333/5/5
f 335/5/5 325/5/5 334/5/5
f 336/5/5 325/5/5 335/5/5
f 337/5/5 325/5/5 336/5/5
f 342/5/5 339/5/5 338/5/5
f 343/5/5 339/5/5 342/5/5
f 344/5/5 341/5/5 340/5/5
f 345/5/5 341/5/5 344/5/5
f 348/5/5 347/5/5 346/5/5
f 349/5/5 347/5/5 348/5/5
f 352/5/5 351/5/5 350/5/5
f 353/5/5 351/5/5 352/5/5
f 356/5/5 355/5/5 354/5/5
f 357/5/5 355/5/5 356/5/5
f 360/5/5 359/5/5 358/5/5
f 361/5/5 359/5/5 360/5/5
f 364/5/5 363/5/5 362/5/5
f 365/5/5 363/5/5 364/5/5
f 366/1/6 367/1/6 371/1/6
f 367/2/6 368/2/6 372/2/6
f 371/1/6 367/1/6 372/1/6
f 372/2/6 368/2/6 373/2/6
f 369/2/6 370/2/6 374/2/6
f 374/2/6 370/2/6 375/2/6
f 376/4/6 377/4/6 378/4/6
f 378/4/6 377/4/6 379/4/6
f 380/5/6 381/5/6 382/5/6
f 382/5/6 381/5/6 383/5/6
f 383/5/6 381/5/6 384/5/6
f 384/5/6 381/5/6 385/5/6
f 386/5/6 387/5/6 390/5/6
f 390/5/6 387/5/6 391/5/6
f 388/5/6 389/5/6 392/5/6
f 392/5/6 389/5/6 393/5/6
f 394/5/6 395/5/6 396/5/6
f 396/5/6 395/5/6 397/5/6
f 398/5/6 399/5/6 400/5/6
f 400/5/6 399/5/6 401/5/6
f 402/5/6 403/5/6 404/5/6
f 404/5/6 403/5/6 405/5/6
f 406/2/6 407/2/6 424/2/6
f 407/1/6 408/1/6 425/1/6
f 424/2/6 407/2/6 425/2/6
f 408/2/6 409/2/6 426/2/6
f 425/1/6 408/1/6 426/1/6
f 409/1/6 410/1/6 427/1/6
f 426/2/6 409/2/6 427/2/6
f 410/2/6 411/2/6 428/2/6
f 427/1/6 410/1/6 428/1/6
f 411/1/6 412/1/6 429/1/6
f 428/2/6 411/2/6 429/2/6
f 412/2/6 413/2/6 430/2/6
f 429/1/6 412/1/6 430/1/6
f 413/1/6 414/1/6 431/1/6
f 430/2/6 413/2/6 431/2/6
f 414/2/6 415/2/6 432/2/6
f 431/1/6 414/1/6 432/1/6
f 415/1/6 416/1/6 433/1/6
f 432/2/6 415/2/6 433/2/6
f 416/2/6 417/2/6 434/2/6
f 433/1/6 416/1/6 434/1/6
f 417/1/6 418/1/6 435/1/6
f 434/2/6 417/2/6 435/2/6
f 418/2/6 419/2/6 436/2/6
f 435/1/6 418/1/6 436/1/6
f 419/1/6 420/1/6 437/1/6
f 436/2/6 419/2/6 437/2/6
f 420/2/6 421/2/6 438/2/6
f 437/1/6 420/1/6 438/1/6
f 421/1/6 422/1/6 439/1/6
f 438/2/6 421/2/6 439/2/6
f 422/2/6 423/2/6 440/2/6
f 439/1/6 422/1/6 440/1/6
f 440/2/6 423/2/6 441/2/6
