# MagicaVoxel @ Ephtracy

# group
o 

# material
mtllib lopata.mtl
usemtl palette

# normals
vn -1 0 0
vn 1 0 0
vn 0 0 1
vn 0 0 -1
vn 0 -1 0
vn 0 1 0

# texcoords
vt 0.501953 0.5
vt 0.505859 0.5
vt 0.509766 0.5

# verts
v 12.6 0 8
v 12.6 0 7.9
v 12.6 0 7.3
v 12.6 0 7.2
v 12.6 0.8 7.9
v 12.6 0.8 7.3
v 12.6 0.9 8
v 12.6 0.9 7.9
v 12.6 0.9 7.8
v 12.6 0.9 7.4
v 12.6 0.9 7.3
v 12.6 0.9 7.2
v 12.6 1.1 7.9
v 12.6 1.1 7.8
v 12.6 1.1 7.4
v 12.6 1.1 7.3
v 12.7 0 7.9
v 12.7 0 7.8
v 12.7 0 7.4
v 12.7 0 7.3
v 12.7 0.7 7.8
v 12.7 0.7 7.4
v 12.7 0.8 7.9
v 12.7 0.8 7.3
v 12.7 1.1 7.8
v 12.7 1.1 7.4
v 12.7 3.7 7.9
v 12.7 3.7 7.8
v 12.7 3.7 7.4
v 12.7 3.7 7.3
v 12.7 4 7.9
v 12.7 4 7.8
v 12.7 4 7.4
v 12.7 4 7.3
v 12.7 4.1 7.8
v 12.7 4.1 7.4
v 12.8 0 8
v 12.8 0 7.9
v 12.8 0 7.8
v 12.8 0 7.4
v 12.8 0 7.3
v 12.8 0 7.2
v 12.8 0.7 7.8
v 12.8 0.7 7.4
v 12.8 0.8 7.9
v 12.8 0.8 7.8
v 12.8 0.8 7.4
v 12.8 0.8 7.3
v 12.8 0.9 8
v 12.8 0.9 7.9
v 12.8 0.9 7.3
v 12.8 0.9 7.2
v 12.8 1.1 7.9
v 12.8 1.1 7.8
v 12.8 1.1 7.4
v 12.8 1.1 7.3
v 12.8 3.7 7.9
v 12.8 3.7 7.8
v 12.8 3.7 7.4
v 12.8 3.7 7.3
v 12.8 4 7.9
v 12.8 4 7.8
v 12.8 4 7.4
v 12.8 4 7.3
v 12.8 4.1 7.8
v 12.8 4.1 7.4
v 12.6 0 8
v 12.6 0.9 8
v 12.8 0 8
v 12.8 0.9 8
v 12.6 0.9 7.9
v 12.6 1.1 7.9
v 12.7 0.9 7.9
v 12.7 1.1 7.9
v 12.7 3.7 7.9
v 12.7 4 7.9
v 12.8 0.9 7.9
v 12.8 1.1 7.9
v 12.8 3.7 7.9
v 12.8 4 7.9
v 12.7 1.1 7.8
v 12.7 3.7 7.8
v 12.7 4 7.8
v 12.7 4.1 7.8
v 12.8 1.1 7.8
v 12.8 3.7 7.8
v 12.8 4 7.8
v 12.8 4.1 7.8
v 12.6 0 7.3
v 12.6 0.8 7.3
v 12.7 0 7.3
v 12.7 0.8 7.3
v 12.6 0 7.9
v 12.6 0.8 7.9
v 12.7 0 7.9
v 12.7 0.8 7.9
v 12.7 1.1 7.4
v 12.7 3.7 7.4
v 12.7 4 7.4
v 12.7 4.1 7.4
v 12.8 1.1 7.4
v 12.8 3.7 7.4
v 12.8 4 7.4
v 12.8 4.1 7.4
v 12.6 0.9 7.3
v 12.6 1.1 7.3
v 12.7 0.9 7.3
v 12.7 1.1 7.3
v 12.7 3.7 7.3
v 12.7 4 7.3
v 12.8 0.9 7.3
v 12.8 1.1 7.3
v 12.8 3.7 7.3
v 12.8 4 7.3
v 12.6 0 7.2
v 12.6 0.9 7.2
v 12.8 0 7.2
v 12.8 0.9 7.2
v 12.6 0 8
v 12.8 0 8
v 12.6 0 7.9
v 12.7 0 7.9
v 12.8 0 7.9
v 12.7 0 7.8
v 12.8 0 7.8
v 12.7 0 7.4
v 12.8 0 7.4
v 12.6 0 7.3
v 12.7 0 7.3
v 12.8 0 7.3
v 12.6 0 7.2
v 12.8 0 7.2
v 12.6 0.8 7.9
v 12.7 0.8 7.9
v 12.6 0.8 7.3
v 12.7 0.8 7.3
v 12.7 3.7 7.9
v 12.8 3.7 7.9
v 12.7 3.7 7.8
v 12.8 3.7 7.8
v 12.7 3.7 7.4
v 12.8 3.7 7.4
v 12.7 3.7 7.3
v 12.8 3.7 7.3
v 12.6 0.9 8
v 12.8 0.9 8
v 12.6 0.9 7.9
v 12.7 0.9 7.9
v 12.8 0.9 7.9
v 12.6 0.9 7.3
v 12.7 0.9 7.3
v 12.8 0.9 7.3
v 12.6 0.9 7.2
v 12.8 0.9 7.2
v 12.6 1.1 7.9
v 12.7 1.1 7.9
v 12.8 1.1 7.9
v 12.6 1.1 7.8
v 12.7 1.1 7.8
v 12.8 1.1 7.8
v 12.6 1.1 7.4
v 12.7 1.1 7.4
v 12.8 1.1 7.4
v 12.6 1.1 7.3
v 12.7 1.1 7.3
v 12.8 1.1 7.3
v 12.7 4 7.9
v 12.8 4 7.9
v 12.7 4 7.8
v 12.8 4 7.8
v 12.7 4 7.4
v 12.8 4 7.4
v 12.7 4 7.3
v 12.8 4 7.3
v 12.7 4.1 7.8
v 12.8 4.1 7.8
v 12.7 4.1 7.4
v 12.8 4.1 7.4

# faces
f 5/3/1 2/3/1 1/3/1
f 6/3/1 4/3/1 3/3/1
f 7/3/1 5/3/1 1/3/1
f 7/3/1 6/3/1 5/3/1
f 8/3/1 6/3/1 7/3/1
f 9/3/1 6/3/1 8/3/1
f 10/3/1 6/3/1 9/3/1
f 11/3/1 4/3/1 6/3/1
f 11/3/1 6/3/1 10/3/1
f 12/3/1 4/3/1 11/3/1
f 13/1/1 9/1/1 8/1/1
f 14/3/1 10/3/1 9/3/1
f 14/1/1 9/1/1 13/1/1
f 15/1/1 11/1/1 10/1/1
f 15/3/1 10/3/1 14/3/1
f 16/1/1 11/1/1 15/1/1
f 21/1/1 18/1/1 17/1/1
f 21/3/1 19/3/1 18/3/1
f 22/1/1 20/1/1 19/1/1
f 22/3/1 19/3/1 21/3/1
f 23/1/1 21/1/1 17/1/1
f 23/1/1 22/1/1 21/1/1
f 24/1/1 20/1/1 22/1/1
f 24/1/1 22/1/1 23/1/1
f 28/2/1 26/2/1 25/2/1
f 29/2/1 26/2/1 28/2/1
f 31/2/1 28/2/1 27/2/1
f 31/2/1 30/2/1 29/2/1
f 31/2/1 29/2/1 28/2/1
f 32/2/1 30/2/1 31/2/1
f 33/2/1 30/2/1 32/2/1
f 34/2/1 30/2/1 33/2/1
f 35/2/1 33/2/1 32/2/1
f 36/2/1 33/2/1 35/2/1
f 38/1/2 39/1/2 43/1/2
f 39/3/2 40/3/2 43/3/2
f 40/1/2 41/1/2 44/1/2
f 43/3/2 40/3/2 44/3/2
f 37/3/2 38/3/2 45/3/2
f 38/1/2 43/1/2 45/1/2
f 43/1/2 44/1/2 45/1/2
f 45/1/2 44/1/2 46/1/2
f 44/1/2 41/1/2 47/1/2
f 46/1/2 44/1/2 47/1/2
f 41/3/2 42/3/2 48/3/2
f 47/1/2 41/1/2 48/1/2
f 45/3/2 46/3/2 49/3/2
f 37/3/2 45/3/2 49/3/2
f 49/3/2 46/3/2 50/3/2
f 48/3/2 42/3/2 51/3/2
f 47/3/2 48/3/2 51/3/2
f 51/3/2 42/3/2 52/3/2
f 50/3/2 46/3/2 53/3/2
f 46/2/2 47/2/2 54/2/2
f 53/3/2 46/3/2 54/3/2
f 47/3/2 51/3/2 55/3/2
f 54/2/2 47/2/2 55/2/2
f 55/3/2 51/3/2 56/3/2
f 54/2/2 55/2/2 58/2/2
f 58/2/2 55/2/2 59/2/2
f 57/2/2 58/2/2 61/2/2
f 59/2/2 60/2/2 61/2/2
f 58/2/2 59/2/2 61/2/2
f 61/2/2 60/2/2 62/2/2
f 62/2/2 60/2/2 63/2/2
f 63/2/2 60/2/2 64/2/2
f 62/2/2 63/2/2 65/2/2
f 65/2/2 63/2/2 66/2/2
f 69/3/3 68/3/3 67/3/3
f 70/3/3 68/3/3 69/3/3
f 73/1/3 72/1/3 71/1/3
f 74/1/3 72/1/3 73/1/3
f 77/3/3 74/3/3 73/3/3
f 78/3/3 74/3/3 77/3/3
f 79/2/3 76/2/3 75/2/3
f 80/2/3 76/2/3 79/2/3
f 85/2/3 82/2/3 81/2/3
f 86/2/3 82/2/3 85/2/3
f 87/2/3 84/2/3 83/2/3
f 88/2/3 84/2/3 87/2/3
f 91/3/3 90/3/3 89/3/3
f 92/3/3 90/3/3 91/3/3
f 93/3/4 94/3/4 95/3/4
f 95/3/4 94/3/4 96/3/4
f 97/2/4 98/2/4 101/2/4
f 101/2/4 98/2/4 102/2/4
f 99/2/4 100/2/4 103/2/4
f 103/2/4 100/2/4 104/2/4
f 105/1/4 106/1/4 107/1/4
f 107/1/4 106/1/4 108/1/4
f 107/3/4 108/3/4 111/3/4
f 111/3/4 108/3/4 112/3/4
f 109/2/4 110/2/4 113/2/4
f 113/2/4 110/2/4 114/2/4
f 115/3/4 116/3/4 117/3/4
f 117/3/4 116/3/4 118/3/4
f 121/3/5 120/3/5 119/3/5
f 122/3/5 120/3/5 121/3/5
f 123/3/5 120/3/5 122/3/5
f 124/1/5 123/1/5 122/1/5
f 125/1/5 123/1/5 124/1/5
f 126/3/5 125/3/5 124/3/5
f 127/3/5 125/3/5 126/3/5
f 129/1/5 127/1/5 126/1/5
f 130/1/5 127/1/5 129/1/5
f 131/3/5 129/3/5 128/3/5
f 131/3/5 130/3/5 129/3/5
f 132/3/5 130/3/5 131/3/5
f 135/3/5 134/3/5 133/3/5
f 136/3/5 134/3/5 135/3/5
f 139/2/5 138/2/5 137/2/5
f 140/2/5 138/2/5 139/2/5
f 143/2/5 142/2/5 141/2/5
f 144/2/5 142/2/5 143/2/5
f 145/3/6 146/3/6 147/3/6
f 147/3/6 146/3/6 148/3/6
f 148/3/6 146/3/6 149/3/6
f 150/3/6 151/3/6 153/3/6
f 151/3/6 152/3/6 153/3/6
f 153/3/6 152/3/6 154/3/6
f 155/1/6 156/1/6 158/1/6
f 156/3/6 157/3/6 159/3/6
f 158/1/6 156/1/6 159/1/6
f 159/3/6 157/3/6 160/3/6
f 158/3/6 159/3/6 161/3/6
f 161/3/6 159/3/6 162/3/6
f 161/1/6 162/1/6 164/1/6
f 162/3/6 163/3/6 165/3/6
f 164/1/6 162/1/6 165/1/6
f 165/3/6 163/3/6 166/3/6
f 167/2/6 168/2/6 169/2/6
f 169/2/6 168/2/6 170/2/6
f 171/2/6 172/2/6 173/2/6
f 173/2/6 172/2/6 174/2/6
f 175/2/6 176/2/6 177/2/6
f 177/2/6 176/2/6 178/2/6
