# MagicaVoxel @ Ephtracy

# group
o 

# material
mtllib arka.mtl
usemtl palette

# normals
vn -1 0 0
vn 1 0 0
vn 0 0 1
vn 0 0 -1
vn 0 -1 0
vn 0 1 0

# texcoords
vt 0.826172 0.5
vt 0.892578 0.5

# verts
v -9.1 0.2 -4.8
v -9.1 0.2 -5
v -9.1 25.6 -4.8
v -9.1 25.6 -5
v 0.400001 18.5 -4.8
v 0.400001 18.5 -5
v 0.400001 18.6 -4.8
v 0.400001 18.6 -5
v 0.5 18.4 -4.8
v 0.5 18.4 -5
v 0.5 18.5 -4.8
v 0.5 18.5 -5
v 1.8 18.3 -4.8
v 1.8 18.3 -5
v 1.8 18.4 -4.8
v 1.8 18.4 -5
v 1.9 18.2 -4.8
v 1.9 18.2 -5
v 1.9 18.3 -4.8
v 1.9 18.3 -5
v 3 18.1 -4.8
v 3 18.1 -5
v 3 18.2 -4.8
v 3 18.2 -5
v 3.1 18 -4.8
v 3.1 18 -5
v 3.1 18.1 -4.8
v 3.1 18.1 -5
v 4 17.9 -4.8
v 4 17.9 -5
v 4 18 -4.8
v 4 18 -5
v 4.1 17.8 -4.8
v 4.1 17.8 -5
v 4.1 17.9 -4.8
v 4.1 17.9 -5
v 4.8 17.7 -4.8
v 4.8 17.7 -5
v 4.8 17.8 -4.8
v 4.8 17.8 -5
v 4.9 17.6 -4.8
v 4.9 17.6 -5
v 4.9 17.7 -4.8
v 4.9 17.7 -5
v 5.4 17.5 -4.8
v 5.4 17.5 -5
v 5.4 17.6 -4.8
v 5.4 17.6 -5
v 5.5 0.2 -4.8
v 5.5 0.2 -5
v 5.5 17.5 -4.8
v 5.5 17.5 -5
v -6.1 0.2 -4.8
v -6.1 0.2 -5
v -6.1 17.5 -4.8
v -6.1 17.5 -5
v -6 17.5 -4.8
v -6 17.5 -5
v -6 17.6 -4.8
v -6 17.6 -5
v -5.5 17.6 -4.8
v -5.5 17.6 -4.9
v -5.5 17.7 -4.8
v -5.5 17.7 -4.9
v -5.4 17.6 -4.9
v -5.4 17.6 -5
v -5.4 17.7 -4.8
v -5.4 17.7 -4.9
v -5.4 17.8 -4.8
v -5.4 17.8 -5
v -4.7 17.8 -4.8
v -4.7 17.8 -5
v -4.7 17.9 -4.8
v -4.7 17.9 -5
v -4.6 17.9 -4.8
v -4.6 17.9 -5
v -4.6 18 -4.8
v -4.6 18 -5
v -3.7 18 -4.8
v -3.7 18 -5
v -3.7 18.1 -4.8
v -3.7 18.1 -5
v -3.6 18.1 -4.8
v -3.6 18.1 -5
v -3.6 18.2 -4.8
v -3.6 18.2 -5
v -2.5 18.2 -4.8
v -2.5 18.2 -5
v -2.5 18.3 -4.8
v -2.5 18.3 -5
v -2.4 18.3 -4.8
v -2.4 18.3 -5
v -2.4 18.4 -4.8
v -2.4 18.4 -5
v -1.1 18.4 -4.8
v -1.1 18.4 -5
v -1.1 18.5 -4.8
v -1.1 18.5 -5
v -1 18.5 -4.8
v -1 18.5 -5
v -1 18.6 -4.8
v -1 18.6 -5
v 8.5 0.2 -4.8
v 8.5 0.2 -5
v 8.5 25.6 -4.8
v 8.5 25.6 -5
v -9.1 0.2 -4.8
v -9.1 25.6 -4.8
v -6.5 0.2 -4.8
v -6.5 17.6 -4.8
v -6.1 0.2 -4.8
v -6.1 17.5 -4.8
v -6.1 17.6 -4.8
v -6.1 17.8 -4.8
v -6 17.5 -4.8
v -6 17.6 -4.8
v -5.5 17.6 -4.8
v -5.5 17.7 -4.8
v -5.5 17.8 -4.8
v -5.5 18 -4.8
v -5.4 17.7 -4.8
v -5.4 17.8 -4.8
v -4.7 17.8 -4.8
v -4.7 17.9 -4.8
v -4.7 18 -4.8
v -4.7 18.2 -4.8
v -4.6 17.9 -4.8
v -4.6 18 -4.8
v -3.7 18 -4.8
v -3.7 18.1 -4.8
v -3.7 18.2 -4.8
v -3.7 18.4 -4.8
v -3.6 18.1 -4.8
v -3.6 18.2 -4.8
v -2.5 18.2 -4.8
v -2.5 18.3 -4.8
v -2.5 18.4 -4.8
v -2.5 18.6 -4.8
v -2.4 18.3 -4.8
v -2.4 18.4 -4.8
v -1.1 18.4 -4.8
v -1.1 18.5 -4.8
v -1.1 18.6 -4.8
v -1.1 18.8 -4.8
v -1 18.5 -4.8
v -1 18.6 -4.8
v 0.400001 18.5 -4.8
v 0.400001 18.6 -4.8
v 0.5 18.4 -4.8
v 0.5 18.5 -4.8
v 0.5 18.6 -4.8
v 0.5 18.8 -4.8
v 1.8 18.3 -4.8
v 1.8 18.4 -4.8
v 1.9 18.2 -4.8
v 1.9 18.3 -4.8
v 1.9 18.4 -4.8
v 1.9 18.6 -4.8
v 3 18.1 -4.8
v 3 18.2 -4.8
v 3.1 18 -4.8
v 3.1 18.1 -4.8
v 3.1 18.2 -4.8
v 3.1 18.4 -4.8
v 4 17.9 -4.8
v 4 18 -4.8
v 4.1 17.8 -4.8
v 4.1 17.9 -4.8
v 4.1 18 -4.8
v 4.1 18.2 -4.8
v 4.8 17.7 -4.8
v 4.8 17.8 -4.8
v 4.9 17.6 -4.8
v 4.9 17.7 -4.8
v 4.9 17.8 -4.8
v 4.9 18 -4.8
v 5.4 17.5 -4.8
v 5.4 17.6 -4.8
v 5.5 0.2 -4.8
v 5.5 17.5 -4.8
v 5.5 17.6 -4.8
v 5.5 17.8 -4.8
v 5.9 0.2 -4.8
v 5.9 17.6 -4.8
v 8.5 0.2 -4.8
v 8.5 25.6 -4.8
v -5.5 17.6 -4.9
v -5.5 17.7 -4.9
v -5.4 17.6 -4.9
v -5.4 17.7 -4.9
v -9.1 0.2 -5
v -9.1 25.6 -5
v -6.2 0.2 -5
v -6.2 17.6 -5
v -6.1 0.2 -5
v -6.1 17.5 -5
v -6.1 17.6 -5
v -6.1 17.7 -5
v -6 17.5 -5
v -6 17.6 -5
v -5.5 17.7 -5
v -5.5 17.9 -5
v -5.4 17.6 -5
v -5.4 17.8 -5
v -4.7 17.8 -5
v -4.7 17.9 -5
v -4.7 18.1 -5
v -4.6 17.9 -5
v -4.6 18 -5
v -3.7 18 -5
v -3.7 18.1 -5
v -3.7 18.3 -5
v -3.6 18.1 -5
v -3.6 18.2 -5
v -2.5 18.2 -5
v -2.5 18.3 -5
v -2.5 18.5 -5
v -2.4 18.3 -5
v -2.4 18.4 -5
v -1.1 18.4 -5
v -1.1 18.5 -5
v -1.1 18.7 -5
v -1 18.5 -5
v -1 18.6 -5
v 0.400001 18.5 -5
v 0.400001 18.6 -5
v 0.5 18.4 -5
v 0.5 18.5 -5
v 0.5 18.7 -5
v 1.8 18.3 -5
v 1.8 18.4 -5
v 1.9 18.2 -5
v 1.9 18.3 -5
v 1.9 18.5 -5
v 3 18.1 -5
v 3 18.2 -5
v 3.1 18 -5
v 3.1 18.1 -5
v 3.1 18.3 -5
v 4 17.9 -5
v 4 18 -5
v 4.1 17.8 -5
v 4.1 17.9 -5
v 4.1 18.1 -5
v 4.8 17.7 -5
v 4.8 17.8 -5
v 4.9 17.6 -5
v 4.9 17.7 -5
v 4.9 17.9 -5
v 5.4 17.5 -5
v 5.4 17.6 -5
v 5.5 0.2 -5
v 5.5 17.5 -5
v 5.5 17.6 -5
v 5.5 17.7 -5
v 5.6 0.2 -5
v 5.6 17.6 -5
v 8.5 0.2 -5
v 8.5 25.6 -5
v -9.1 0.2 -4.8
v -6.5 0.2 -4.8
v -6.1 0.2 -4.8
v 5.5 0.2 -4.8
v 5.9 0.2 -4.8
v 8.5 0.2 -4.8
v -6.5 0.2 -4.9
v -6.2 0.2 -4.9
v 5.6 0.2 -4.9
v 5.9 0.2 -4.9
v -9.1 0.2 -5
v -6.2 0.2 -5
v -6.1 0.2 -5
v 5.5 0.2 -5
v 5.6 0.2 -5
v 8.5 0.2 -5
v -6.1 17.5 -4.8
v -6 17.5 -4.8
v 5.4 17.5 -4.8
v 5.5 17.5 -4.8
v -6.1 17.5 -5
v -6 17.5 -5
v 5.4 17.5 -5
v 5.5 17.5 -5
v -6 17.6 -4.8
v -5.5 17.6 -4.8
v 4.9 17.6 -4.8
v 5.4 17.6 -4.8
v -5.5 17.6 -4.9
v -5.4 17.6 -4.9
v -6 17.6 -5
v -5.4 17.6 -5
v 4.9 17.6 -5
v 5.4 17.6 -5
v -5.5 17.7 -4.8
v -5.4 17.7 -4.8
v 4.8 17.7 -4.8
v 4.9 17.7 -4.8
v -5.5 17.7 -4.9
v -5.4 17.7 -4.9
v 4.8 17.7 -5
v 4.9 17.7 -5
v -5.4 17.8 -4.8
v -4.7 17.8 -4.8
v 4.1 17.8 -4.8
v 4.8 17.8 -4.8
v -5.4 17.8 -5
v -4.7 17.8 -5
v 4.1 17.8 -5
v 4.8 17.8 -5
v -4.7 17.9 -4.8
v -4.6 17.9 -4.8
v 4 17.9 -4.8
v 4.1 17.9 -4.8
v -4.7 17.9 -5
v -4.6 17.9 -5
v 4 17.9 -5
v 4.1 17.9 -5
v -4.6 18 -4.8
v -3.7 18 -4.8
v 3.1 18 -4.8
v 4 18 -4.8
v -4.6 18 -5
v -3.7 18 -5
v 3.1 18 -5
v 4 18 -5
v -3.7 18.1 -4.8
v -3.6 18.1 -4.8
v 3 18.1 -4.8
v 3.1 18.1 -4.8
v -3.7 18.1 -5
v -3.6 18.1 -5
v 3 18.1 -5
v 3.1 18.1 -5
v -3.6 18.2 -4.8
v -2.5 18.2 -4.8
v 1.9 18.2 -4.8
v 3 18.2 -4.8
v -3.6 18.2 -5
v -2.5 18.2 -5
v 1.9 18.2 -5
v 3 18.2 -5
v -2.5 18.3 -4.8
v -2.4 18.3 -4.8
v 1.8 18.3 -4.8
v 1.9 18.3 -4.8
v -2.5 18.3 -5
v -2.4 18.3 -5
v 1.8 18.3 -5
v 1.9 18.3 -5
v -2.4 18.4 -4.8
v -1.1 18.4 -4.8
v 0.5 18.4 -4.8
v 1.8 18.4 -4.8
v -2.4 18.4 -5
v -1.1 18.4 -5
v 0.5 18.4 -5
v 1.8 18.4 -5
v -1.1 18.5 -4.8
v -1 18.5 -4.8
v 0.400001 18.5 -4.8
v 0.5 18.5 -4.8
v -1.1 18.5 -5
v -1 18.5 -5
v 0.400001 18.5 -5
v 0.5 18.5 -5
v -1 18.6 -4.8
v 0.400001 18.6 -4.8
v -1 18.6 -5
v 0.400001 18.6 -5
v -9.1 25.6 -4.8
v 8.5 25.6 -4.8
v -9.1 25.6 -5
v 8.5 25.6 -5

# faces
f 3/1/1 2/1/1 1/1/1
f 4/1/1 2/1/1 3/1/1
f 7/2/1 6/2/1 5/2/1
f 8/2/1 6/2/1 7/2/1
f 11/2/1 10/2/1 9/2/1
f 12/2/1 10/2/1 11/2/1
f 15/2/1 14/2/1 13/2/1
f 16/2/1 14/2/1 15/2/1
f 19/2/1 18/2/1 17/2/1
f 20/2/1 18/2/1 19/2/1
f 23/2/1 22/2/1 21/2/1
f 24/2/1 22/2/1 23/2/1
f 27/2/1 26/2/1 25/2/1
f 28/2/1 26/2/1 27/2/1
f 31/2/1 30/2/1 29/2/1
f 32/2/1 30/2/1 31/2/1
f 35/2/1 34/2/1 33/2/1
f 36/2/1 34/2/1 35/2/1
f 39/2/1 38/2/1 37/2/1
f 40/2/1 38/2/1 39/2/1
f 43/2/1 42/2/1 41/2/1
f 44/2/1 42/2/1 43/2/1
f 47/2/1 46/2/1 45/2/1
f 48/2/1 46/2/1 47/2/1
f 51/2/1 50/2/1 49/2/1
f 52/2/1 50/2/1 51/2/1
f 53/2/2 54/2/2 55/2/2
f 55/2/2 54/2/2 56/2/2
f 57/2/2 58/2/2 59/2/2
f 59/2/2 58/2/2 60/2/2
f 61/2/2 62/2/2 63/2/2
f 63/2/2 62/2/2 64/2/2
f 65/2/2 66/2/2 68/2/2
f 67/2/2 68/2/2 69/2/2
f 68/2/2 66/2/2 70/2/2
f 69/2/2 68/2/2 70/2/2
f 71/2/2 72/2/2 73/2/2
f 73/2/2 72/2/2 74/2/2
f 75/2/2 76/2/2 77/2/2
f 77/2/2 76/2/2 78/2/2
f 79/2/2 80/2/2 81/2/2
f 81/2/2 80/2/2 82/2/2
f 83/2/2 84/2/2 85/2/2
f 85/2/2 84/2/2 86/2/2
f 87/2/2 88/2/2 89/2/2
f 89/2/2 88/2/2 90/2/2
f 91/2/2 92/2/2 93/2/2
f 93/2/2 92/2/2 94/2/2
f 95/2/2 96/2/2 97/2/2
f 97/2/2 96/2/2 98/2/2
f 99/2/2 100/2/2 101/2/2
f 101/2/2 100/2/2 102/2/2
f 103/1/2 104/1/2 105/1/2
f 105/1/2 104/1/2 106/1/2
f 109/1/3 108/1/3 107/1/3
f 110/1/3 108/1/3 109/1/3
f 111/2/3 110/2/3 109/2/3
f 112/2/3 110/2/3 111/2/3
f 113/1/3 108/1/3 110/1/3
f 113/2/3 110/2/3 112/2/3
f 114/1/3 108/1/3 113/1/3
f 115/2/3 113/2/3 112/2/3
f 115/2/3 114/2/3 113/2/3
f 116/2/3 114/2/3 115/2/3
f 117/2/3 114/2/3 116/2/3
f 118/2/3 114/2/3 117/2/3
f 119/1/3 108/1/3 114/1/3
f 119/2/3 114/2/3 118/2/3
f 120/1/3 108/1/3 119/1/3
f 121/2/3 119/2/3 118/2/3
f 121/2/3 120/2/3 119/2/3
f 122/2/3 120/2/3 121/2/3
f 123/2/3 120/2/3 122/2/3
f 124/2/3 120/2/3 123/2/3
f 125/1/3 108/1/3 120/1/3
f 125/2/3 120/2/3 124/2/3
f 126/1/3 108/1/3 125/1/3
f 127/2/3 125/2/3 124/2/3
f 127/2/3 126/2/3 125/2/3
f 128/2/3 126/2/3 127/2/3
f 129/2/3 126/2/3 128/2/3
f 130/2/3 126/2/3 129/2/3
f 131/1/3 108/1/3 126/1/3
f 131/2/3 126/2/3 130/2/3
f 132/1/3 108/1/3 131/1/3
f 133/2/3 131/2/3 130/2/3
f 133/2/3 132/2/3 131/2/3
f 134/2/3 132/2/3 133/2/3
f 135/2/3 132/2/3 134/2/3
f 136/2/3 132/2/3 135/2/3
f 137/1/3 108/1/3 132/1/3
f 137/2/3 132/2/3 136/2/3
f 138/1/3 108/1/3 137/1/3
f 139/2/3 137/2/3 136/2/3
f 139/2/3 138/2/3 137/2/3
f 140/2/3 138/2/3 139/2/3
f 141/2/3 138/2/3 140/2/3
f 142/2/3 138/2/3 141/2/3
f 143/1/3 108/1/3 138/1/3
f 143/2/3 138/2/3 142/2/3
f 144/1/3 108/1/3 143/1/3
f 145/2/3 143/2/3 142/2/3
f 145/2/3 144/2/3 143/2/3
f 146/2/3 144/2/3 145/2/3
f 148/2/3 144/2/3 146/2/3
f 150/2/3 148/2/3 147/2/3
f 151/2/3 144/2/3 148/2/3
f 151/2/3 148/2/3 150/2/3
f 152/1/3 108/1/3 144/1/3
f 152/2/3 144/2/3 151/2/3
f 154/2/3 151/2/3 150/2/3
f 154/2/3 150/2/3 149/2/3
f 156/2/3 154/2/3 153/2/3
f 157/2/3 151/2/3 154/2/3
f 157/2/3 154/2/3 156/2/3
f 158/1/3 152/1/3 151/1/3
f 158/2/3 151/2/3 157/2/3
f 160/2/3 157/2/3 156/2/3
f 160/2/3 156/2/3 155/2/3
f 162/2/3 160/2/3 159/2/3
f 163/2/3 157/2/3 160/2/3
f 163/2/3 160/2/3 162/2/3
f 164/1/3 158/1/3 157/1/3
f 164/2/3 157/2/3 163/2/3
f 166/2/3 163/2/3 162/2/3
f 166/2/3 162/2/3 161/2/3
f 168/2/3 166/2/3 165/2/3
f 169/2/3 163/2/3 166/2/3
f 169/2/3 166/2/3 168/2/3
f 170/1/3 164/1/3 163/1/3
f 170/2/3 163/2/3 169/2/3
f 172/2/3 169/2/3 168/2/3
f 172/2/3 168/2/3 167/2/3
f 174/2/3 172/2/3 171/2/3
f 175/2/3 169/2/3 172/2/3
f 175/2/3 172/2/3 174/2/3
f 176/1/3 170/1/3 169/1/3
f 176/2/3 169/2/3 175/2/3
f 178/2/3 175/2/3 174/2/3
f 178/2/3 174/2/3 173/2/3
f 180/2/3 178/2/3 177/2/3
f 181/2/3 175/2/3 178/2/3
f 181/2/3 178/2/3 180/2/3
f 182/1/3 176/1/3 175/1/3
f 182/2/3 175/2/3 181/2/3
f 183/2/3 181/2/3 180/2/3
f 183/2/3 180/2/3 179/2/3
f 184/1/3 182/1/3 181/1/3
f 184/2/3 181/2/3 183/2/3
f 185/1/3 184/1/3 183/1/3
f 186/1/3 108/1/3 152/1/3
f 186/1/3 184/1/3 185/1/3
f 186/1/3 152/1/3 158/1/3
f 186/1/3 182/1/3 184/1/3
f 186/1/3 158/1/3 164/1/3
f 186/1/3 164/1/3 170/1/3
f 186/1/3 170/1/3 176/1/3
f 186/1/3 176/1/3 182/1/3
f 189/2/3 188/2/3 187/2/3
f 190/2/3 188/2/3 189/2/3
f 191/1/4 192/1/4 193/1/4
f 193/1/4 192/1/4 194/1/4
f 193/2/4 194/2/4 195/2/4
f 195/2/4 194/2/4 196/2/4
f 194/1/4 192/1/4 197/1/4
f 196/2/4 194/2/4 197/2/4
f 197/1/4 192/1/4 198/1/4
f 196/2/4 197/2/4 199/2/4
f 197/2/4 198/2/4 199/2/4
f 199/2/4 198/2/4 200/2/4
f 198/1/4 192/1/4 201/1/4
f 200/2/4 198/2/4 201/2/4
f 201/1/4 192/1/4 202/1/4
f 200/2/4 201/2/4 203/2/4
f 201/2/4 202/2/4 203/2/4
f 203/2/4 202/2/4 204/2/4
f 204/2/4 202/2/4 205/2/4
f 202/1/4 192/1/4 206/1/4
f 205/2/4 202/2/4 206/2/4
f 206/1/4 192/1/4 207/1/4
f 206/2/4 207/2/4 208/2/4
f 208/2/4 207/2/4 209/2/4
f 209/2/4 207/2/4 210/2/4
f 207/1/4 192/1/4 211/1/4
f 210/2/4 207/2/4 211/2/4
f 211/1/4 192/1/4 212/1/4
f 211/2/4 212/2/4 213/2/4
f 213/2/4 212/2/4 214/2/4
f 214/2/4 212/2/4 215/2/4
f 212/1/4 192/1/4 216/1/4
f 215/2/4 212/2/4 216/2/4
f 216/1/4 192/1/4 217/1/4
f 216/2/4 217/2/4 218/2/4
f 218/2/4 217/2/4 219/2/4
f 219/2/4 217/2/4 220/2/4
f 217/1/4 192/1/4 221/1/4
f 220/2/4 217/2/4 221/2/4
f 221/1/4 192/1/4 222/1/4
f 221/2/4 222/2/4 223/2/4
f 223/2/4 222/2/4 224/2/4
f 224/2/4 222/2/4 226/2/4
f 225/2/4 226/2/4 228/2/4
f 222/1/4 192/1/4 229/1/4
f 226/2/4 222/2/4 229/2/4
f 228/2/4 226/2/4 229/2/4
f 227/2/4 228/2/4 231/2/4
f 230/2/4 231/2/4 233/2/4
f 228/1/4 229/1/4 234/1/4
f 231/2/4 228/2/4 234/2/4
f 233/2/4 231/2/4 234/2/4
f 232/2/4 233/2/4 236/2/4
f 235/2/4 236/2/4 238/2/4
f 233/1/4 234/1/4 239/1/4
f 236/2/4 233/2/4 239/2/4
f 238/2/4 236/2/4 239/2/4
f 237/2/4 238/2/4 241/2/4
f 240/2/4 241/2/4 243/2/4
f 238/1/4 239/1/4 244/1/4
f 241/2/4 238/2/4 244/2/4
f 243/2/4 241/2/4 244/2/4
f 242/2/4 243/2/4 246/2/4
f 245/2/4 246/2/4 248/2/4
f 243/1/4 244/1/4 249/1/4
f 246/2/4 243/2/4 249/2/4
f 248/2/4 246/2/4 249/2/4
f 247/2/4 248/2/4 251/2/4
f 250/2/4 251/2/4 253/2/4
f 251/2/4 248/2/4 254/2/4
f 253/2/4 251/2/4 254/2/4
f 248/1/4 249/1/4 255/1/4
f 254/2/4 248/2/4 255/2/4
f 253/2/4 254/2/4 256/2/4
f 252/2/4 253/2/4 256/2/4
f 254/1/4 255/1/4 257/1/4
f 256/2/4 254/2/4 257/2/4
f 256/1/4 257/1/4 258/1/4
f 229/1/4 192/1/4 259/1/4
f 258/1/4 257/1/4 259/1/4
f 234/1/4 229/1/4 259/1/4
f 257/1/4 255/1/4 259/1/4
f 239/1/4 234/1/4 259/1/4
f 244/1/4 239/1/4 259/1/4
f 249/1/4 244/1/4 259/1/4
f 255/1/4 249/1/4 259/1/4
f 266/1/5 261/1/5 260/1/5
f 266/2/5 262/2/5 261/2/5
f 267/2/5 262/2/5 266/2/5
f 268/2/5 264/2/5 263/2/5
f 269/1/5 265/1/5 264/1/5
f 269/2/5 264/2/5 268/2/5
f 270/1/5 266/1/5 260/1/5
f 270/1/5 267/1/5 266/1/5
f 271/2/5 262/2/5 267/2/5
f 271/1/5 267/1/5 270/1/5
f 272/2/5 262/2/5 271/2/5
f 273/2/5 268/2/5 263/2/5
f 274/1/5 269/1/5 268/1/5
f 274/2/5 268/2/5 273/2/5
f 275/1/5 265/1/5 269/1/5
f 275/1/5 269/1/5 274/1/5
f 280/2/5 277/2/5 276/2/5
f 281/2/5 277/2/5 280/2/5
f 282/2/5 279/2/5 278/2/5
f 283/2/5 279/2/5 282/2/5
f 288/2/5 285/2/5 284/2/5
f 290/2/5 288/2/5 284/2/5
f 290/2/5 289/2/5 288/2/5
f 291/2/5 289/2/5 290/2/5
f 292/2/5 287/2/5 286/2/5
f 293/2/5 287/2/5 292/2/5
f 298/2/5 295/2/5 294/2/5
f 299/2/5 295/2/5 298/2/5
f 300/2/5 297/2/5 296/2/5
f 301/2/5 297/2/5 300/2/5
f 306/2/5 303/2/5 302/2/5
f 307/2/5 303/2/5 306/2/5
f 308/2/5 305/2/5 304/2/5
f 309/2/5 305/2/5 308/2/5
f 314/2/5 311/2/5 310/2/5
f 315/2/5 311/2/5 314/2/5
f 316/2/5 313/2/5 312/2/5
f 317/2/5 313/2/5 316/2/5
f 322/2/5 319/2/5 318/2/5
f 323/2/5 319/2/5 322/2/5
f 324/2/5 321/2/5 320/2/5
f 325/2/5 321/2/5 324/2/5
f 330/2/5 327/2/5 326/2/5
f 331/2/5 327/2/5 330/2/5
f 332/2/5 329/2/5 328/2/5
f 333/2/5 329/2/5 332/2/5
f 338/2/5 335/2/5 334/2/5
f 339/2/5 335/2/5 338/2/5
f 340/2/5 337/2/5 336/2/5
f 341/2/5 337/2/5 340/2/5
f 346/2/5 343/2/5 342/2/5
f 347/2/5 343/2/5 346/2/5
f 348/2/5 345/2/5 344/2/5
f 349/2/5 345/2/5 348/2/5
f 354/2/5 351/2/5 350/2/5
f 355/2/5 351/2/5 354/2/5
f 356/2/5 353/2/5 352/2/5
f 357/2/5 353/2/5 356/2/5
f 362/2/5 359/2/5 358/2/5
f 363/2/5 359/2/5 362/2/5
f 364/2/5 361/2/5 360/2/5
f 365/2/5 361/2/5 364/2/5
f 368/2/5 367/2/5 366/2/5
f 369/2/5 367/2/5 368/2/5
f 370/1/6 371/1/6 372/1/6
f 372/1/6 371/1/6 373/1/6
