# MagicaVoxel @ Ephtracy

# group
o 

# material
mtllib Door_room.mtl
usemtl palette

# normals
vn -1 0 0
vn 1 0 0
vn 0 0 1
vn 0 0 -1
vn 0 -1 0
vn 0 1 0

# texcoords
vt 0.146484 0.5
vt 0.166016 0.5

# verts
v -1.5 0 0.2
v -1.5 0 -0.3
v -1.5 6.2 0.2
v -1.5 6.2 -0.3
v -1.1 2.9 0.2
v -1.1 2.9 0
v -1.1 3.2 0.2
v -1.1 3.2 0
v -0.2 0.3 -0.1
v -0.2 0.3 -0.2
v -0.2 2.5 -0.1
v -0.2 2.5 -0.2
v -0.2 3.6 -0.1
v -0.2 3.6 -0.2
v -0.2 5.6 -0.1
v -0.2 5.6 -0.2
v -0.1 0.2 0
v -0.1 0.2 -0.1
v -0.1 2.6 0
v -0.1 2.6 -0.1
v -0.1 3.5 0
v -0.1 3.5 -0.1
v -0.1 5.7 0
v -0.1 5.7 -0.1
v 0.9 0.3 -0.1
v 0.9 0.3 -0.2
v 0.9 2.5 -0.1
v 0.9 2.5 -0.2
v 0.9 3.6 -0.1
v 0.9 3.6 -0.2
v 0.9 5.6 -0.1
v 0.9 5.6 -0.2
v 1 0.2 0
v 1 0.2 -0.1
v 1 2.6 0
v 1 2.6 -0.1
v 1 2.8 0
v 1 2.8 -0.1
v 1 3.3 0
v 1 3.3 -0.1
v 1 3.5 0
v 1 3.5 -0.1
v 1 5.7 0
v 1 5.7 -0.1
v 1.2 0 0.1
v 1.2 0 0
v 1.2 5.9 0.1
v 1.2 5.9 0
v 1.3 0 0.2
v 1.3 0 0.1
v 1.3 6 0.2
v 1.3 6 0.1
v -1.3 0 0.2
v -1.3 0 0.1
v -1.3 6 0.2
v -1.3 6 0.1
v -1.2 0 0.1
v -1.2 0 0
v -1.2 5.9 0.1
v -1.2 5.9 0
v -1 0.2 0
v -1 0.2 -0.1
v -1 2.6 0
v -1 2.6 -0.1
v -1 3.5 0
v -1 3.5 -0.1
v -1 5.7 0
v -1 5.7 -0.1
v -0.9 0.3 -0.1
v -0.9 0.3 -0.2
v -0.9 2.5 -0.1
v -0.9 2.5 -0.2
v -0.9 3.6 -0.1
v -0.9 3.6 -0.2
v -0.9 5.6 -0.1
v -0.9 5.6 -0.2
v -0.8 2.9 0.2
v -0.8 2.9 0
v -0.8 3.2 0.2
v -0.8 3.2 0
v -0.7 2.8 0
v -0.7 2.8 -0.1
v -0.7 3.3 0
v -0.7 3.3 -0.1
v 0.1 0.2 0
v 0.1 0.2 -0.1
v 0.1 2.6 0
v 0.1 2.6 -0.1
v 0.1 3.5 0
v 0.1 3.5 -0.1
v 0.1 5.7 0
v 0.1 5.7 -0.1
v 0.2 0.3 -0.1
v 0.2 0.3 -0.2
v 0.2 2.5 -0.1
v 0.2 2.5 -0.2
v 0.2 3.6 -0.1
v 0.2 3.6 -0.2
v 0.2 5.6 -0.1
v 0.2 5.6 -0.2
v 1.5 0 0.2
v 1.5 0 -0.3
v 1.5 6.2 0.2
v 1.5 6.2 -0.3
v -1.5 0 0.2
v -1.5 6.2 0.2
v -1.3 0 0.2
v -1.3 6 0.2
v -1.1 2.9 0.2
v -1.1 3.2 0.2
v -0.8 2.9 0.2
v -0.8 3.2 0.2
v 1.3 0 0.2
v 1.3 6 0.2
v 1.5 0 0.2
v 1.5 6.2 0.2
v -1.3 0 0.1
v -1.3 6 0.1
v -1.2 0 0.1
v -1.2 5.9 0.1
v 1.2 0 0.1
v 1.2 5.9 0.1
v 1.3 0 0.1
v 1.3 6 0.1
v -1.2 0 0
v -1.2 5.9 0
v -1.1 2.9 0
v -1.1 3.2 0
v -1 0.2 0
v -1 2.6 0
v -1 3.5 0
v -1 5.7 0
v -0.8 2.9 0
v -0.8 3.2 0
v -0.7 2.8 0
v -0.7 3.3 0
v -0.1 0.2 0
v -0.1 2.6 0
v -0.1 3.5 0
v -0.1 5.7 0
v 0.1 0.2 0
v 0.1 2.6 0
v 0.1 3.5 0
v 0.1 5.7 0
v 1 0.2 0
v 1 2.6 0
v 1 2.8 0
v 1 3.3 0
v 1 3.5 0
v 1 5.7 0
v 1.2 0 0
v 1.2 5.9 0
v -1 0.2 -0.1
v -1 2.6 -0.1
v -1 3.5 -0.1
v -1 5.7 -0.1
v -0.9 0.3 -0.1
v -0.9 2.5 -0.1
v -0.9 3.6 -0.1
v -0.9 5.6 -0.1
v -0.7 2.8 -0.1
v -0.7 3.3 -0.1
v -0.2 0.3 -0.1
v -0.2 2.5 -0.1
v -0.2 3.6 -0.1
v -0.2 5.6 -0.1
v -0.1 0.2 -0.1
v -0.1 2.6 -0.1
v -0.1 3.5 -0.1
v -0.1 5.7 -0.1
v 0.1 0.2 -0.1
v 0.1 2.6 -0.1
v 0.1 3.5 -0.1
v 0.1 5.7 -0.1
v 0.2 0.3 -0.1
v 0.2 2.5 -0.1
v 0.2 3.6 -0.1
v 0.2 5.6 -0.1
v 0.9 0.3 -0.1
v 0.9 2.5 -0.1
v 0.9 3.6 -0.1
v 0.9 5.6 -0.1
v 1 0.2 -0.1
v 1 2.6 -0.1
v 1 2.8 -0.1
v 1 3.3 -0.1
v 1 3.5 -0.1
v 1 5.7 -0.1
v -0.9 0.3 -0.2
v -0.9 2.5 -0.2
v -0.9 3.6 -0.2
v -0.9 5.6 -0.2
v -0.2 0.3 -0.2
v -0.2 2.5 -0.2
v -0.2 3.6 -0.2
v -0.2 5.6 -0.2
v 0.2 0.3 -0.2
v 0.2 2.5 -0.2
v 0.2 3.6 -0.2
v 0.2 5.6 -0.2
v 0.9 0.3 -0.2
v 0.9 2.5 -0.2
v 0.9 3.6 -0.2
v 0.9 5.6 -0.2
v -1.5 0 -0.3
v -1.5 6.2 -0.3
v 1.5 0 -0.3
v 1.5 6.2 -0.3
v -1.5 0 0.2
v -1.3 0 0.2
v 1.3 0 0.2
v 1.5 0 0.2
v -1.3 0 0.1
v -1.2 0 0.1
v 1.2 0 0.1
v 1.3 0 0.1
v -1.2 0 0
v 1.2 0 0
v -1.5 0 -0.3
v 1.5 0 -0.3
v -0.9 2.5 -0.1
v -0.2 2.5 -0.1
v 0.2 2.5 -0.1
v 0.9 2.5 -0.1
v -0.9 2.5 -0.2
v -0.2 2.5 -0.2
v 0.2 2.5 -0.2
v 0.9 2.5 -0.2
v -1 2.6 0
v -0.1 2.6 0
v 0.1 2.6 0
v 1 2.6 0
v -1 2.6 -0.1
v -0.1 2.6 -0.1
v 0.1 2.6 -0.1
v 1 2.6 -0.1
v -1.1 2.9 0.2
v -0.8 2.9 0.2
v -1.1 2.9 0
v -0.8 2.9 0
v -0.7 3.3 0
v 1 3.3 0
v -0.7 3.3 -0.1
v 1 3.3 -0.1
v -0.9 5.6 -0.1
v -0.2 5.6 -0.1
v 0.2 5.6 -0.1
v 0.9 5.6 -0.1
v -0.9 5.6 -0.2
v -0.2 5.6 -0.2
v 0.2 5.6 -0.2
v 0.9 5.6 -0.2
v -1 5.7 0
v -0.1 5.7 0
v 0.1 5.7 0
v 1 5.7 0
v -1 5.7 -0.1
v -0.1 5.7 -0.1
v 0.1 5.7 -0.1
v 1 5.7 -0.1
v -1.2 5.9 0.1
v 1.2 5.9 0.1
v -1.2 5.9 0
v 1.2 5.9 0
v -1.3 6 0.2
v 1.3 6 0.2
v -1.3 6 0.1
v 1.3 6 0.1
v -1 0.2 0
v -0.1 0.2 0
v 0.1 0.2 0
v 1 0.2 0
v -1 0.2 -0.1
v -0.1 0.2 -0.1
v 0.1 0.2 -0.1
v 1 0.2 -0.1
v -0.9 0.3 -0.1
v -0.2 0.3 -0.1
v 0.2 0.3 -0.1
v 0.9 0.3 -0.1
v -0.9 0.3 -0.2
v -0.2 0.3 -0.2
v 0.2 0.3 -0.2
v 0.9 0.3 -0.2
v -0.7 2.8 0
v 1 2.8 0
v -0.7 2.8 -0.1
v 1 2.8 -0.1
v -1.1 3.2 0.2
v -0.8 3.2 0.2
v -1.1 3.2 0
v -0.8 3.2 0
v -1 3.5 0
v -0.1 3.5 0
v 0.1 3.5 0
v 1 3.5 0
v -1 3.5 -0.1
v -0.1 3.5 -0.1
v 0.1 3.5 -0.1
v 1 3.5 -0.1
v -0.9 3.6 -0.1
v -0.2 3.6 -0.1
v 0.2 3.6 -0.1
v 0.9 3.6 -0.1
v -0.9 3.6 -0.2
v -0.2 3.6 -0.2
v 0.2 3.6 -0.2
v 0.9 3.6 -0.2
v -1.5 6.2 0.2
v 1.5 6.2 0.2
v -1.5 6.2 -0.3
v 1.5 6.2 -0.3

# faces
f 3/2/1 2/2/1 1/2/1
f 4/2/1 2/2/1 3/2/1
f 7/1/1 6/1/1 5/1/1
f 8/1/1 6/1/1 7/1/1
f 11/2/1 10/2/1 9/2/1
f 12/2/1 10/2/1 11/2/1
f 15/2/1 14/2/1 13/2/1
f 16/2/1 14/2/1 15/2/1
f 19/2/1 18/2/1 17/2/1
f 20/2/1 18/2/1 19/2/1
f 23/2/1 22/2/1 21/2/1
f 24/2/1 22/2/1 23/2/1
f 27/2/1 26/2/1 25/2/1
f 28/2/1 26/2/1 27/2/1
f 31/2/1 30/2/1 29/2/1
f 32/2/1 30/2/1 31/2/1
f 35/2/1 34/2/1 33/2/1
f 36/2/1 34/2/1 35/2/1
f 39/2/1 38/2/1 37/2/1
f 40/2/1 38/2/1 39/2/1
f 43/2/1 42/2/1 41/2/1
f 44/2/1 42/2/1 43/2/1
f 47/2/1 46/2/1 45/2/1
f 48/2/1 46/2/1 47/2/1
f 51/2/1 50/2/1 49/2/1
f 52/2/1 50/2/1 51/2/1
f 53/2/2 54/2/2 55/2/2
f 55/2/2 54/2/2 56/2/2
f 57/2/2 58/2/2 59/2/2
f 59/2/2 58/2/2 60/2/2
f 61/2/2 62/2/2 63/2/2
f 63/2/2 62/2/2 64/2/2
f 65/2/2 66/2/2 67/2/2
f 67/2/2 66/2/2 68/2/2
f 69/2/2 70/2/2 71/2/2
f 71/2/2 70/2/2 72/2/2
f 73/2/2 74/2/2 75/2/2
f 75/2/2 74/2/2 76/2/2
f 77/1/2 78/1/2 79/1/2
f 79/1/2 78/1/2 80/1/2
f 81/2/2 82/2/2 83/2/2
f 83/2/2 82/2/2 84/2/2
f 85/2/2 86/2/2 87/2/2
f 87/2/2 86/2/2 88/2/2
f 89/2/2 90/2/2 91/2/2
f 91/2/2 90/2/2 92/2/2
f 93/2/2 94/2/2 95/2/2
f 95/2/2 94/2/2 96/2/2
f 97/2/2 98/2/2 99/2/2
f 99/2/2 98/2/2 100/2/2
f 101/2/2 102/2/2 103/2/2
f 103/2/2 102/2/2 104/2/2
f 107/2/3 106/2/3 105/2/3
f 108/2/3 106/2/3 107/2/3
f 111/1/3 110/1/3 109/1/3
f 112/1/3 110/1/3 111/1/3
f 114/2/3 106/2/3 108/2/3
f 115/2/3 114/2/3 113/2/3
f 116/2/3 106/2/3 114/2/3
f 116/2/3 114/2/3 115/2/3
f 119/2/3 118/2/3 117/2/3
f 120/2/3 118/2/3 119/2/3
f 122/2/3 118/2/3 120/2/3
f 123/2/3 122/2/3 121/2/3
f 124/2/3 118/2/3 122/2/3
f 124/2/3 122/2/3 123/2/3
f 127/2/3 126/2/3 125/2/3
f 128/2/3 126/2/3 127/2/3
f 129/2/3 127/2/3 125/2/3
f 130/2/3 127/2/3 129/2/3
f 131/2/3 126/2/3 128/2/3
f 132/2/3 126/2/3 131/2/3
f 133/2/3 127/2/3 130/2/3
f 134/2/3 131/2/3 128/2/3
f 135/2/3 133/2/3 130/2/3
f 135/2/3 134/2/3 133/2/3
f 136/2/3 131/2/3 134/2/3
f 136/2/3 134/2/3 135/2/3
f 137/2/3 129/2/3 125/2/3
f 138/2/3 135/2/3 130/2/3
f 139/2/3 131/2/3 136/2/3
f 140/2/3 126/2/3 132/2/3
f 141/2/3 138/2/3 137/2/3
f 141/2/3 137/2/3 125/2/3
f 142/2/3 135/2/3 138/2/3
f 142/2/3 138/2/3 141/2/3
f 143/2/3 139/2/3 136/2/3
f 143/2/3 140/2/3 139/2/3
f 144/2/3 126/2/3 140/2/3
f 144/2/3 140/2/3 143/2/3
f 145/2/3 141/2/3 125/2/3
f 146/2/3 135/2/3 142/2/3
f 147/2/3 135/2/3 146/2/3
f 148/2/3 143/2/3 136/2/3
f 149/2/3 143/2/3 148/2/3
f 150/2/3 126/2/3 144/2/3
f 151/2/3 145/2/3 125/2/3
f 151/2/3 150/2/3 149/2/3
f 151/2/3 149/2/3 148/2/3
f 151/2/3 147/2/3 146/2/3
f 151/2/3 148/2/3 147/2/3
f 151/2/3 146/2/3 145/2/3
f 152/2/3 126/2/3 150/2/3
f 152/2/3 150/2/3 151/2/3
f 157/2/3 154/2/3 153/2/3
f 158/2/3 154/2/3 157/2/3
f 159/2/3 156/2/3 155/2/3
f 160/2/3 156/2/3 159/2/3
f 163/2/3 157/2/3 153/2/3
f 164/2/3 154/2/3 158/2/3
f 165/2/3 159/2/3 155/2/3
f 166/2/3 156/2/3 160/2/3
f 167/2/3 163/2/3 153/2/3
f 167/2/3 164/2/3 163/2/3
f 168/2/3 154/2/3 164/2/3
f 168/2/3 164/2/3 167/2/3
f 169/2/3 166/2/3 165/2/3
f 169/2/3 165/2/3 155/2/3
f 170/2/3 156/2/3 166/2/3
f 170/2/3 166/2/3 169/2/3
f 175/2/3 172/2/3 171/2/3
f 176/2/3 172/2/3 175/2/3
f 177/2/3 174/2/3 173/2/3
f 178/2/3 174/2/3 177/2/3
f 179/2/3 175/2/3 171/2/3
f 180/2/3 172/2/3 176/2/3
f 181/2/3 177/2/3 173/2/3
f 182/2/3 174/2/3 178/2/3
f 183/2/3 179/2/3 171/2/3
f 183/2/3 180/2/3 179/2/3
f 184/2/3 172/2/3 180/2/3
f 184/2/3 180/2/3 183/2/3
f 185/2/3 162/2/3 161/2/3
f 186/2/3 162/2/3 185/2/3
f 187/2/3 182/2/3 181/2/3
f 187/2/3 181/2/3 173/2/3
f 188/2/3 174/2/3 182/2/3
f 188/2/3 182/2/3 187/2/3
f 193/2/3 190/2/3 189/2/3
f 194/2/3 190/2/3 193/2/3
f 195/2/3 192/2/3 191/2/3
f 196/2/3 192/2/3 195/2/3
f 201/2/3 198/2/3 197/2/3
f 202/2/3 198/2/3 201/2/3
f 203/2/3 200/2/3 199/2/3
f 204/2/3 200/2/3 203/2/3
f 205/2/4 206/2/4 207/2/4
f 207/2/4 206/2/4 208/2/4
f 213/2/5 210/2/5 209/2/5
f 216/2/5 212/2/5 211/2/5
f 217/2/5 214/2/5 213/2/5
f 218/2/5 216/2/5 215/2/5
f 219/2/5 217/2/5 213/2/5
f 219/2/5 218/2/5 217/2/5
f 219/2/5 213/2/5 209/2/5
f 220/2/5 216/2/5 218/2/5
f 220/2/5 218/2/5 219/2/5
f 220/2/5 212/2/5 216/2/5
f 225/2/5 222/2/5 221/2/5
f 226/2/5 222/2/5 225/2/5
f 227/2/5 224/2/5 223/2/5
f 228/2/5 224/2/5 227/2/5
f 233/2/5 230/2/5 229/2/5
f 234/2/5 230/2/5 233/2/5
f 235/2/5 232/2/5 231/2/5
f 236/2/5 232/2/5 235/2/5
f 239/1/5 238/1/5 237/1/5
f 240/1/5 238/1/5 239/1/5
f 243/2/5 242/2/5 241/2/5
f 244/2/5 242/2/5 243/2/5
f 249/2/5 246/2/5 245/2/5
f 250/2/5 246/2/5 249/2/5
f 251/2/5 248/2/5 247/2/5
f 252/2/5 248/2/5 251/2/5
f 257/2/5 254/2/5 253/2/5
f 258/2/5 254/2/5 257/2/5
f 259/2/5 256/2/5 255/2/5
f 260/2/5 256/2/5 259/2/5
f 263/2/5 262/2/5 261/2/5
f 264/2/5 262/2/5 263/2/5
f 267/2/5 266/2/5 265/2/5
f 268/2/5 266/2/5 267/2/5
f 269/2/6 270/2/6 273/2/6
f 273/2/6 270/2/6 274/2/6
f 271/2/6 272/2/6 275/2/6
f 275/2/6 272/2/6 276/2/6
f 277/2/6 278/2/6 281/2/6
f 281/2/6 278/2/6 282/2/6
f 279/2/6 280/2/6 283/2/6
f 283/2/6 280/2/6 284/2/6
f 285/2/6 286/2/6 287/2/6
f 287/2/6 286/2/6 288/2/6
f 289/1/6 290/1/6 291/1/6
f 291/1/6 290/1/6 292/1/6
f 293/2/6 294/2/6 297/2/6
f 297/2/6 294/2/6 298/2/6
f 295/2/6 296/2/6 299/2/6
f 299/2/6 296/2/6 300/2/6
f 301/2/6 302/2/6 305/2/6
f 305/2/6 302/2/6 306/2/6
f 303/2/6 304/2/6 307/2/6
f 307/2/6 304/2/6 308/2/6
f 309/2/6 310/2/6 311/2/6
f 311/2/6 310/2/6 312/2/6
