# MagicaVoxel @ Ephtracy

# group
o 

# material
mtllib flor.mtl
usemtl palette

# normals
vn -1 0 0
vn 1 0 0
vn 0 0 1
vn 0 0 -1
vn 0 -1 0
vn 0 1 0

# texcoords
vt 0.939453 0.5
vt 0.947266 0.5
vt 0.974609 0.5
vt 0.982422 0.5

# verts
v -4.4 0 2
v -4.4 0 -1.4
v -4.4 0 -2.3
v -4.4 0 -2.6
v -4.4 0 -2.8
v -4.4 0 -3.7
v -4.4 0 -4.4
v -4.4 0 -4.8
v -4.4 0.2 2
v -4.4 0.2 -1.4
v -4.4 0.2 -2.3
v -4.4 0.2 -2.6
v -4.4 0.2 -2.8
v -4.4 0.2 -3.7
v -4.4 0.2 -4.4
v -4.4 0.2 -4.8
v 4.4 0 2
v 4.4 0 1.7
v 4.4 0 1
v 4.4 0 0.8
v 4.4 0 0.3
v 4.4 0 -0.5
v 4.4 0 -1
v 4.4 0 -1.4
v 4.4 0 -4.8
v 4.4 0.1 2
v 4.4 0.1 1.9
v 4.4 0.2 2
v 4.4 0.2 1.9
v 4.4 0.2 1.7
v 4.4 0.2 1
v 4.4 0.2 0.8
v 4.4 0.2 0.3
v 4.4 0.2 -0.5
v 4.4 0.2 -1
v 4.4 0.2 -1.4
v 4.4 0.2 -4.8
v -4.4 0 2
v -4.4 0.2 2
v -4.3 0 2
v -4.3 0.2 2
v -3.3 0 2
v -3.3 0.2 2
v -3.1 0 2
v -3.1 0.2 2
v -2.5 0 2
v -2.5 0.2 2
v -1.7 0 2
v -1.7 0.2 2
v -1.4 0 2
v -1.4 0.2 2
v -0.7 0 2
v -0.7 0.2 2
v 0 0 2
v 0 0.1 2
v 0 0.2 2
v 4.4 0 2
v 4.4 0.1 2
v 4.4 0.2 2
v -4.4 0 -4.8
v -4.4 0.2 -4.8
v 0 0 -4.8
v 0 0.2 -4.8
v 0.8 0 -4.8
v 0.8 0.2 -4.8
v 2 0 -4.8
v 2 0.2 -4.8
v 2.2 0 -4.8
v 2.2 0.2 -4.8
v 3.1 0 -4.8
v 3.1 0.2 -4.8
v 3.7 0 -4.8
v 3.7 0.2 -4.8
v 4.3 0 -4.8
v 4.3 0.2 -4.8
v 4.4 0 -4.8
v 4.4 0.2 -4.8
v -4.4 0 2
v -4.3 0 2
v -3.3 0 2
v -3.1 0 2
v -2.5 0 2
v -1.7 0 2
v -1.4 0 2
v -0.7 0 2
v 0 0 2
v 4.4 0 2
v 0 0 1.7
v 4.4 0 1.7
v 0 0 1
v 4.4 0 1
v 0 0 0.8
v 4.4 0 0.8
v 0 0 0.3
v 4.4 0 0.3
v 0 0 -0.5
v 4.4 0 -0.5
v 0 0 -1
v 4.4 0 -1
v -4.4 0 -1.4
v -4.3 0 -1.4
v -3.3 0 -1.4
v -3.1 0 -1.4
v -2.5 0 -1.4
v -1.7 0 -1.4
v -1.4 0 -1.4
v -0.7 0 -1.4
v 0 0 -1.4
v 0.8 0 -1.4
v 2 0 -1.4
v 2.2 0 -1.4
v 3.1 0 -1.4
v 3.7 0 -1.4
v 4.3 0 -1.4
v 4.4 0 -1.4
v -4.4 0 -2.3
v 0 0 -2.3
v -4.4 0 -2.6
v 0 0 -2.6
v -4.4 0 -2.8
v 0 0 -2.8
v -4.4 0 -3.7
v 0 0 -3.7
v -4.4 0 -4.4
v 0 0 -4.4
v -4.4 0 -4.8
v 0 0 -4.8
v 0.8 0 -4.8
v 2 0 -4.8
v 2.2 0 -4.8
v 3.1 0 -4.8
v 3.7 0 -4.8
v 4.3 0 -4.8
v 4.4 0 -4.8
v -4.4 0.2 2
v -4.3 0.2 2
v -3.3 0.2 2
v -3.1 0.2 2
v -2.5 0.2 2
v -1.7 0.2 2
v -1.4 0.2 2
v -0.7 0.2 2
v 0 0.2 2
v 4.4 0.2 2
v 0 0.2 1.9
v 4.4 0.2 1.9
v 0 0.2 1.7
v 4.4 0.2 1.7
v 0 0.2 1
v 4.4 0.2 1
v 0 0.2 0.8
v 4.4 0.2 0.8
v 0 0.2 0.3
v 4.4 0.2 0.3
v 0 0.2 -0.5
v 4.4 0.2 -0.5
v 0 0.2 -1
v 4.4 0.2 -1
v -4.4 0.2 -1.4
v -4.3 0.2 -1.4
v -3.3 0.2 -1.4
v -3.1 0.2 -1.4
v -2.5 0.2 -1.4
v -1.7 0.2 -1.4
v -1.4 0.2 -1.4
v -0.7 0.2 -1.4
v 0 0.2 -1.4
v 0.8 0.2 -1.4
v 2 0.2 -1.4
v 2.2 0.2 -1.4
v 3.1 0.2 -1.4
v 3.7 0.2 -1.4
v 4.3 0.2 -1.4
v 4.4 0.2 -1.4
v -4.4 0.2 -2.3
v 0 0.2 -2.3
v -4.4 0.2 -2.6
v 0 0.2 -2.6
v -4.4 0.2 -2.8
v 0 0.2 -2.8
v -4.4 0.2 -3.7
v 0 0.2 -3.7
v -4.4 0.2 -4.4
v 0 0.2 -4.4
v -4.4 0.2 -4.8
v 0 0.2 -4.8
v 0.8 0.2 -4.8
v 2 0.2 -4.8
v 2.2 0.2 -4.8
v 3.1 0.2 -4.8
v 3.7 0.2 -4.8
v 4.3 0.2 -4.8
v 4.4 0.2 -4.8

# faces
f 9/2/1 2/2/1 1/2/1
f 10/4/1 3/4/1 2/4/1
f 10/2/1 2/2/1 9/2/1
f 11/2/1 4/2/1 3/2/1
f 11/4/1 3/4/1 10/4/1
f 12/4/1 5/4/1 4/4/1
f 12/2/1 4/2/1 11/2/1
f 13/3/1 6/3/1 5/3/1
f 13/4/1 5/4/1 12/4/1
f 14/1/1 7/1/1 6/1/1
f 14/3/1 6/3/1 13/3/1
f 15/3/1 8/3/1 7/3/1
f 15/1/1 7/1/1 14/1/1
f 16/3/1 8/3/1 15/3/1
f 17/4/2 18/4/2 26/4/2
f 26/4/2 18/4/2 27/4/2
f 26/3/2 27/3/2 28/3/2
f 27/4/2 18/4/2 29/4/2
f 28/3/2 27/3/2 29/3/2
f 18/3/2 19/3/2 30/3/2
f 29/4/2 18/4/2 30/4/2
f 19/4/2 20/4/2 31/4/2
f 30/3/2 19/3/2 31/3/2
f 20/2/2 21/2/2 32/2/2
f 31/4/2 20/4/2 32/4/2
f 21/4/2 22/4/2 33/4/2
f 32/2/2 21/2/2 33/2/2
f 22/1/2 23/1/2 34/1/2
f 33/4/2 22/4/2 34/4/2
f 23/4/2 24/4/2 35/4/2
f 34/1/2 23/1/2 35/1/2
f 24/2/2 25/2/2 36/2/2
f 35/4/2 24/4/2 36/4/2
f 36/2/2 25/2/2 37/2/2
f 40/2/3 39/2/3 38/2/3
f 41/2/3 39/2/3 40/2/3
f 42/1/3 41/1/3 40/1/3
f 43/1/3 41/1/3 42/1/3
f 44/2/3 43/2/3 42/2/3
f 45/2/3 43/2/3 44/2/3
f 46/3/3 45/3/3 44/3/3
f 47/3/3 45/3/3 46/3/3
f 48/2/3 47/2/3 46/2/3
f 49/2/3 47/2/3 48/2/3
f 50/4/3 49/4/3 48/4/3
f 51/4/3 49/4/3 50/4/3
f 52/3/3 51/3/3 50/3/3
f 53/3/3 51/3/3 52/3/3
f 54/2/3 53/2/3 52/2/3
f 55/2/3 53/2/3 54/2/3
f 56/2/3 53/2/3 55/2/3
f 57/4/3 55/4/3 54/4/3
f 58/3/3 56/3/3 55/3/3
f 58/4/3 55/4/3 57/4/3
f 59/3/3 56/3/3 58/3/3
f 60/3/4 61/3/4 62/3/4
f 62/3/4 61/3/4 63/3/4
f 62/2/4 63/2/4 64/2/4
f 64/2/4 63/2/4 65/2/4
f 64/1/4 65/1/4 66/1/4
f 66/1/4 65/1/4 67/1/4
f 66/2/4 67/2/4 68/2/4
f 68/2/4 67/2/4 69/2/4
f 68/3/4 69/3/4 70/3/4
f 70/3/4 69/3/4 71/3/4
f 70/4/4 71/4/4 72/4/4
f 72/4/4 71/4/4 73/4/4
f 72/3/4 73/3/4 74/3/4
f 74/3/4 73/3/4 75/3/4
f 74/2/4 75/2/4 76/2/4
f 76/2/4 75/2/4 77/2/4
f 88/2/5 86/2/5 85/2/5
f 88/4/5 87/4/5 86/4/5
f 89/4/5 87/4/5 88/4/5
f 90/2/5 88/2/5 85/2/5
f 90/3/5 89/3/5 88/3/5
f 91/3/5 89/3/5 90/3/5
f 92/2/5 90/2/5 85/2/5
f 92/4/5 91/4/5 90/4/5
f 93/4/5 91/4/5 92/4/5
f 94/2/5 92/2/5 85/2/5
f 94/2/5 93/2/5 92/2/5
f 95/2/5 93/2/5 94/2/5
f 96/2/5 94/2/5 85/2/5
f 96/4/5 95/4/5 94/4/5
f 97/4/5 95/4/5 96/4/5
f 98/2/5 96/2/5 85/2/5
f 98/1/5 97/1/5 96/1/5
f 99/1/5 97/1/5 98/1/5
f 100/2/5 79/2/5 78/2/5
f 101/1/5 80/1/5 79/1/5
f 101/2/5 79/2/5 100/2/5
f 102/2/5 81/2/5 80/2/5
f 102/1/5 80/1/5 101/1/5
f 103/3/5 82/3/5 81/3/5
f 103/2/5 81/2/5 102/2/5
f 104/2/5 83/2/5 82/2/5
f 104/3/5 82/3/5 103/3/5
f 105/4/5 84/4/5 83/4/5
f 105/2/5 83/2/5 104/2/5
f 106/3/5 85/3/5 84/3/5
f 106/4/5 84/4/5 105/4/5
f 107/2/5 98/2/5 85/2/5
f 107/3/5 85/3/5 106/3/5
f 108/4/5 99/4/5 98/4/5
f 108/2/5 98/2/5 107/2/5
f 109/4/5 99/4/5 108/4/5
f 110/4/5 99/4/5 109/4/5
f 111/4/5 99/4/5 110/4/5
f 112/4/5 99/4/5 111/4/5
f 113/4/5 99/4/5 112/4/5
f 114/4/5 99/4/5 113/4/5
f 115/4/5 99/4/5 114/4/5
f 116/4/5 101/4/5 100/4/5
f 116/4/5 102/4/5 101/4/5
f 116/4/5 103/4/5 102/4/5
f 116/4/5 104/4/5 103/4/5
f 116/4/5 105/4/5 104/4/5
f 116/4/5 106/4/5 105/4/5
f 116/4/5 107/4/5 106/4/5
f 116/4/5 108/4/5 107/4/5
f 117/2/5 109/2/5 108/2/5
f 117/4/5 108/4/5 116/4/5
f 118/2/5 117/2/5 116/2/5
f 119/2/5 109/2/5 117/2/5
f 119/2/5 117/2/5 118/2/5
f 120/4/5 119/4/5 118/4/5
f 121/2/5 109/2/5 119/2/5
f 121/4/5 119/4/5 120/4/5
f 122/3/5 121/3/5 120/3/5
f 123/2/5 109/2/5 121/2/5
f 123/3/5 121/3/5 122/3/5
f 124/1/5 123/1/5 122/1/5
f 125/2/5 109/2/5 123/2/5
f 125/1/5 123/1/5 124/1/5
f 126/3/5 125/3/5 124/3/5
f 127/2/5 109/2/5 125/2/5
f 127/3/5 125/3/5 126/3/5
f 128/1/5 110/1/5 109/1/5
f 128/2/5 109/2/5 127/2/5
f 129/2/5 111/2/5 110/2/5
f 129/1/5 110/1/5 128/1/5
f 130/3/5 112/3/5 111/3/5
f 130/2/5 111/2/5 129/2/5
f 131/4/5 113/4/5 112/4/5
f 131/3/5 112/3/5 130/3/5
f 132/3/5 114/3/5 113/3/5
f 132/4/5 113/4/5 131/4/5
f 133/2/5 115/2/5 114/2/5
f 133/3/5 114/3/5 132/3/5
f 134/2/5 115/2/5 133/2/5
f 142/2/6 143/2/6 145/2/6
f 143/3/6 144/3/6 145/3/6
f 145/3/6 144/3/6 146/3/6
f 142/2/6 145/2/6 147/2/6
f 145/4/6 146/4/6 147/4/6
f 147/4/6 146/4/6 148/4/6
f 142/2/6 147/2/6 149/2/6
f 147/3/6 148/3/6 149/3/6
f 149/3/6 148/3/6 150/3/6
f 142/2/6 149/2/6 151/2/6
f 149/4/6 150/4/6 151/4/6
f 151/4/6 150/4/6 152/4/6
f 142/2/6 151/2/6 153/2/6
f 151/2/6 152/2/6 153/2/6
f 153/2/6 152/2/6 154/2/6
f 142/2/6 153/2/6 155/2/6
f 153/4/6 154/4/6 155/4/6
f 155/4/6 154/4/6 156/4/6
f 142/2/6 155/2/6 157/2/6
f 155/1/6 156/1/6 157/1/6
f 157/1/6 156/1/6 158/1/6
f 135/2/6 136/2/6 159/2/6
f 136/1/6 137/1/6 160/1/6
f 159/2/6 136/2/6 160/2/6
f 137/2/6 138/2/6 161/2/6
f 160/1/6 137/1/6 161/1/6
f 138/3/6 139/3/6 162/3/6
f 161/2/6 138/2/6 162/2/6
f 139/2/6 140/2/6 163/2/6
f 162/3/6 139/3/6 163/3/6
f 140/4/6 141/4/6 164/4/6
f 163/2/6 140/2/6 164/2/6
f 141/3/6 142/3/6 165/3/6
f 164/4/6 141/4/6 165/4/6
f 142/2/6 157/2/6 166/2/6
f 165/3/6 142/3/6 166/3/6
f 157/4/6 158/4/6 167/4/6
f 166/2/6 157/2/6 167/2/6
f 167/4/6 158/4/6 168/4/6
f 168/4/6 158/4/6 169/4/6
f 169/4/6 158/4/6 170/4/6
f 170/4/6 158/4/6 171/4/6
f 171/4/6 158/4/6 172/4/6
f 172/4/6 158/4/6 173/4/6
f 173/4/6 158/4/6 174/4/6
f 159/4/6 160/4/6 175/4/6
f 160/4/6 161/4/6 175/4/6
f 161/4/6 162/4/6 175/4/6
f 162/4/6 163/4/6 175/4/6
f 163/4/6 164/4/6 175/4/6
f 164/4/6 165/4/6 175/4/6
f 165/4/6 166/4/6 175/4/6
f 166/4/6 167/4/6 175/4/6
f 167/2/6 168/2/6 176/2/6
f 175/4/6 167/4/6 176/4/6
f 175/2/6 176/2/6 177/2/6
f 176/2/6 168/2/6 178/2/6
f 177/2/6 176/2/6 178/2/6
f 177/4/6 178/4/6 179/4/6
f 178/2/6 168/2/6 180/2/6
f 179/4/6 178/4/6 180/4/6
f 179/3/6 180/3/6 181/3/6
f 180/2/6 168/2/6 182/2/6
f 181/3/6 180/3/6 182/3/6
f 181/1/6 182/1/6 183/1/6
f 182/2/6 168/2/6 184/2/6
f 183/1/6 182/1/6 184/1/6
f 183/3/6 184/3/6 185/3/6
f 184/2/6 168/2/6 186/2/6
f 185/3/6 184/3/6 186/3/6
f 168/1/6 169/1/6 187/1/6
f 186/2/6 168/2/6 187/2/6
f 169/2/6 170/2/6 188/2/6
f 187/1/6 169/1/6 188/1/6
f 170/3/6 171/3/6 189/3/6
f 188/2/6 170/2/6 189/2/6
f 171/4/6 172/4/6 190/4/6
f 189/3/6 171/3/6 190/3/6
f 172/3/6 173/3/6 191/3/6
f 190/4/6 172/4/6 191/4/6
f 173/2/6 174/2/6 192/2/6
f 191/3/6 173/3/6 192/3/6
f 192/2/6 174/2/6 193/2/6
