# MagicaVoxel @ Ephtracy

# group
o 

# material
mtllib plitka_pol.mtl
usemtl palette

# normals
vn -1 0 0
vn 1 0 0
vn 0 0 1
vn 0 0 -1
vn 0 -1 0
vn 0 1 0

# texcoords
vt 0.814453 0.5
vt 0.818359 0.5
vt 0.822266 0.5
vt 0.990234 0.5

# verts
v -4.4 0 2
v -4.4 0 -1.3
v -4.4 0 -1.5
v -4.4 0 -4.8
v -4.4 0.1 2
v -4.4 0.1 -1.3
v -4.4 0.1 -1.5
v -4.4 0.1 -4.8
v -4.4 0.2 2
v -4.4 0.2 -4.8
v 4.4 0 2
v 4.4 0 -1.3
v 4.4 0 -1.5
v 4.4 0 -4.8
v 4.4 0.1 2
v 4.4 0.1 -1.3
v 4.4 0.1 -1.5
v 4.4 0.1 -4.8
v 4.4 0.2 2
v 4.4 0.2 -4.8
v -4.4 0 2
v -4.4 0.1 2
v -4.4 0.2 2
v -0.0999999 0 2
v -0.0999999 0.1 2
v 0.0999999 0 2
v 0.0999999 0.1 2
v 4.4 0 2
v 4.4 0.1 2
v 4.4 0.2 2
v -4.4 0 -4.8
v -4.4 0.1 -4.8
v -4.4 0.2 -4.8
v -0.0999999 0 -4.8
v -0.0999999 0.1 -4.8
v 0.0999999 0 -4.8
v 0.0999999 0.1 -4.8
v 4.4 0 -4.8
v 4.4 0.1 -4.8
v 4.4 0.2 -4.8
v -4.4 0 2
v -0.0999999 0 2
v 0.0999999 0 2
v 4.4 0 2
v -4.4 0 -1.3
v -0.0999999 0 -1.3
v 0.0999999 0 -1.3
v 4.4 0 -1.3
v -4.4 0 -1.5
v -0.0999999 0 -1.5
v 0.0999999 0 -1.5
v 4.4 0 -1.5
v -4.4 0 -4.8
v -0.0999999 0 -4.8
v 0.0999999 0 -4.8
v 4.4 0 -4.8
v -4.4 0.2 2
v 4.4 0.2 2
v -4.3 0.2 1.9
v -0.0999999 0.2 1.9
v 0.0999999 0.2 1.9
v 4.3 0.2 1.9
v -4.3 0.2 -1.3
v -0.0999999 0.2 -1.3
v 0.0999999 0.2 -1.3
v 4.3 0.2 -1.3
v -4.3 0.2 -1.5
v -0.0999999 0.2 -1.5
v 0.0999999 0.2 -1.5
v 4.3 0.2 -1.5
v -4.3 0.2 -4.7
v -0.0999999 0.2 -4.7
v 0.0999999 0.2 -4.7
v 4.3 0.2 -4.7
v -4.4 0.2 -4.8
v 4.4 0.2 -4.8

# faces
f 5/1/1 2/1/1 1/1/1
f 6/4/1 3/4/1 2/4/1
f 6/1/1 2/1/1 5/1/1
f 7/2/1 4/2/1 3/2/1
f 7/4/1 3/4/1 6/4/1
f 8/2/1 4/2/1 7/2/1
f 9/3/1 6/3/1 5/3/1
f 9/3/1 7/3/1 6/3/1
f 9/3/1 8/3/1 7/3/1
f 10/3/1 8/3/1 9/3/1
f 11/2/2 12/2/2 15/2/2
f 12/4/2 13/4/2 16/4/2
f 15/2/2 12/2/2 16/2/2
f 13/1/2 14/1/2 17/1/2
f 16/4/2 13/4/2 17/4/2
f 17/1/2 14/1/2 18/1/2
f 15/3/2 16/3/2 19/3/2
f 16/3/2 17/3/2 19/3/2
f 17/3/2 18/3/2 19/3/2
f 19/3/2 18/3/2 20/3/2
f 24/1/3 22/1/3 21/1/3
f 25/3/3 23/3/3 22/3/3
f 25/1/3 22/1/3 24/1/3
f 26/4/3 25/4/3 24/4/3
f 27/3/3 23/3/3 25/3/3
f 27/4/3 25/4/3 26/4/3
f 28/2/3 27/2/3 26/2/3
f 29/3/3 23/3/3 27/3/3
f 29/2/3 27/2/3 28/2/3
f 30/3/3 23/3/3 29/3/3
f 31/2/4 32/2/4 34/2/4
f 32/3/4 33/3/4 35/3/4
f 34/2/4 32/2/4 35/2/4
f 34/4/4 35/4/4 36/4/4
f 35/3/4 33/3/4 37/3/4
f 36/4/4 35/4/4 37/4/4
f 36/1/4 37/1/4 38/1/4
f 37/3/4 33/3/4 39/3/4
f 38/1/4 37/1/4 39/1/4
f 39/3/4 33/3/4 40/3/4
f 45/1/5 42/1/5 41/1/5
f 46/4/5 43/4/5 42/4/5
f 46/1/5 42/1/5 45/1/5
f 47/2/5 44/2/5 43/2/5
f 47/4/5 43/4/5 46/4/5
f 48/2/5 44/2/5 47/2/5
f 49/4/5 46/4/5 45/4/5
f 49/4/5 47/4/5 46/4/5
f 49/4/5 48/4/5 47/4/5
f 50/4/5 48/4/5 49/4/5
f 51/4/5 48/4/5 50/4/5
f 52/4/5 48/4/5 51/4/5
f 53/2/5 50/2/5 49/2/5
f 54/4/5 51/4/5 50/4/5
f 54/2/5 50/2/5 53/2/5
f 55/1/5 52/1/5 51/1/5
f 55/4/5 51/4/5 54/4/5
f 56/1/5 52/1/5 55/1/5
f 57/3/6 58/3/6 59/3/6
f 59/3/6 58/3/6 60/3/6
f 60/3/6 58/3/6 61/3/6
f 61/3/6 58/3/6 62/3/6
f 57/3/6 59/3/6 63/3/6
f 59/1/6 60/1/6 63/1/6
f 60/4/6 61/4/6 64/4/6
f 63/1/6 60/1/6 64/1/6
f 61/2/6 62/2/6 65/2/6
f 64/4/6 61/4/6 65/4/6
f 62/3/6 58/3/6 66/3/6
f 65/2/6 62/2/6 66/2/6
f 64/4/6 65/4/6 67/4/6
f 63/4/6 64/4/6 67/4/6
f 65/4/6 66/4/6 67/4/6
f 57/3/6 63/3/6 67/3/6
f 67/4/6 66/4/6 68/4/6
f 68/4/6 66/4/6 69/4/6
f 66/3/6 58/3/6 70/3/6
f 69/4/6 66/4/6 70/4/6
f 57/3/6 67/3/6 71/3/6
f 67/2/6 68/2/6 71/2/6
f 68/4/6 69/4/6 72/4/6
f 71/2/6 68/2/6 72/2/6
f 69/1/6 70/1/6 73/1/6
f 72/4/6 69/4/6 73/4/6
f 70/3/6 58/3/6 74/3/6
f 73/1/6 70/1/6 74/1/6
f 57/3/6 71/3/6 75/3/6
f 72/3/6 73/3/6 75/3/6
f 73/3/6 74/3/6 75/3/6
f 71/3/6 72/3/6 75/3/6
f 74/3/6 58/3/6 76/3/6
f 75/3/6 74/3/6 76/3/6
