# MagicaVoxel @ Ephtracy

# group
o 

# material
mtllib Brushers.mtl
usemtl palette

# normals
vn -1 0 0
vn 1 0 0
vn 0 0 1
vn 0 0 -1
vn 0 -1 0
vn 0 1 0

# texcoords
vt 0.0488281 0.5
vt 0.107422 0.5
vt 0.166016 0.5
vt 0.169922 0.5
vt 0.212891 0.5

# verts
v -0.7 0 0.5
v -0.7 0 -0.6
v -0.7 1.8 0.5
v -0.7 1.8 -0.6
v -0.6 0 0.6
v -0.6 0 0.5
v -0.6 0 -0.6
v -0.6 0 -0.7
v -0.6 1.8 0.6
v -0.6 1.8 0.5
v -0.6 1.8 -0.6
v -0.6 1.8 -0.7
v -0.5 0 0.7
v -0.5 0 0.6
v -0.5 0 -0.7
v -0.5 0 -0.8
v -0.5 1.8 0.7
v -0.5 1.8 0.6
v -0.5 1.8 -0.7
v -0.5 1.8 -0.8
v -0.4 1.4 0.3
v -0.4 1.4 0.1
v -0.4 3 0.3
v -0.4 3 0.1
v -0.3 1.4 -0.4
v -0.3 1.4 -0.6
v -0.3 3 -0.4
v -0.3 3 -0.6
v 0.3 2.6 0
v 0.3 2.6 -0.1
v 0.3 2.7 0
v 0.3 2.7 -0.1
v 0.3 2.7 -0.2
v 0.3 2.8 0
v 0.3 2.8 -0.1
v 0.3 2.8 -0.2
v 0.3 2.9 0
v 0.3 2.9 -0.1
v 0.3 2.9 -0.2
v 0.3 3 -0.1
v 0.3 3 -0.2
v 0.4 1.4 0
v 0.4 1.4 -0.2
v 0.4 2.6 0
v 0.4 2.6 -0.1
v 0.4 2.6 -0.2
v 0.4 2.7 0
v 0.4 2.7 -0.1
v 0.4 2.7 -0.2
v 0.4 2.8 0
v 0.4 2.8 -0.1
v 0.4 2.8 -0.2
v 0.4 2.9 0
v 0.4 2.9 -0.1
v 0.4 2.9 -0.2
v 0.4 3 0
v 0.4 3 -0.1
v 0.5 1.4 -0.6
v 0.5 1.4 -0.7
v 0.5 1.8 -0.6
v 0.5 1.8 -0.7
v 0.6 1.4 0.5
v 0.6 1.4 0.4
v 0.6 1.4 -0.5
v 0.6 1.4 -0.6
v 0.6 1.8 0.5
v 0.6 1.8 0.4
v 0.6 1.8 -0.5
v 0.6 1.8 -0.6
v 0.7 1.4 0.4
v 0.7 1.4 -0.5
v 0.7 1.8 0.4
v 0.7 1.8 -0.5
v -0.6 1.4 0.3
v -0.6 1.4 -0.5
v -0.6 1.8 0.3
v -0.6 1.8 -0.5
v -0.5 1.4 0.5
v -0.5 1.4 0.3
v -0.5 1.4 -0.5
v -0.5 1.4 -0.6
v -0.5 1.8 0.5
v -0.5 1.8 0.3
v -0.5 1.8 -0.5
v -0.5 1.8 -0.6
v -0.4 1.4 -0.6
v -0.4 1.4 -0.7
v -0.4 1.8 -0.6
v -0.4 1.8 -0.7
v -0.2 1.4 0.3
v -0.2 1.4 0.1
v -0.2 2.6 0.3
v -0.2 2.6 0.2
v -0.2 2.6 0.1
v -0.2 2.7 0.3
v -0.2 2.7 0.2
v -0.2 2.7 0.1
v -0.2 2.8 0.3
v -0.2 2.8 0.2
v -0.2 2.8 0.1
v -0.2 2.9 0.3
v -0.2 2.9 0.2
v -0.2 2.9 0.1
v -0.2 3 0.2
v -0.2 3 0.1
v -0.1 1.4 -0.4
v -0.1 1.4 -0.6
v -0.1 2.6 0.2
v -0.1 2.6 0.1
v -0.1 2.6 -0.4
v -0.1 2.6 -0.5
v -0.1 2.6 -0.6
v -0.1 2.7 0.3
v -0.1 2.7 0.2
v -0.1 2.7 0.1
v -0.1 2.7 -0.4
v -0.1 2.7 -0.5
v -0.1 2.7 -0.6
v -0.1 2.8 0.3
v -0.1 2.8 0.2
v -0.1 2.8 0.1
v -0.1 2.8 -0.4
v -0.1 2.8 -0.5
v -0.1 2.8 -0.6
v -0.1 2.9 0.3
v -0.1 2.9 0.2
v -0.1 2.9 0.1
v -0.1 2.9 -0.4
v -0.1 2.9 -0.5
v -0.1 2.9 -0.6
v -0.1 3 0.3
v -0.1 3 0.2
v -0.1 3 -0.4
v -0.1 3 -0.5
v 0 2.6 -0.4
v 0 2.6 -0.5
v 0 2.7 -0.4
v 0 2.7 -0.5
v 0 2.7 -0.6
v 0 2.8 -0.4
v 0 2.8 -0.5
v 0 2.8 -0.6
v 0 2.9 -0.4
v 0 2.9 -0.5
v 0 2.9 -0.6
v 0 3 -0.5
v 0 3 -0.6
v 0.6 0 0.7
v 0.6 0 0.6
v 0.6 0 -0.7
v 0.6 0 -0.8
v 0.6 1.4 0
v 0.6 1.4 -0.2
v 0.6 1.8 0.7
v 0.6 1.8 0.6
v 0.6 1.8 -0.7
v 0.6 1.8 -0.8
v 0.6 3 0
v 0.6 3 -0.2
v 0.7 0 0.6
v 0.7 0 0.5
v 0.7 0 -0.6
v 0.7 0 -0.7
v 0.7 1.8 0.6
v 0.7 1.8 0.5
v 0.7 1.8 -0.6
v 0.7 1.8 -0.7
v 0.8 0 0.5
v 0.8 0 -0.6
v 0.8 1.8 0.5
v 0.8 1.8 -0.6
v -0.5 0 0.7
v -0.5 1.8 0.7
v 0.6 0 0.7
v 0.6 1.8 0.7
v -0.6 0 0.6
v -0.6 1.8 0.6
v -0.5 0 0.6
v -0.5 1.8 0.6
v 0.6 0 0.6
v 0.6 1.8 0.6
v 0.7 0 0.6
v 0.7 1.8 0.6
v -0.7 0 0.5
v -0.7 1.8 0.5
v -0.6 0 0.5
v -0.6 1.8 0.5
v 0.7 0 0.5
v 0.7 1.8 0.5
v 0.8 0 0.5
v 0.8 1.8 0.5
v -0.4 1.4 0.3
v -0.4 3 0.3
v -0.3 2.6 0.3
v -0.3 3 0.3
v -0.2 1.4 0.3
v -0.2 2.6 0.3
v -0.2 2.7 0.3
v -0.2 2.8 0.3
v -0.2 2.9 0.3
v -0.1 2.7 0.3
v -0.1 2.8 0.3
v -0.1 2.9 0.3
v -0.1 3 0.3
v -0.2 2.6 0.2
v -0.2 2.7 0.2
v -0.2 2.8 0.2
v -0.2 2.9 0.2
v -0.1 2.6 0.2
v -0.1 2.7 0.2
v -0.1 2.8 0.2
v -0.1 2.9 0.2
v 0.3 2.6 0
v 0.3 2.7 0
v 0.3 2.8 0
v 0.3 2.9 0
v 0.4 1.4 0
v 0.4 2.6 0
v 0.4 2.7 0
v 0.4 2.8 0
v 0.4 2.9 0
v 0.4 3 0
v 0.5 2.6 0
v 0.5 3 0
v 0.6 1.4 0
v 0.6 3 0
v 0.3 2.7 -0.1
v 0.3 2.8 -0.1
v 0.3 2.9 -0.1
v 0.3 3 -0.1
v 0.4 2.7 -0.1
v 0.4 2.8 -0.1
v 0.4 2.9 -0.1
v 0.4 3 -0.1
v -0.3 1.4 -0.4
v -0.3 3 -0.4
v -0.2 2.6 -0.4
v -0.2 3 -0.4
v -0.1 1.4 -0.4
v -0.1 2.6 -0.4
v -0.1 2.7 -0.4
v -0.1 2.8 -0.4
v -0.1 2.9 -0.4
v -0.1 3 -0.4
v 0 2.6 -0.4
v 0 2.7 -0.4
v 0 2.8 -0.4
v 0 2.9 -0.4
v -0.6 1.4 -0.5
v -0.6 1.8 -0.5
v -0.5 1.4 -0.5
v -0.5 1.8 -0.5
v -0.1 2.7 -0.5
v -0.1 2.8 -0.5
v -0.1 2.9 -0.5
v -0.1 3 -0.5
v 0 2.7 -0.5
v 0 2.8 -0.5
v 0 2.9 -0.5
v 0 3 -0.5
v 0.6 1.4 -0.5
v 0.6 1.8 -0.5
v 0.7 1.4 -0.5
v 0.7 1.8 -0.5
v -0.5 1.4 -0.6
v -0.5 1.8 -0.6
v -0.4 1.4 -0.6
v -0.4 1.8 -0.6
v 0.5 1.4 -0.6
v 0.5 1.8 -0.6
v 0.6 1.4 -0.6
v 0.6 1.8 -0.6
v -0.4 1.4 -0.7
v -0.4 1.8 -0.7
v 0.5 1.4 -0.7
v 0.5 1.8 -0.7
v -0.5 1.4 0.5
v -0.5 1.8 0.5
v 0.6 1.4 0.5
v 0.6 1.8 0.5
v 0.6 1.4 0.4
v 0.6 1.8 0.4
v 0.7 1.4 0.4
v 0.7 1.8 0.4
v -0.6 1.4 0.3
v -0.6 1.8 0.3
v -0.5 1.4 0.3
v -0.5 1.8 0.3
v -0.2 2.7 0.2
v -0.2 2.8 0.2
v -0.2 2.9 0.2
v -0.2 3 0.2
v -0.1 2.7 0.2
v -0.1 2.8 0.2
v -0.1 2.9 0.2
v -0.1 3 0.2
v -0.4 1.4 0.1
v -0.4 3 0.1
v -0.3 2.6 0.1
v -0.3 3 0.1
v -0.2 1.4 0.1
v -0.2 2.6 0.1
v -0.2 2.7 0.1
v -0.2 2.8 0.1
v -0.2 2.9 0.1
v -0.2 3 0.1
v -0.1 2.6 0.1
v -0.1 2.7 0.1
v -0.1 2.8 0.1
v -0.1 2.9 0.1
v 0.3 2.6 -0.1
v 0.3 2.7 -0.1
v 0.3 2.8 -0.1
v 0.3 2.9 -0.1
v 0.4 2.6 -0.1
v 0.4 2.7 -0.1
v 0.4 2.8 -0.1
v 0.4 2.9 -0.1
v 0.3 2.7 -0.2
v 0.3 2.8 -0.2
v 0.3 2.9 -0.2
v 0.3 3 -0.2
v 0.4 1.4 -0.2
v 0.4 2.6 -0.2
v 0.4 2.7 -0.2
v 0.4 2.8 -0.2
v 0.4 2.9 -0.2
v 0.5 2.6 -0.2
v 0.5 3 -0.2
v 0.6 1.4 -0.2
v 0.6 3 -0.2
v -0.1 2.6 -0.5
v -0.1 2.7 -0.5
v -0.1 2.8 -0.5
v -0.1 2.9 -0.5
v 0 2.6 -0.5
v 0 2.7 -0.5
v 0 2.8 -0.5
v 0 2.9 -0.5
v -0.7 0 -0.6
v -0.7 1.8 -0.6
v -0.6 0 -0.6
v -0.6 1.8 -0.6
v -0.3 1.4 -0.6
v -0.3 3 -0.6
v -0.2 2.6 -0.6
v -0.2 3 -0.6
v -0.1 1.4 -0.6
v -0.1 2.6 -0.6
v -0.1 2.7 -0.6
v -0.1 2.8 -0.6
v -0.1 2.9 -0.6
v 0 2.7 -0.6
v 0 2.8 -0.6
v 0 2.9 -0.6
v 0 3 -0.6
v 0.7 0 -0.6
v 0.7 1.8 -0.6
v 0.8 0 -0.6
v 0.8 1.8 -0.6
v -0.6 0 -0.7
v -0.6 1.8 -0.7
v -0.5 0 -0.7
v -0.5 1.8 -0.7
v 0.6 0 -0.7
v 0.6 1.8 -0.7
v 0.7 0 -0.7
v 0.7 1.8 -0.7
v -0.5 0 -0.8
v -0.5 1.8 -0.8
v 0.6 0 -0.8
v 0.6 1.8 -0.8
v -0.5 0 0.7
v 0.6 0 0.7
v -0.6 0 0.6
v -0.5 0 0.6
v 0.6 0 0.6
v 0.7 0 0.6
v -0.7 0 0.5
v -0.6 0 0.5
v 0.7 0 0.5
v 0.8 0 0.5
v -0.7 0 -0.6
v -0.6 0 -0.6
v 0.7 0 -0.6
v 0.8 0 -0.6
v -0.6 0 -0.7
v -0.5 0 -0.7
v 0.6 0 -0.7
v 0.7 0 -0.7
v -0.5 0 -0.8
v 0.6 0 -0.8
v -0.2 2.6 0.2
v -0.1 2.6 0.2
v -0.2 2.6 0.1
v -0.1 2.6 0.1
v 0.3 2.6 0
v 0.4 2.6 0
v 0.3 2.6 -0.1
v 0.4 2.6 -0.1
v -0.1 2.6 -0.4
v 0 2.6 -0.4
v -0.1 2.6 -0.5
v 0 2.6 -0.5
v -0.2 2.7 0.3
v -0.1 2.7 0.3
v -0.2 2.7 0.2
v -0.1 2.7 0.2
v 0.3 2.7 -0.1
v 0.4 2.7 -0.1
v 0.3 2.7 -0.2
v 0.4 2.7 -0.2
v -0.1 2.7 -0.5
v 0 2.7 -0.5
v -0.1 2.7 -0.6
v 0 2.7 -0.6
v -0.2 2.8 0.2
v -0.1 2.8 0.2
v -0.2 2.8 0.1
v -0.1 2.8 0.1
v 0.3 2.8 0
v 0.4 2.8 0
v 0.3 2.8 -0.1
v 0.4 2.8 -0.1
v -0.1 2.8 -0.4
v 0 2.8 -0.4
v -0.1 2.8 -0.5
v 0 2.8 -0.5
v -0.2 2.9 0.3
v -0.1 2.9 0.3
v -0.2 2.9 0.2
v -0.1 2.9 0.2
v 0.3 2.9 -0.1
v 0.4 2.9 -0.1
v 0.3 2.9 -0.2
v 0.4 2.9 -0.2
v -0.1 2.9 -0.5
v 0 2.9 -0.5
v -0.1 2.9 -0.6
v 0 2.9 -0.6
v -0.5 1.4 0.5
v 0.6 1.4 0.5
v 0.6 1.4 0.4
v 0.7 1.4 0.4
v -0.6 1.4 0.3
v -0.5 1.4 0.3
v -0.4 1.4 0.3
v -0.2 1.4 0.3
v -0.4 1.4 0.1
v -0.2 1.4 0.1
v 0.4 1.4 0
v 0.6 1.4 0
v 0.4 1.4 -0.2
v 0.6 1.4 -0.2
v -0.3 1.4 -0.4
v -0.1 1.4 -0.4
v -0.6 1.4 -0.5
v -0.5 1.4 -0.5
v 0.6 1.4 -0.5
v 0.7 1.4 -0.5
v -0.5 1.4 -0.6
v -0.4 1.4 -0.6
v -0.3 1.4 -0.6
v -0.1 1.4 -0.6
v 0.5 1.4 -0.6
v 0.6 1.4 -0.6
v -0.4 1.4 -0.7
v 0.5 1.4 -0.7
v -0.5 1.8 0.7
v 0.6 1.8 0.7
v -0.6 1.8 0.6
v -0.5 1.8 0.6
v 0.6 1.8 0.6
v 0.7 1.8 0.6
v -0.7 1.8 0.5
v -0.6 1.8 0.5
v -0.5 1.8 0.5
v 0.6 1.8 0.5
v 0.7 1.8 0.5
v 0.8 1.8 0.5
v 0.6 1.8 0.4
v 0.7 1.8 0.4
v -0.6 1.8 0.3
v -0.5 1.8 0.3
v -0.6 1.8 -0.5
v -0.5 1.8 -0.5
v 0.6 1.8 -0.5
v 0.7 1.8 -0.5
v -0.7 1.8 -0.6
v -0.6 1.8 -0.6
v -0.5 1.8 -0.6
v -0.4 1.8 -0.6
v 0.5 1.8 -0.6
v 0.6 1.8 -0.6
v 0.7 1.8 -0.6
v 0.8 1.8 -0.6
v -0.6 1.8 -0.7
v -0.5 1.8 -0.7
v -0.4 1.8 -0.7
v 0.5 1.8 -0.7
v 0.6 1.8 -0.7
v 0.7 1.8 -0.7
v -0.5 1.8 -0.8
v 0.6 1.8 -0.8
v -0.2 2.7 0.2
v -0.1 2.7 0.2
v -0.2 2.7 0.1
v -0.1 2.7 0.1
v 0.3 2.7 0
v 0.4 2.7 0
v 0.3 2.7 -0.1
v 0.4 2.7 -0.1
v -0.1 2.7 -0.4
v 0 2.7 -0.4
v -0.1 2.7 -0.5
v 0 2.7 -0.5
v -0.2 2.8 0.3
v -0.1 2.8 0.3
v -0.2 2.8 0.2
v -0.1 2.8 0.2
v 0.3 2.8 -0.1
v 0.4 2.8 -0.1
v 0.3 2.8 -0.2
v 0.4 2.8 -0.2
v -0.1 2.8 -0.5
v 0 2.8 -0.5
v -0.1 2.8 -0.6
v 0 2.8 -0.6
v -0.2 2.9 0.2
v -0.1 2.9 0.2
v -0.2 2.9 0.1
v -0.1 2.9 0.1
v 0.3 2.9 0
v 0.4 2.9 0
v 0.3 2.9 -0.1
v 0.4 2.9 -0.1
v -0.1 2.9 -0.4
v 0 2.9 -0.4
v -0.1 2.9 -0.5
v 0 2.9 -0.5
v -0.4 3 0.3
v -0.3 3 0.3
v -0.1 3 0.3
v -0.2 3 0.2
v -0.1 3 0.2
v -0.4 3 0.1
v -0.3 3 0.1
v -0.2 3 0.1
v 0.4 3 0
v 0.5 3 0
v 0.6 3 0
v 0.3 3 -0.1
v 0.4 3 -0.1
v 0.3 3 -0.2
v 0.5 3 -0.2
v 0.6 3 -0.2
v -0.3 3 -0.4
v -0.2 3 -0.4
v -0.1 3 -0.4
v -0.1 3 -0.5
v 0 3 -0.5
v -0.3 3 -0.6
v -0.2 3 -0.6
v 0 3 -0.6

# faces
f 3/3/1 2/3/1 1/3/1
f 4/3/1 2/3/1 3/3/1
f 9/3/1 6/3/1 5/3/1
f 10/3/1 6/3/1 9/3/1
f 11/3/1 8/3/1 7/3/1
f 12/3/1 8/3/1 11/3/1
f 17/3/1 14/3/1 13/3/1
f 18/3/1 14/3/1 17/3/1
f 19/3/1 16/3/1 15/3/1
f 20/3/1 16/3/1 19/3/1
f 23/1/1 22/1/1 21/1/1
f 24/1/1 22/1/1 23/1/1
f 27/4/1 26/4/1 25/4/1
f 28/4/1 26/4/1 27/4/1
f 31/5/1 30/5/1 29/5/1
f 32/5/1 30/5/1 31/5/1
f 35/5/1 33/5/1 32/5/1
f 36/5/1 33/5/1 35/5/1
f 37/5/1 35/5/1 34/5/1
f 38/5/1 35/5/1 37/5/1
f 40/5/1 39/5/1 38/5/1
f 41/5/1 39/5/1 40/5/1
f 44/2/1 43/2/1 42/2/1
f 45/2/1 43/2/1 44/2/1
f 46/2/1 43/2/1 45/2/1
f 48/5/1 46/5/1 45/5/1
f 49/5/1 46/5/1 48/5/1
f 50/5/1 48/5/1 47/5/1
f 51/5/1 48/5/1 50/5/1
f 54/5/1 52/5/1 51/5/1
f 55/5/1 52/5/1 54/5/1
f 56/5/1 54/5/1 53/5/1
f 57/5/1 54/5/1 56/5/1
f 60/3/1 59/3/1 58/3/1
f 61/3/1 59/3/1 60/3/1
f 66/3/1 63/3/1 62/3/1
f 67/3/1 63/3/1 66/3/1
f 68/3/1 65/3/1 64/3/1
f 69/3/1 65/3/1 68/3/1
f 72/3/1 71/3/1 70/3/1
f 73/3/1 71/3/1 72/3/1
f 74/3/2 75/3/2 76/3/2
f 76/3/2 75/3/2 77/3/2
f 78/3/2 79/3/2 82/3/2
f 82/3/2 79/3/2 83/3/2
f 80/3/2 81/3/2 84/3/2
f 84/3/2 81/3/2 85/3/2
f 86/3/2 87/3/2 88/3/2
f 88/3/2 87/3/2 89/3/2
f 90/1/2 91/1/2 92/1/2
f 92/1/2 91/1/2 93/1/2
f 93/1/2 91/1/2 94/1/2
f 92/5/2 93/5/2 95/5/2
f 95/5/2 93/5/2 96/5/2
f 96/5/2 97/5/2 99/5/2
f 99/5/2 97/5/2 100/5/2
f 98/5/2 99/5/2 101/5/2
f 101/5/2 99/5/2 102/5/2
f 102/5/2 103/5/2 104/5/2
f 104/5/2 103/5/2 105/5/2
f 106/4/2 107/4/2 110/4/2
f 110/4/2 107/4/2 111/4/2
f 111/4/2 107/4/2 112/4/2
f 108/5/2 109/5/2 114/5/2
f 114/5/2 109/5/2 115/5/2
f 111/5/2 112/5/2 117/5/2
f 117/5/2 112/5/2 118/5/2
f 113/5/2 114/5/2 119/5/2
f 119/5/2 114/5/2 120/5/2
f 116/5/2 117/5/2 122/5/2
f 122/5/2 117/5/2 123/5/2
f 120/5/2 121/5/2 126/5/2
f 126/5/2 121/5/2 127/5/2
f 123/5/2 124/5/2 129/5/2
f 129/5/2 124/5/2 130/5/2
f 125/5/2 126/5/2 131/5/2
f 131/5/2 126/5/2 132/5/2
f 128/5/2 129/5/2 133/5/2
f 133/5/2 129/5/2 134/5/2
f 135/5/2 136/5/2 137/5/2
f 137/5/2 136/5/2 138/5/2
f 138/5/2 139/5/2 141/5/2
f 141/5/2 139/5/2 142/5/2
f 140/5/2 141/5/2 143/5/2
f 143/5/2 141/5/2 144/5/2
f 144/5/2 145/5/2 146/5/2
f 146/5/2 145/5/2 147/5/2
f 148/3/2 149/3/2 154/3/2
f 154/3/2 149/3/2 155/3/2
f 150/3/2 151/3/2 156/3/2
f 156/3/2 151/3/2 157/3/2
f 152/2/2 153/2/2 158/2/2
f 158/2/2 153/2/2 159/2/2
f 160/3/2 161/3/2 164/3/2
f 164/3/2 161/3/2 165/3/2
f 162/3/2 163/3/2 166/3/2
f 166/3/2 163/3/2 167/3/2
f 168/3/2 169/3/2 170/3/2
f 170/3/2 169/3/2 171/3/2
f 174/3/3 173/3/3 172/3/3
f 175/3/3 173/3/3 174/3/3
f 178/3/3 177/3/3 176/3/3
f 179/3/3 177/3/3 178/3/3
f 182/3/3 181/3/3 180/3/3
f 183/3/3 181/3/3 182/3/3
f 186/3/3 185/3/3 184/3/3
f 187/3/3 185/3/3 186/3/3
f 190/3/3 189/3/3 188/3/3
f 191/3/3 189/3/3 190/3/3
f 194/1/3 193/1/3 192/1/3
f 195/1/3 193/1/3 194/1/3
f 196/1/3 194/1/3 192/1/3
f 197/5/3 195/5/3 194/5/3
f 197/1/3 194/1/3 196/1/3
f 198/5/3 195/5/3 197/5/3
f 199/5/3 195/5/3 198/5/3
f 200/5/3 195/5/3 199/5/3
f 201/5/3 199/5/3 198/5/3
f 202/5/3 199/5/3 201/5/3
f 203/5/3 195/5/3 200/5/3
f 204/5/3 195/5/3 203/5/3
f 209/5/3 206/5/3 205/5/3
f 210/5/3 206/5/3 209/5/3
f 211/5/3 208/5/3 207/5/3
f 212/5/3 208/5/3 211/5/3
f 218/5/3 214/5/3 213/5/3
f 219/5/3 214/5/3 218/5/3
f 220/5/3 216/5/3 215/5/3
f 221/5/3 216/5/3 220/5/3
f 223/5/3 219/5/3 218/5/3
f 223/5/3 222/5/3 221/5/3
f 223/5/3 221/5/3 220/5/3
f 223/5/3 220/5/3 219/5/3
f 223/2/3 218/2/3 217/2/3
f 224/5/3 222/5/3 223/5/3
f 225/2/3 223/2/3 217/2/3
f 225/2/3 224/2/3 223/2/3
f 226/2/3 224/2/3 225/2/3
f 231/5/3 228/5/3 227/5/3
f 232/5/3 228/5/3 231/5/3
f 233/5/3 230/5/3 229/5/3
f 234/5/3 230/5/3 233/5/3
f 237/4/3 236/4/3 235/4/3
f 238/4/3 236/4/3 237/4/3
f 239/4/3 237/4/3 235/4/3
f 240/5/3 238/5/3 237/5/3
f 240/4/3 237/4/3 239/4/3
f 241/5/3 238/5/3 240/5/3
f 242/5/3 238/5/3 241/5/3
f 243/5/3 238/5/3 242/5/3
f 244/5/3 238/5/3 243/5/3
f 245/5/3 241/5/3 240/5/3
f 246/5/3 241/5/3 245/5/3
f 247/5/3 243/5/3 242/5/3
f 248/5/3 243/5/3 247/5/3
f 251/3/3 250/3/3 249/3/3
f 252/3/3 250/3/3 251/3/3
f 257/5/3 254/5/3 253/5/3
f 258/5/3 254/5/3 257/5/3
f 259/5/3 256/5/3 255/5/3
f 260/5/3 256/5/3 259/5/3
f 263/3/3 262/3/3 261/3/3
f 264/3/3 262/3/3 263/3/3
f 267/3/3 266/3/3 265/3/3
f 268/3/3 266/3/3 267/3/3
f 271/3/3 270/3/3 269/3/3
f 272/3/3 270/3/3 271/3/3
f 275/3/3 274/3/3 273/3/3
f 276/3/3 274/3/3 275/3/3
f 277/3/4 278/3/4 279/3/4
f 279/3/4 278/3/4 280/3/4
f 281/3/4 282/3/4 283/3/4
f 283/3/4 282/3/4 284/3/4
f 285/3/4 286/3/4 287/3/4
f 287/3/4 286/3/4 288/3/4
f 289/5/4 290/5/4 293/5/4
f 293/5/4 290/5/4 294/5/4
f 291/5/4 292/5/4 295/5/4
f 295/5/4 292/5/4 296/5/4
f 297/1/4 298/1/4 299/1/4
f 299/1/4 298/1/4 300/1/4
f 297/1/4 299/1/4 301/1/4
f 299/5/4 300/5/4 302/5/4
f 301/1/4 299/1/4 302/1/4
f 302/5/4 300/5/4 303/5/4
f 303/5/4 300/5/4 304/5/4
f 304/5/4 300/5/4 305/5/4
f 305/5/4 300/5/4 306/5/4
f 302/5/4 303/5/4 307/5/4
f 307/5/4 303/5/4 308/5/4
f 304/5/4 305/5/4 309/5/4
f 309/5/4 305/5/4 310/5/4
f 311/5/4 312/5/4 315/5/4
f 315/5/4 312/5/4 316/5/4
f 313/5/4 314/5/4 317/5/4
f 317/5/4 314/5/4 318/5/4
f 319/5/4 320/5/4 325/5/4
f 325/5/4 320/5/4 326/5/4
f 321/5/4 322/5/4 327/5/4
f 323/2/4 324/2/4 328/2/4
f 326/5/4 327/5/4 328/5/4
f 325/5/4 326/5/4 328/5/4
f 324/5/4 325/5/4 328/5/4
f 327/5/4 322/5/4 329/5/4
f 328/5/4 327/5/4 329/5/4
f 323/2/4 328/2/4 330/2/4
f 328/2/4 329/2/4 330/2/4
f 330/2/4 329/2/4 331/2/4
f 332/5/4 333/5/4 336/5/4
f 336/5/4 333/5/4 337/5/4
f 334/5/4 335/5/4 338/5/4
f 338/5/4 335/5/4 339/5/4
f 340/3/4 341/3/4 342/3/4
f 342/3/4 341/3/4 343/3/4
f 344/4/4 345/4/4 346/4/4
f 346/4/4 345/4/4 347/4/4
f 344/4/4 346/4/4 348/4/4
f 346/5/4 347/5/4 349/5/4
f 348/4/4 346/4/4 349/4/4
f 349/5/4 347/5/4 350/5/4
f 350/5/4 347/5/4 351/5/4
f 351/5/4 347/5/4 352/5/4
f 350/5/4 351/5/4 353/5/4
f 353/5/4 351/5/4 354/5/4
f 352/5/4 347/5/4 355/5/4
f 355/5/4 347/5/4 356/5/4
f 357/3/4 358/3/4 359/3/4
f 359/3/4 358/3/4 360/3/4
f 361/3/4 362/3/4 363/3/4
f 363/3/4 362/3/4 364/3/4
f 365/3/4 366/3/4 367/3/4
f 367/3/4 366/3/4 368/3/4
f 369/3/4 370/3/4 371/3/4
f 371/3/4 370/3/4 372/3/4
f 376/3/5 374/3/5 373/3/5
f 377/3/5 374/3/5 376/3/5
f 380/3/5 376/3/5 375/3/5
f 380/3/5 378/3/5 377/3/5
f 380/3/5 377/3/5 376/3/5
f 381/3/5 378/3/5 380/3/5
f 383/3/5 380/3/5 379/3/5
f 383/3/5 382/3/5 381/3/5
f 383/3/5 381/3/5 380/3/5
f 384/3/5 382/3/5 383/3/5
f 385/3/5 382/3/5 384/3/5
f 386/3/5 382/3/5 385/3/5
f 387/3/5 385/3/5 384/3/5
f 388/3/5 385/3/5 387/3/5
f 389/3/5 385/3/5 388/3/5
f 390/3/5 385/3/5 389/3/5
f 391/3/5 389/3/5 388/3/5
f 392/3/5 389/3/5 391/3/5
f 395/5/5 394/5/5 393/5/5
f 396/5/5 394/5/5 395/5/5
f 399/5/5 398/5/5 397/5/5
f 400/5/5 398/5/5 399/5/5
f 403/5/5 402/5/5 401/5/5
f 404/5/5 402/5/5 403/5/5
f 407/5/5 406/5/5 405/5/5
f 408/5/5 406/5/5 407/5/5
f 411/5/5 410/5/5 409/5/5
f 412/5/5 410/5/5 411/5/5
f 415/5/5 414/5/5 413/5/5
f 416/5/5 414/5/5 415/5/5
f 419/5/5 418/5/5 417/5/5
f 420/5/5 418/5/5 419/5/5
f 423/5/5 422/5/5 421/5/5
f 424/5/5 422/5/5 423/5/5
f 427/5/5 426/5/5 425/5/5
f 428/5/5 426/5/5 427/5/5
f 431/5/5 430/5/5 429/5/5
f 432/5/5 430/5/5 431/5/5
f 435/5/5 434/5/5 433/5/5
f 436/5/5 434/5/5 435/5/5
f 439/5/5 438/5/5 437/5/5
f 440/5/5 438/5/5 439/5/5
f 441/3/6 442/3/6 443/3/6
f 441/3/6 443/3/6 446/3/6
f 443/3/6 444/3/6 446/3/6
f 446/3/6 444/3/6 447/3/6
f 447/3/6 444/3/6 448/3/6
f 445/3/6 446/3/6 449/3/6
f 446/3/6 447/3/6 449/3/6
f 448/3/6 444/3/6 450/3/6
f 450/3/6 444/3/6 451/3/6
f 449/3/6 450/3/6 451/3/6
f 451/3/6 444/3/6 452/3/6
f 449/3/6 451/3/6 453/3/6
f 452/3/6 444/3/6 454/3/6
f 449/3/6 453/3/6 455/3/6
f 453/3/6 454/3/6 455/3/6
f 455/3/6 454/3/6 456/3/6
f 445/3/6 449/3/6 457/3/6
f 449/3/6 455/3/6 457/3/6
f 457/3/6 455/3/6 458/3/6
f 456/3/6 454/3/6 459/3/6
f 454/3/6 444/3/6 459/3/6
f 459/3/6 444/3/6 460/3/6
f 458/3/6 455/3/6 461/3/6
f 461/3/6 455/3/6 462/3/6
f 462/3/6 455/3/6 463/3/6
f 456/3/6 459/3/6 464/3/6
f 464/3/6 459/3/6 465/3/6
f 465/3/6 459/3/6 466/3/6
f 462/3/6 463/3/6 467/3/6
f 464/3/6 465/3/6 467/3/6
f 463/3/6 464/3/6 467/3/6
f 467/3/6 465/3/6 468/3/6
f 469/3/6 470/3/6 472/3/6
f 472/3/6 470/3/6 473/3/6
f 471/3/6 472/3/6 476/3/6
f 473/3/6 474/3/6 476/3/6
f 472/3/6 473/3/6 476/3/6
f 476/3/6 474/3/6 477/3/6
f 477/3/6 474/3/6 478/3/6
f 478/3/6 474/3/6 479/3/6
f 479/3/6 480/3/6 481/3/6
f 478/3/6 479/3/6 481/3/6
f 481/3/6 480/3/6 482/3/6
f 475/3/6 476/3/6 483/3/6
f 476/3/6 477/3/6 483/3/6
f 483/3/6 477/3/6 484/3/6
f 475/3/6 483/3/6 485/3/6
f 482/3/6 480/3/6 488/3/6
f 475/3/6 485/3/6 489/3/6
f 485/3/6 486/3/6 489/3/6
f 489/3/6 486/3/6 490/3/6
f 490/3/6 486/3/6 491/3/6
f 487/3/6 488/3/6 494/3/6
f 488/3/6 480/3/6 495/3/6
f 494/3/6 488/3/6 495/3/6
f 495/3/6 480/3/6 496/3/6
f 491/3/6 492/3/6 497/3/6
f 490/3/6 491/3/6 497/3/6
f 497/3/6 492/3/6 498/3/6
f 498/3/6 492/3/6 499/3/6
f 493/3/6 494/3/6 500/3/6
f 494/3/6 495/3/6 500/3/6
f 500/3/6 495/3/6 501/3/6
f 501/3/6 495/3/6 502/3/6
f 498/3/6 499/3/6 503/3/6
f 500/3/6 501/3/6 503/3/6
f 499/3/6 500/3/6 503/3/6
f 503/3/6 501/3/6 504/3/6
f 505/5/6 506/5/6 507/5/6
f 507/5/6 506/5/6 508/5/6
f 509/5/6 510/5/6 511/5/6
f 511/5/6 510/5/6 512/5/6
f 513/5/6 514/5/6 515/5/6
f 515/5/6 514/5/6 516/5/6
f 517/5/6 518/5/6 519/5/6
f 519/5/6 518/5/6 520/5/6
f 521/5/6 522/5/6 523/5/6
f 523/5/6 522/5/6 524/5/6
f 525/5/6 526/5/6 527/5/6
f 527/5/6 526/5/6 528/5/6
f 529/5/6 530/5/6 531/5/6
f 531/5/6 530/5/6 532/5/6
f 533/5/6 534/5/6 535/5/6
f 535/5/6 534/5/6 536/5/6
f 537/5/6 538/5/6 539/5/6
f 539/5/6 538/5/6 540/5/6
f 542/5/6 543/5/6 544/5/6
f 544/5/6 543/5/6 545/5/6
f 541/1/6 542/1/6 546/1/6
f 542/5/6 544/5/6 547/5/6
f 546/1/6 542/1/6 547/1/6
f 547/5/6 544/5/6 548/5/6
f 549/5/6 550/5/6 553/5/6
f 552/5/6 553/5/6 554/5/6
f 550/2/6 551/2/6 555/2/6
f 554/5/6 553/5/6 555/5/6
f 553/5/6 550/5/6 555/5/6
f 555/2/6 551/2/6 556/2/6
f 558/5/6 559/5/6 560/5/6
f 557/4/6 558/4/6 562/4/6
f 560/5/6 561/5/6 563/5/6
f 562/4/6 558/4/6 563/4/6
f 558/5/6 560/5/6 563/5/6
f 563/5/6 561/5/6 564/5/6
