# MagicaVoxel @ Ephtracy

# group
o 

# material
mtllib Pens_for_table.mtl
usemtl palette

# normals
vn -1 0 0
vn 1 0 0
vn 0 0 1
vn 0 0 -1
vn 0 -1 0
vn 0 1 0

# texcoords
vt 0.0214844 0.5
vt 0.0996094 0.5
vt 0.146484 0.5
vt 0.189453 0.5
vt 0.197266 0.5
vt 0.212891 0.5
vt 0.216797 0.5

# verts
v -0.7 0 0.4
v -0.7 0 -0.6
v -0.7 2.5 0.4
v -0.7 2.5 -0.6
v -0.6 0 0.5
v -0.6 0 0.4
v -0.6 0 -0.6
v -0.6 0 -0.7
v -0.6 2.5 0.5
v -0.6 2.5 0.4
v -0.6 2.5 -0.6
v -0.6 2.5 -0.7
v -0.5 1.9 -0.1
v -0.5 1.9 -0.2
v -0.5 2.5 -0.1
v -0.5 2.5 -0.2
v -0.5 2.7 -0.1
v -0.5 2.7 -0.2
v -0.4 0 0.6
v -0.4 0 0.5
v -0.4 0 -0.7
v -0.4 0 -0.8
v -0.4 2.5 0.6
v -0.4 2.5 0.5
v -0.4 2.5 -0.7
v -0.4 2.5 -0.8
v -0.2 1.9 0.2
v -0.2 1.9 0.1
v -0.2 1.9 -0.3
v -0.2 1.9 -0.4
v -0.2 1.9 -0.5
v -0.2 1.9 -0.6
v -0.2 2.7 0.2
v -0.2 2.7 0.1
v -0.2 2.7 -0.3
v -0.2 2.7 -0.4
v -0.2 2.8 0.2
v -0.2 2.8 0.1
v -0.2 2.8 -0.3
v -0.2 2.8 -0.4
v -0.2 2.9 -0.5
v -0.2 2.9 -0.6
v -0.2 3 -0.5
v -0.2 3 -0.6
v 0.1 1.9 -0.3
v 0.1 1.9 -0.5
v 0.1 3 -0.3
v 0.1 3 -0.5
v 0.1 3.1 -0.3
v 0.1 3.1 -0.5
v 0.2 1.9 0.5
v 0.2 1.9 0.4
v 0.2 1.9 -0.1
v 0.2 1.9 -0.2
v 0.2 2.5 0.5
v 0.2 2.8 0.5
v 0.2 2.8 0.4
v 0.2 2.9 0.5
v 0.2 2.9 0.4
v 0.2 3.3 -0.1
v 0.2 3.3 -0.2
v 0.2 3.5 -0.1
v 0.2 3.5 -0.2
v 0.4 1.9 0.5
v 0.4 1.9 0.4
v 0.4 1.9 0.2
v 0.4 1.9 0.1
v 0.4 1.9 -0.6
v 0.4 1.9 -0.7
v 0.4 2.4 0.5
v 0.4 2.4 0.4
v 0.4 2.5 -0.6
v 0.4 2.5 -0.7
v 0.4 2.8 0.2
v 0.4 2.8 0.1
v 0.4 3 0.2
v 0.4 3 0.1
v 0.5 1.9 0.4
v 0.5 1.9 0.3
v 0.5 1.9 -0.1
v 0.5 1.9 -0.2
v 0.5 1.9 -0.5
v 0.5 1.9 -0.6
v 0.5 2.4 0.5
v 0.5 2.4 0.4
v 0.5 2.5 0.5
v 0.5 2.5 0.3
v 0.5 2.5 -0.5
v 0.5 2.5 -0.6
v 0.5 2.7 -0.1
v 0.5 2.7 -0.2
v 0.5 2.9 -0.1
v 0.5 2.9 -0.2
v 0.6 1.9 0.3
v 0.6 1.9 -0.1
v 0.6 1.9 -0.2
v 0.6 1.9 -0.5
v 0.6 2.5 0.3
v 0.6 2.5 -0.1
v 0.6 2.5 -0.2
v 0.6 2.5 -0.5
v -0.6 1.9 0.4
v -0.6 1.9 -0.6
v -0.6 2.5 0.4
v -0.6 2.5 -0.6
v -0.4 1.9 0.5
v -0.4 1.9 0.4
v -0.4 1.9 -0.1
v -0.4 1.9 -0.2
v -0.4 1.9 -0.6
v -0.4 1.9 -0.7
v -0.4 2.5 0.5
v -0.4 2.5 0.4
v -0.4 2.5 -0.1
v -0.4 2.5 -0.2
v -0.4 2.5 -0.6
v -0.4 2.5 -0.7
v -0.4 2.7 -0.1
v -0.4 2.7 -0.2
v -0.1 1.9 0.2
v -0.1 1.9 0.1
v -0.1 1.9 -0.3
v -0.1 1.9 -0.4
v -0.1 1.9 -0.5
v -0.1 1.9 -0.6
v -0.1 2.7 0.2
v -0.1 2.7 0.1
v -0.1 2.7 -0.3
v -0.1 2.7 -0.4
v -0.1 2.8 0.2
v -0.1 2.8 0.1
v -0.1 2.8 -0.3
v -0.1 2.8 -0.4
v -0.1 2.9 -0.5
v -0.1 2.9 -0.6
v -0.1 3 -0.5
v -0.1 3 -0.6
v 0.3 1.9 0.5
v 0.3 1.9 0.4
v 0.3 1.9 -0.1
v 0.3 1.9 -0.2
v 0.3 1.9 -0.3
v 0.3 1.9 -0.5
v 0.3 2.5 0.5
v 0.3 2.8 0.5
v 0.3 2.8 0.4
v 0.3 2.9 0.5
v 0.3 2.9 0.4
v 0.3 3 -0.3
v 0.3 3 -0.5
v 0.3 3.1 -0.3
v 0.3 3.1 -0.5
v 0.3 3.3 -0.1
v 0.3 3.3 -0.2
v 0.3 3.5 -0.1
v 0.3 3.5 -0.2
v 0.4 0 0.6
v 0.4 0 0.5
v 0.4 0 -0.7
v 0.4 0 -0.8
v 0.4 2.4 0.5
v 0.4 2.5 0.6
v 0.4 2.5 0.5
v 0.4 2.5 -0.7
v 0.4 2.5 -0.8
v 0.5 1.9 0.2
v 0.5 1.9 0.1
v 0.5 2.8 0.2
v 0.5 2.8 0.1
v 0.5 3 0.2
v 0.5 3 0.1
v 0.6 0 0.5
v 0.6 0 0.3
v 0.6 0 -0.5
v 0.6 0 -0.7
v 0.6 2.5 0.5
v 0.6 2.5 0.3
v 0.6 2.5 -0.1
v 0.6 2.5 -0.2
v 0.6 2.5 -0.5
v 0.6 2.5 -0.7
v 0.6 2.7 -0.1
v 0.6 2.7 -0.2
v 0.6 2.9 -0.1
v 0.6 2.9 -0.2
v 0.7 0 0.3
v 0.7 0 -0.5
v 0.7 2.5 0.3
v 0.7 2.5 -0.5
v -0.4 0 0.6
v -0.4 2.5 0.6
v 0.4 0 0.6
v 0.4 2.5 0.6
v -0.6 0 0.5
v -0.6 2.5 0.5
v -0.4 0 0.5
v -0.4 2.5 0.5
v 0.2 2.5 0.5
v 0.2 2.8 0.5
v 0.2 2.9 0.5
v 0.3 2.5 0.5
v 0.3 2.8 0.5
v 0.3 2.9 0.5
v 0.4 0 0.5
v 0.4 2.4 0.5
v 0.5 2.4 0.5
v 0.5 2.5 0.5
v 0.6 0 0.5
v 0.6 2.5 0.5
v -0.7 0 0.4
v -0.7 2.5 0.4
v -0.6 0 0.4
v -0.6 2.5 0.4
v 0.6 0 0.3
v 0.6 2.5 0.3
v 0.7 0 0.3
v 0.7 2.5 0.3
v -0.2 1.9 0.2
v -0.2 2.7 0.2
v -0.2 2.8 0.2
v -0.1 1.9 0.2
v -0.1 2.7 0.2
v -0.1 2.8 0.2
v 0.4 1.9 0.2
v 0.4 2.8 0.2
v 0.4 3 0.2
v 0.5 1.9 0.2
v 0.5 2.8 0.2
v 0.5 3 0.2
v -0.5 1.9 -0.1
v -0.5 2.5 -0.1
v -0.5 2.7 -0.1
v -0.4 1.9 -0.1
v -0.4 2.5 -0.1
v -0.4 2.7 -0.1
v 0.2 1.9 -0.1
v 0.2 3.3 -0.1
v 0.2 3.5 -0.1
v 0.3 1.9 -0.1
v 0.3 3.3 -0.1
v 0.3 3.5 -0.1
v 0.5 1.9 -0.1
v 0.5 2.7 -0.1
v 0.5 2.9 -0.1
v 0.6 1.9 -0.1
v 0.6 2.5 -0.1
v 0.6 2.7 -0.1
v 0.6 2.9 -0.1
v -0.2 1.9 -0.3
v -0.2 2.7 -0.3
v -0.2 2.8 -0.3
v -0.1 1.9 -0.3
v -0.1 2.7 -0.3
v -0.1 2.8 -0.3
v 0.1 1.9 -0.3
v 0.1 3 -0.3
v 0.1 3.1 -0.3
v 0.3 1.9 -0.3
v 0.3 3 -0.3
v 0.3 3.1 -0.3
v -0.2 1.9 -0.5
v -0.2 2.9 -0.5
v -0.2 3 -0.5
v -0.1 1.9 -0.5
v -0.1 2.9 -0.5
v -0.1 3 -0.5
v 0.5 1.9 -0.5
v 0.5 2.5 -0.5
v 0.6 1.9 -0.5
v 0.6 2.5 -0.5
v -0.6 1.9 -0.6
v -0.6 2.5 -0.6
v -0.4 1.9 -0.6
v -0.4 2.5 -0.6
v 0.4 1.9 -0.6
v 0.4 2.5 -0.6
v 0.5 1.9 -0.6
v 0.5 2.5 -0.6
v -0.4 1.9 -0.7
v -0.4 2.5 -0.7
v 0.4 1.9 -0.7
v 0.4 2.5 -0.7
v -0.4 1.9 0.5
v -0.4 2.5 0.5
v 0.2 1.9 0.5
v 0.2 2.5 0.5
v 0.3 1.9 0.5
v 0.3 2.5 0.5
v 0.4 1.9 0.5
v 0.4 2.4 0.5
v 0.4 2.5 0.5
v -0.6 1.9 0.4
v -0.6 2.5 0.4
v -0.4 1.9 0.4
v -0.4 2.5 0.4
v 0.2 1.9 0.4
v 0.2 2.8 0.4
v 0.2 2.9 0.4
v 0.3 1.9 0.4
v 0.3 2.8 0.4
v 0.3 2.9 0.4
v 0.4 1.9 0.4
v 0.4 2.4 0.4
v 0.5 1.9 0.4
v 0.5 2.4 0.4
v 0.5 1.9 0.3
v 0.5 2.5 0.3
v 0.6 1.9 0.3
v 0.6 2.5 0.3
v -0.2 1.9 0.1
v -0.2 2.7 0.1
v -0.2 2.8 0.1
v -0.1 1.9 0.1
v -0.1 2.7 0.1
v -0.1 2.8 0.1
v 0.4 1.9 0.1
v 0.4 2.8 0.1
v 0.4 3 0.1
v 0.5 1.9 0.1
v 0.5 2.8 0.1
v 0.5 3 0.1
v -0.5 1.9 -0.2
v -0.5 2.5 -0.2
v -0.5 2.7 -0.2
v -0.4 1.9 -0.2
v -0.4 2.5 -0.2
v -0.4 2.7 -0.2
v 0.2 1.9 -0.2
v 0.2 3.3 -0.2
v 0.2 3.5 -0.2
v 0.3 1.9 -0.2
v 0.3 3.3 -0.2
v 0.3 3.5 -0.2
v 0.5 1.9 -0.2
v 0.5 2.7 -0.2
v 0.5 2.9 -0.2
v 0.6 1.9 -0.2
v 0.6 2.5 -0.2
v 0.6 2.7 -0.2
v 0.6 2.9 -0.2
v -0.2 1.9 -0.4
v -0.2 2.7 -0.4
v -0.2 2.8 -0.4
v -0.1 1.9 -0.4
v -0.1 2.7 -0.4
v -0.1 2.8 -0.4
v 0.1 1.9 -0.5
v 0.1 3 -0.5
v 0.1 3.1 -0.5
v 0.3 1.9 -0.5
v 0.3 3 -0.5
v 0.3 3.1 -0.5
v 0.6 0 -0.5
v 0.6 2.5 -0.5
v 0.7 0 -0.5
v 0.7 2.5 -0.5
v -0.7 0 -0.6
v -0.7 2.5 -0.6
v -0.6 0 -0.6
v -0.6 2.5 -0.6
v -0.2 1.9 -0.6
v -0.2 2.9 -0.6
v -0.2 3 -0.6
v -0.1 1.9 -0.6
v -0.1 2.9 -0.6
v -0.1 3 -0.6
v -0.6 0 -0.7
v -0.6 2.5 -0.7
v -0.4 0 -0.7
v -0.4 2.5 -0.7
v 0.4 0 -0.7
v 0.4 2.5 -0.7
v 0.6 0 -0.7
v 0.6 2.5 -0.7
v -0.4 0 -0.8
v -0.4 2.5 -0.8
v 0.4 0 -0.8
v 0.4 2.5 -0.8
v -0.4 0 0.6
v 0.4 0 0.6
v -0.6 0 0.5
v -0.4 0 0.5
v 0.4 0 0.5
v 0.6 0 0.5
v -0.7 0 0.4
v -0.6 0 0.4
v 0.6 0 0.3
v 0.7 0 0.3
v 0.6 0 -0.5
v 0.7 0 -0.5
v -0.7 0 -0.6
v -0.6 0 -0.6
v -0.6 0 -0.7
v -0.4 0 -0.7
v 0.4 0 -0.7
v 0.6 0 -0.7
v -0.4 0 -0.8
v 0.4 0 -0.8
v -0.4 1.9 0.5
v 0.2 1.9 0.5
v 0.3 1.9 0.5
v 0.4 1.9 0.5
v -0.6 1.9 0.4
v -0.4 1.9 0.4
v 0.2 1.9 0.4
v 0.3 1.9 0.4
v 0.4 1.9 0.4
v 0.5 1.9 0.4
v 0.5 1.9 0.3
v 0.6 1.9 0.3
v -0.2 1.9 0.2
v -0.1 1.9 0.2
v 0.4 1.9 0.2
v 0.5 1.9 0.2
v -0.2 1.9 0.1
v -0.1 1.9 0.1
v 0.4 1.9 0.1
v 0.5 1.9 0.1
v -0.5 1.9 -0.1
v -0.4 1.9 -0.1
v 0.2 1.9 -0.1
v 0.3 1.9 -0.1
v 0.5 1.9 -0.1
v 0.6 1.9 -0.1
v -0.5 1.9 -0.2
v -0.4 1.9 -0.2
v 0.2 1.9 -0.2
v 0.3 1.9 -0.2
v 0.5 1.9 -0.2
v 0.6 1.9 -0.2
v -0.2 1.9 -0.3
v -0.1 1.9 -0.3
v 0.1 1.9 -0.3
v 0.3 1.9 -0.3
v -0.2 1.9 -0.4
v -0.1 1.9 -0.4
v -0.2 1.9 -0.5
v -0.1 1.9 -0.5
v 0.1 1.9 -0.5
v 0.3 1.9 -0.5
v 0.5 1.9 -0.5
v 0.6 1.9 -0.5
v -0.6 1.9 -0.6
v -0.4 1.9 -0.6
v -0.2 1.9 -0.6
v -0.1 1.9 -0.6
v 0.4 1.9 -0.6
v 0.5 1.9 -0.6
v -0.4 1.9 -0.7
v 0.4 1.9 -0.7
v 0.4 2.4 0.5
v 0.5 2.4 0.5
v 0.4 2.4 0.4
v 0.5 2.4 0.4
v -0.4 2.5 0.6
v 0.4 2.5 0.6
v -0.6 2.5 0.5
v -0.4 2.5 0.5
v 0.2 2.5 0.5
v 0.3 2.5 0.5
v 0.4 2.5 0.5
v 0.5 2.5 0.5
v 0.6 2.5 0.5
v -0.7 2.5 0.4
v -0.6 2.5 0.4
v -0.4 2.5 0.4
v 0.5 2.5 0.3
v 0.6 2.5 0.3
v 0.7 2.5 0.3
v 0.6 2.5 -0.1
v 0.6 2.5 -0.2
v 0.5 2.5 -0.5
v 0.6 2.5 -0.5
v 0.7 2.5 -0.5
v -0.7 2.5 -0.6
v -0.6 2.5 -0.6
v -0.4 2.5 -0.6
v 0.4 2.5 -0.6
v 0.5 2.5 -0.6
v -0.6 2.5 -0.7
v -0.4 2.5 -0.7
v 0.4 2.5 -0.7
v 0.6 2.5 -0.7
v -0.4 2.5 -0.8
v 0.4 2.5 -0.8
v -0.5 2.7 -0.1
v -0.4 2.7 -0.1
v -0.5 2.7 -0.2
v -0.4 2.7 -0.2
v -0.2 2.8 0.2
v -0.1 2.8 0.2
v -0.2 2.8 0.1
v -0.1 2.8 0.1
v -0.2 2.8 -0.3
v -0.1 2.8 -0.3
v -0.2 2.8 -0.4
v -0.1 2.8 -0.4
v 0.2 2.9 0.5
v 0.3 2.9 0.5
v 0.2 2.9 0.4
v 0.3 2.9 0.4
v 0.5 2.9 -0.1
v 0.6 2.9 -0.1
v 0.5 2.9 -0.2
v 0.6 2.9 -0.2
v 0.4 3 0.2
v 0.5 3 0.2
v 0.4 3 0.1
v 0.5 3 0.1
v -0.2 3 -0.5
v -0.1 3 -0.5
v -0.2 3 -0.6
v -0.1 3 -0.6
v 0.1 3.1 -0.3
v 0.3 3.1 -0.3
v 0.1 3.1 -0.5
v 0.3 3.1 -0.5
v 0.2 3.5 -0.1
v 0.3 3.5 -0.1
v 0.2 3.5 -0.2
v 0.3 3.5 -0.2

# faces
f 3/4/1 2/4/1 1/4/1
f 4/4/1 2/4/1 3/4/1
f 9/4/1 6/4/1 5/4/1
f 10/4/1 6/4/1 9/4/1
f 11/4/1 8/4/1 7/4/1
f 12/4/1 8/4/1 11/4/1
f 15/3/1 14/3/1 13/3/1
f 16/3/1 14/3/1 15/3/1
f 17/7/1 16/7/1 15/7/1
f 18/7/1 16/7/1 17/7/1
f 23/4/1 20/4/1 19/4/1
f 24/4/1 20/4/1 23/4/1
f 25/4/1 22/4/1 21/4/1
f 26/4/1 22/4/1 25/4/1
f 33/1/1 28/1/1 27/1/1
f 34/1/1 28/1/1 33/1/1
f 35/3/1 30/3/1 29/3/1
f 36/3/1 30/3/1 35/3/1
f 37/7/1 34/7/1 33/7/1
f 38/7/1 34/7/1 37/7/1
f 39/7/1 36/7/1 35/7/1
f 40/7/1 36/7/1 39/7/1
f 41/2/1 32/2/1 31/2/1
f 42/2/1 32/2/1 41/2/1
f 43/7/1 42/7/1 41/7/1
f 44/7/1 42/7/1 43/7/1
f 47/6/1 46/6/1 45/6/1
f 48/6/1 46/6/1 47/6/1
f 49/7/1 48/7/1 47/7/1
f 50/7/1 48/7/1 49/7/1
f 55/1/1 52/1/1 51/1/1
f 56/1/1 52/1/1 55/1/1
f 57/1/1 52/1/1 56/1/1
f 58/7/1 57/7/1 56/7/1
f 59/7/1 57/7/1 58/7/1
f 60/5/1 54/5/1 53/5/1
f 61/5/1 54/5/1 60/5/1
f 62/7/1 61/7/1 60/7/1
f 63/7/1 61/7/1 62/7/1
f 70/4/1 65/4/1 64/4/1
f 71/4/1 65/4/1 70/4/1
f 72/4/1 69/4/1 68/4/1
f 73/4/1 69/4/1 72/4/1
f 74/5/1 67/5/1 66/5/1
f 75/5/1 67/5/1 74/5/1
f 76/7/1 75/7/1 74/7/1
f 77/7/1 75/7/1 76/7/1
f 85/4/1 79/4/1 78/4/1
f 86/4/1 85/4/1 84/4/1
f 87/4/1 79/4/1 85/4/1
f 87/4/1 85/4/1 86/4/1
f 88/4/1 83/4/1 82/4/1
f 89/4/1 83/4/1 88/4/1
f 90/2/1 81/2/1 80/2/1
f 91/2/1 81/2/1 90/2/1
f 92/7/1 91/7/1 90/7/1
f 93/7/1 91/7/1 92/7/1
f 98/4/1 95/4/1 94/4/1
f 99/4/1 95/4/1 98/4/1
f 100/4/1 97/4/1 96/4/1
f 101/4/1 97/4/1 100/4/1
f 102/4/2 103/4/2 104/4/2
f 104/4/2 103/4/2 105/4/2
f 106/4/2 107/4/2 112/4/2
f 112/4/2 107/4/2 113/4/2
f 108/3/2 109/3/2 114/3/2
f 114/3/2 109/3/2 115/3/2
f 110/4/2 111/4/2 116/4/2
f 116/4/2 111/4/2 117/4/2
f 114/7/2 115/7/2 118/7/2
f 118/7/2 115/7/2 119/7/2
f 120/1/2 121/1/2 126/1/2
f 126/1/2 121/1/2 127/1/2
f 122/3/2 123/3/2 128/3/2
f 128/3/2 123/3/2 129/3/2
f 126/7/2 127/7/2 130/7/2
f 130/7/2 127/7/2 131/7/2
f 128/7/2 129/7/2 132/7/2
f 132/7/2 129/7/2 133/7/2
f 124/2/2 125/2/2 134/2/2
f 134/2/2 125/2/2 135/2/2
f 134/7/2 135/7/2 136/7/2
f 136/7/2 135/7/2 137/7/2
f 138/1/2 139/1/2 144/1/2
f 144/1/2 139/1/2 145/1/2
f 145/1/2 139/1/2 146/1/2
f 145/7/2 146/7/2 147/7/2
f 147/7/2 146/7/2 148/7/2
f 142/6/2 143/6/2 149/6/2
f 149/6/2 143/6/2 150/6/2
f 149/7/2 150/7/2 151/7/2
f 151/7/2 150/7/2 152/7/2
f 140/5/2 141/5/2 153/5/2
f 153/5/2 141/5/2 154/5/2
f 153/7/2 154/7/2 155/7/2
f 155/7/2 154/7/2 156/7/2
f 157/4/2 158/4/2 161/4/2
f 157/4/2 161/4/2 162/4/2
f 162/4/2 161/4/2 163/4/2
f 159/4/2 160/4/2 164/4/2
f 164/4/2 160/4/2 165/4/2
f 166/5/2 167/5/2 168/5/2
f 168/5/2 167/5/2 169/5/2
f 168/7/2 169/7/2 170/7/2
f 170/7/2 169/7/2 171/7/2
f 172/4/2 173/4/2 176/4/2
f 176/4/2 173/4/2 177/4/2
f 174/4/2 175/4/2 180/4/2
f 180/4/2 175/4/2 181/4/2
f 178/2/2 179/2/2 182/2/2
f 182/2/2 179/2/2 183/2/2
f 182/7/2 183/7/2 184/7/2
f 184/7/2 183/7/2 185/7/2
f 186/4/2 187/4/2 188/4/2
f 188/4/2 187/4/2 189/4/2
f 192/4/3 191/4/3 190/4/3
f 193/4/3 191/4/3 192/4/3
f 196/4/3 195/4/3 194/4/3
f 197/4/3 195/4/3 196/4/3
f 201/1/3 199/1/3 198/1/3
f 202/7/3 200/7/3 199/7/3
f 202/1/3 199/1/3 201/1/3
f 203/7/3 200/7/3 202/7/3
f 206/4/3 205/4/3 204/4/3
f 208/4/3 206/4/3 204/4/3
f 208/4/3 207/4/3 206/4/3
f 209/4/3 207/4/3 208/4/3
f 212/4/3 211/4/3 210/4/3
f 213/4/3 211/4/3 212/4/3
f 216/4/3 215/4/3 214/4/3
f 217/4/3 215/4/3 216/4/3
f 221/1/3 219/1/3 218/1/3
f 222/7/3 220/7/3 219/7/3
f 222/1/3 219/1/3 221/1/3
f 223/7/3 220/7/3 222/7/3
f 227/5/3 225/5/3 224/5/3
f 228/7/3 226/7/3 225/7/3
f 228/5/3 225/5/3 227/5/3
f 229/7/3 226/7/3 228/7/3
f 233/3/3 231/3/3 230/3/3
f 234/7/3 232/7/3 231/7/3
f 234/3/3 231/3/3 233/3/3
f 235/7/3 232/7/3 234/7/3
f 239/5/3 237/5/3 236/5/3
f 240/7/3 238/7/3 237/7/3
f 240/5/3 237/5/3 239/5/3
f 241/7/3 238/7/3 240/7/3
f 245/2/3 243/2/3 242/2/3
f 246/2/3 243/2/3 245/2/3
f 247/7/3 244/7/3 243/7/3
f 247/2/3 243/2/3 246/2/3
f 248/7/3 244/7/3 247/7/3
f 252/3/3 250/3/3 249/3/3
f 253/7/3 251/7/3 250/7/3
f 253/3/3 250/3/3 252/3/3
f 254/7/3 251/7/3 253/7/3
f 258/6/3 256/6/3 255/6/3
f 259/7/3 257/7/3 256/7/3
f 259/6/3 256/6/3 258/6/3
f 260/7/3 257/7/3 259/7/3
f 264/2/3 262/2/3 261/2/3
f 265/7/3 263/7/3 262/7/3
f 265/2/3 262/2/3 264/2/3
f 266/7/3 263/7/3 265/7/3
f 269/4/3 268/4/3 267/4/3
f 270/4/3 268/4/3 269/4/3
f 273/4/3 272/4/3 271/4/3
f 274/4/3 272/4/3 273/4/3
f 277/4/3 276/4/3 275/4/3
f 278/4/3 276/4/3 277/4/3
f 281/4/3 280/4/3 279/4/3
f 282/4/3 280/4/3 281/4/3
f 283/4/4 284/4/4 285/4/4
f 285/4/4 284/4/4 286/4/4
f 287/4/4 288/4/4 289/4/4
f 289/4/4 288/4/4 290/4/4
f 290/4/4 288/4/4 291/4/4
f 292/4/4 293/4/4 294/4/4
f 294/4/4 293/4/4 295/4/4
f 296/1/4 297/1/4 299/1/4
f 297/7/4 298/7/4 300/7/4
f 299/1/4 297/1/4 300/1/4
f 300/7/4 298/7/4 301/7/4
f 302/4/4 303/4/4 304/4/4
f 304/4/4 303/4/4 305/4/4
f 306/4/4 307/4/4 308/4/4
f 308/4/4 307/4/4 309/4/4
f 310/1/4 311/1/4 313/1/4
f 311/7/4 312/7/4 314/7/4
f 313/1/4 311/1/4 314/1/4
f 314/7/4 312/7/4 315/7/4
f 316/5/4 317/5/4 319/5/4
f 317/7/4 318/7/4 320/7/4
f 319/5/4 317/5/4 320/5/4
f 320/7/4 318/7/4 321/7/4
f 322/3/4 323/3/4 325/3/4
f 323/7/4 324/7/4 326/7/4
f 325/3/4 323/3/4 326/3/4
f 326/7/4 324/7/4 327/7/4
f 328/5/4 329/5/4 331/5/4
f 329/7/4 330/7/4 332/7/4
f 331/5/4 329/5/4 332/5/4
f 332/7/4 330/7/4 333/7/4
f 334/2/4 335/2/4 337/2/4
f 337/2/4 335/2/4 338/2/4
f 335/7/4 336/7/4 339/7/4
f 338/2/4 335/2/4 339/2/4
f 339/7/4 336/7/4 340/7/4
f 341/3/4 342/3/4 344/3/4
f 342/7/4 343/7/4 345/7/4
f 344/3/4 342/3/4 345/3/4
f 345/7/4 343/7/4 346/7/4
f 347/6/4 348/6/4 350/6/4
f 348/7/4 349/7/4 351/7/4
f 350/6/4 348/6/4 351/6/4
f 351/7/4 349/7/4 352/7/4
f 353/4/4 354/4/4 355/4/4
f 355/4/4 354/4/4 356/4/4
f 357/4/4 358/4/4 359/4/4
f 359/4/4 358/4/4 360/4/4
f 361/2/4 362/2/4 364/2/4
f 362/7/4 363/7/4 365/7/4
f 364/2/4 362/2/4 365/2/4
f 365/7/4 363/7/4 366/7/4
f 367/4/4 368/4/4 369/4/4
f 369/4/4 368/4/4 370/4/4
f 371/4/4 372/4/4 373/4/4
f 373/4/4 372/4/4 374/4/4
f 375/4/4 376/4/4 377/4/4
f 377/4/4 376/4/4 378/4/4
f 382/4/5 380/4/5 379/4/5
f 383/4/5 380/4/5 382/4/5
f 386/4/5 382/4/5 381/4/5
f 386/4/5 384/4/5 383/4/5
f 386/4/5 383/4/5 382/4/5
f 387/4/5 384/4/5 386/4/5
f 387/4/5 386/4/5 385/4/5
f 389/4/5 387/4/5 385/4/5
f 389/4/5 388/4/5 387/4/5
f 390/4/5 388/4/5 389/4/5
f 391/4/5 389/4/5 385/4/5
f 392/4/5 389/4/5 391/4/5
f 393/4/5 389/4/5 392/4/5
f 394/4/5 389/4/5 393/4/5
f 395/4/5 389/4/5 394/4/5
f 396/4/5 389/4/5 395/4/5
f 397/4/5 395/4/5 394/4/5
f 398/4/5 395/4/5 397/4/5
f 399/4/6 400/4/6 404/4/6
f 404/4/6 400/4/6 405/4/6
f 401/4/6 402/4/6 406/4/6
f 406/4/6 402/4/6 407/4/6
f 404/4/6 405/4/6 409/4/6
f 407/4/6 408/4/6 409/4/6
f 406/4/6 407/4/6 409/4/6
f 405/4/6 406/4/6 409/4/6
f 403/4/6 404/4/6 409/4/6
f 403/4/6 409/4/6 411/4/6
f 409/4/6 410/4/6 411/4/6
f 411/4/6 410/4/6 412/4/6
f 412/4/6 410/4/6 413/4/6
f 413/4/6 410/4/6 414/4/6
f 403/4/6 411/4/6 415/4/6
f 412/4/6 413/4/6 416/4/6
f 416/4/6 413/4/6 417/4/6
f 414/4/6 410/4/6 418/4/6
f 416/4/6 417/4/6 419/4/6
f 417/4/6 418/4/6 419/4/6
f 403/4/6 415/4/6 419/4/6
f 415/4/6 416/4/6 419/4/6
f 419/4/6 418/4/6 420/4/6
f 420/4/6 418/4/6 421/4/6
f 421/4/6 418/4/6 422/4/6
f 418/4/6 410/4/6 423/4/6
f 422/4/6 418/4/6 423/4/6
f 423/4/6 410/4/6 424/4/6
f 403/4/6 419/4/6 425/4/6
f 420/4/6 421/4/6 426/4/6
f 426/4/6 421/4/6 427/4/6
f 422/4/6 423/4/6 428/4/6
f 428/4/6 423/4/6 429/4/6
f 426/4/6 427/4/6 431/4/6
f 429/4/6 430/4/6 431/4/6
f 428/4/6 429/4/6 431/4/6
f 427/4/6 428/4/6 431/4/6
f 425/4/6 426/4/6 431/4/6
f 431/4/6 430/4/6 432/4/6
f 432/4/6 430/4/6 433/4/6
f 433/4/6 430/4/6 434/4/6
f 425/4/6 431/4/6 435/4/6
f 432/4/6 433/4/6 436/4/6
f 425/4/6 435/4/6 437/4/6
f 435/4/6 436/4/6 437/4/6
f 436/4/6 433/4/6 438/4/6
f 437/4/6 436/4/6 438/4/6
f 438/4/6 433/4/6 439/4/6
f 434/4/6 430/4/6 440/4/6
f 440/4/6 430/4/6 441/4/6
f 441/4/6 430/4/6 442/4/6
f 403/4/6 425/4/6 443/4/6
f 425/4/6 437/4/6 443/4/6
f 443/4/6 437/4/6 444/4/6
f 444/4/6 437/4/6 445/4/6
f 438/4/6 439/4/6 446/4/6
f 440/4/6 441/4/6 446/4/6
f 439/4/6 440/4/6 446/4/6
f 446/4/6 441/4/6 447/4/6
f 447/4/6 441/4/6 448/4/6
f 444/4/6 445/4/6 449/4/6
f 446/4/6 447/4/6 449/4/6
f 445/4/6 446/4/6 449/4/6
f 449/4/6 447/4/6 450/4/6
f 451/4/6 452/4/6 453/4/6
f 453/4/6 452/4/6 454/4/6
f 455/4/6 456/4/6 458/4/6
f 458/4/6 456/4/6 459/4/6
f 459/4/6 456/4/6 460/4/6
f 460/4/6 456/4/6 461/4/6
f 457/4/6 458/4/6 465/4/6
f 465/4/6 458/4/6 466/4/6
f 462/4/6 463/4/6 467/4/6
f 467/4/6 463/4/6 468/4/6
f 468/4/6 469/4/6 470/4/6
f 470/4/6 469/4/6 471/4/6
f 471/4/6 469/4/6 473/4/6
f 473/4/6 469/4/6 474/4/6
f 464/4/6 465/4/6 475/4/6
f 475/4/6 465/4/6 476/4/6
f 472/4/6 473/4/6 479/4/6
f 476/4/6 477/4/6 480/4/6
f 480/4/6 477/4/6 481/4/6
f 478/4/6 479/4/6 482/4/6
f 479/4/6 473/4/6 483/4/6
f 482/4/6 479/4/6 483/4/6
f 481/4/6 482/4/6 484/4/6
f 484/4/6 482/4/6 485/4/6
f 486/7/6 487/7/6 488/7/6
f 488/7/6 487/7/6 489/7/6
f 490/7/6 491/7/6 492/7/6
f 492/7/6 491/7/6 493/7/6
f 494/7/6 495/7/6 496/7/6
f 496/7/6 495/7/6 497/7/6
f 498/7/6 499/7/6 500/7/6
f 500/7/6 499/7/6 501/7/6
f 502/7/6 503/7/6 504/7/6
f 504/7/6 503/7/6 505/7/6
f 506/7/6 507/7/6 508/7/6
f 508/7/6 507/7/6 509/7/6
f 510/7/6 511/7/6 512/7/6
f 512/7/6 511/7/6 513/7/6
f 514/7/6 515/7/6 516/7/6
f 516/7/6 515/7/6 517/7/6
f 518/7/6 519/7/6 520/7/6
f 520/7/6 519/7/6 521/7/6
