# MagicaVoxel @ Ephtracy

# group
o 

# material
mtllib Soap.mtl
usemtl palette

# normals
vn -1 0 0
vn 1 0 0
vn 0 0 1
vn 0 0 -1
vn 0 -1 0
vn 0 1 0

# texcoords
vt 0.212891 0.5
vt 0.216797 0.5

# verts
v -0.6 0 0.8
v -0.6 0 -0.8
v -0.6 0.2 0.8
v -0.6 0.2 -0.8
v -0.5 0 0.9
v -0.5 0 0.8
v -0.5 0 -0.8
v -0.5 0 -0.9
v -0.5 0.2 0.9
v -0.5 0.2 0.8
v -0.5 0.2 -0.8
v -0.5 0.2 -0.9
v -0.4 0 1
v -0.4 0 0.9
v -0.4 0 -0.9
v -0.4 0 -1
v -0.4 0.1 0.6
v -0.4 0.1 -0.6
v -0.4 0.2 1
v -0.4 0.2 0.9
v -0.4 0.2 -0.9
v -0.4 0.2 -1
v -0.4 0.5 0.6
v -0.4 0.5 -0.6
v -0.3 0.1 0.7
v -0.3 0.1 0.6
v -0.3 0.1 -0.6
v -0.3 0.1 -0.7
v -0.3 0.5 0.7
v -0.3 0.5 0.6
v -0.3 0.5 -0.6
v -0.3 0.5 -0.7
v 0.3 0.1 0.9
v 0.3 0.1 0.8
v 0.3 0.1 -0.8
v 0.3 0.1 -0.9
v 0.3 0.2 0.9
v 0.3 0.2 0.8
v 0.3 0.2 -0.8
v 0.3 0.2 -0.9
v 0.4 0.1 0.8
v 0.4 0.1 0.7
v 0.4 0.1 -0.7
v 0.4 0.1 -0.8
v 0.4 0.2 0.8
v 0.4 0.2 0.7
v 0.4 0.2 -0.7
v 0.4 0.2 -0.8
v 0.5 0.1 0.7
v 0.5 0.1 -0.7
v 0.5 0.2 0.7
v 0.5 0.2 -0.7
v -0.5 0.1 0.7
v -0.5 0.1 -0.7
v -0.5 0.2 0.7
v -0.5 0.2 -0.7
v -0.4 0.1 0.9
v -0.4 0.1 0.7
v -0.4 0.1 -0.7
v -0.4 0.1 -0.8
v -0.4 0.2 0.9
v -0.4 0.2 0.7
v -0.4 0.2 -0.7
v -0.4 0.2 -0.8
v -0.3 0.1 -0.8
v -0.3 0.1 -0.9
v -0.3 0.2 -0.8
v -0.3 0.2 -0.9
v 0.3 0.1 0.7
v 0.3 0.1 0.6
v 0.3 0.1 -0.6
v 0.3 0.1 -0.7
v 0.3 0.5 0.7
v 0.3 0.5 0.6
v 0.3 0.5 -0.6
v 0.3 0.5 -0.7
v 0.4 0 1
v 0.4 0 0.9
v 0.4 0 -0.9
v 0.4 0 -1
v 0.4 0.1 0.6
v 0.4 0.1 -0.6
v 0.4 0.2 1
v 0.4 0.2 0.9
v 0.4 0.2 -0.9
v 0.4 0.2 -1
v 0.4 0.5 0.6
v 0.4 0.5 -0.6
v 0.5 0 0.9
v 0.5 0 0.8
v 0.5 0 -0.8
v 0.5 0 -0.9
v 0.5 0.2 0.9
v 0.5 0.2 0.8
v 0.5 0.2 -0.8
v 0.5 0.2 -0.9
v 0.6 0 0.8
v 0.6 0 -0.8
v 0.6 0.2 0.8
v 0.6 0.2 -0.8
v -0.4 0 1
v -0.4 0.2 1
v 0.4 0 1
v 0.4 0.2 1
v -0.5 0 0.9
v -0.5 0.2 0.9
v -0.4 0 0.9
v -0.4 0.2 0.9
v 0.4 0 0.9
v 0.4 0.2 0.9
v 0.5 0 0.9
v 0.5 0.2 0.9
v -0.6 0 0.8
v -0.6 0.2 0.8
v -0.5 0 0.8
v -0.5 0.2 0.8
v 0.5 0 0.8
v 0.5 0.2 0.8
v 0.6 0 0.8
v 0.6 0.2 0.8
v -0.3 0.1 0.7
v -0.3 0.5 0.7
v 0.3 0.1 0.7
v 0.3 0.5 0.7
v -0.4 0.1 0.6
v -0.4 0.5 0.6
v -0.3 0.1 0.6
v -0.3 0.5 0.6
v 0.3 0.1 0.6
v 0.3 0.5 0.6
v 0.4 0.1 0.6
v 0.4 0.5 0.6
v -0.5 0.1 -0.7
v -0.5 0.2 -0.7
v -0.4 0.1 -0.7
v -0.4 0.2 -0.7
v 0.4 0.1 -0.7
v 0.4 0.2 -0.7
v 0.5 0.1 -0.7
v 0.5 0.2 -0.7
v -0.4 0.1 -0.8
v -0.4 0.2 -0.8
v -0.3 0.1 -0.8
v -0.3 0.2 -0.8
v 0.3 0.1 -0.8
v 0.3 0.2 -0.8
v 0.4 0.1 -0.8
v 0.4 0.2 -0.8
v -0.3 0.1 -0.9
v -0.3 0.2 -0.9
v 0.3 0.1 -0.9
v 0.3 0.2 -0.9
v -0.4 0.1 0.9
v -0.4 0.2 0.9
v 0.3 0.1 0.9
v 0.3 0.2 0.9
v 0.3 0.1 0.8
v 0.3 0.2 0.8
v 0.4 0.1 0.8
v 0.4 0.2 0.8
v -0.5 0.1 0.7
v -0.5 0.2 0.7
v -0.4 0.1 0.7
v -0.4 0.2 0.7
v 0.4 0.1 0.7
v 0.4 0.2 0.7
v 0.5 0.1 0.7
v 0.5 0.2 0.7
v -0.4 0.1 -0.6
v -0.4 0.5 -0.6
v -0.3 0.1 -0.6
v -0.3 0.5 -0.6
v 0.3 0.1 -0.6
v 0.3 0.5 -0.6
v 0.4 0.1 -0.6
v 0.4 0.5 -0.6
v -0.3 0.1 -0.7
v -0.3 0.5 -0.7
v 0.3 0.1 -0.7
v 0.3 0.5 -0.7
v -0.6 0 -0.8
v -0.6 0.2 -0.8
v -0.5 0 -0.8
v -0.5 0.2 -0.8
v 0.5 0 -0.8
v 0.5 0.2 -0.8
v 0.6 0 -0.8
v 0.6 0.2 -0.8
v -0.5 0 -0.9
v -0.5 0.2 -0.9
v -0.4 0 -0.9
v -0.4 0.2 -0.9
v 0.4 0 -0.9
v 0.4 0.2 -0.9
v 0.5 0 -0.9
v 0.5 0.2 -0.9
v -0.4 0 -1
v -0.4 0.2 -1
v 0.4 0 -1
v 0.4 0.2 -1
v -0.4 0 1
v 0.4 0 1
v -0.5 0 0.9
v -0.4 0 0.9
v 0.4 0 0.9
v 0.5 0 0.9
v -0.6 0 0.8
v -0.5 0 0.8
v 0.5 0 0.8
v 0.6 0 0.8
v -0.6 0 -0.8
v -0.5 0 -0.8
v 0.5 0 -0.8
v 0.6 0 -0.8
v -0.5 0 -0.9
v -0.4 0 -0.9
v 0.4 0 -0.9
v 0.5 0 -0.9
v -0.4 0 -1
v 0.4 0 -1
v -0.4 0.1 0.9
v 0.3 0.1 0.9
v 0.3 0.1 0.8
v 0.4 0.1 0.8
v -0.5 0.1 0.7
v -0.4 0.1 0.7
v -0.3 0.1 0.7
v 0.3 0.1 0.7
v 0.4 0.1 0.7
v 0.5 0.1 0.7
v -0.4 0.1 0.6
v -0.3 0.1 0.6
v 0.3 0.1 0.6
v 0.4 0.1 0.6
v -0.4 0.1 -0.6
v -0.3 0.1 -0.6
v 0.3 0.1 -0.6
v 0.4 0.1 -0.6
v -0.5 0.1 -0.7
v -0.4 0.1 -0.7
v -0.3 0.1 -0.7
v 0.3 0.1 -0.7
v 0.4 0.1 -0.7
v 0.5 0.1 -0.7
v -0.4 0.1 -0.8
v -0.3 0.1 -0.8
v 0.3 0.1 -0.8
v 0.4 0.1 -0.8
v -0.3 0.1 -0.9
v 0.3 0.1 -0.9
v -0.4 0.2 1
v 0.4 0.2 1
v -0.5 0.2 0.9
v -0.4 0.2 0.9
v 0.3 0.2 0.9
v 0.4 0.2 0.9
v 0.5 0.2 0.9
v -0.6 0.2 0.8
v -0.5 0.2 0.8
v 0.3 0.2 0.8
v 0.4 0.2 0.8
v 0.5 0.2 0.8
v 0.6 0.2 0.8
v -0.5 0.2 0.7
v -0.4 0.2 0.7
v 0.4 0.2 0.7
v 0.5 0.2 0.7
v -0.5 0.2 -0.7
v -0.4 0.2 -0.7
v 0.4 0.2 -0.7
v 0.5 0.2 -0.7
v -0.6 0.2 -0.8
v -0.5 0.2 -0.8
v -0.4 0.2 -0.8
v -0.3 0.2 -0.8
v 0.3 0.2 -0.8
v 0.4 0.2 -0.8
v 0.5 0.2 -0.8
v 0.6 0.2 -0.8
v -0.5 0.2 -0.9
v -0.4 0.2 -0.9
v -0.3 0.2 -0.9
v 0.3 0.2 -0.9
v 0.4 0.2 -0.9
v 0.5 0.2 -0.9
v -0.4 0.2 -1
v 0.4 0.2 -1
v -0.3 0.5 0.7
v 0.3 0.5 0.7
v -0.4 0.5 0.6
v -0.3 0.5 0.6
v 0.3 0.5 0.6
v 0.4 0.5 0.6
v -0.4 0.5 -0.6
v -0.3 0.5 -0.6
v 0.3 0.5 -0.6
v 0.4 0.5 -0.6
v -0.3 0.5 -0.7
v 0.3 0.5 -0.7

# faces
f 3/1/1 2/1/1 1/1/1
f 4/1/1 2/1/1 3/1/1
f 9/1/1 6/1/1 5/1/1
f 10/1/1 6/1/1 9/1/1
f 11/1/1 8/1/1 7/1/1
f 12/1/1 8/1/1 11/1/1
f 19/1/1 14/1/1 13/1/1
f 20/1/1 14/1/1 19/1/1
f 21/1/1 16/1/1 15/1/1
f 22/1/1 16/1/1 21/1/1
f 23/2/1 18/2/1 17/2/1
f 24/2/1 18/2/1 23/2/1
f 29/2/1 26/2/1 25/2/1
f 30/2/1 26/2/1 29/2/1
f 31/2/1 28/2/1 27/2/1
f 32/2/1 28/2/1 31/2/1
f 37/1/1 34/1/1 33/1/1
f 38/1/1 34/1/1 37/1/1
f 39/1/1 36/1/1 35/1/1
f 40/1/1 36/1/1 39/1/1
f 45/1/1 42/1/1 41/1/1
f 46/1/1 42/1/1 45/1/1
f 47/1/1 44/1/1 43/1/1
f 48/1/1 44/1/1 47/1/1
f 51/1/1 50/1/1 49/1/1
f 52/1/1 50/1/1 51/1/1
f 53/1/2 54/1/2 55/1/2
f 55/1/2 54/1/2 56/1/2
f 57/1/2 58/1/2 61/1/2
f 61/1/2 58/1/2 62/1/2
f 59/1/2 60/1/2 63/1/2
f 63/1/2 60/1/2 64/1/2
f 65/1/2 66/1/2 67/1/2
f 67/1/2 66/1/2 68/1/2
f 69/2/2 70/2/2 73/2/2
f 73/2/2 70/2/2 74/2/2
f 71/2/2 72/2/2 75/2/2
f 75/2/2 72/2/2 76/2/2
f 77/1/2 78/1/2 83/1/2
f 83/1/2 78/1/2 84/1/2
f 79/1/2 80/1/2 85/1/2
f 85/1/2 80/1/2 86/1/2
f 81/2/2 82/2/2 87/2/2
f 87/2/2 82/2/2 88/2/2
f 89/1/2 90/1/2 93/1/2
f 93/1/2 90/1/2 94/1/2
f 91/1/2 92/1/2 95/1/2
f 95/1/2 92/1/2 96/1/2
f 97/1/2 98/1/2 99/1/2
f 99/1/2 98/1/2 100/1/2
f 103/1/3 102/1/3 101/1/3
f 104/1/3 102/1/3 103/1/3
f 107/1/3 106/1/3 105/1/3
f 108/1/3 106/1/3 107/1/3
f 111/1/3 110/1/3 109/1/3
f 112/1/3 110/1/3 111/1/3
f 115/1/3 114/1/3 113/1/3
f 116/1/3 114/1/3 115/1/3
f 119/1/3 118/1/3 117/1/3
f 120/1/3 118/1/3 119/1/3
f 123/2/3 122/2/3 121/2/3
f 124/2/3 122/2/3 123/2/3
f 127/2/3 126/2/3 125/2/3
f 128/2/3 126/2/3 127/2/3
f 131/2/3 130/2/3 129/2/3
f 132/2/3 130/2/3 131/2/3
f 135/1/3 134/1/3 133/1/3
f 136/1/3 134/1/3 135/1/3
f 139/1/3 138/1/3 137/1/3
f 140/1/3 138/1/3 139/1/3
f 143/1/3 142/1/3 141/1/3
f 144/1/3 142/1/3 143/1/3
f 147/1/3 146/1/3 145/1/3
f 148/1/3 146/1/3 147/1/3
f 151/1/3 150/1/3 149/1/3
f 152/1/3 150/1/3 151/1/3
f 153/1/4 154/1/4 155/1/4
f 155/1/4 154/1/4 156/1/4
f 157/1/4 158/1/4 159/1/4
f 159/1/4 158/1/4 160/1/4
f 161/1/4 162/1/4 163/1/4
f 163/1/4 162/1/4 164/1/4
f 165/1/4 166/1/4 167/1/4
f 167/1/4 166/1/4 168/1/4
f 169/2/4 170/2/4 171/2/4
f 171/2/4 170/2/4 172/2/4
f 173/2/4 174/2/4 175/2/4
f 175/2/4 174/2/4 176/2/4
f 177/2/4 178/2/4 179/2/4
f 179/2/4 178/2/4 180/2/4
f 181/1/4 182/1/4 183/1/4
f 183/1/4 182/1/4 184/1/4
f 185/1/4 186/1/4 187/1/4
f 187/1/4 186/1/4 188/1/4
f 189/1/4 190/1/4 191/1/4
f 191/1/4 190/1/4 192/1/4
f 193/1/4 194/1/4 195/1/4
f 195/1/4 194/1/4 196/1/4
f 197/1/4 198/1/4 199/1/4
f 199/1/4 198/1/4 200/1/4
f 204/1/5 202/1/5 201/1/5
f 205/1/5 202/1/5 204/1/5
f 208/1/5 204/1/5 203/1/5
f 208/1/5 206/1/5 205/1/5
f 208/1/5 205/1/5 204/1/5
f 209/1/5 206/1/5 208/1/5
f 211/1/5 208/1/5 207/1/5
f 211/1/5 210/1/5 209/1/5
f 211/1/5 209/1/5 208/1/5
f 212/1/5 210/1/5 211/1/5
f 213/1/5 210/1/5 212/1/5
f 214/1/5 210/1/5 213/1/5
f 215/1/5 213/1/5 212/1/5
f 216/1/5 213/1/5 215/1/5
f 217/1/5 213/1/5 216/1/5
f 218/1/5 213/1/5 217/1/5
f 219/1/5 217/1/5 216/1/5
f 220/1/5 217/1/5 219/1/5
f 221/1/6 222/1/6 223/1/6
f 221/1/6 223/1/6 226/1/6
f 223/1/6 224/1/6 226/1/6
f 226/1/6 224/1/6 227/1/6
f 227/1/6 224/1/6 228/1/6
f 228/1/6 224/1/6 229/1/6
f 225/1/6 226/1/6 231/1/6
f 226/1/6 227/1/6 231/1/6
f 231/1/6 227/1/6 232/1/6
f 229/1/6 230/1/6 233/1/6
f 228/1/6 229/1/6 233/1/6
f 233/1/6 230/1/6 234/1/6
f 225/1/6 231/1/6 235/1/6
f 234/1/6 230/1/6 238/1/6
f 235/1/6 236/1/6 239/1/6
f 225/1/6 235/1/6 239/1/6
f 239/1/6 236/1/6 240/1/6
f 240/1/6 236/1/6 241/1/6
f 237/1/6 238/1/6 242/1/6
f 238/1/6 230/1/6 243/1/6
f 242/1/6 238/1/6 243/1/6
f 243/1/6 230/1/6 244/1/6
f 240/1/6 241/1/6 245/1/6
f 241/1/6 242/1/6 245/1/6
f 242/1/6 243/1/6 245/1/6
f 245/1/6 243/1/6 246/1/6
f 246/1/6 243/1/6 247/1/6
f 247/1/6 243/1/6 248/1/6
f 246/1/6 247/1/6 249/1/6
f 249/1/6 247/1/6 250/1/6
f 251/1/6 252/1/6 254/1/6
f 254/1/6 252/1/6 255/1/6
f 255/1/6 252/1/6 256/1/6
f 253/1/6 254/1/6 259/1/6
f 255/1/6 256/1/6 260/1/6
f 256/1/6 257/1/6 260/1/6
f 260/1/6 257/1/6 261/1/6
f 261/1/6 257/1/6 262/1/6
f 258/1/6 259/1/6 264/1/6
f 259/1/6 254/1/6 264/1/6
f 264/1/6 254/1/6 265/1/6
f 262/1/6 263/1/6 266/1/6
f 261/1/6 262/1/6 266/1/6
f 266/1/6 263/1/6 267/1/6
f 258/1/6 264/1/6 268/1/6
f 267/1/6 263/1/6 271/1/6
f 268/1/6 269/1/6 272/1/6
f 258/1/6 268/1/6 272/1/6
f 272/1/6 269/1/6 273/1/6
f 273/1/6 269/1/6 274/1/6
f 270/1/6 271/1/6 277/1/6
f 271/1/6 263/1/6 278/1/6
f 277/1/6 271/1/6 278/1/6
f 278/1/6 263/1/6 279/1/6
f 274/1/6 275/1/6 280/1/6
f 273/1/6 274/1/6 280/1/6
f 280/1/6 275/1/6 281/1/6
f 281/1/6 275/1/6 282/1/6
f 276/1/6 277/1/6 283/1/6
f 277/1/6 278/1/6 283/1/6
f 283/1/6 278/1/6 284/1/6
f 284/1/6 278/1/6 285/1/6
f 281/1/6 282/1/6 286/1/6
f 283/1/6 284/1/6 286/1/6
f 282/1/6 283/1/6 286/1/6
f 286/1/6 284/1/6 287/1/6
f 288/2/6 289/2/6 291/2/6
f 291/2/6 289/2/6 292/2/6
f 290/2/6 291/2/6 294/2/6
f 292/2/6 293/2/6 294/2/6
f 291/2/6 292/2/6 294/2/6
f 294/2/6 293/2/6 295/2/6
f 295/2/6 293/2/6 296/2/6
f 296/2/6 293/2/6 297/2/6
f 295/2/6 296/2/6 298/2/6
f 298/2/6 296/2/6 299/2/6
