# MagicaVoxel @ Ephtracy

# group
o 

# material
mtllib Tochilka.mtl
usemtl palette

# normals
vn -1 0 0
vn 1 0 0
vn 0 0 1
vn 0 0 -1
vn 0 -1 0
vn 0 1 0

# texcoords
vt 0.185547 0.5
vt 0.298828 0.5
vt 0.302734 0.5
vt 0.306641 0.5

# verts
v -0.9 0 0.3
v -0.9 0 -0.4
v -0.9 1.3 0.3
v -0.9 1.3 -0.4
v -0.9 1.5 0.3
v -0.9 1.5 -0.4
v -0.8 0 0.5
v -0.8 0 0.3
v -0.8 0 -0.4
v -0.8 0 -0.6
v -0.8 1.3 0.5
v -0.8 1.3 0.3
v -0.8 1.3 -0.4
v -0.8 1.3 -0.6
v -0.8 1.5 0.5
v -0.8 1.5 0.3
v -0.8 1.5 -0.4
v -0.8 1.5 -0.6
v -0.7 0 0.6
v -0.7 0 0.5
v -0.7 0 -0.6
v -0.7 0 -0.7
v -0.7 1.3 0.6
v -0.7 1.3 0.5
v -0.7 1.3 -0.6
v -0.7 1.3 -0.7
v -0.7 1.5 0.6
v -0.7 1.5 0.5
v -0.7 1.5 -0.6
v -0.7 1.5 -0.7
v -0.5 0 0.7
v -0.5 0 0.6
v -0.5 0 -0.7
v -0.5 0 -0.8
v -0.5 1.3 0.7
v -0.5 1.3 0.6
v -0.5 1.3 -0.7
v -0.5 1.3 -0.8
v -0.5 1.5 0.7
v -0.5 1.5 0.6
v -0.5 1.5 -0.7
v -0.5 1.5 -0.8
v -0.3 0.1 0.3
v -0.3 0.1 0.1
v -0.3 0.9 0.3
v -0.3 1.4 0.3
v -0.3 1.4 0.1
v -0.3 1.5 0.3
v -0.3 1.5 0.1
v 0 0.2 -0.4
v 0 0.2 -0.5
v 0 1.3 -0.4
v 0 1.3 -0.5
v 0 1.4 -0.4
v 0 1.4 -0.5
v 0 1.5 -0.4
v 0 2.3 -0.4
v 0 2.3 -0.5
v 0 2.5 -0.4
v 0 2.5 -0.5
v 0.1 0.2 -0.5
v 0.1 0.2 -0.6
v 0.1 1.3 -0.5
v 0.1 1.3 -0.6
v 0.1 1.4 -0.5
v 0.1 1.5 -0.5
v 0.1 1.5 -0.6
v -0.5 0.1 0.3
v -0.5 0.1 0.1
v -0.5 0.9 0.3
v -0.5 1.4 0.3
v -0.5 1.4 0.1
v -0.5 1.5 0.3
v -0.5 1.5 0.1
v -0.1 0.2 -0.4
v -0.1 0.2 -0.6
v -0.1 1.4 -0.4
v -0.1 1.4 -0.6
v -0.1 1.5 -0.4
v -0.1 1.5 -0.6
v 0.1 0 0.7
v 0.1 0 0.6
v 0.1 0 -0.7
v 0.1 0 -0.8
v 0.1 1.3 0.7
v 0.1 1.3 0.6
v 0.1 1.3 -0.7
v 0.1 1.3 -0.8
v 0.1 1.5 0.7
v 0.1 1.5 0.6
v 0.1 1.5 -0.4
v 0.1 1.5 -0.5
v 0.1 1.5 -0.7
v 0.1 1.5 -0.8
v 0.1 2.3 -0.4
v 0.1 2.3 -0.5
v 0.1 2.5 -0.4
v 0.1 2.5 -0.5
v 0.3 0 0.6
v 0.3 0 0.5
v 0.3 0 -0.6
v 0.3 0 -0.7
v 0.3 1.3 0.6
v 0.3 1.3 0.5
v 0.3 1.3 -0.6
v 0.3 1.3 -0.7
v 0.3 1.5 0.6
v 0.3 1.5 0.5
v 0.3 1.5 -0.6
v 0.3 1.5 -0.7
v 0.4 0 0.5
v 0.4 0 0.3
v 0.4 0 -0.4
v 0.4 0 -0.6
v 0.4 1.3 0.5
v 0.4 1.3 0.3
v 0.4 1.3 -0.4
v 0.4 1.3 -0.6
v 0.4 1.5 0.5
v 0.4 1.5 0.3
v 0.4 1.5 -0.4
v 0.4 1.5 -0.6
v 0.5 0 0.3
v 0.5 0 -0.4
v 0.5 1.3 0.3
v 0.5 1.3 -0.4
v 0.5 1.5 0.3
v 0.5 1.5 -0.4
v -0.5 0 0.7
v -0.5 1.3 0.7
v -0.5 1.5 0.7
v 0.1 0 0.7
v 0.1 1.3 0.7
v 0.1 1.5 0.7
v -0.7 0 0.6
v -0.7 1.3 0.6
v -0.7 1.5 0.6
v -0.5 0 0.6
v -0.5 1.3 0.6
v -0.5 1.5 0.6
v 0.1 0 0.6
v 0.1 1.3 0.6
v 0.1 1.5 0.6
v 0.3 0 0.6
v 0.3 1.3 0.6
v 0.3 1.5 0.6
v -0.8 0 0.5
v -0.8 1.3 0.5
v -0.8 1.5 0.5
v -0.7 0 0.5
v -0.7 1.3 0.5
v -0.7 1.5 0.5
v 0.3 0 0.5
v 0.3 1.3 0.5
v 0.3 1.5 0.5
v 0.4 0 0.5
v 0.4 1.3 0.5
v 0.4 1.5 0.5
v -0.9 0 0.3
v -0.9 1.3 0.3
v -0.9 1.5 0.3
v -0.8 0 0.3
v -0.8 1.3 0.3
v -0.8 1.5 0.3
v 0.4 0 0.3
v 0.4 1.3 0.3
v 0.4 1.5 0.3
v 0.5 0 0.3
v 0.5 1.3 0.3
v 0.5 1.5 0.3
v -0.5 0.1 0.1
v -0.5 1.4 0.1
v -0.5 1.5 0.1
v -0.3 0.1 0.1
v -0.3 1.4 0.1
v -0.3 1.5 0.1
v 0 1.5 -0.4
v 0 2.3 -0.4
v 0 2.5 -0.4
v 0.1 1.5 -0.4
v 0.1 2.3 -0.4
v 0.1 2.5 -0.4
v -0.1 0.2 -0.6
v -0.1 1.4 -0.6
v -0.1 1.5 -0.6
v 0 1.3 -0.6
v 0 1.4 -0.6
v 0.1 0.2 -0.6
v 0.1 1.3 -0.6
v 0.1 1.5 -0.6
v -0.5 0.1 0.3
v -0.5 0.9 0.3
v -0.5 1.4 0.3
v -0.5 1.5 0.3
v -0.3 0.1 0.3
v -0.3 0.9 0.3
v -0.3 1.4 0.3
v -0.3 1.5 0.3
v -0.9 0 -0.4
v -0.9 1.3 -0.4
v -0.9 1.5 -0.4
v -0.8 0 -0.4
v -0.8 1.3 -0.4
v -0.8 1.5 -0.4
v -0.1 0.2 -0.4
v -0.1 1.4 -0.4
v -0.1 1.5 -0.4
v 0 0.2 -0.4
v 0 1.3 -0.4
v 0 1.4 -0.4
v 0 1.5 -0.4
v 0.4 0 -0.4
v 0.4 1.3 -0.4
v 0.4 1.5 -0.4
v 0.5 0 -0.4
v 0.5 1.3 -0.4
v 0.5 1.5 -0.4
v 0 0.2 -0.5
v 0 1.3 -0.5
v 0 1.4 -0.5
v 0 2.3 -0.5
v 0 2.5 -0.5
v 0.1 0.2 -0.5
v 0.1 1.3 -0.5
v 0.1 1.4 -0.5
v 0.1 1.5 -0.5
v 0.1 2.3 -0.5
v 0.1 2.5 -0.5
v -0.8 0 -0.6
v -0.8 1.3 -0.6
v -0.8 1.5 -0.6
v -0.7 0 -0.6
v -0.7 1.3 -0.6
v -0.7 1.5 -0.6
v 0.3 0 -0.6
v 0.3 1.3 -0.6
v 0.3 1.5 -0.6
v 0.4 0 -0.6
v 0.4 1.3 -0.6
v 0.4 1.5 -0.6
v -0.7 0 -0.7
v -0.7 1.3 -0.7
v -0.7 1.5 -0.7
v -0.5 0 -0.7
v -0.5 1.3 -0.7
v -0.5 1.5 -0.7
v 0.1 0 -0.7
v 0.1 1.3 -0.7
v 0.1 1.5 -0.7
v 0.3 0 -0.7
v 0.3 1.3 -0.7
v 0.3 1.5 -0.7
v -0.5 0 -0.8
v -0.5 1.3 -0.8
v -0.5 1.5 -0.8
v 0.1 0 -0.8
v 0.1 1.3 -0.8
v 0.1 1.5 -0.8
v -0.5 0 0.7
v 0.1 0 0.7
v -0.7 0 0.6
v -0.5 0 0.6
v 0.1 0 0.6
v 0.3 0 0.6
v -0.8 0 0.5
v -0.7 0 0.5
v 0.3 0 0.5
v 0.4 0 0.5
v -0.9 0 0.3
v -0.8 0 0.3
v 0.4 0 0.3
v 0.5 0 0.3
v -0.9 0 -0.4
v -0.8 0 -0.4
v 0.4 0 -0.4
v 0.5 0 -0.4
v -0.8 0 -0.6
v -0.7 0 -0.6
v 0.3 0 -0.6
v 0.4 0 -0.6
v -0.7 0 -0.7
v -0.5 0 -0.7
v 0.1 0 -0.7
v 0.3 0 -0.7
v -0.5 0 -0.8
v 0.1 0 -0.8
v -0.5 0.1 0.3
v -0.3 0.1 0.3
v -0.5 0.1 0.1
v -0.3 0.1 0.1
v -0.1 0.2 -0.4
v 0 0.2 -0.4
v 0 0.2 -0.5
v 0.1 0.2 -0.5
v -0.1 0.2 -0.6
v 0.1 0.2 -0.6
v -0.5 1.5 0.7
v 0.1 1.5 0.7
v -0.7 1.5 0.6
v -0.5 1.5 0.6
v 0.1 1.5 0.6
v 0.3 1.5 0.6
v -0.8 1.5 0.5
v -0.7 1.5 0.5
v 0.3 1.5 0.5
v 0.4 1.5 0.5
v -0.9 1.5 0.3
v -0.8 1.5 0.3
v -0.5 1.5 0.3
v -0.3 1.5 0.3
v 0.4 1.5 0.3
v 0.5 1.5 0.3
v -0.5 1.5 0.1
v -0.3 1.5 0.1
v -0.9 1.5 -0.4
v -0.8 1.5 -0.4
v -0.1 1.5 -0.4
v 0 1.5 -0.4
v 0.1 1.5 -0.4
v 0.4 1.5 -0.4
v 0.5 1.5 -0.4
v 0.1 1.5 -0.5
v -0.8 1.5 -0.6
v -0.7 1.5 -0.6
v -0.1 1.5 -0.6
v 0.1 1.5 -0.6
v 0.3 1.5 -0.6
v 0.4 1.5 -0.6
v -0.7 1.5 -0.7
v -0.5 1.5 -0.7
v 0.1 1.5 -0.7
v 0.3 1.5 -0.7
v -0.5 1.5 -0.8
v 0.1 1.5 -0.8
v 0 2.5 -0.4
v 0.1 2.5 -0.4
v 0 2.5 -0.5
v 0.1 2.5 -0.5

# faces
f 3/1/1 2/1/1 1/1/1
f 4/1/1 2/1/1 3/1/1
f 5/4/1 4/4/1 3/4/1
f 6/4/1 4/4/1 5/4/1
f 11/1/1 8/1/1 7/1/1
f 12/1/1 8/1/1 11/1/1
f 13/1/1 10/1/1 9/1/1
f 14/1/1 10/1/1 13/1/1
f 15/4/1 12/4/1 11/4/1
f 16/4/1 12/4/1 15/4/1
f 17/4/1 14/4/1 13/4/1
f 18/4/1 14/4/1 17/4/1
f 23/1/1 20/1/1 19/1/1
f 24/1/1 20/1/1 23/1/1
f 25/1/1 22/1/1 21/1/1
f 26/1/1 22/1/1 25/1/1
f 27/4/1 24/4/1 23/4/1
f 28/4/1 24/4/1 27/4/1
f 29/4/1 26/4/1 25/4/1
f 30/4/1 26/4/1 29/4/1
f 35/1/1 32/1/1 31/1/1
f 36/1/1 32/1/1 35/1/1
f 37/1/1 34/1/1 33/1/1
f 38/1/1 34/1/1 37/1/1
f 39/4/1 36/4/1 35/4/1
f 40/4/1 36/4/1 39/4/1
f 41/4/1 38/4/1 37/4/1
f 42/4/1 38/4/1 41/4/1
f 45/1/1 44/1/1 43/1/1
f 46/1/1 44/1/1 45/1/1
f 47/1/1 44/1/1 46/1/1
f 48/4/1 47/4/1 46/4/1
f 49/4/1 47/4/1 48/4/1
f 52/2/1 51/2/1 50/2/1
f 53/2/1 51/2/1 52/2/1
f 54/4/1 53/4/1 52/4/1
f 55/4/1 53/4/1 54/4/1
f 56/2/1 55/2/1 54/2/1
f 57/2/1 55/2/1 56/2/1
f 58/2/1 55/2/1 57/2/1
f 59/3/1 58/3/1 57/3/1
f 60/3/1 58/3/1 59/3/1
f 63/1/1 62/1/1 61/1/1
f 64/1/1 62/1/1 63/1/1
f 65/4/1 64/4/1 63/4/1
f 66/4/1 64/4/1 65/4/1
f 67/4/1 64/4/1 66/4/1
f 68/1/2 69/1/2 70/1/2
f 70/1/2 69/1/2 71/1/2
f 71/1/2 69/1/2 72/1/2
f 71/4/2 72/4/2 73/4/2
f 73/4/2 72/4/2 74/4/2
f 75/1/2 76/1/2 77/1/2
f 77/1/2 76/1/2 78/1/2
f 77/4/2 78/4/2 79/4/2
f 79/4/2 78/4/2 80/4/2
f 81/1/2 82/1/2 85/1/2
f 85/1/2 82/1/2 86/1/2
f 83/1/2 84/1/2 87/1/2
f 87/1/2 84/1/2 88/1/2
f 85/4/2 86/4/2 89/4/2
f 89/4/2 86/4/2 90/4/2
f 87/4/2 88/4/2 93/4/2
f 93/4/2 88/4/2 94/4/2
f 91/2/2 92/2/2 95/2/2
f 95/2/2 92/2/2 96/2/2
f 95/3/2 96/3/2 97/3/2
f 97/3/2 96/3/2 98/3/2
f 99/1/2 100/1/2 103/1/2
f 103/1/2 100/1/2 104/1/2
f 101/1/2 102/1/2 105/1/2
f 105/1/2 102/1/2 106/1/2
f 103/4/2 104/4/2 107/4/2
f 107/4/2 104/4/2 108/4/2
f 105/4/2 106/4/2 109/4/2
f 109/4/2 106/4/2 110/4/2
f 111/1/2 112/1/2 115/1/2
f 115/1/2 112/1/2 116/1/2
f 113/1/2 114/1/2 117/1/2
f 117/1/2 114/1/2 118/1/2
f 115/4/2 116/4/2 119/4/2
f 119/4/2 116/4/2 120/4/2
f 117/4/2 118/4/2 121/4/2
f 121/4/2 118/4/2 122/4/2
f 123/1/2 124/1/2 125/1/2
f 125/1/2 124/1/2 126/1/2
f 125/4/2 126/4/2 127/4/2
f 127/4/2 126/4/2 128/4/2
f 132/1/3 130/1/3 129/1/3
f 133/4/3 131/4/3 130/4/3
f 133/1/3 130/1/3 132/1/3
f 134/4/3 131/4/3 133/4/3
f 138/1/3 136/1/3 135/1/3
f 139/4/3 137/4/3 136/4/3
f 139/1/3 136/1/3 138/1/3
f 140/4/3 137/4/3 139/4/3
f 144/1/3 142/1/3 141/1/3
f 145/4/3 143/4/3 142/4/3
f 145/1/3 142/1/3 144/1/3
f 146/4/3 143/4/3 145/4/3
f 150/1/3 148/1/3 147/1/3
f 151/4/3 149/4/3 148/4/3
f 151/1/3 148/1/3 150/1/3
f 152/4/3 149/4/3 151/4/3
f 156/1/3 154/1/3 153/1/3
f 157/4/3 155/4/3 154/4/3
f 157/1/3 154/1/3 156/1/3
f 158/4/3 155/4/3 157/4/3
f 162/1/3 160/1/3 159/1/3
f 163/4/3 161/4/3 160/4/3
f 163/1/3 160/1/3 162/1/3
f 164/4/3 161/4/3 163/4/3
f 168/1/3 166/1/3 165/1/3
f 169/4/3 167/4/3 166/4/3
f 169/1/3 166/1/3 168/1/3
f 170/4/3 167/4/3 169/4/3
f 174/1/3 172/1/3 171/1/3
f 175/4/3 173/4/3 172/4/3
f 175/1/3 172/1/3 174/1/3
f 176/4/3 173/4/3 175/4/3
f 180/2/3 178/2/3 177/2/3
f 181/3/3 179/3/3 178/3/3
f 181/2/3 178/2/3 180/2/3
f 182/3/3 179/3/3 181/3/3
f 186/1/3 184/1/3 183/1/3
f 187/4/3 185/4/3 184/4/3
f 187/1/3 184/1/3 186/1/3
f 188/1/3 186/1/3 183/1/3
f 189/4/3 187/4/3 186/4/3
f 189/1/3 186/1/3 188/1/3
f 190/4/3 185/4/3 187/4/3
f 190/4/3 187/4/3 189/4/3
f 191/1/4 192/1/4 195/1/4
f 193/4/4 194/4/4 196/4/4
f 195/1/4 192/1/4 196/1/4
f 192/4/4 193/4/4 196/4/4
f 196/4/4 194/4/4 197/4/4
f 197/4/4 194/4/4 198/4/4
f 199/1/4 200/1/4 202/1/4
f 200/4/4 201/4/4 203/4/4
f 202/1/4 200/1/4 203/1/4
f 203/4/4 201/4/4 204/4/4
f 205/1/4 206/1/4 208/1/4
f 208/1/4 206/1/4 209/1/4
f 206/4/4 207/4/4 210/4/4
f 209/1/4 206/1/4 210/1/4
f 210/4/4 207/4/4 211/4/4
f 212/1/4 213/1/4 215/1/4
f 213/4/4 214/4/4 216/4/4
f 215/1/4 213/1/4 216/1/4
f 216/4/4 214/4/4 217/4/4
f 218/2/4 219/2/4 223/2/4
f 219/4/4 220/4/4 224/4/4
f 223/2/4 219/2/4 224/2/4
f 220/2/4 221/2/4 225/2/4
f 224/4/4 220/4/4 225/4/4
f 225/2/4 221/2/4 226/2/4
f 221/3/4 222/3/4 227/3/4
f 226/2/4 221/2/4 227/2/4
f 227/3/4 222/3/4 228/3/4
f 229/1/4 230/1/4 232/1/4
f 230/4/4 231/4/4 233/4/4
f 232/1/4 230/1/4 233/1/4
f 233/4/4 231/4/4 234/4/4
f 235/1/4 236/1/4 238/1/4
f 236/4/4 237/4/4 239/4/4
f 238/1/4 236/1/4 239/1/4
f 239/4/4 237/4/4 240/4/4
f 241/1/4 242/1/4 244/1/4
f 242/4/4 243/4/4 245/4/4
f 244/1/4 242/1/4 245/1/4
f 245/4/4 243/4/4 246/4/4
f 247/1/4 248/1/4 250/1/4
f 248/4/4 249/4/4 251/4/4
f 250/1/4 248/1/4 251/1/4
f 251/4/4 249/4/4 252/4/4
f 253/1/4 254/1/4 256/1/4
f 254/4/4 255/4/4 257/4/4
f 256/1/4 254/1/4 257/1/4
f 257/4/4 255/4/4 258/4/4
f 262/1/5 260/1/5 259/1/5
f 263/1/5 260/1/5 262/1/5
f 266/1/5 262/1/5 261/1/5
f 266/1/5 264/1/5 263/1/5
f 266/1/5 263/1/5 262/1/5
f 267/1/5 264/1/5 266/1/5
f 270/1/5 266/1/5 265/1/5
f 270/1/5 268/1/5 267/1/5
f 270/1/5 267/1/5 266/1/5
f 271/1/5 268/1/5 270/1/5
f 273/1/5 270/1/5 269/1/5
f 273/1/5 272/1/5 271/1/5
f 273/1/5 271/1/5 270/1/5
f 274/1/5 272/1/5 273/1/5
f 275/1/5 272/1/5 274/1/5
f 276/1/5 272/1/5 275/1/5
f 277/1/5 275/1/5 274/1/5
f 278/1/5 275/1/5 277/1/5
f 279/1/5 275/1/5 278/1/5
f 280/1/5 275/1/5 279/1/5
f 281/1/5 279/1/5 278/1/5
f 282/1/5 279/1/5 281/1/5
f 283/1/5 279/1/5 282/1/5
f 284/1/5 279/1/5 283/1/5
f 285/1/5 283/1/5 282/1/5
f 286/1/5 283/1/5 285/1/5
f 287/1/6 288/1/6 289/1/6
f 289/1/6 288/1/6 290/1/6
f 291/1/6 292/1/6 293/1/6
f 291/1/6 293/1/6 295/1/6
f 293/1/6 294/1/6 295/1/6
f 295/1/6 294/1/6 296/1/6
f 297/4/6 298/4/6 300/4/6
f 300/4/6 298/4/6 301/4/6
f 299/4/6 300/4/6 304/4/6
f 301/4/6 302/4/6 304/4/6
f 300/4/6 301/4/6 304/4/6
f 304/4/6 302/4/6 305/4/6
f 303/4/6 304/4/6 308/4/6
f 305/4/6 306/4/6 308/4/6
f 304/4/6 305/4/6 308/4/6
f 308/4/6 306/4/6 309/4/6
f 309/4/6 306/4/6 310/4/6
f 310/4/6 306/4/6 311/4/6
f 307/4/6 308/4/6 313/4/6
f 308/4/6 309/4/6 313/4/6
f 311/4/6 312/4/6 314/4/6
f 310/4/6 311/4/6 314/4/6
f 307/4/6 313/4/6 315/4/6
f 313/4/6 314/4/6 315/4/6
f 315/4/6 314/4/6 316/4/6
f 314/4/6 312/4/6 317/4/6
f 316/4/6 314/4/6 317/4/6
f 317/4/6 312/4/6 318/4/6
f 318/4/6 312/4/6 319/4/6
f 319/4/6 312/4/6 320/4/6
f 320/4/6 312/4/6 321/4/6
f 319/4/6 320/4/6 322/4/6
f 316/4/6 317/4/6 323/4/6
f 323/4/6 317/4/6 324/4/6
f 324/4/6 317/4/6 325/4/6
f 322/4/6 320/4/6 326/4/6
f 326/4/6 320/4/6 327/4/6
f 327/4/6 320/4/6 328/4/6
f 324/4/6 325/4/6 329/4/6
f 326/4/6 327/4/6 329/4/6
f 325/4/6 326/4/6 329/4/6
f 329/4/6 327/4/6 330/4/6
f 330/4/6 327/4/6 331/4/6
f 331/4/6 327/4/6 332/4/6
f 330/4/6 331/4/6 333/4/6
f 333/4/6 331/4/6 334/4/6
f 335/3/6 336/3/6 337/3/6
f 337/3/6 336/3/6 338/3/6
