# MagicaVoxel @ Ephtracy

# group
o 

# material
mtllib bathmirror.mtl
usemtl palette

# normals
vn -1 0 0
vn 1 0 0
vn 0 0 1
vn 0 0 -1
vn 0 -1 0
vn 0 1 0

# texcoords
vt 0.00585938 0.5
vt 0.142578 0.5
vt 0.169922 0.5
vt 0.205078 0.5

# verts
v -1 0 0
v -1 0 -0.1
v -1 2.9 0
v -1 2.9 -0.1
v -0.9 2.9 0
v -0.9 2.9 -0.1
v -0.9 3 0
v -0.9 3 -0.1
v 1.2 1.2 0
v 1.2 1.2 -0.1
v 1.2 1.3 0
v 1.2 1.3 -0.1
v 1.2 2.9 0
v 1.2 2.9 -0.1
v 1.2 3 0
v 1.2 3 -0.1
v 1.3 0 0
v 1.3 0 -0.1
v 1.3 0.5 0
v 1.3 0.5 -0.1
v 1.3 0.6 0
v 1.3 0.6 -0.1
v 1.3 1 0
v 1.3 1 -0.1
v 1.3 1.2 0
v 1.3 1.2 -0.1
v 1.3 1.3 0
v 1.3 1.3 -0.1
v 1.3 1.4 0
v 1.3 1.4 -0.1
v 1.3 2.9 0
v 1.3 2.9 -0.1
v -1 0 0
v -1 2.9 0
v -0.9 2.9 0
v -0.9 3 0
v -0.8 1.3 0
v -0.8 2.8 0
v -0.8 2.9 0
v -0.8 3 0
v -0.7 0.6 0
v -0.7 1.3 0
v -0.7 2.8 0
v -0.7 2.9 0
v -0.5 0.5 0
v -0.5 0.6 0
v -0.4 1.6 0
v -0.4 1.8 0
v -0.3 0.4 0
v -0.3 0.5 0
v -0.3 1.6 0
v -0.3 1.8 0
v -0.1 1.3 0
v -0.1 1.4 0
v 0 0 0
v 0 0.1 0
v 0 1.1 0
v 0 1.3 0
v 0 1.4 0
v 0 2.5 0
v 0 2.6 0
v 0.1 0 0
v 0.1 0.1 0
v 0.1 0.2 0
v 0.1 1 0
v 0.1 1.1 0
v 0.1 1.3 0
v 0.2 0.1 0
v 0.2 0.2 0
v 0.2 0.3 0
v 0.2 0.4 0
v 0.2 1 0
v 0.2 1.1 0
v 0.2 2.5 0
v 0.2 2.6 0
v 0.3 0.2 0
v 0.3 0.3 0
v 0.3 0.4 0
v 0.3 0.5 0
v 0.3 2.3 0
v 0.3 2.4 0
v 0.4 0.4 0
v 0.4 0.5 0
v 0.4 0.6 0
v 0.4 2.3 0
v 0.4 2.4 0
v 0.5 0.5 0
v 0.5 0.6 0
v 0.5 0.7 0
v 0.5 0.8 0
v 0.5 1.9 0
v 0.5 2.3 0
v 0.6 0.6 0
v 0.6 0.7 0
v 0.6 0.8 0
v 0.6 0.9 0
v 0.6 2.2 0
v 0.6 2.3 0
v 0.7 0.7 0
v 0.7 0.8 0
v 0.7 0.9 0
v 0.8 0.5 0
v 0.8 0.6 0
v 0.8 0.7 0
v 0.8 0.8 0
v 0.8 0.9 0
v 0.8 1 0
v 0.8 1.1 0
v 0.8 1.7 0
v 0.8 1.9 0
v 0.8 2 0
v 0.8 2.2 0
v 0.9 0.6 0
v 0.9 0.7 0
v 0.9 0.8 0
v 0.9 0.9 0
v 0.9 1 0
v 0.9 1.1 0
v 0.9 1.2 0
v 1 0.6 0
v 1 0.7 0
v 1 0.8 0
v 1 1.1 0
v 1 1.2 0
v 1 1.3 0
v 1 1.6 0
v 1 1.7 0
v 1.1 0.5 0
v 1.1 0.6 0
v 1.1 0.7 0
v 1.1 0.8 0
v 1.1 1 0
v 1.1 1.2 0
v 1.1 1.3 0
v 1.1 1.6 0
v 1.1 2 0
v 1.2 0.6 0
v 1.2 0.7 0
v 1.2 1.2 0
v 1.2 1.3 0
v 1.2 1.4 0
v 1.2 2.9 0
v 1.2 3 0
v 1.3 0 0
v 1.3 0.5 0
v 1.3 0.6 0
v 1.3 1 0
v 1.3 1.2 0
v 1.3 1.3 0
v 1.3 1.4 0
v 1.3 2.9 0
v -1 0 -0.1
v -1 2.9 -0.1
v -0.9 2.9 -0.1
v -0.9 3 -0.1
v -0.8 1.3 -0.1
v -0.8 2.8 -0.1
v -0.8 2.9 -0.1
v -0.8 3 -0.1
v -0.7 0.6 -0.1
v -0.7 1.3 -0.1
v -0.7 2.8 -0.1
v -0.7 2.9 -0.1
v -0.5 0.5 -0.1
v -0.5 0.6 -0.1
v -0.4 1.6 -0.1
v -0.4 1.8 -0.1
v -0.3 0.4 -0.1
v -0.3 0.5 -0.1
v -0.3 1.6 -0.1
v -0.3 1.8 -0.1
v -0.1 1.3 -0.1
v -0.1 1.4 -0.1
v 0 0 -0.1
v 0 0.1 -0.1
v 0 1.1 -0.1
v 0 1.3 -0.1
v 0 1.4 -0.1
v 0 2.5 -0.1
v 0 2.6 -0.1
v 0.1 0 -0.1
v 0.1 0.1 -0.1
v 0.1 0.2 -0.1
v 0.1 1 -0.1
v 0.1 1.1 -0.1
v 0.1 1.3 -0.1
v 0.2 0.1 -0.1
v 0.2 0.2 -0.1
v 0.2 0.3 -0.1
v 0.2 0.4 -0.1
v 0.2 1 -0.1
v 0.2 1.1 -0.1
v 0.2 2.5 -0.1
v 0.2 2.6 -0.1
v 0.3 0.2 -0.1
v 0.3 0.3 -0.1
v 0.3 0.4 -0.1
v 0.3 0.5 -0.1
v 0.3 2.3 -0.1
v 0.3 2.4 -0.1
v 0.4 0.4 -0.1
v 0.4 0.5 -0.1
v 0.4 0.6 -0.1
v 0.4 2.3 -0.1
v 0.4 2.4 -0.1
v 0.5 0.5 -0.1
v 0.5 0.6 -0.1
v 0.5 0.7 -0.1
v 0.5 0.8 -0.1
v 0.5 1.9 -0.1
v 0.5 2.3 -0.1
v 0.6 0.6 -0.1
v 0.6 0.7 -0.1
v 0.6 0.8 -0.1
v 0.6 0.9 -0.1
v 0.6 2.2 -0.1
v 0.6 2.3 -0.1
v 0.7 0.7 -0.1
v 0.7 0.8 -0.1
v 0.7 0.9 -0.1
v 0.8 0.5 -0.1
v 0.8 0.6 -0.1
v 0.8 0.7 -0.1
v 0.8 0.8 -0.1
v 0.8 0.9 -0.1
v 0.8 1 -0.1
v 0.8 1.1 -0.1
v 0.8 1.7 -0.1
v 0.8 1.9 -0.1
v 0.8 2 -0.1
v 0.8 2.2 -0.1
v 0.9 0.6 -0.1
v 0.9 0.7 -0.1
v 0.9 0.8 -0.1
v 0.9 0.9 -0.1
v 0.9 1 -0.1
v 0.9 1.1 -0.1
v 0.9 1.2 -0.1
v 1 0.6 -0.1
v 1 0.7 -0.1
v 1 0.8 -0.1
v 1 1.1 -0.1
v 1 1.2 -0.1
v 1 1.3 -0.1
v 1 1.6 -0.1
v 1 1.7 -0.1
v 1.1 0.5 -0.1
v 1.1 0.6 -0.1
v 1.1 0.7 -0.1
v 1.1 0.8 -0.1
v 1.1 1 -0.1
v 1.1 1.2 -0.1
v 1.1 1.3 -0.1
v 1.1 1.6 -0.1
v 1.1 2 -0.1
v 1.2 0.6 -0.1
v 1.2 0.7 -0.1
v 1.2 1.2 -0.1
v 1.2 1.3 -0.1
v 1.2 1.4 -0.1
v 1.2 2.9 -0.1
v 1.2 3 -0.1
v 1.3 0 -0.1
v 1.3 0.5 -0.1
v 1.3 0.6 -0.1
v 1.3 1 -0.1
v 1.3 1.2 -0.1
v 1.3 1.3 -0.1
v 1.3 1.4 -0.1
v 1.3 2.9 -0.1
v -1 0 0
v 0 0 0
v 0.1 0 0
v 1.3 0 0
v -1 0 -0.1
v 0 0 -0.1
v 0.1 0 -0.1
v 1.3 0 -0.1
v 1.2 1.3 0
v 1.3 1.3 0
v 1.2 1.3 -0.1
v 1.3 1.3 -0.1
v 1.2 1.2 0
v 1.3 1.2 0
v 1.2 1.2 -0.1
v 1.3 1.2 -0.1
v -1 2.9 0
v -0.9 2.9 0
v 1.2 2.9 0
v 1.3 2.9 0
v -1 2.9 -0.1
v -0.9 2.9 -0.1
v 1.2 2.9 -0.1
v 1.3 2.9 -0.1
v -0.9 3 0
v -0.8 3 0
v 1.2 3 0
v -0.9 3 -0.1
v -0.8 3 -0.1
v 1.2 3 -0.1

# faces
f 3/2/1 2/2/1 1/2/1
f 4/2/1 2/2/1 3/2/1
f 7/2/1 6/2/1 5/2/1
f 8/2/1 6/2/1 7/2/1
f 9/4/2 10/4/2 11/4/2
f 11/4/2 10/4/2 12/4/2
f 13/1/2 14/1/2 15/1/2
f 15/1/2 14/1/2 16/1/2
f 17/2/2 18/2/2 19/2/2
f 19/2/2 18/2/2 20/2/2
f 19/3/2 20/3/2 21/3/2
f 21/3/2 20/3/2 22/3/2
f 21/2/2 22/2/2 23/2/2
f 23/2/2 22/2/2 24/2/2
f 23/1/2 24/1/2 25/1/2
f 25/1/2 24/1/2 26/1/2
f 27/3/2 28/3/2 29/3/2
f 29/3/2 28/3/2 30/3/2
f 29/1/2 30/1/2 31/1/2
f 31/1/2 30/1/2 32/1/2
f 35/2/3 34/2/3 33/2/3
f 37/2/3 35/2/3 33/2/3
f 37/2/3 36/2/3 35/2/3
f 38/2/3 36/2/3 37/2/3
f 39/2/3 36/2/3 38/2/3
f 40/2/3 36/2/3 39/2/3
f 41/2/3 37/2/3 33/2/3
f 42/1/3 38/1/3 37/1/3
f 42/2/3 37/2/3 41/2/3
f 43/2/3 39/2/3 38/2/3
f 43/1/3 38/1/3 42/1/3
f 44/1/3 40/1/3 39/1/3
f 44/2/3 39/2/3 43/2/3
f 45/2/3 41/2/3 33/2/3
f 46/1/3 42/1/3 41/1/3
f 46/2/3 41/2/3 45/2/3
f 46/1/3 43/1/3 42/1/3
f 46/1/3 44/1/3 43/1/3
f 47/1/3 46/1/3 45/1/3
f 47/1/3 44/1/3 46/1/3
f 48/1/3 44/1/3 47/1/3
f 49/2/3 45/2/3 33/2/3
f 50/1/3 47/1/3 45/1/3
f 50/2/3 45/2/3 49/2/3
f 51/2/3 48/2/3 47/2/3
f 51/1/3 47/1/3 50/1/3
f 52/1/3 44/1/3 48/1/3
f 52/2/3 48/2/3 51/2/3
f 53/1/3 51/1/3 50/1/3
f 53/1/3 50/1/3 49/1/3
f 53/1/3 52/1/3 51/1/3
f 54/1/3 52/1/3 53/1/3
f 55/2/3 49/2/3 33/2/3
f 56/2/3 49/2/3 55/2/3
f 57/1/3 53/1/3 49/1/3
f 58/2/3 54/2/3 53/2/3
f 58/1/3 53/1/3 57/1/3
f 59/1/3 52/1/3 54/1/3
f 59/2/3 54/2/3 58/2/3
f 60/1/3 44/1/3 52/1/3
f 60/1/3 52/1/3 59/1/3
f 61/1/3 44/1/3 60/1/3
f 62/3/3 56/3/3 55/3/3
f 63/2/3 49/2/3 56/2/3
f 63/3/3 56/3/3 62/3/3
f 64/2/3 49/2/3 63/2/3
f 65/1/3 57/1/3 49/1/3
f 66/2/3 58/2/3 57/2/3
f 66/1/3 57/1/3 65/1/3
f 67/1/3 59/1/3 58/1/3
f 67/2/3 58/2/3 66/2/3
f 67/1/3 60/1/3 59/1/3
f 68/3/3 64/3/3 63/3/3
f 68/2/3 63/2/3 62/2/3
f 69/2/3 49/2/3 64/2/3
f 69/3/3 64/3/3 68/3/3
f 70/2/3 49/2/3 69/2/3
f 71/1/3 65/1/3 49/1/3
f 71/2/3 49/2/3 70/2/3
f 72/2/3 66/2/3 65/2/3
f 72/1/3 65/1/3 71/1/3
f 73/1/3 67/1/3 66/1/3
f 73/2/3 66/2/3 72/2/3
f 74/1/3 60/1/3 67/1/3
f 74/1/3 67/1/3 73/1/3
f 74/2/3 61/2/3 60/2/3
f 75/1/3 44/1/3 61/1/3
f 75/2/3 61/2/3 74/2/3
f 76/4/3 70/4/3 69/4/3
f 76/2/3 69/2/3 68/2/3
f 77/3/3 71/3/3 70/3/3
f 77/4/3 70/4/3 76/4/3
f 78/1/3 74/1/3 73/1/3
f 78/3/3 71/3/3 77/3/3
f 78/1/3 73/1/3 72/1/3
f 78/1/3 72/1/3 71/1/3
f 78/1/3 75/1/3 74/1/3
f 79/1/3 75/1/3 78/1/3
f 80/1/3 75/1/3 79/1/3
f 81/1/3 75/1/3 80/1/3
f 82/2/3 77/2/3 76/2/3
f 82/2/3 78/2/3 77/2/3
f 82/3/3 79/3/3 78/3/3
f 83/1/3 80/1/3 79/1/3
f 83/3/3 79/3/3 82/3/3
f 84/1/3 80/1/3 83/1/3
f 85/2/3 81/2/3 80/2/3
f 85/1/3 80/1/3 84/1/3
f 86/1/3 75/1/3 81/1/3
f 86/2/3 81/2/3 85/2/3
f 87/4/3 84/4/3 83/4/3
f 87/2/3 83/2/3 82/2/3
f 88/1/3 85/1/3 84/1/3
f 88/4/3 84/4/3 87/4/3
f 88/1/3 86/1/3 85/1/3
f 89/1/3 86/1/3 88/1/3
f 90/1/3 86/1/3 89/1/3
f 91/1/3 86/1/3 90/1/3
f 92/1/3 86/1/3 91/1/3
f 93/1/3 88/1/3 87/1/3
f 93/4/3 89/4/3 88/4/3
f 94/3/3 90/3/3 89/3/3
f 94/4/3 89/4/3 93/4/3
f 95/1/3 91/1/3 90/1/3
f 95/3/3 90/3/3 94/3/3
f 96/1/3 91/1/3 95/1/3
f 97/2/3 92/2/3 91/2/3
f 98/1/3 86/1/3 92/1/3
f 98/2/3 92/2/3 97/2/3
f 99/1/3 94/1/3 93/1/3
f 99/1/3 95/1/3 94/1/3
f 100/3/3 96/3/3 95/3/3
f 100/1/3 95/1/3 99/1/3
f 101/1/3 91/1/3 96/1/3
f 101/3/3 96/3/3 100/3/3
f 102/2/3 87/2/3 82/2/3
f 102/1/3 93/1/3 87/1/3
f 102/1/3 99/1/3 93/1/3
f 103/1/3 99/1/3 102/1/3
f 104/3/3 100/3/3 99/3/3
f 104/1/3 99/1/3 103/1/3
f 105/4/3 101/4/3 100/4/3
f 105/3/3 100/3/3 104/3/3
f 106/1/3 91/1/3 101/1/3
f 106/4/3 101/4/3 105/4/3
f 107/1/3 91/1/3 106/1/3
f 108/1/3 91/1/3 107/1/3
f 109/1/3 91/1/3 108/1/3
f 110/2/3 97/2/3 91/2/3
f 110/1/3 91/1/3 109/1/3
f 111/2/3 97/2/3 110/2/3
f 112/1/3 98/1/3 97/1/3
f 112/2/3 97/2/3 111/2/3
f 113/2/3 103/2/3 102/2/3
f 113/1/3 104/1/3 103/1/3
f 114/4/3 105/4/3 104/4/3
f 114/1/3 104/1/3 113/1/3
f 115/1/3 106/1/3 105/1/3
f 115/4/3 105/4/3 114/4/3
f 116/4/3 107/4/3 106/4/3
f 116/1/3 106/1/3 115/1/3
f 117/3/3 108/3/3 107/3/3
f 117/4/3 107/4/3 116/4/3
f 118/1/3 109/1/3 108/1/3
f 118/3/3 108/3/3 117/3/3
f 119/1/3 109/1/3 118/1/3
f 120/2/3 113/2/3 102/2/3
f 120/4/3 114/4/3 113/4/3
f 121/1/3 117/1/3 116/1/3
f 121/4/3 114/4/3 120/4/3
f 121/1/3 115/1/3 114/1/3
f 121/1/3 118/1/3 117/1/3
f 121/1/3 116/1/3 115/1/3
f 122/1/3 118/1/3 121/1/3
f 123/3/3 119/3/3 118/3/3
f 123/1/3 118/1/3 122/1/3
f 124/1/3 109/1/3 119/1/3
f 124/3/3 119/3/3 123/3/3
f 125/1/3 109/1/3 124/1/3
f 126/1/3 109/1/3 125/1/3
f 127/2/3 111/2/3 110/2/3
f 127/1/3 109/1/3 126/1/3
f 127/2/3 110/2/3 109/2/3
f 128/2/3 120/2/3 102/2/3
f 128/2/3 102/2/3 82/2/3
f 129/3/3 121/3/3 120/3/3
f 129/2/3 120/2/3 128/2/3
f 130/2/3 122/2/3 121/2/3
f 130/3/3 121/3/3 129/3/3
f 131/1/3 123/1/3 122/1/3
f 131/2/3 122/2/3 130/2/3
f 131/1/3 124/1/3 123/1/3
f 132/1/3 124/1/3 131/1/3
f 133/3/3 125/3/3 124/3/3
f 133/1/3 124/1/3 132/1/3
f 134/1/3 126/1/3 125/1/3
f 134/3/3 125/3/3 133/3/3
f 135/2/3 127/2/3 126/2/3
f 135/1/3 126/1/3 134/1/3
f 136/2/3 111/2/3 127/2/3
f 136/2/3 127/2/3 135/2/3
f 136/1/3 112/1/3 111/1/3
f 137/4/3 130/4/3 129/4/3
f 137/3/3 129/3/3 128/3/3
f 138/2/3 131/2/3 130/2/3
f 138/4/3 130/4/3 137/4/3
f 138/2/3 132/2/3 131/2/3
f 139/1/3 133/1/3 132/1/3
f 139/4/3 134/4/3 133/4/3
f 140/1/3 135/1/3 134/1/3
f 140/4/3 134/4/3 139/4/3
f 140/1/3 136/1/3 135/1/3
f 141/1/3 136/1/3 140/1/3
f 142/1/3 40/1/3 44/1/3
f 142/1/3 136/1/3 141/1/3
f 142/1/3 44/1/3 75/1/3
f 142/1/3 112/1/3 136/1/3
f 142/1/3 75/1/3 86/1/3
f 142/1/3 98/1/3 112/1/3
f 142/1/3 86/1/3 98/1/3
f 143/1/3 40/1/3 142/1/3
f 144/2/3 76/2/3 68/2/3
f 144/2/3 68/2/3 62/2/3
f 144/2/3 128/2/3 82/2/3
f 144/2/3 82/2/3 76/2/3
f 145/3/3 137/3/3 128/3/3
f 145/2/3 128/2/3 144/2/3
f 146/2/3 138/2/3 137/2/3
f 146/3/3 137/3/3 145/3/3
f 147/2/3 132/2/3 138/2/3
f 147/2/3 138/2/3 146/2/3
f 147/1/3 139/1/3 132/1/3
f 148/1/3 139/1/3 147/1/3
f 149/3/3 141/3/3 140/3/3
f 150/1/3 142/1/3 141/1/3
f 150/3/3 141/3/3 149/3/3
f 151/1/3 142/1/3 150/1/3
f 152/2/4 153/2/4 154/2/4
f 152/2/4 154/2/4 156/2/4
f 154/2/4 155/2/4 156/2/4
f 156/2/4 155/2/4 157/2/4
f 157/2/4 155/2/4 158/2/4
f 158/2/4 155/2/4 159/2/4
f 152/2/4 156/2/4 160/2/4
f 156/1/4 157/1/4 161/1/4
f 160/2/4 156/2/4 161/2/4
f 157/2/4 158/2/4 162/2/4
f 161/1/4 157/1/4 162/1/4
f 158/1/4 159/1/4 163/1/4
f 162/2/4 158/2/4 163/2/4
f 152/2/4 160/2/4 164/2/4
f 160/1/4 161/1/4 165/1/4
f 164/2/4 160/2/4 165/2/4
f 161/1/4 162/1/4 165/1/4
f 162/1/4 163/1/4 165/1/4
f 164/1/4 165/1/4 166/1/4
f 165/1/4 163/1/4 166/1/4
f 166/1/4 163/1/4 167/1/4
f 152/2/4 164/2/4 168/2/4
f 164/1/4 166/1/4 169/1/4
f 168/2/4 164/2/4 169/2/4
f 166/2/4 167/2/4 170/2/4
f 169/1/4 166/1/4 170/1/4
f 167/1/4 163/1/4 171/1/4
f 170/2/4 167/2/4 171/2/4
f 169/1/4 170/1/4 172/1/4
f 168/1/4 169/1/4 172/1/4
f 170/1/4 171/1/4 172/1/4
f 172/1/4 171/1/4 173/1/4
f 152/2/4 168/2/4 174/2/4
f 174/2/4 168/2/4 175/2/4
f 168/1/4 172/1/4 176/1/4
f 172/2/4 173/2/4 177/2/4
f 176/1/4 172/1/4 177/1/4
f 173/1/4 171/1/4 178/1/4
f 177/2/4 173/2/4 178/2/4
f 171/1/4 163/1/4 179/1/4
f 178/1/4 171/1/4 179/1/4
f 179/1/4 163/1/4 180/1/4
f 174/3/4 175/3/4 181/3/4
f 175/2/4 168/2/4 182/2/4
f 181/3/4 175/3/4 182/3/4
f 182/2/4 168/2/4 183/2/4
f 168/1/4 176/1/4 184/1/4
f 176/2/4 177/2/4 185/2/4
f 184/1/4 176/1/4 185/1/4
f 177/1/4 178/1/4 186/1/4
f 185/2/4 177/2/4 186/2/4
f 178/1/4 179/1/4 186/1/4
f 182/3/4 183/3/4 187/3/4
f 181/2/4 182/2/4 187/2/4
f 183/2/4 168/2/4 188/2/4
f 187/3/4 183/3/4 188/3/4
f 188/2/4 168/2/4 189/2/4
f 168/1/4 184/1/4 190/1/4
f 189/2/4 168/2/4 190/2/4
f 184/2/4 185/2/4 191/2/4
f 190/1/4 184/1/4 191/1/4
f 185/1/4 186/1/4 192/1/4
f 191/2/4 185/2/4 192/2/4
f 186/1/4 179/1/4 193/1/4
f 192/1/4 186/1/4 193/1/4
f 179/2/4 180/2/4 193/2/4
f 180/1/4 163/1/4 194/1/4
f 193/2/4 180/2/4 194/2/4
f 188/4/4 189/4/4 195/4/4
f 187/2/4 188/2/4 195/2/4
f 189/3/4 190/3/4 196/3/4
f 195/4/4 189/4/4 196/4/4
f 192/1/4 193/1/4 197/1/4
f 196/3/4 190/3/4 197/3/4
f 191/1/4 192/1/4 197/1/4
f 190/1/4 191/1/4 197/1/4
f 193/1/4 194/1/4 197/1/4
f 197/1/4 194/1/4 198/1/4
f 198/1/4 194/1/4 199/1/4
f 199/1/4 194/1/4 200/1/4
f 195/2/4 196/2/4 201/2/4
f 196/2/4 197/2/4 201/2/4
f 197/3/4 198/3/4 201/3/4
f 198/1/4 199/1/4 202/1/4
f 201/3/4 198/3/4 202/3/4
f 202/1/4 199/1/4 203/1/4
f 199/2/4 200/2/4 204/2/4
f 203/1/4 199/1/4 204/1/4
f 200/1/4 194/1/4 205/1/4
f 204/2/4 200/2/4 205/2/4
f 202/4/4 203/4/4 206/4/4
f 201/2/4 202/2/4 206/2/4
f 203/1/4 204/1/4 207/1/4
f 206/4/4 203/4/4 207/4/4
f 204/1/4 205/1/4 207/1/4
f 207/1/4 205/1/4 208/1/4
f 208/1/4 205/1/4 209/1/4
f 209/1/4 205/1/4 210/1/4
f 210/1/4 205/1/4 211/1/4
f 206/1/4 207/1/4 212/1/4
f 207/4/4 208/4/4 212/4/4
f 208/3/4 209/3/4 213/3/4
f 212/4/4 208/4/4 213/4/4
f 209/1/4 210/1/4 214/1/4
f 213/3/4 209/3/4 214/3/4
f 214/1/4 210/1/4 215/1/4
f 210/2/4 211/2/4 216/2/4
f 211/1/4 205/1/4 217/1/4
f 216/2/4 211/2/4 217/2/4
f 212/1/4 213/1/4 218/1/4
f 213/1/4 214/1/4 218/1/4
f 214/3/4 215/3/4 219/3/4
f 218/1/4 214/1/4 219/1/4
f 215/1/4 210/1/4 220/1/4
f 219/3/4 215/3/4 220/3/4
f 201/2/4 206/2/4 221/2/4
f 206/1/4 212/1/4 221/1/4
f 212/1/4 218/1/4 221/1/4
f 221/1/4 218/1/4 222/1/4
f 218/3/4 219/3/4 223/3/4
f 222/1/4 218/1/4 223/1/4
f 219/4/4 220/4/4 224/4/4
f 223/3/4 219/3/4 224/3/4
f 220/1/4 210/1/4 225/1/4
f 224/4/4 220/4/4 225/4/4
f 225/1/4 210/1/4 226/1/4
f 226/1/4 210/1/4 227/1/4
f 227/1/4 210/1/4 228/1/4
f 210/2/4 216/2/4 229/2/4
f 228/1/4 210/1/4 229/1/4
f 229/2/4 216/2/4 230/2/4
f 216/1/4 217/1/4 231/1/4
f 230/2/4 216/2/4 231/2/4
f 221/2/4 222/2/4 232/2/4
f 222/1/4 223/1/4 232/1/4
f 223/4/4 224/4/4 233/4/4
f 232/1/4 223/1/4 233/1/4
f 224/1/4 225/1/4 234/1/4
f 233/4/4 224/4/4 234/4/4
f 225/4/4 226/4/4 235/4/4
f 234/1/4 225/1/4 235/1/4
f 226/3/4 227/3/4 236/3/4
f 235/4/4 226/4/4 236/4/4
f 227/1/4 228/1/4 237/1/4
f 236/3/4 227/3/4 237/3/4
f 237/1/4 228/1/4 238/1/4
f 221/2/4 232/2/4 239/2/4
f 232/4/4 233/4/4 239/4/4
f 235/1/4 236/1/4 240/1/4
f 239/4/4 233/4/4 240/4/4
f 233/1/4 234/1/4 240/1/4
f 236/1/4 237/1/4 240/1/4
f 234/1/4 235/1/4 240/1/4
f 240/1/4 237/1/4 241/1/4
f 237/3/4 238/3/4 242/3/4
f 241/1/4 237/1/4 242/1/4
f 238/1/4 228/1/4 243/1/4
f 242/3/4 238/3/4 243/3/4
f 243/1/4 228/1/4 244/1/4
f 244/1/4 228/1/4 245/1/4
f 229/2/4 230/2/4 246/2/4
f 245/1/4 228/1/4 246/1/4
f 228/2/4 229/2/4 246/2/4
f 221/2/4 239/2/4 247/2/4
f 201/2/4 221/2/4 247/2/4
f 239/3/4 240/3/4 248/3/4
f 247/2/4 239/2/4 248/2/4
f 240/2/4 241/2/4 249/2/4
f 248/3/4 240/3/4 249/3/4
f 241/1/4 242/1/4 250/1/4
f 249/2/4 241/2/4 250/2/4
f 242/1/4 243/1/4 250/1/4
f 250/1/4 243/1/4 251/1/4
f 243/3/4 244/3/4 252/3/4
f 251/1/4 243/1/4 252/1/4
f 244/1/4 245/1/4 253/1/4
f 252/3/4 244/3/4 253/3/4
f 245/2/4 246/2/4 254/2/4
f 253/1/4 245/1/4 254/1/4
f 246/2/4 230/2/4 255/2/4
f 254/2/4 246/2/4 255/2/4
f 230/1/4 231/1/4 255/1/4
f 248/4/4 249/4/4 256/4/4
f 247/3/4 248/3/4 256/3/4
f 249/2/4 250/2/4 257/2/4
f 256/4/4 249/4/4 257/4/4
f 250/2/4 251/2/4 257/2/4
f 251/1/4 252/1/4 258/1/4
f 252/4/4 253/4/4 258/4/4
f 253/1/4 254/1/4 259/1/4
f 258/4/4 253/4/4 259/4/4
f 254/1/4 255/1/4 259/1/4
f 259/1/4 255/1/4 260/1/4
f 163/1/4 159/1/4 261/1/4
f 260/1/4 255/1/4 261/1/4
f 194/1/4 163/1/4 261/1/4
f 255/1/4 231/1/4 261/1/4
f 205/1/4 194/1/4 261/1/4
f 231/1/4 217/1/4 261/1/4
f 217/1/4 205/1/4 261/1/4
f 261/1/4 159/1/4 262/1/4
f 187/2/4 195/2/4 263/2/4
f 181/2/4 187/2/4 263/2/4
f 201/2/4 247/2/4 263/2/4
f 195/2/4 201/2/4 263/2/4
f 247/3/4 256/3/4 264/3/4
f 263/2/4 247/2/4 264/2/4
f 256/2/4 257/2/4 265/2/4
f 264/3/4 256/3/4 265/3/4
f 257/2/4 251/2/4 266/2/4
f 265/2/4 257/2/4 266/2/4
f 251/1/4 258/1/4 266/1/4
f 266/1/4 258/1/4 267/1/4
f 259/3/4 260/3/4 268/3/4
f 260/1/4 261/1/4 269/1/4
f 268/3/4 260/3/4 269/3/4
f 269/1/4 261/1/4 270/1/4
f 275/2/5 272/2/5 271/2/5
f 276/3/5 273/3/5 272/3/5
f 276/2/5 272/2/5 275/2/5
f 277/2/5 274/2/5 273/2/5
f 277/3/5 273/3/5 276/3/5
f 278/2/5 274/2/5 277/2/5
f 281/3/5 280/3/5 279/3/5
f 282/3/5 280/3/5 281/3/5
f 283/1/6 284/1/6 285/1/6
f 285/1/6 284/1/6 286/1/6
f 287/2/6 288/2/6 291/2/6
f 291/2/6 288/2/6 292/2/6
f 289/1/6 290/1/6 293/1/6
f 293/1/6 290/1/6 294/1/6
f 295/2/6 296/2/6 298/2/6
f 296/1/6 297/1/6 299/1/6
f 298/2/6 296/2/6 299/2/6
f 299/1/6 297/1/6 300/1/6
