# MagicaVoxel @ Ephtracy

# group
o 

# material
mtllib pic1.mtl
usemtl palette

# normals
vn -1 0 0
vn 1 0 0
vn 0 0 1
vn 0 0 -1
vn 0 -1 0
vn 0 1 0

# texcoords
vt 0.00195312 0.5
vt 0.00585938 0.5
vt 0.0371094 0.5
vt 0.205078 0.5
vt 0.478516 0.5
vt 0.505859 0.5
vt 0.638672 0.5
vt 0.642578 0.5
vt 0.724609 0.5

# verts
v -2 0 0.1
v -2 0 -0.1
v -2 0.4 0.1
v -2 0.4 0
v -2 0.5 0.1
v -2 0.5 0
v -2 0.6 0.1
v -2 0.6 0
v -2 1.5 0.1
v -2 1.5 0
v -2 2 0.1
v -2 2 -0.1
v 2 0 0.1
v 2 0 -0.1
v 2 0.3 0.1
v 2 0.3 0
v 2 1.3 0.1
v 2 1.3 0
v 2 1.5 0.1
v 2 1.5 0
v 2 1.6 0.1
v 2 1.6 0
v 2 2 0.1
v 2 2 -0.1
v -2 0 0.1
v -2 0.4 0.1
v -2 0.5 0.1
v -2 0.6 0.1
v -2 1.5 0.1
v -2 2 0.1
v -1.9 0.1 0.1
v -1.9 0.4 0.1
v -1.9 0.5 0.1
v -1.9 0.6 0.1
v -1.9 1.5 0.1
v -1.9 1.9 0.1
v -1.4 0 0.1
v -1.4 0.1 0.1
v -1.3 0.4 0.1
v -1.3 0.5 0.1
v -1.3 0.9 0.1
v -1.3 1 0.1
v -1.3 1.3 0.1
v -1.3 1.5 0.1
v -1.3 1.6 0.1
v -1.2 1.9 0.1
v -1.2 2 0.1
v -1 0.7 0.1
v -1 0.9 0.1
v -1 1 0.1
v -1 1.1 0.1
v -0.9 0.8 0.1
v -0.9 0.9 0.1
v -0.8 0.8 0.1
v -0.8 0.9 0.1
v -0.8 1.3 0.1
v -0.8 1.5 0.1
v -0.6 0.5 0.1
v -0.6 0.6 0.1
v -0.4 1.1 0.1
v -0.4 1.3 0.1
v -0.4 1.5 0.1
v -0.3 0 0.1
v -0.3 0.1 0.1
v -0.3 0.8 0.1
v -0.3 0.9 0.1
v -0.3 1.1 0.1
v -0.3 1.3 0.1
v -0.3 1.4 0.1
v -0.3 1.5 0.1
v -0.2 0.5 0.1
v -0.2 0.6 0.1
v -0.2 0.9 0.1
v -0.2 1 0.1
v -0.2 1.2 0.1
v -0.2 1.4 0.1
v -0.0999999 0.9 0.1
v -0.0999999 1 0.1
v 2.38419e-07 0.9 0.1
v 2.38419e-07 1 0.1
v 0.1 1.5 0.1
v 0.1 1.6 0.1
v 0.2 0.9 0.1
v 0.2 1 0.1
v 0.3 0 0.1
v 0.3 0.1 0.1
v 0.3 0.9 0.1
v 0.3 1 0.1
v 0.3 1.4 0.1
v 0.3 1.5 0.1
v 0.5 0.6 0.1
v 0.5 0.7 0.1
v 0.5 0.9 0.1
v 0.5 1 0.1
v 0.5 1.2 0.1
v 0.5 1.9 0.1
v 0.5 2 0.1
v 0.6 0.8 0.1
v 0.6 0.9 0.1
v 0.6 1 0.1
v 0.7 0.7 0.1
v 0.7 0.9 0.1
v 0.7 1.9 0.1
v 0.7 2 0.1
v 0.8 0 0.1
v 0.8 0.1 0.1
v 0.9 1.2 0.1
v 0.9 1.3 0.1
v 1.1 0.6 0.1
v 1.1 0.7 0.1
v 1.1 1.4 0.1
v 1.1 1.6 0.1
v 1.1 1.9 0.1
v 1.1 2 0.1
v 1.2 0 0.1
v 1.2 0.1 0.1
v 1.3 0.4 0.1
v 1.3 0.5 0.1
v 1.3 0.9 0.1
v 1.3 1 0.1
v 1.3 1.2 0.1
v 1.3 1.3 0.1
v 1.3 1.6 0.1
v 1.7 0 0.1
v 1.7 0.1 0.1
v 1.9 0.1 0.1
v 1.9 0.3 0.1
v 1.9 1.3 0.1
v 1.9 1.5 0.1
v 1.9 1.6 0.1
v 1.9 1.9 0.1
v 2 0 0.1
v 2 0.3 0.1
v 2 1.3 0.1
v 2 1.5 0.1
v 2 1.6 0.1
v 2 2 0.1
v -2 0 -0.1
v -2 2 -0.1
v -1.9 0.1 -0.1
v -1.9 1.9 -0.1
v 1.9 0.1 -0.1
v 1.9 1.9 -0.1
v 2 0 -0.1
v 2 2 -0.1
v -2 0 0.1
v -1.4 0 0.1
v -0.3 0 0.1
v 0.3 0 0.1
v 0.8 0 0.1
v 1.2 0 0.1
v 1.7 0 0.1
v 2 0 0.1
v -1.4 0 0
v -0.3 0 0
v 0.3 0 0
v 0.8 0 0
v 1.2 0 0
v 1.7 0 0
v -2 0 -0.1
v 2 0 -0.1
v -2 2 0.1
v -1.2 2 0.1
v 0.5 2 0.1
v 0.7 2 0.1
v 1.1 2 0.1
v 2 2 0.1
v -1.2 2 0
v 0.5 2 0
v 0.7 2 0
v 1.1 2 0
v -2 2 -0.1
v 2 2 -0.1

# faces
f 3/4/1 2/4/1 1/4/1
f 4/4/1 2/4/1 3/4/1
f 5/3/1 4/3/1 3/3/1
f 6/4/1 2/4/1 4/4/1
f 6/3/1 4/3/1 5/3/1
f 7/4/1 6/4/1 5/4/1
f 8/4/1 2/4/1 6/4/1
f 8/4/1 6/4/1 7/4/1
f 9/3/1 8/3/1 7/3/1
f 10/4/1 2/4/1 8/4/1
f 10/3/1 8/3/1 9/3/1
f 11/4/1 10/4/1 9/4/1
f 12/4/1 2/4/1 10/4/1
f 12/4/1 10/4/1 11/4/1
f 13/4/2 14/4/2 15/4/2
f 15/4/2 14/4/2 16/4/2
f 15/3/2 16/3/2 17/3/2
f 16/4/2 14/4/2 18/4/2
f 17/3/2 16/3/2 18/3/2
f 17/4/2 18/4/2 19/4/2
f 18/4/2 14/4/2 20/4/2
f 19/4/2 18/4/2 20/4/2
f 19/3/2 20/3/2 21/3/2
f 20/4/2 14/4/2 22/4/2
f 21/3/2 20/3/2 22/3/2
f 21/4/2 22/4/2 23/4/2
f 22/4/2 14/4/2 24/4/2
f 23/4/2 22/4/2 24/4/2
f 31/4/3 26/4/3 25/4/3
f 32/3/3 27/3/3 26/3/3
f 32/4/3 26/4/3 31/4/3
f 33/4/3 28/4/3 27/4/3
f 33/3/3 27/3/3 32/3/3
f 34/3/3 29/3/3 28/3/3
f 34/4/3 28/4/3 33/4/3
f 35/4/3 30/4/3 29/4/3
f 35/3/3 29/3/3 34/3/3
f 36/4/3 30/4/3 35/4/3
f 37/4/3 31/4/3 25/4/3
f 38/1/3 34/1/3 33/1/3
f 38/4/3 31/4/3 37/4/3
f 38/1/3 32/1/3 31/1/3
f 38/1/3 36/1/3 35/1/3
f 38/1/3 35/1/3 34/1/3
f 38/1/3 33/1/3 32/1/3
f 39/1/3 36/1/3 38/1/3
f 40/1/3 36/1/3 39/1/3
f 41/1/3 36/1/3 40/1/3
f 42/1/3 36/1/3 41/1/3
f 43/1/3 36/1/3 42/1/3
f 44/1/3 36/1/3 43/1/3
f 45/1/3 36/1/3 44/1/3
f 46/4/3 30/4/3 36/4/3
f 46/1/3 36/1/3 45/1/3
f 47/4/3 30/4/3 46/4/3
f 48/8/3 41/8/3 40/8/3
f 49/2/3 42/2/3 41/2/3
f 49/8/3 41/8/3 48/8/3
f 50/5/3 43/5/3 42/5/3
f 50/2/3 42/2/3 49/2/3
f 51/5/3 43/5/3 50/5/3
f 52/6/3 49/6/3 48/6/3
f 53/9/3 50/9/3 49/9/3
f 53/6/3 49/6/3 52/6/3
f 53/9/3 51/9/3 50/9/3
f 54/6/3 52/6/3 48/6/3
f 54/9/3 53/9/3 52/9/3
f 55/9/3 51/9/3 53/9/3
f 55/9/3 53/9/3 54/9/3
f 56/5/3 43/5/3 51/5/3
f 56/2/3 44/2/3 43/2/3
f 57/5/3 45/5/3 44/5/3
f 57/2/3 44/2/3 56/2/3
f 58/7/3 40/7/3 39/7/3
f 58/8/3 48/8/3 40/8/3
f 59/8/3 48/8/3 58/8/3
f 60/5/3 56/5/3 51/5/3
f 60/5/3 57/5/3 56/5/3
f 60/9/3 51/9/3 55/9/3
f 61/5/3 57/5/3 60/5/3
f 62/5/3 45/5/3 57/5/3
f 62/5/3 57/5/3 61/5/3
f 63/3/3 38/3/3 37/3/3
f 64/1/3 39/1/3 38/1/3
f 64/3/3 38/3/3 63/3/3
f 65/6/3 55/6/3 54/6/3
f 65/6/3 54/6/3 48/6/3
f 66/9/3 60/9/3 55/9/3
f 66/6/3 55/6/3 65/6/3
f 67/6/3 61/6/3 60/6/3
f 67/9/3 60/9/3 66/9/3
f 68/9/3 62/9/3 61/9/3
f 68/6/3 61/6/3 67/6/3
f 69/9/3 62/9/3 68/9/3
f 70/5/3 45/5/3 62/5/3
f 70/9/3 62/9/3 69/9/3
f 71/7/3 59/7/3 58/7/3
f 71/7/3 58/7/3 39/7/3
f 72/8/3 48/8/3 59/8/3
f 72/7/3 59/7/3 71/7/3
f 73/9/3 69/9/3 68/9/3
f 73/9/3 66/9/3 65/9/3
f 73/9/3 67/9/3 66/9/3
f 73/9/3 68/9/3 67/9/3
f 74/9/3 69/9/3 73/9/3
f 75/9/3 69/9/3 74/9/3
f 76/5/3 70/5/3 69/5/3
f 76/9/3 69/9/3 75/9/3
f 77/9/3 73/9/3 65/9/3
f 77/6/3 74/6/3 73/6/3
f 78/9/3 75/9/3 74/9/3
f 78/6/3 74/6/3 77/6/3
f 79/9/3 77/9/3 65/9/3
f 79/9/3 78/9/3 77/9/3
f 80/9/3 75/9/3 78/9/3
f 80/9/3 78/9/3 79/9/3
f 81/5/3 45/5/3 70/5/3
f 81/5/3 70/5/3 76/5/3
f 81/5/3 76/5/3 75/5/3
f 82/1/3 46/1/3 45/1/3
f 82/5/3 45/5/3 81/5/3
f 83/9/3 79/9/3 65/9/3
f 83/6/3 80/6/3 79/6/3
f 84/9/3 75/9/3 80/9/3
f 84/6/3 80/6/3 83/6/3
f 85/4/3 64/4/3 63/4/3
f 86/1/3 39/1/3 64/1/3
f 86/4/3 64/4/3 85/4/3
f 87/9/3 83/9/3 65/9/3
f 87/9/3 84/9/3 83/9/3
f 88/9/3 75/9/3 84/9/3
f 88/9/3 84/9/3 87/9/3
f 89/5/3 81/5/3 75/5/3
f 90/2/3 82/2/3 81/2/3
f 90/5/3 81/5/3 89/5/3
f 91/8/3 48/8/3 72/8/3
f 91/8/3 72/8/3 71/8/3
f 92/6/3 65/6/3 48/6/3
f 92/8/3 48/8/3 91/8/3
f 93/9/3 87/9/3 65/9/3
f 93/6/3 88/6/3 87/6/3
f 94/9/3 75/9/3 88/9/3
f 94/6/3 88/6/3 93/6/3
f 95/5/3 89/5/3 75/5/3
f 95/9/3 75/9/3 94/9/3
f 96/1/3 46/1/3 82/1/3
f 96/3/3 47/3/3 46/3/3
f 97/3/3 47/3/3 96/3/3
f 98/9/3 93/9/3 65/9/3
f 98/6/3 65/6/3 92/6/3
f 98/9/3 94/9/3 93/9/3
f 99/9/3 94/9/3 98/9/3
f 100/5/3 95/5/3 94/5/3
f 100/9/3 94/9/3 99/9/3
f 101/6/3 99/6/3 98/6/3
f 101/7/3 92/7/3 91/7/3
f 101/6/3 98/6/3 92/6/3
f 102/2/3 100/2/3 99/2/3
f 102/6/3 99/6/3 101/6/3
f 103/4/3 97/4/3 96/4/3
f 103/1/3 96/1/3 82/1/3
f 104/4/3 97/4/3 103/4/3
f 105/3/3 86/3/3 85/3/3
f 106/1/3 39/1/3 86/1/3
f 106/3/3 86/3/3 105/3/3
f 107/5/3 89/5/3 95/5/3
f 107/5/3 95/5/3 100/5/3
f 108/5/3 89/5/3 107/5/3
f 109/8/3 91/8/3 71/8/3
f 109/7/3 101/7/3 91/7/3
f 110/8/3 102/8/3 101/8/3
f 110/7/3 101/7/3 109/7/3
f 111/2/3 90/2/3 89/2/3
f 111/5/3 89/5/3 108/5/3
f 112/2/3 82/2/3 90/2/3
f 112/2/3 90/2/3 111/2/3
f 112/1/3 103/1/3 82/1/3
f 113/3/3 104/3/3 103/3/3
f 113/1/3 103/1/3 112/1/3
f 114/3/3 104/3/3 113/3/3
f 115/4/3 106/4/3 105/4/3
f 116/1/3 39/1/3 106/1/3
f 116/4/3 106/4/3 115/4/3
f 117/7/3 71/7/3 39/7/3
f 117/1/3 39/1/3 116/1/3
f 118/8/3 110/8/3 109/8/3
f 118/7/3 71/7/3 117/7/3
f 118/8/3 109/8/3 71/8/3
f 119/8/3 102/8/3 110/8/3
f 119/8/3 110/8/3 118/8/3
f 119/2/3 100/2/3 102/2/3
f 120/5/3 107/5/3 100/5/3
f 120/2/3 100/2/3 119/2/3
f 121/2/3 108/2/3 107/2/3
f 121/5/3 107/5/3 120/5/3
f 122/5/3 111/5/3 108/5/3
f 122/2/3 108/2/3 121/2/3
f 122/5/3 112/5/3 111/5/3
f 123/1/3 113/1/3 112/1/3
f 123/5/3 112/5/3 122/5/3
f 124/3/3 116/3/3 115/3/3
f 125/1/3 121/1/3 120/1/3
f 125/3/3 116/3/3 124/3/3
f 125/1/3 118/1/3 117/1/3
f 125/1/3 123/1/3 122/1/3
f 125/1/3 119/1/3 118/1/3
f 125/1/3 120/1/3 119/1/3
f 125/1/3 122/1/3 121/1/3
f 125/1/3 117/1/3 116/1/3
f 126/4/3 125/4/3 124/4/3
f 126/1/3 123/1/3 125/1/3
f 127/1/3 123/1/3 126/1/3
f 128/1/3 123/1/3 127/1/3
f 129/1/3 123/1/3 128/1/3
f 130/1/3 113/1/3 123/1/3
f 130/1/3 123/1/3 129/1/3
f 131/4/3 114/4/3 113/4/3
f 131/1/3 113/1/3 130/1/3
f 132/4/3 126/4/3 124/4/3
f 132/4/3 127/4/3 126/4/3
f 133/3/3 128/3/3 127/3/3
f 133/4/3 127/4/3 132/4/3
f 134/4/3 129/4/3 128/4/3
f 134/3/3 128/3/3 133/3/3
f 135/3/3 130/3/3 129/3/3
f 135/4/3 129/4/3 134/4/3
f 136/4/3 131/4/3 130/4/3
f 136/3/3 130/3/3 135/3/3
f 137/4/3 114/4/3 131/4/3
f 137/4/3 131/4/3 136/4/3
f 138/4/4 139/4/4 140/4/4
f 140/4/4 139/4/4 141/4/4
f 138/4/4 140/4/4 142/4/4
f 140/3/4 141/3/4 142/3/4
f 141/4/4 139/4/4 143/4/4
f 142/3/4 141/3/4 143/3/4
f 138/4/4 142/4/4 144/4/4
f 142/4/4 143/4/4 144/4/4
f 143/4/4 139/4/4 145/4/4
f 144/4/4 143/4/4 145/4/4
f 154/4/5 147/4/5 146/4/5
f 154/3/5 148/3/5 147/3/5
f 155/4/5 149/4/5 148/4/5
f 155/3/5 148/3/5 154/3/5
f 156/3/5 150/3/5 149/3/5
f 156/4/5 149/4/5 155/4/5
f 157/4/5 151/4/5 150/4/5
f 157/3/5 150/3/5 156/3/5
f 158/3/5 152/3/5 151/3/5
f 158/4/5 151/4/5 157/4/5
f 159/4/5 153/4/5 152/4/5
f 159/3/5 152/3/5 158/3/5
f 160/4/5 158/4/5 157/4/5
f 160/4/5 157/4/5 156/4/5
f 160/4/5 159/4/5 158/4/5
f 160/4/5 156/4/5 155/4/5
f 160/4/5 155/4/5 154/4/5
f 160/4/5 154/4/5 146/4/5
f 161/4/5 153/4/5 159/4/5
f 161/4/5 159/4/5 160/4/5
f 162/4/6 163/4/6 168/4/6
f 163/3/6 164/3/6 168/3/6
f 164/4/6 165/4/6 169/4/6
f 168/3/6 164/3/6 169/3/6
f 165/3/6 166/3/6 170/3/6
f 169/4/6 165/4/6 170/4/6
f 166/4/6 167/4/6 171/4/6
f 170/3/6 166/3/6 171/3/6
f 169/4/6 170/4/6 172/4/6
f 168/4/6 169/4/6 172/4/6
f 170/4/6 171/4/6 172/4/6
f 162/4/6 168/4/6 172/4/6
f 171/4/6 167/4/6 173/4/6
f 172/4/6 171/4/6 173/4/6
