# MagicaVoxel @ Ephtracy

# group
o 

# material
mtllib pic3.mtl
usemtl palette

# normals
vn -1 0 0
vn 1 0 0
vn 0 0 1
vn 0 0 -1
vn 0 -1 0
vn 0 1 0

# texcoords
vt 0.00195312 0.5
vt 0.00976562 0.5
vt 0.0136719 0.5
vt 0.0175781 0.5
vt 0.228516 0.5
vt 0.279297 0.5
vt 0.341797 0.5
vt 0.369141 0.5
vt 0.435547 0.5

# verts
v -0.5 0.1 0.1
v -0.5 0.1 0
v -0.5 0.1 -0.1
v -0.5 0.4 0.1
v -0.5 0.4 0
v -0.5 0.4 -0.1
v -0.5 1.1 0.1
v -0.5 1.1 0
v -0.5 1.1 -0.1
v -0.5 1.3 0.1
v -0.5 1.3 0
v -0.5 1.4 0.1
v -0.5 1.4 0
v -0.5 1.4 -0.1
v -0.4 0.4 0.1
v -0.4 0.4 0
v -0.4 0.4 -0.1
v -0.4 0.6 0.1
v -0.4 0.6 0
v -0.4 0.8 0.1
v -0.4 0.8 0
v -0.4 1 0.1
v -0.4 1 0
v -0.4 1.1 0.1
v -0.4 1.1 0
v -0.4 1.1 -0.1
v 0.3 0.1 0.1
v 0.3 0.1 0
v 0.3 0.1 -0.1
v 0.3 0.2 0.1
v 0.3 0.2 0
v 0.3 0.2 -0.1
v 0.3 1.3 0.1
v 0.3 1.3 0
v 0.3 1.3 -0.1
v 0.3 1.4 0.1
v 0.3 1.4 0
v 0.3 1.4 -0.1
v 0.4 0.3 0.1
v 0.4 0.3 0
v 0.4 0.4 0.1
v 0.4 0.4 0
v 0.4 0.5 0
v 0.4 1.1 0.1
v 0.4 1.1 0
v 0.4 1.2 0.1
v 0.4 1.2 0
v -0.3 0.3 0.1
v -0.3 0.3 0
v -0.3 0.4 0.1
v -0.3 0.4 0
v -0.3 0.5 0
v -0.3 0.6 0.1
v -0.3 0.6 0
v -0.3 0.8 0.1
v -0.3 0.8 0
v -0.3 1 0.1
v -0.3 1 0
v -0.3 1.1 0.1
v -0.3 1.1 0
v -0.3 1.2 0.1
v -0.3 1.2 0
v -0.2 0.1 0.1
v -0.2 0.1 0
v -0.2 0.1 -0.1
v -0.2 0.2 0.1
v -0.2 0.2 0
v -0.2 0.2 -0.1
v -0.2 1.3 0.1
v -0.2 1.3 0
v -0.2 1.3 -0.1
v -0.2 1.4 0.1
v -0.2 1.4 0
v -0.2 1.4 -0.1
v 0.5 0.4 0.1
v 0.5 0.4 0
v 0.5 0.4 -0.1
v 0.5 1.1 0.1
v 0.5 1.1 0
v 0.5 1.1 -0.1
v 0.6 0.1 0.1
v 0.6 0.1 0
v 0.6 0.1 -0.1
v 0.6 0.4 0.1
v 0.6 0.4 0
v 0.6 0.4 -0.1
v 0.6 1.1 0.1
v 0.6 1.1 0
v 0.6 1.1 -0.1
v 0.6 1.4 0.1
v 0.6 1.4 0
v 0.6 1.4 -0.1
v -0.5 0.1 0.1
v -0.5 0.4 0.1
v -0.5 1.1 0.1
v -0.5 1.3 0.1
v -0.5 1.4 0.1
v -0.4 0.2 0.1
v -0.4 0.3 0.1
v -0.4 0.4 0.1
v -0.4 0.6 0.1
v -0.4 0.8 0.1
v -0.4 1 0.1
v -0.4 1.1 0.1
v -0.4 1.3 0.1
v -0.4 1.4 0.1
v -0.3 0.2 0.1
v -0.3 0.3 0.1
v -0.3 0.4 0.1
v -0.3 0.6 0.1
v -0.3 0.8 0.1
v -0.3 1 0.1
v -0.3 1.1 0.1
v -0.3 1.2 0.1
v -0.3 1.3 0.1
v -0.3 1.4 0.1
v -0.2 0.1 0.1
v -0.2 0.2 0.1
v -0.2 1.3 0.1
v -0.2 1.4 0.1
v 0.1 0.2 0.1
v 0.1 0.3 0.1
v 0.1 1.2 0.1
v 0.1 1.3 0.1
v 0.3 0.1 0.1
v 0.3 0.2 0.1
v 0.3 1.3 0.1
v 0.3 1.4 0.1
v 0.4 0.3 0.1
v 0.4 0.4 0.1
v 0.4 1.1 0.1
v 0.4 1.2 0.1
v 0.5 0.4 0.1
v 0.5 1.1 0.1
v 0.5 1.3 0.1
v 0.6 0.1 0.1
v 0.6 0.4 0.1
v 0.6 1.1 0.1
v 0.6 1.4 0.1
v -0.3 0.3 0
v -0.3 0.4 0
v -0.3 0.5 0
v -0.3 0.6 0
v -0.3 0.8 0
v -0.3 1 0
v -0.3 1.1 0
v -0.3 1.2 0
v -0.2 0.7 0
v -0.2 0.8 0
v -0.2 0.9 0
v -0.1 0.7 0
v -0.1 0.8 0
v -0.1 0.9 0
v -0.1 1.1 0
v 0 0.4 0
v 0 0.5 0
v 0 0.7 0
v 0 0.9 0
v 0 1.1 0
v 0.1 0.3 0
v 0.1 0.5 0
v 0.1 0.6 0
v 0.1 0.7 0
v 0.1 1.2 0
v 0.2 0.8 0
v 0.2 0.9 0
v 0.2 1 0
v 0.2 1.1 0
v 0.3 0.6 0
v 0.3 0.9 0
v 0.3 1 0
v 0.4 0.3 0
v 0.4 0.4 0
v 0.4 0.5 0
v 0.4 1.1 0
v 0.4 1.2 0
v -0.5 0.1 -0.1
v -0.5 0.4 -0.1
v -0.5 1.1 -0.1
v -0.5 1.4 -0.1
v -0.4 0.4 -0.1
v -0.4 1.1 -0.1
v -0.3 0.3 -0.1
v -0.3 0.4 -0.1
v -0.3 0.5 -0.1
v -0.2 0.1 -0.1
v -0.2 0.2 -0.1
v -0.2 0.7 -0.1
v -0.2 0.8 -0.1
v -0.2 0.9 -0.1
v -0.2 1.3 -0.1
v -0.2 1.4 -0.1
v -0.1 0.7 -0.1
v -0.1 0.8 -0.1
v -0.1 0.9 -0.1
v -0.1 1.1 -0.1
v 0 0.4 -0.1
v 0 0.5 -0.1
v 0 0.7 -0.1
v 0 0.9 -0.1
v 0 1.1 -0.1
v 0.1 0.5 -0.1
v 0.1 0.6 -0.1
v 0.1 0.7 -0.1
v 0.2 0.8 -0.1
v 0.2 0.9 -0.1
v 0.2 1 -0.1
v 0.2 1.1 -0.1
v 0.3 0.1 -0.1
v 0.3 0.2 -0.1
v 0.3 0.6 -0.1
v 0.3 0.9 -0.1
v 0.3 1 -0.1
v 0.3 1.3 -0.1
v 0.3 1.4 -0.1
v 0.4 0.3 -0.1
v 0.4 0.5 -0.1
v 0.5 0.4 -0.1
v 0.5 1.1 -0.1
v 0.6 0.1 -0.1
v 0.6 0.4 -0.1
v 0.6 1.1 -0.1
v 0.6 1.4 -0.1
v -0.5 0.1 0.1
v -0.2 0.1 0.1
v 0.3 0.1 0.1
v 0.6 0.1 0.1
v -0.5 0.1 0
v -0.2 0.1 0
v 0.3 0.1 0
v 0.6 0.1 0
v -0.5 0.1 -0.1
v -0.2 0.1 -0.1
v 0.3 0.1 -0.1
v 0.6 0.1 -0.1
v -0.2 0.2 0.1
v 0.1 0.2 0.1
v 0.3 0.2 0.1
v -0.2 0.2 0
v 0.1 0.2 0
v 0.3 0.2 0
v -0.2 0.2 -0.1
v 0.3 0.2 -0.1
v -0.5 1.1 0.1
v -0.4 1.1 0.1
v 0.5 1.1 0.1
v 0.6 1.1 0.1
v -0.5 1.1 0
v -0.4 1.1 0
v 0.5 1.1 0
v 0.6 1.1 0
v -0.5 1.1 -0.1
v -0.4 1.1 -0.1
v 0.5 1.1 -0.1
v 0.6 1.1 -0.1
v -0.3 1.2 0.1
v 0.1 1.2 0.1
v 0.4 1.2 0.1
v -0.3 1.2 0
v 0.1 1.2 0
v 0.4 1.2 0
v -0.3 0.3 0.1
v 0.1 0.3 0.1
v 0.4 0.3 0.1
v -0.3 0.3 0
v 0.1 0.3 0
v 0.4 0.3 0
v -0.5 0.4 0.1
v -0.4 0.4 0.1
v 0.5 0.4 0.1
v 0.6 0.4 0.1
v -0.5 0.4 0
v -0.4 0.4 0
v 0.5 0.4 0
v 0.6 0.4 0
v -0.5 0.4 -0.1
v -0.4 0.4 -0.1
v 0.5 0.4 -0.1
v 0.6 0.4 -0.1
v -0.2 1.3 0.1
v 0.1 1.3 0.1
v 0.3 1.3 0.1
v -0.2 1.3 0
v 0.1 1.3 0
v 0.3 1.3 0
v -0.2 1.3 -0.1
v 0.3 1.3 -0.1
v -0.5 1.4 0.1
v -0.4 1.4 0.1
v -0.3 1.4 0.1
v -0.2 1.4 0.1
v 0.3 1.4 0.1
v 0.6 1.4 0.1
v -0.5 1.4 0
v -0.4 1.4 0
v -0.3 1.4 0
v -0.2 1.4 0
v 0.3 1.4 0
v 0.6 1.4 0
v -0.5 1.4 -0.1
v -0.2 1.4 -0.1
v 0.3 1.4 -0.1
v 0.6 1.4 -0.1

# faces
f 4/2/1 2/2/1 1/2/1
f 5/5/1 3/5/1 2/5/1
f 5/2/1 2/2/1 4/2/1
f 6/5/1 3/5/1 5/5/1
f 10/3/1 8/3/1 7/3/1
f 11/5/1 9/5/1 8/5/1
f 11/3/1 8/3/1 10/3/1
f 12/2/1 11/2/1 10/2/1
f 13/5/1 9/5/1 11/5/1
f 13/2/1 11/2/1 12/2/1
f 14/5/1 9/5/1 13/5/1
f 18/3/1 16/3/1 15/3/1
f 19/5/1 17/5/1 16/5/1
f 19/3/1 16/3/1 18/3/1
f 20/2/1 19/2/1 18/2/1
f 21/5/1 17/5/1 19/5/1
f 21/2/1 19/2/1 20/2/1
f 22/3/1 21/3/1 20/3/1
f 23/5/1 17/5/1 21/5/1
f 23/3/1 21/3/1 22/3/1
f 24/2/1 23/2/1 22/2/1
f 25/5/1 17/5/1 23/5/1
f 25/2/1 23/2/1 24/2/1
f 26/5/1 17/5/1 25/5/1
f 30/4/1 28/4/1 27/4/1
f 31/5/1 29/5/1 28/5/1
f 31/4/1 28/4/1 30/4/1
f 32/5/1 29/5/1 31/5/1
f 36/2/1 34/2/1 33/2/1
f 37/5/1 35/5/1 34/5/1
f 37/2/1 34/2/1 36/2/1
f 38/5/1 35/5/1 37/5/1
f 41/4/1 40/4/1 39/4/1
f 42/4/1 40/4/1 41/4/1
f 43/2/1 42/2/1 41/2/1
f 44/2/1 43/2/1 41/2/1
f 45/2/1 43/2/1 44/2/1
f 46/1/1 45/1/1 44/1/1
f 47/1/1 45/1/1 46/1/1
f 48/2/2 49/2/2 50/2/2
f 50/2/2 49/2/2 51/2/2
f 50/3/2 51/3/2 52/3/2
f 50/3/2 52/3/2 53/3/2
f 53/3/2 52/3/2 54/3/2
f 53/2/2 54/2/2 55/2/2
f 55/2/2 54/2/2 56/2/2
f 55/3/2 56/3/2 57/3/2
f 57/3/2 56/3/2 58/3/2
f 57/2/2 58/2/2 59/2/2
f 59/2/2 58/2/2 60/2/2
f 59/3/2 60/3/2 61/3/2
f 61/3/2 60/3/2 62/3/2
f 63/2/2 64/2/2 66/2/2
f 64/5/2 65/5/2 67/5/2
f 66/2/2 64/2/2 67/2/2
f 67/5/2 65/5/2 68/5/2
f 69/2/2 70/2/2 72/2/2
f 70/5/2 71/5/2 73/5/2
f 72/2/2 70/2/2 73/2/2
f 73/5/2 71/5/2 74/5/2
f 75/2/2 76/2/2 78/2/2
f 76/5/2 77/5/2 79/5/2
f 78/2/2 76/2/2 79/2/2
f 79/5/2 77/5/2 80/5/2
f 81/4/2 82/4/2 84/4/2
f 82/5/2 83/5/2 85/5/2
f 84/4/2 82/4/2 85/4/2
f 85/5/2 83/5/2 86/5/2
f 87/2/2 88/2/2 90/2/2
f 88/5/2 89/5/2 91/5/2
f 90/2/2 88/2/2 91/2/2
f 91/5/2 89/5/2 92/5/2
f 98/2/3 94/2/3 93/2/3
f 99/2/3 94/2/3 98/2/3
f 100/2/3 94/2/3 99/2/3
f 104/3/3 96/3/3 95/3/3
f 105/2/3 97/2/3 96/2/3
f 105/3/3 96/3/3 104/3/3
f 106/2/3 97/2/3 105/2/3
f 107/2/3 98/2/3 93/2/3
f 107/3/3 99/3/3 98/3/3
f 108/2/3 100/2/3 99/2/3
f 108/3/3 99/3/3 107/3/3
f 109/3/3 101/3/3 100/3/3
f 109/2/3 100/2/3 108/2/3
f 110/2/3 102/2/3 101/2/3
f 110/3/3 101/3/3 109/3/3
f 111/3/3 103/3/3 102/3/3
f 111/2/3 102/2/3 110/2/3
f 112/2/3 104/2/3 103/2/3
f 112/3/3 103/3/3 111/3/3
f 113/3/3 106/3/3 105/3/3
f 113/2/3 104/2/3 112/2/3
f 113/3/3 105/3/3 104/3/3
f 114/3/3 106/3/3 113/3/3
f 115/3/3 106/3/3 114/3/3
f 116/3/3 106/3/3 115/3/3
f 117/2/3 107/2/3 93/2/3
f 117/2/3 108/2/3 107/2/3
f 118/2/3 108/2/3 117/2/3
f 119/2/3 116/2/3 115/2/3
f 119/3/3 115/3/3 114/3/3
f 120/2/3 116/2/3 119/2/3
f 121/2/3 108/2/3 118/2/3
f 122/2/3 108/2/3 121/2/3
f 123/3/3 119/3/3 114/3/3
f 124/3/3 119/3/3 123/3/3
f 126/4/3 122/4/3 121/4/3
f 127/1/3 124/1/3 123/1/3
f 129/4/3 126/4/3 125/4/3
f 129/4/3 122/4/3 126/4/3
f 132/1/3 127/1/3 123/1/3
f 133/2/3 131/2/3 130/2/3
f 133/4/3 130/4/3 129/4/3
f 134/1/3 132/1/3 131/1/3
f 134/2/3 131/2/3 133/2/3
f 135/2/3 128/2/3 127/2/3
f 135/1/3 132/1/3 134/1/3
f 135/1/3 127/1/3 132/1/3
f 136/4/3 133/4/3 129/4/3
f 136/4/3 129/4/3 125/4/3
f 137/4/3 133/4/3 136/4/3
f 138/2/3 135/2/3 134/2/3
f 139/2/3 128/2/3 135/2/3
f 139/2/3 135/2/3 138/2/3
f 148/5/3 143/5/3 142/5/3
f 148/5/3 147/5/3 146/5/3
f 148/5/3 146/5/3 145/5/3
f 148/5/3 145/5/3 144/5/3
f 148/5/3 144/5/3 143/5/3
f 149/5/3 147/5/3 148/5/3
f 150/5/3 147/5/3 149/5/3
f 151/5/3 148/5/3 142/5/3
f 151/7/3 149/7/3 148/7/3
f 152/9/3 150/9/3 149/9/3
f 152/7/3 149/7/3 151/7/3
f 153/5/3 147/5/3 150/5/3
f 153/9/3 150/9/3 152/9/3
f 154/5/3 147/5/3 153/5/3
f 155/6/3 141/6/3 140/6/3
f 155/7/3 142/7/3 141/7/3
f 156/5/3 151/5/3 142/5/3
f 156/7/3 142/7/3 155/7/3
f 157/6/3 152/6/3 151/6/3
f 157/5/3 151/5/3 156/5/3
f 158/9/3 154/9/3 153/9/3
f 158/7/3 153/7/3 152/7/3
f 159/5/3 147/5/3 154/5/3
f 159/9/3 154/9/3 158/9/3
f 160/6/3 156/6/3 155/6/3
f 160/6/3 155/6/3 140/6/3
f 161/8/3 157/8/3 156/8/3
f 161/6/3 156/6/3 160/6/3
f 162/8/3 157/8/3 161/8/3
f 163/6/3 152/6/3 157/6/3
f 163/8/3 157/8/3 162/8/3
f 164/5/3 147/5/3 159/5/3
f 165/7/3 158/7/3 152/7/3
f 165/6/3 152/6/3 163/6/3
f 165/7/3 159/7/3 158/7/3
f 165/6/3 163/6/3 162/6/3
f 166/7/3 159/7/3 165/7/3
f 167/7/3 159/7/3 166/7/3
f 168/5/3 164/5/3 159/5/3
f 168/7/3 159/7/3 167/7/3
f 169/5/3 162/5/3 161/5/3
f 169/6/3 165/6/3 162/6/3
f 169/6/3 166/6/3 165/6/3
f 170/7/3 167/7/3 166/7/3
f 170/6/3 166/6/3 169/6/3
f 171/5/3 168/5/3 167/5/3
f 171/7/3 167/7/3 170/7/3
f 172/6/3 161/6/3 160/6/3
f 173/6/3 161/6/3 172/6/3
f 174/5/3 169/5/3 161/5/3
f 174/6/3 161/6/3 173/6/3
f 174/5/3 170/5/3 169/5/3
f 174/5/3 171/5/3 170/5/3
f 175/5/3 164/5/3 168/5/3
f 175/5/3 171/5/3 174/5/3
f 175/5/3 168/5/3 171/5/3
f 176/5/3 164/5/3 175/5/3
f 177/5/4 178/5/4 181/5/4
f 179/5/4 180/5/4 182/5/4
f 177/5/4 181/5/4 183/5/4
f 181/5/4 182/5/4 183/5/4
f 183/5/4 182/5/4 184/5/4
f 184/5/4 182/5/4 185/5/4
f 177/5/4 183/5/4 186/5/4
f 186/5/4 183/5/4 187/5/4
f 185/5/4 182/5/4 188/5/4
f 188/5/4 182/5/4 189/5/4
f 189/5/4 182/5/4 190/5/4
f 182/5/4 180/5/4 191/5/4
f 190/5/4 182/5/4 191/5/4
f 191/5/4 180/5/4 192/5/4
f 185/5/4 188/5/4 193/5/4
f 188/7/4 189/7/4 193/7/4
f 189/9/4 190/9/4 194/9/4
f 193/7/4 189/7/4 194/7/4
f 190/5/4 191/5/4 195/5/4
f 194/9/4 190/9/4 195/9/4
f 195/5/4 191/5/4 196/5/4
f 183/6/4 184/6/4 197/6/4
f 184/7/4 185/7/4 197/7/4
f 185/5/4 193/5/4 198/5/4
f 197/7/4 185/7/4 198/7/4
f 193/6/4 194/6/4 199/6/4
f 198/5/4 193/5/4 199/5/4
f 195/9/4 196/9/4 200/9/4
f 194/7/4 195/7/4 200/7/4
f 196/5/4 191/5/4 201/5/4
f 200/9/4 196/9/4 201/9/4
f 197/6/4 198/6/4 202/6/4
f 198/8/4 199/8/4 202/8/4
f 202/8/4 199/8/4 203/8/4
f 199/6/4 194/6/4 204/6/4
f 203/8/4 199/8/4 204/8/4
f 194/7/4 200/7/4 205/7/4
f 204/6/4 194/6/4 205/6/4
f 203/6/4 204/6/4 205/6/4
f 200/7/4 201/7/4 205/7/4
f 205/7/4 201/7/4 206/7/4
f 206/7/4 201/7/4 207/7/4
f 201/5/4 191/5/4 208/5/4
f 207/7/4 201/7/4 208/7/4
f 187/5/4 183/5/4 210/5/4
f 202/5/4 203/5/4 211/5/4
f 203/6/4 205/6/4 211/6/4
f 205/6/4 206/6/4 211/6/4
f 206/7/4 207/7/4 212/7/4
f 211/6/4 206/6/4 212/6/4
f 207/5/4 208/5/4 213/5/4
f 212/7/4 207/7/4 213/7/4
f 208/5/4 191/5/4 214/5/4
f 213/5/4 208/5/4 214/5/4
f 183/6/4 197/6/4 216/6/4
f 197/6/4 202/6/4 216/6/4
f 209/5/4 210/5/4 216/5/4
f 210/5/4 183/5/4 216/5/4
f 214/5/4 215/5/4 217/5/4
f 216/6/4 202/6/4 217/6/4
f 212/5/4 213/5/4 217/5/4
f 213/5/4 214/5/4 217/5/4
f 202/5/4 211/5/4 217/5/4
f 211/5/4 212/5/4 217/5/4
f 216/5/4 217/5/4 218/5/4
f 217/5/4 215/5/4 219/5/4
f 218/5/4 217/5/4 219/5/4
f 209/5/4 216/5/4 220/5/4
f 216/5/4 218/5/4 220/5/4
f 220/5/4 218/5/4 221/5/4
f 219/5/4 215/5/4 222/5/4
f 222/5/4 215/5/4 223/5/4
f 228/2/5 225/2/5 224/2/5
f 229/2/5 225/2/5 228/2/5
f 230/4/5 227/4/5 226/4/5
f 231/4/5 227/4/5 230/4/5
f 232/5/5 229/5/5 228/5/5
f 233/5/5 229/5/5 232/5/5
f 234/5/5 231/5/5 230/5/5
f 235/5/5 231/5/5 234/5/5
f 239/2/5 237/2/5 236/2/5
f 240/4/5 238/4/5 237/4/5
f 240/2/5 237/2/5 239/2/5
f 241/4/5 238/4/5 240/4/5
f 242/5/5 240/5/5 239/5/5
f 242/5/5 241/5/5 240/5/5
f 243/5/5 241/5/5 242/5/5
f 248/3/5 245/3/5 244/3/5
f 249/3/5 245/3/5 248/3/5
f 250/2/5 247/2/5 246/2/5
f 251/2/5 247/2/5 250/2/5
f 252/5/5 249/5/5 248/5/5
f 253/5/5 249/5/5 252/5/5
f 254/5/5 251/5/5 250/5/5
f 255/5/5 251/5/5 254/5/5
f 259/3/5 257/3/5 256/3/5
f 260/1/5 258/1/5 257/1/5
f 260/3/5 257/3/5 259/3/5
f 261/1/5 258/1/5 260/1/5
f 262/2/6 263/2/6 265/2/6
f 263/4/6 264/4/6 266/4/6
f 265/2/6 263/2/6 266/2/6
f 266/4/6 264/4/6 267/4/6
f 268/2/6 269/2/6 272/2/6
f 272/2/6 269/2/6 273/2/6
f 270/4/6 271/4/6 274/4/6
f 274/4/6 271/4/6 275/4/6
f 272/5/6 273/5/6 276/5/6
f 276/5/6 273/5/6 277/5/6
f 274/5/6 275/5/6 278/5/6
f 278/5/6 275/5/6 279/5/6
f 280/3/6 281/3/6 283/3/6
f 281/1/6 282/1/6 284/1/6
f 283/3/6 281/3/6 284/3/6
f 284/1/6 282/1/6 285/1/6
f 283/5/6 284/5/6 286/5/6
f 284/5/6 285/5/6 286/5/6
f 286/5/6 285/5/6 287/5/6
f 288/2/6 289/2/6 294/2/6
f 289/3/6 290/3/6 295/3/6
f 294/2/6 289/2/6 295/2/6
f 290/2/6 291/2/6 296/2/6
f 295/3/6 290/3/6 296/3/6
f 296/2/6 291/2/6 297/2/6
f 292/2/6 293/2/6 298/2/6
f 298/2/6 293/2/6 299/2/6
f 296/5/6 297/5/6 300/5/6
f 294/5/6 295/5/6 300/5/6
f 295/5/6 296/5/6 300/5/6
f 300/5/6 297/5/6 301/5/6
f 298/5/6 299/5/6 302/5/6
f 302/5/6 299/5/6 303/5/6
