# MagicaVoxel @ Ephtracy

# group
o 

# material
mtllib pic4.mtl
usemtl palette

# normals
vn -1 0 0
vn 1 0 0
vn 0 0 1
vn 0 0 -1
vn 0 -1 0
vn 0 1 0

# texcoords
vt 0.00195312 0.5
vt 0.00976562 0.5
vt 0.0136719 0.5
vt 0.0644531 0.5
vt 0.177734 0.5
vt 0.208984 0.5
vt 0.212891 0.5
vt 0.216797 0.5
vt 0.373047 0.5
vt 0.494141 0.5
vt 0.681641 0.5

# verts
v -2 0 0.1
v -2 0 -0.1
v -2 0.4 0.1
v -2 0.4 0
v -2 0.8 0.1
v -2 0.8 0
v -2 1.1 0.1
v -2 1.1 0
v -2 1.8 0.1
v -2 1.8 0
v -2 2 0.1
v -2 2 -0.1
v 2 0 0.1
v 2 0 -0.1
v 2 0.3 0.1
v 2 0.3 -0.1
v 2 0.6 0.1
v 2 0.6 -0.1
v 2 0.8 0.1
v 2 0.8 0
v 2 1.7 0.1
v 2 1.7 0
v 2 2 0.1
v 2 2 -0.1
v -2 0 0.1
v -2 0.4 0.1
v -2 0.8 0.1
v -2 1.1 0.1
v -2 1.8 0.1
v -2 2 0.1
v -1.9 0.1 0.1
v -1.9 0.3 0.1
v -1.9 0.4 0.1
v -1.9 0.6 0.1
v -1.9 0.8 0.1
v -1.9 1.1 0.1
v -1.9 1.2 0.1
v -1.9 1.6 0.1
v -1.9 1.8 0.1
v -1.9 1.9 0.1
v -1.8 0.3 0.1
v -1.8 0.4 0.1
v -1.7 1.9 0.1
v -1.7 2 0.1
v -1.6 0.2 0.1
v -1.6 0.3 0.1
v -1.6 1.3 0.1
v -1.6 1.4 0.1
v -1.6 1.5 0.1
v -1.6 1.6 0.1
v -1.6 1.9 0.1
v -1.6 2 0.1
v -1.5 0.2 0.1
v -1.5 0.3 0.1
v -1.5 0.5 0.1
v -1.5 0.6 0.1
v -1.5 1.5 0.1
v -1.5 1.6 0.1
v -1.4 0.3 0.1
v -1.4 0.5 0.1
v -1.4 1.3 0.1
v -1.4 1.4 0.1
v -1.4 1.9 0.1
v -1.4 2 0.1
v -1.3 0 0.1
v -1.3 0.1 0.1
v -1.3 0.3 0.1
v -1.3 0.5 0.1
v -1.3 1.2 0.1
v -1.3 1.3 0.1
v -1.2 0.2 0.1
v -1.2 0.3 0.1
v -1.1 0 0.1
v -1.1 0.1 0.1
v -1.1 0.5 0.1
v -1.1 0.6 0.1
v -1.1 1.5 0.1
v -1.1 1.6 0.1
v -1.1 1.7 0.1
v -1 0.2 0.1
v -1 0.3 0.1
v -0.9 0.4 0.1
v -0.9 0.5 0.1
v -0.9 0.6 0.1
v -0.9 0.7 0.1
v -0.9 1.5 0.1
v -0.9 1.6 0.1
v -0.8 0 0.1
v -0.8 0.1 0.1
v -0.8 0.4 0.1
v -0.8 0.5 0.1
v -0.8 1.3 0.1
v -0.8 1.4 0.1
v -0.7 0.1 0.1
v -0.7 0.2 0.1
v -0.7 0.5 0.1
v -0.7 0.6 0.1
v -0.7 1 0.1
v -0.7 1.1 0.1
v -0.7 1.5 0.1
v -0.7 1.6 0.1
v -0.6 0.1 0.1
v -0.6 0.2 0.1
v -0.6 0.3 0.1
v -0.6 0.4 0.1
v -0.6 1.9 0.1
v -0.6 2 0.1
v -0.5 0.3 0.1
v -0.5 0.4 0.1
v -0.5 0.5 0.1
v -0.5 0.6 0.1
v -0.5 0.8 0.1
v -0.5 0.9 0.1
v -0.5 1 0.1
v -0.5 1.1 0.1
v -0.5 1.7 0.1
v -0.5 1.8 0.1
v -0.4 0.2 0.1
v -0.4 0.3 0.1
v -0.4 0.5 0.1
v -0.4 0.6 0.1
v -0.4 0.8 0.1
v -0.4 0.9 0.1
v -0.4 1 0.1
v -0.3 0.2 0.1
v -0.3 0.3 0.1
v -0.3 0.5 0.1
v -0.3 0.6 0.1
v -0.3 1.1 0.1
v -0.3 1.2 0.1
v -0.2 0.1 0.1
v -0.2 0.2 0.1
v -0.2 0.5 0.1
v -0.2 0.7 0.1
v -0.2 1 0.1
v -0.2 1.1 0.1
v -0.2 1.2 0.1
v -0.2 1.4 0.1
v -0.0999999 0.8 0.1
v -0.0999999 0.9 0.1
v -0.0999999 1.4 0.1
v -0.0999999 1.5 0.1
v -0.0999999 1.7 0.1
v -0.0999999 1.8 0.1
v 2.38419e-07 0.1 0.1
v 2.38419e-07 0.2 0.1
v 2.38419e-07 0.5 0.1
v 2.38419e-07 0.6 0.1
v 2.38419e-07 1.9 0.1
v 2.38419e-07 2 0.1
v 0.1 0.3 0.1
v 0.1 0.4 0.1
v 0.2 0.3 0.1
v 0.2 0.4 0.1
v 0.3 0 0.1
v 0.3 0.1 0.1
v 0.3 0.4 0.1
v 0.3 0.5 0.1
v 0.3 0.9 0.1
v 0.3 1 0.1
v 0.3 1.4 0.1
v 0.3 1.5 0.1
v 0.4 0.2 0.1
v 0.4 0.3 0.1
v 0.4 0.4 0.1
v 0.4 0.5 0.1
v 0.4 0.8 0.1
v 0.4 0.9 0.1
v 0.4 1.2 0.1
v 0.4 1.4 0.1
v 0.5 0.8 0.1
v 0.5 0.9 0.1
v 0.5 1 0.1
v 0.5 1.1 0.1
v 0.6 0.1 0.1
v 0.6 0.2 0.1
v 0.6 0.3 0.1
v 0.6 0.4 0.1
v 0.6 0.5 0.1
v 0.6 1.1 0.1
v 0.6 1.2 0.1
v 0.7 0 0.1
v 0.7 0.1 0.1
v 0.7 0.2 0.1
v 0.7 0.4 0.1
v 0.7 0.5 0.1
v 0.7 0.6 0.1
v 0.7 0.7 0.1
v 0.7 0.8 0.1
v 0.7 0.9 0.1
v 0.7 1 0.1
v 0.7 1.1 0.1
v 0.7 1.3 0.1
v 0.7 1.4 0.1
v 0.7 1.7 0.1
v 0.7 1.8 0.1
v 0.7 1.9 0.1
v 0.7 2 0.1
v 0.9 0.1 0.1
v 0.9 0.2 0.1
v 0.9 0.4 0.1
v 0.9 0.5 0.1
v 0.9 1 0.1
v 0.9 1.1 0.1
v 0.9 1.7 0.1
v 0.9 1.8 0.1
v 1 0.1 0.1
v 1 0.2 0.1
v 1 0.4 0.1
v 1 0.5 0.1
v 1 0.6 0.1
v 1 1.4 0.1
v 1 1.5 0.1
v 1.1 0.1 0.1
v 1.1 0.3 0.1
v 1.1 0.5 0.1
v 1.1 0.6 0.1
v 1.1 1.2 0.1
v 1.1 1.3 0.1
v 1.1 1.9 0.1
v 1.1 2 0.1
v 1.2 0.2 0.1
v 1.2 0.3 0.1
v 1.2 0.6 0.1
v 1.2 0.7 0.1
v 1.2 1.2 0.1
v 1.2 1.3 0.1
v 1.2 1.5 0.1
v 1.2 1.6 0.1
v 1.3 0 0.1
v 1.3 0.1 0.1
v 1.3 0.2 0.1
v 1.3 0.3 0.1
v 1.3 0.4 0.1
v 1.3 1.9 0.1
v 1.3 2 0.1
v 1.4 0.3 0.1
v 1.4 0.4 0.1
v 1.4 1.2 0.1
v 1.4 1.3 0.1
v 1.4 1.4 0.1
v 1.4 1.5 0.1
v 1.4 1.6 0.1
v 1.4 1.7 0.1
v 1.5 0.2 0.1
v 1.5 0.3 0.1
v 1.5 0.4 0.1
v 1.5 0.5 0.1
v 1.5 1.4 0.1
v 1.5 1.5 0.1
v 1.6 0.2 0.1
v 1.6 0.3 0.1
v 1.6 0.4 0.1
v 1.6 0.5 0.1
v 1.6 1.4 0.1
v 1.6 1.5 0.1
v 1.6 1.6 0.1
v 1.7 0.3 0.1
v 1.7 0.4 0.1
v 1.7 1.5 0.1
v 1.7 1.6 0.1
v 1.8 0.3 0.1
v 1.8 0.4 0.1
v 1.8 0.5 0.1
v 1.8 0.6 0.1
v 1.9 0.1 0.1
v 1.9 0.3 0.1
v 1.9 0.5 0.1
v 1.9 0.6 0.1
v 1.9 0.8 0.1
v 1.9 1.2 0.1
v 1.9 1.6 0.1
v 1.9 1.7 0.1
v 1.9 1.9 0.1
v 2 0 0.1
v 2 0.3 0.1
v 2 0.6 0.1
v 2 0.8 0.1
v 2 1.7 0.1
v 2 2 0.1
v -2 0 -0.1
v -2 2 -0.1
v 1.9 0.3 -0.1
v 1.9 0.6 -0.1
v 2 0 -0.1
v 2 0.3 -0.1
v 2 0.6 -0.1
v 2 2 -0.1
v -2 0 0.1
v -1.3 0 0.1
v -1.1 0 0.1
v -0.8 0 0.1
v 0.3 0 0.1
v 0.7 0 0.1
v 1.3 0 0.1
v 2 0 0.1
v -1.3 0 0
v -1.1 0 0
v -0.8 0 0
v 0.3 0 0
v 0.7 0 0
v 1.3 0 0
v -2 0 -0.1
v 2 0 -0.1
v -2 2 0.1
v -1.7 2 0.1
v -1.6 2 0.1
v -1.4 2 0.1
v -0.6 2 0.1
v 2.38419e-07 2 0.1
v 0.7 2 0.1
v 1.1 2 0.1
v 1.3 2 0.1
v 2 2 0.1
v -1.7 2 0
v -1.6 2 0
v -1.4 2 0
v -0.6 2 0
v 2.38419e-07 2 0
v 0.7 2 0
v 1.1 2 0
v 1.3 2 0
v -2 2 -0.1
v 2 2 -0.1

# faces
f 3/4/1 2/4/1 1/4/1
f 4/4/1 2/4/1 3/4/1
f 5/9/1 4/9/1 3/9/1
f 6/4/1 2/4/1 4/4/1
f 6/9/1 4/9/1 5/9/1
f 7/4/1 6/4/1 5/4/1
f 8/4/1 2/4/1 6/4/1
f 8/4/1 6/4/1 7/4/1
f 9/9/1 8/9/1 7/9/1
f 10/4/1 2/4/1 8/4/1
f 10/9/1 8/9/1 9/9/1
f 11/4/1 10/4/1 9/4/1
f 12/4/1 2/4/1 10/4/1
f 12/4/1 10/4/1 11/4/1
f 13/4/2 14/4/2 15/4/2
f 15/4/2 14/4/2 16/4/2
f 15/9/2 16/9/2 17/9/2
f 17/9/2 16/9/2 18/9/2
f 17/4/2 18/4/2 19/4/2
f 19/4/2 18/4/2 20/4/2
f 19/9/2 20/9/2 21/9/2
f 20/4/2 18/4/2 22/4/2
f 21/9/2 20/9/2 22/9/2
f 21/4/2 22/4/2 23/4/2
f 22/4/2 18/4/2 24/4/2
f 23/4/2 22/4/2 24/4/2
f 31/4/3 26/4/3 25/4/3
f 32/4/3 26/4/3 31/4/3
f 33/9/3 27/9/3 26/9/3
f 33/4/3 26/4/3 32/4/3
f 34/9/3 27/9/3 33/9/3
f 35/4/3 28/4/3 27/4/3
f 35/9/3 27/9/3 34/9/3
f 36/9/3 29/9/3 28/9/3
f 36/4/3 28/4/3 35/4/3
f 37/9/3 29/9/3 36/9/3
f 38/9/3 29/9/3 37/9/3
f 39/4/3 30/4/3 29/4/3
f 39/9/3 29/9/3 38/9/3
f 40/4/3 30/4/3 39/4/3
f 41/2/3 32/2/3 31/2/3
f 41/3/3 33/3/3 32/3/3
f 42/2/3 34/2/3 33/2/3
f 42/3/3 33/3/3 41/3/3
f 43/4/3 30/4/3 40/4/3
f 43/11/3 40/11/3 39/11/3
f 43/11/3 39/11/3 38/11/3
f 44/4/3 30/4/3 43/4/3
f 45/2/3 41/2/3 31/2/3
f 45/2/3 42/2/3 41/2/3
f 46/2/3 42/2/3 45/2/3
f 47/7/3 38/7/3 37/7/3
f 48/7/3 38/7/3 47/7/3
f 49/7/3 38/7/3 48/7/3
f 50/11/3 43/11/3 38/11/3
f 50/7/3 38/7/3 49/7/3
f 51/9/3 44/9/3 43/9/3
f 51/11/3 43/11/3 50/11/3
f 52/9/3 44/9/3 51/9/3
f 53/2/3 45/2/3 31/2/3
f 53/3/3 46/3/3 45/3/3
f 54/2/3 42/2/3 46/2/3
f 54/3/3 46/3/3 53/3/3
f 55/2/3 34/2/3 42/2/3
f 55/2/3 42/2/3 54/2/3
f 56/1/3 35/1/3 34/1/3
f 56/2/3 34/2/3 55/2/3
f 57/11/3 50/11/3 49/11/3
f 57/7/3 49/7/3 48/7/3
f 57/11/3 51/11/3 50/11/3
f 58/11/3 51/11/3 57/11/3
f 59/2/3 54/2/3 53/2/3
f 59/2/3 55/2/3 54/2/3
f 60/1/3 56/1/3 55/1/3
f 60/2/3 55/2/3 59/2/3
f 61/7/3 47/7/3 37/7/3
f 61/8/3 48/8/3 47/8/3
f 62/7/3 58/7/3 57/7/3
f 62/8/3 48/8/3 61/8/3
f 62/7/3 57/7/3 48/7/3
f 63/11/3 51/11/3 58/11/3
f 63/4/3 52/4/3 51/4/3
f 64/4/3 52/4/3 63/4/3
f 65/4/3 31/4/3 25/4/3
f 66/2/3 53/2/3 31/2/3
f 66/4/3 31/4/3 65/4/3
f 66/2/3 59/2/3 53/2/3
f 67/3/3 60/3/3 59/3/3
f 67/2/3 59/2/3 66/2/3
f 68/1/3 56/1/3 60/1/3
f 68/3/3 60/3/3 67/3/3
f 69/7/3 61/7/3 37/7/3
f 69/10/3 36/10/3 35/10/3
f 69/10/3 37/10/3 36/10/3
f 69/7/3 62/7/3 61/7/3
f 70/7/3 62/7/3 69/7/3
f 71/2/3 68/2/3 67/2/3
f 71/2/3 67/2/3 66/2/3
f 72/2/3 68/2/3 71/2/3
f 73/9/3 66/9/3 65/9/3
f 74/2/3 71/2/3 66/2/3
f 74/9/3 66/9/3 73/9/3
f 75/1/3 56/1/3 68/1/3
f 75/2/3 68/2/3 72/2/3
f 76/1/3 35/1/3 56/1/3
f 76/1/3 56/1/3 75/1/3
f 77/7/3 58/7/3 62/7/3
f 77/7/3 62/7/3 70/7/3
f 78/11/3 63/11/3 58/11/3
f 78/7/3 58/7/3 77/7/3
f 79/11/3 63/11/3 78/11/3
f 80/2/3 71/2/3 74/2/3
f 80/3/3 72/3/3 71/3/3
f 81/2/3 75/2/3 72/2/3
f 81/3/3 72/3/3 80/3/3
f 81/2/3 76/2/3 75/2/3
f 82/2/3 81/2/3 80/2/3
f 82/2/3 76/2/3 81/2/3
f 83/2/3 76/2/3 82/2/3
f 84/1/3 35/1/3 76/1/3
f 84/2/3 76/2/3 83/2/3
f 85/1/3 35/1/3 84/1/3
f 86/11/3 78/11/3 77/11/3
f 86/7/3 77/7/3 70/7/3
f 87/7/3 79/7/3 78/7/3
f 87/11/3 78/11/3 86/11/3
f 88/4/3 74/4/3 73/4/3
f 89/2/3 80/2/3 74/2/3
f 89/4/3 74/4/3 88/4/3
f 89/2/3 82/2/3 80/2/3
f 90/3/3 83/3/3 82/3/3
f 90/2/3 82/2/3 89/2/3
f 91/2/3 85/2/3 84/2/3
f 91/3/3 83/3/3 90/3/3
f 91/2/3 84/2/3 83/2/3
f 92/8/3 70/8/3 69/8/3
f 92/7/3 86/7/3 70/7/3
f 93/7/3 86/7/3 92/7/3
f 94/9/3 89/9/3 88/9/3
f 94/2/3 90/2/3 89/2/3
f 94/2/3 91/2/3 90/2/3
f 95/2/3 91/2/3 94/2/3
f 96/2/3 85/2/3 91/2/3
f 96/2/3 91/2/3 95/2/3
f 97/2/3 85/2/3 96/2/3
f 98/10/3 69/10/3 35/10/3
f 99/10/3 69/10/3 98/10/3
f 100/7/3 86/7/3 93/7/3
f 100/8/3 87/8/3 86/8/3
f 101/7/3 79/7/3 87/7/3
f 101/8/3 87/8/3 100/8/3
f 102/3/3 95/3/3 94/3/3
f 102/9/3 94/9/3 88/9/3
f 103/2/3 96/2/3 95/2/3
f 103/3/3 95/3/3 102/3/3
f 104/2/3 96/2/3 103/2/3
f 105/2/3 96/2/3 104/2/3
f 106/11/3 63/11/3 79/11/3
f 106/9/3 64/9/3 63/9/3
f 107/9/3 64/9/3 106/9/3
f 108/3/3 105/3/3 104/3/3
f 108/2/3 103/2/3 102/2/3
f 108/2/3 104/2/3 103/2/3
f 109/2/3 96/2/3 105/2/3
f 109/3/3 105/3/3 108/3/3
f 110/3/3 97/3/3 96/3/3
f 110/2/3 96/2/3 109/2/3
f 111/2/3 85/2/3 97/2/3
f 111/3/3 97/3/3 110/3/3
f 112/1/3 35/1/3 85/1/3
f 112/10/3 98/10/3 35/10/3
f 113/10/3 98/10/3 112/10/3
f 114/3/3 99/3/3 98/3/3
f 114/10/3 98/10/3 113/10/3
f 115/10/3 69/10/3 99/10/3
f 115/3/3 99/3/3 114/3/3
f 116/7/3 79/7/3 101/7/3
f 116/7/3 101/7/3 100/7/3
f 116/11/3 106/11/3 79/11/3
f 117/11/3 106/11/3 116/11/3
f 118/2/3 108/2/3 102/2/3
f 118/2/3 110/2/3 109/2/3
f 118/2/3 109/2/3 108/2/3
f 118/2/3 111/2/3 110/2/3
f 119/2/3 111/2/3 118/2/3
f 120/2/3 111/2/3 119/2/3
f 121/2/3 85/2/3 111/2/3
f 121/2/3 111/2/3 120/2/3
f 122/3/3 113/3/3 112/3/3
f 122/1/3 112/1/3 85/1/3
f 123/10/3 114/10/3 113/10/3
f 123/3/3 113/3/3 122/3/3
f 123/10/3 115/10/3 114/10/3
f 124/10/3 115/10/3 123/10/3
f 125/3/3 119/3/3 118/3/3
f 125/2/3 118/2/3 102/2/3
f 126/2/3 120/2/3 119/2/3
f 126/3/3 119/3/3 125/3/3
f 127/3/3 121/3/3 120/3/3
f 127/2/3 120/2/3 126/2/3
f 128/2/3 85/2/3 121/2/3
f 128/3/3 121/3/3 127/3/3
f 129/10/3 69/10/3 115/10/3
f 129/10/3 115/10/3 124/10/3
f 130/8/3 93/8/3 92/8/3
f 130/10/3 69/10/3 129/10/3
f 130/8/3 92/8/3 69/8/3
f 131/2/3 125/2/3 102/2/3
f 131/2/3 127/2/3 126/2/3
f 131/2/3 128/2/3 127/2/3
f 131/9/3 102/9/3 88/9/3
f 131/2/3 126/2/3 125/2/3
f 132/2/3 128/2/3 131/2/3
f 133/2/3 128/2/3 132/2/3
f 134/1/3 122/1/3 85/1/3
f 134/2/3 128/2/3 133/2/3
f 134/2/3 85/2/3 128/2/3
f 135/10/3 129/10/3 124/10/3
f 135/5/3 124/5/3 123/5/3
f 136/5/3 130/5/3 129/5/3
f 136/10/3 129/10/3 135/10/3
f 137/8/3 93/8/3 130/8/3
f 137/5/3 130/5/3 136/5/3
f 138/7/3 100/7/3 93/7/3
f 138/8/3 93/8/3 137/8/3
f 138/7/3 117/7/3 116/7/3
f 138/7/3 116/7/3 100/7/3
f 139/1/3 122/1/3 134/1/3
f 139/10/3 123/10/3 122/10/3
f 139/1/3 134/1/3 133/1/3
f 140/5/3 136/5/3 135/5/3
f 140/10/3 123/10/3 139/10/3
f 140/5/3 137/5/3 136/5/3
f 140/5/3 135/5/3 123/5/3
f 141/7/3 117/7/3 138/7/3
f 141/6/3 138/6/3 137/6/3
f 142/7/3 117/7/3 141/7/3
f 143/7/3 117/7/3 142/7/3
f 144/11/3 106/11/3 117/11/3
f 144/7/3 117/7/3 143/7/3
f 145/3/3 132/3/3 131/3/3
f 145/9/3 131/9/3 88/9/3
f 146/2/3 133/2/3 132/2/3
f 146/3/3 132/3/3 145/3/3
f 147/1/3 139/1/3 133/1/3
f 147/2/3 133/2/3 146/2/3
f 148/1/3 139/1/3 147/1/3
f 149/4/3 107/4/3 106/4/3
f 149/11/3 106/11/3 144/11/3
f 149/11/3 144/11/3 143/11/3
f 150/4/3 107/4/3 149/4/3
f 151/2/3 146/2/3 145/2/3
f 151/2/3 148/2/3 147/2/3
f 151/2/3 147/2/3 146/2/3
f 152/2/3 148/2/3 151/2/3
f 153/2/3 151/2/3 145/2/3
f 153/3/3 152/3/3 151/3/3
f 154/2/3 148/2/3 152/2/3
f 154/3/3 152/3/3 153/3/3
f 155/9/3 145/9/3 88/9/3
f 156/2/3 153/2/3 145/2/3
f 156/9/3 145/9/3 155/9/3
f 156/2/3 154/2/3 153/2/3
f 157/2/3 148/2/3 154/2/3
f 157/2/3 154/2/3 156/2/3
f 158/2/3 148/2/3 157/2/3
f 159/5/3 137/5/3 140/5/3
f 159/5/3 140/5/3 139/5/3
f 160/5/3 137/5/3 159/5/3
f 161/6/3 141/6/3 137/6/3
f 161/6/3 142/6/3 141/6/3
f 162/7/3 143/7/3 142/7/3
f 162/6/3 142/6/3 161/6/3
f 163/2/3 157/2/3 156/2/3
f 164/2/3 157/2/3 163/2/3
f 165/3/3 158/3/3 157/3/3
f 165/2/3 157/2/3 164/2/3
f 166/2/3 148/2/3 158/2/3
f 166/3/3 158/3/3 165/3/3
f 167/1/3 139/1/3 148/1/3
f 167/5/3 159/5/3 139/5/3
f 168/10/3 160/10/3 159/10/3
f 168/5/3 159/5/3 167/5/3
f 169/6/3 161/6/3 137/6/3
f 169/5/3 137/5/3 160/5/3
f 170/7/3 162/7/3 161/7/3
f 170/6/3 161/6/3 169/6/3
f 171/10/3 168/10/3 167/10/3
f 171/1/3 167/1/3 148/1/3
f 172/10/3 160/10/3 168/10/3
f 172/10/3 168/10/3 171/10/3
f 173/5/3 169/5/3 160/5/3
f 173/10/3 160/10/3 172/10/3
f 174/5/3 169/5/3 173/5/3
f 175/4/3 156/4/3 155/4/3
f 175/2/3 163/2/3 156/2/3
f 176/3/3 164/3/3 163/3/3
f 176/2/3 163/2/3 175/2/3
f 177/2/3 165/2/3 164/2/3
f 177/3/3 164/3/3 176/3/3
f 177/2/3 166/2/3 165/2/3
f 178/2/3 166/2/3 177/2/3
f 179/2/3 148/2/3 166/2/3
f 179/2/3 166/2/3 178/2/3
f 180/5/3 169/5/3 174/5/3
f 180/10/3 173/10/3 172/10/3
f 180/10/3 174/10/3 173/10/3
f 181/8/3 170/8/3 169/8/3
f 181/5/3 169/5/3 180/5/3
f 182/4/3 175/4/3 155/4/3
f 183/3/3 176/3/3 175/3/3
f 183/4/3 175/4/3 182/4/3
f 184/2/3 178/2/3 177/2/3
f 184/3/3 176/3/3 183/3/3
f 184/2/3 177/2/3 176/2/3
f 185/3/3 179/3/3 178/3/3
f 185/2/3 178/2/3 184/2/3
f 186/2/3 148/2/3 179/2/3
f 186/3/3 179/3/3 185/3/3
f 187/1/3 171/1/3 148/1/3
f 187/2/3 148/2/3 186/2/3
f 188/1/3 171/1/3 187/1/3
f 189/3/3 172/3/3 171/3/3
f 189/1/3 171/1/3 188/1/3
f 190/10/3 180/10/3 172/10/3
f 190/3/3 172/3/3 189/3/3
f 190/10/3 181/10/3 180/10/3
f 191/10/3 181/10/3 190/10/3
f 192/10/3 181/10/3 191/10/3
f 193/8/3 170/8/3 181/8/3
f 194/7/3 162/7/3 170/7/3
f 194/8/3 170/8/3 193/8/3
f 195/11/3 149/11/3 143/11/3
f 195/7/3 162/7/3 194/7/3
f 195/7/3 143/7/3 162/7/3
f 196/11/3 149/11/3 195/11/3
f 197/9/3 150/9/3 149/9/3
f 197/11/3 149/11/3 196/11/3
f 198/9/3 150/9/3 197/9/3
f 199/2/3 185/2/3 184/2/3
f 199/2/3 186/2/3 185/2/3
f 199/9/3 183/9/3 182/9/3
f 199/2/3 184/2/3 183/2/3
f 199/2/3 188/2/3 187/2/3
f 199/2/3 187/2/3 186/2/3
f 200/2/3 188/2/3 199/2/3
f 201/2/3 188/2/3 200/2/3
f 202/2/3 188/2/3 201/2/3
f 203/3/3 192/3/3 191/3/3
f 203/10/3 191/10/3 190/10/3
f 203/10/3 190/10/3 189/10/3
f 204/10/3 181/10/3 192/10/3
f 204/3/3 192/3/3 203/3/3
f 205/7/3 196/7/3 195/7/3
f 205/7/3 194/7/3 193/7/3
f 205/7/3 195/7/3 194/7/3
f 206/11/3 197/11/3 196/11/3
f 206/7/3 196/7/3 205/7/3
f 207/3/3 200/3/3 199/3/3
f 207/9/3 199/9/3 182/9/3
f 208/2/3 201/2/3 200/2/3
f 208/3/3 200/3/3 207/3/3
f 209/3/3 202/3/3 201/3/3
f 209/2/3 201/2/3 208/2/3
f 210/2/3 188/2/3 202/2/3
f 210/3/3 202/3/3 209/3/3
f 211/2/3 188/2/3 210/2/3
f 212/7/3 205/7/3 193/7/3
f 213/7/3 205/7/3 212/7/3
f 214/2/3 209/2/3 208/2/3
f 214/2/3 208/2/3 207/2/3
f 214/9/3 207/9/3 182/9/3
f 214/2/3 210/2/3 209/2/3
f 215/2/3 210/2/3 214/2/3
f 216/3/3 211/3/3 210/3/3
f 216/2/3 210/2/3 215/2/3
f 217/2/3 188/2/3 211/2/3
f 217/3/3 211/3/3 216/3/3
f 218/10/3 181/10/3 204/10/3
f 218/10/3 204/10/3 203/10/3
f 218/8/3 193/8/3 181/8/3
f 219/7/3 212/7/3 193/7/3
f 219/8/3 193/8/3 218/8/3
f 220/4/3 198/4/3 197/4/3
f 220/11/3 197/11/3 206/11/3
f 220/11/3 206/11/3 205/11/3
f 221/4/3 198/4/3 220/4/3
f 222/3/3 215/3/3 214/3/3
f 223/2/3 216/2/3 215/2/3
f 223/3/3 215/3/3 222/3/3
f 223/2/3 217/2/3 216/2/3
f 224/2/3 188/2/3 217/2/3
f 224/2/3 217/2/3 223/2/3
f 225/1/3 189/1/3 188/1/3
f 225/2/3 188/2/3 224/2/3
f 226/7/3 219/7/3 218/7/3
f 226/10/3 218/10/3 203/10/3
f 227/7/3 212/7/3 219/7/3
f 227/7/3 219/7/3 226/7/3
f 228/7/3 205/7/3 213/7/3
f 228/8/3 213/8/3 212/8/3
f 229/7/3 205/7/3 228/7/3
f 230/9/3 214/9/3 182/9/3
f 231/3/3 222/3/3 214/3/3
f 231/9/3 214/9/3 230/9/3
f 232/2/3 223/2/3 222/2/3
f 232/3/3 222/3/3 231/3/3
f 232/2/3 224/2/3 223/2/3
f 233/2/3 224/2/3 232/2/3
f 234/2/3 224/2/3 233/2/3
f 235/9/3 221/9/3 220/9/3
f 235/11/3 220/11/3 205/11/3
f 236/9/3 221/9/3 235/9/3
f 237/3/3 234/3/3 233/3/3
f 237/2/3 232/2/3 231/2/3
f 237/2/3 233/2/3 232/2/3
f 238/2/3 224/2/3 234/2/3
f 238/3/3 234/3/3 237/3/3
f 239/10/3 226/10/3 203/10/3
f 239/8/3 227/8/3 226/8/3
f 240/7/3 212/7/3 227/7/3
f 240/8/3 227/8/3 239/8/3
f 241/8/3 228/8/3 212/8/3
f 241/7/3 212/7/3 240/7/3
f 242/11/3 229/11/3 228/11/3
f 242/8/3 228/8/3 241/8/3
f 243/7/3 205/7/3 229/7/3
f 243/11/3 229/11/3 242/11/3
f 244/11/3 235/11/3 205/11/3
f 244/7/3 205/7/3 243/7/3
f 245/2/3 237/2/3 231/2/3
f 245/2/3 238/2/3 237/2/3
f 246/2/3 238/2/3 245/2/3
f 247/2/3 224/2/3 238/2/3
f 247/2/3 238/2/3 246/2/3
f 248/2/3 224/2/3 247/2/3
f 249/7/3 242/7/3 241/7/3
f 249/7/3 241/7/3 240/7/3
f 249/7/3 240/7/3 239/7/3
f 249/7/3 243/7/3 242/7/3
f 250/7/3 243/7/3 249/7/3
f 251/3/3 246/3/3 245/3/3
f 251/2/3 245/2/3 231/2/3
f 252/2/3 247/2/3 246/2/3
f 252/3/3 246/3/3 251/3/3
f 253/3/3 248/3/3 247/3/3
f 253/2/3 247/2/3 252/2/3
f 254/2/3 224/2/3 248/2/3
f 254/3/3 248/3/3 253/3/3
f 255/8/3 250/8/3 249/8/3
f 255/7/3 249/7/3 239/7/3
f 256/7/3 243/7/3 250/7/3
f 256/8/3 250/8/3 255/8/3
f 257/11/3 244/11/3 243/11/3
f 257/7/3 243/7/3 256/7/3
f 258/2/3 253/2/3 252/2/3
f 258/2/3 252/2/3 251/2/3
f 258/2/3 254/2/3 253/2/3
f 259/2/3 254/2/3 258/2/3
f 260/11/3 257/11/3 256/11/3
f 260/7/3 256/7/3 255/7/3
f 261/11/3 244/11/3 257/11/3
f 261/11/3 257/11/3 260/11/3
f 262/3/3 259/3/3 258/3/3
f 262/2/3 258/2/3 251/2/3
f 263/2/3 254/2/3 259/2/3
f 263/3/3 259/3/3 262/3/3
f 264/2/3 224/2/3 254/2/3
f 264/2/3 254/2/3 263/2/3
f 265/1/3 225/1/3 224/1/3
f 265/2/3 224/2/3 264/2/3
f 266/4/3 231/4/3 230/4/3
f 266/2/3 262/2/3 251/2/3
f 266/2/3 264/2/3 263/2/3
f 266/2/3 251/2/3 231/2/3
f 266/2/3 263/2/3 262/2/3
f 267/2/3 264/2/3 266/2/3
f 268/1/3 265/1/3 264/1/3
f 268/2/3 264/2/3 267/2/3
f 269/1/3 225/1/3 265/1/3
f 269/1/3 265/1/3 268/1/3
f 270/10/3 203/10/3 189/10/3
f 270/1/3 225/1/3 269/1/3
f 270/10/3 239/10/3 203/10/3
f 270/1/3 189/1/3 225/1/3
f 271/7/3 255/7/3 239/7/3
f 271/10/3 239/10/3 270/10/3
f 271/7/3 260/7/3 255/7/3
f 271/7/3 261/7/3 260/7/3
f 272/11/3 244/11/3 261/11/3
f 272/7/3 261/7/3 271/7/3
f 273/11/3 235/11/3 244/11/3
f 273/11/3 244/11/3 272/11/3
f 274/4/3 236/4/3 235/4/3
f 274/11/3 235/11/3 273/11/3
f 275/4/3 267/4/3 266/4/3
f 275/4/3 266/4/3 230/4/3
f 276/9/3 268/9/3 267/9/3
f 276/4/3 267/4/3 275/4/3
f 276/9/3 269/9/3 268/9/3
f 277/4/3 270/4/3 269/4/3
f 277/9/3 269/9/3 276/9/3
f 278/9/3 272/9/3 271/9/3
f 278/4/3 270/4/3 277/4/3
f 278/9/3 273/9/3 272/9/3
f 278/9/3 271/9/3 270/9/3
f 279/4/3 274/4/3 273/4/3
f 279/9/3 273/9/3 278/9/3
f 280/4/3 236/4/3 274/4/3
f 280/4/3 274/4/3 279/4/3
f 281/4/4 282/4/4 283/4/4
f 283/4/4 282/4/4 284/4/4
f 281/4/4 283/4/4 285/4/4
f 283/9/4 284/9/4 286/9/4
f 285/4/4 283/4/4 286/4/4
f 284/4/4 282/4/4 287/4/4
f 286/9/4 284/9/4 287/9/4
f 287/4/4 282/4/4 288/4/4
f 297/4/5 290/4/5 289/4/5
f 297/9/5 291/9/5 290/9/5
f 298/4/5 292/4/5 291/4/5
f 298/9/5 291/9/5 297/9/5
f 299/9/5 293/9/5 292/9/5
f 299/4/5 292/4/5 298/4/5
f 300/4/5 294/4/5 293/4/5
f 300/9/5 293/9/5 299/9/5
f 301/9/5 295/9/5 294/9/5
f 301/4/5 294/4/5 300/4/5
f 302/4/5 296/4/5 295/4/5
f 302/9/5 295/9/5 301/9/5
f 303/4/5 301/4/5 300/4/5
f 303/4/5 300/4/5 299/4/5
f 303/4/5 302/4/5 301/4/5
f 303/4/5 299/4/5 298/4/5
f 303/4/5 298/4/5 297/4/5
f 303/4/5 297/4/5 289/4/5
f 304/4/5 296/4/5 302/4/5
f 304/4/5 302/4/5 303/4/5
f 305/4/6 306/4/6 315/4/6
f 306/9/6 307/9/6 315/9/6
f 307/4/6 308/4/6 316/4/6
f 315/9/6 307/9/6 316/9/6
f 308/9/6 309/9/6 317/9/6
f 316/4/6 308/4/6 317/4/6
f 309/4/6 310/4/6 318/4/6
f 317/9/6 309/9/6 318/9/6
f 310/9/6 311/9/6 319/9/6
f 318/4/6 310/4/6 319/4/6
f 311/4/6 312/4/6 320/4/6
f 319/9/6 311/9/6 320/9/6
f 312/9/6 313/9/6 321/9/6
f 320/4/6 312/4/6 321/4/6
f 313/4/6 314/4/6 322/4/6
f 321/9/6 313/9/6 322/9/6
f 320/4/6 321/4/6 323/4/6
f 319/4/6 320/4/6 323/4/6
f 321/4/6 322/4/6 323/4/6
f 318/4/6 319/4/6 323/4/6
f 317/4/6 318/4/6 323/4/6
f 316/4/6 317/4/6 323/4/6
f 315/4/6 316/4/6 323/4/6
f 305/4/6 315/4/6 323/4/6
f 322/4/6 314/4/6 324/4/6
f 323/4/6 322/4/6 324/4/6
