# MagicaVoxel @ Ephtracy

# group
o 

# material
mtllib Sharf2.mtl
usemtl palette

# normals
vn -1 0 0
vn 1 0 0
vn 0 0 1
vn 0 0 -1
vn 0 -1 0
vn 0 1 0

# texcoords
vt 0.0996094 0.5
vt 0.107422 0.5
vt 0.298828 0.5
vt 0.302734 0.5

# verts
v 0.1 0.9 0.5
v 0.1 0.9 0.4
v 0.1 1.7 0.5
v 0.1 1.7 0.4
v 0.1 1.7 -0.8
v 0.1 1.8 0.4
v 0.1 1.8 -0.2
v 0.1 1.8 -0.7
v 0.1 1.8 -0.8
v 0.1 1.9 -0.2
v 0.1 1.9 -0.7
v 0.2 0.7 0.5
v 0.2 0.7 0.4
v 0.2 0.8 0.6
v 0.2 0.8 0.5
v 0.2 0.9 0.5
v 0.2 0.9 0.4
v 0.2 1.5 0.6
v 0.2 1.5 0.5
v 0.2 1.7 0.6
v 0.2 1.7 0.5
v 0.2 1.7 0.4
v 0.2 1.8 0.5
v 0.2 1.8 0.4
v 0.2 1.8 0.1
v 0.2 1.8 5.96046e-08
v 0.2 1.8 -0.2
v 0.2 1.8 -0.7
v 0.2 1.8 -0.8
v 0.2 1.9 0.4
v 0.2 1.9 0.1
v 0.2 1.9 5.96046e-08
v 0.2 1.9 -0.2
v 0.2 1.9 -0.7
v 0.2 1.9 -0.8
v 0.3 0.5 0.5
v 0.3 0.5 0.4
v 0.3 0.7 0.6
v 0.3 0.7 0.5
v 0.3 0.7 0.4
v 0.3 0.8 0.6
v 0.3 0.8 0.5
v 0.4 0.4 0.5
v 0.4 0.4 0.4
v 0.4 0.5 0.5
v 0.4 0.5 0.4
v 0.4 0.6 0.6
v 0.4 0.6 0.5
v 0.4 0.7 0.6
v 0.4 0.7 0.5
v 0.5 0.6 0.6
v 0.5 0.6 0.5
v 0.5 0.7 0.6
v 0.5 0.7 0.5
v 0.6 0.4 0.5
v 0.6 0.4 0.4
v 0.6 0.5 0.5
v 0.6 0.5 0.4
v 0.7 0.5 0.5
v 0.7 0.5 0.4
v 0.7 0.6 0.5
v 0.7 0.6 0.4
v 0.7 0.7 0.6
v 0.7 0.7 0.5
v 0.7 0.8 0.6
v 0.7 0.8 0.5
v 0.9 0.6 0.5
v 0.9 0.6 0.4
v 0.9 0.7 0.5
v 0.9 0.7 0.4
v 0.9 0.8 0.6
v 0.9 0.8 0.5
v 0.9 1.3 0.5
v 0.9 1.7 0.6
v 0.9 1.7 0.5
v 0.9 1.7 0.4
v 0.9 1.8 0.5
v 0.9 1.8 0.4
v 0.9 1.8 0.2
v 0.9 1.8 -0.8
v 0.9 1.9 0.4
v 0.9 1.9 -0.8
v 1 0.7 0.5
v 1 0.7 0.4
v 1 1.3 0.5
v 1 1.3 0.4
v 1 1.7 0.5
v 1 1.7 0.4
v 1 1.7 0.2
v 1 1.7 -0.8
v 1 1.8 0.4
v 1 1.8 0.2
v 1 1.8 -0.8
v 0.2 0.8 0.6
v 0.2 1.5 0.6
v 0.2 1.7 0.6
v 0.3 0.7 0.6
v 0.3 0.8 0.6
v 0.3 1.1 0.6
v 0.3 1.3 0.6
v 0.3 1.5 0.6
v 0.3 1.7 0.6
v 0.4 0.6 0.6
v 0.4 0.7 0.6
v 0.4 1.1 0.6
v 0.4 1.3 0.6
v 0.5 0.6 0.6
v 0.5 0.7 0.6
v 0.5 1 0.6
v 0.5 1.1 0.6
v 0.5 1.4 0.6
v 0.5 1.5 0.6
v 0.6 1.4 0.6
v 0.6 1.5 0.6
v 0.6 1.6 0.6
v 0.7 0.7 0.6
v 0.7 0.8 0.6
v 0.7 0.9 0.6
v 0.7 1 0.6
v 0.7 1.1 0.6
v 0.7 1.2 0.6
v 0.7 1.3 0.6
v 0.7 1.5 0.6
v 0.7 1.6 0.6
v 0.7 1.7 0.6
v 0.8 0.9 0.6
v 0.8 1 0.6
v 0.8 1.2 0.6
v 0.8 1.3 0.6
v 0.8 1.6 0.6
v 0.8 1.7 0.6
v 0.9 0.8 0.6
v 0.9 1.7 0.6
v 0.1 0.9 0.5
v 0.1 1.7 0.5
v 0.2 0.7 0.5
v 0.2 0.8 0.5
v 0.2 0.9 0.5
v 0.2 1.5 0.5
v 0.2 1.7 0.5
v 0.2 1.8 0.5
v 0.3 0.5 0.5
v 0.3 0.7 0.5
v 0.3 0.8 0.5
v 0.3 1.7 0.5
v 0.4 0.4 0.5
v 0.4 0.5 0.5
v 0.4 0.6 0.5
v 0.4 0.7 0.5
v 0.5 0.6 0.5
v 0.5 0.7 0.5
v 0.6 0.4 0.5
v 0.6 0.5 0.5
v 0.6 1.7 0.5
v 0.6 1.8 0.5
v 0.7 0.5 0.5
v 0.7 0.6 0.5
v 0.7 0.7 0.5
v 0.7 0.8 0.5
v 0.7 1.7 0.5
v 0.7 1.8 0.5
v 0.8 1.7 0.5
v 0.9 0.6 0.5
v 0.9 0.7 0.5
v 0.9 0.8 0.5
v 0.9 1.3 0.5
v 0.9 1.7 0.5
v 0.9 1.8 0.5
v 1 0.7 0.5
v 1 1.3 0.5
v 1 1.7 0.5
v 0.1 1.7 0.4
v 0.1 1.8 0.4
v 0.2 1.7 0.4
v 0.2 1.8 0.4
v 0.2 1.9 0.4
v 0.4 1.8 0.4
v 0.4 1.9 0.4
v 0.5 1.8 0.4
v 0.5 1.9 0.4
v 0.6 1.8 0.4
v 0.7 1.8 0.4
v 0.9 1.7 0.4
v 0.9 1.8 0.4
v 0.9 1.9 0.4
v 1 1.7 0.4
v 1 1.8 0.4
v 0.1 1.8 -0.2
v 0.1 1.9 -0.2
v 0.2 1.8 -0.2
v 0.2 1.9 -0.2
v 0.1 0.9 0.4
v 0.1 1.7 0.4
v 0.2 0.7 0.4
v 0.2 0.9 0.4
v 0.2 1.4 0.4
v 0.2 1.7 0.4
v 0.3 0.5 0.4
v 0.3 0.7 0.4
v 0.3 1.4 0.4
v 0.3 1.7 0.4
v 0.4 0.4 0.4
v 0.4 0.5 0.4
v 0.6 0.4 0.4
v 0.6 0.5 0.4
v 0.7 0.5 0.4
v 0.7 0.6 0.4
v 0.9 0.6 0.4
v 0.9 0.7 0.4
v 0.9 1.3 0.4
v 0.9 1.7 0.4
v 1 0.7 0.4
v 1 1.3 0.4
v 1 1.7 0.4
v 0.1 1.8 -0.7
v 0.1 1.9 -0.7
v 0.2 1.8 -0.7
v 0.2 1.9 -0.7
v 0.1 1.7 -0.8
v 0.1 1.8 -0.8
v 0.2 1.7 -0.8
v 0.2 1.8 -0.8
v 0.2 1.9 -0.8
v 0.9 1.8 -0.8
v 0.9 1.9 -0.8
v 1 1.7 -0.8
v 1 1.8 -0.8
v 0.4 0.4 0.5
v 0.6 0.4 0.5
v 0.4 0.4 0.4
v 0.6 0.4 0.4
v 0.3 0.5 0.5
v 0.4 0.5 0.5
v 0.6 0.5 0.5
v 0.7 0.5 0.5
v 0.3 0.5 0.4
v 0.4 0.5 0.4
v 0.6 0.5 0.4
v 0.7 0.5 0.4
v 0.4 0.6 0.6
v 0.5 0.6 0.6
v 0.4 0.6 0.5
v 0.5 0.6 0.5
v 0.7 0.6 0.5
v 0.9 0.6 0.5
v 0.7 0.6 0.4
v 0.9 0.6 0.4
v 0.3 0.7 0.6
v 0.4 0.7 0.6
v 0.5 0.7 0.6
v 0.7 0.7 0.6
v 0.2 0.7 0.5
v 0.3 0.7 0.5
v 0.4 0.7 0.5
v 0.5 0.7 0.5
v 0.7 0.7 0.5
v 0.9 0.7 0.5
v 1 0.7 0.5
v 0.2 0.7 0.4
v 0.3 0.7 0.4
v 0.9 0.7 0.4
v 1 0.7 0.4
v 0.2 0.8 0.6
v 0.3 0.8 0.6
v 0.7 0.8 0.6
v 0.9 0.8 0.6
v 0.2 0.8 0.5
v 0.3 0.8 0.5
v 0.7 0.8 0.5
v 0.9 0.8 0.5
v 0.1 0.9 0.5
v 0.2 0.9 0.5
v 0.1 0.9 0.4
v 0.2 0.9 0.4
v 0.1 1.7 0.4
v 0.2 1.7 0.4
v 0.3 1.7 0.4
v 0.9 1.7 0.4
v 1 1.7 0.4
v 0.2 1.7 0.2
v 0.3 1.7 0.2
v 0.9 1.7 0.2
v 1 1.7 0.2
v 0.1 1.7 -0.8
v 0.2 1.7 -0.8
v 1 1.7 -0.8
v 0.2 1.7 0.6
v 0.3 1.7 0.6
v 0.7 1.7 0.6
v 0.8 1.7 0.6
v 0.9 1.7 0.6
v 0.1 1.7 0.5
v 0.2 1.7 0.5
v 0.3 1.7 0.5
v 0.6 1.7 0.5
v 0.7 1.7 0.5
v 0.8 1.7 0.5
v 0.9 1.7 0.5
v 1 1.7 0.5
v 0.1 1.7 0.4
v 0.2 1.7 0.4
v 0.9 1.7 0.4
v 1 1.7 0.4
v 0.2 1.8 0.5
v 0.6 1.8 0.5
v 0.7 1.8 0.5
v 0.9 1.8 0.5
v 0.1 1.8 0.4
v 0.2 1.8 0.4
v 0.4 1.8 0.4
v 0.5 1.8 0.4
v 0.6 1.8 0.4
v 0.7 1.8 0.4
v 0.9 1.8 0.4
v 1 1.8 0.4
v 0.9 1.8 0.2
v 1 1.8 0.2
v 0.2 1.8 0.1
v 0.2 1.8 5.96046e-08
v 0.1 1.8 -0.2
v 0.2 1.8 -0.2
v 0.1 1.8 -0.7
v 0.2 1.8 -0.7
v 0.1 1.8 -0.8
v 0.2 1.8 -0.8
v 0.9 1.8 -0.8
v 1 1.8 -0.8
v 0.2 1.9 0.4
v 0.4 1.9 0.4
v 0.5 1.9 0.4
v 0.9 1.9 0.4
v 0.4 1.9 0.3
v 0.5 1.9 0.3
v 0.6 1.9 0.3
v 0.5 1.9 0.2
v 0.6 1.9 0.2
v 0.8 1.9 0.2
v 0.2 1.9 0.1
v 0.3 1.9 0.1
v 0.2 1.9 5.96046e-08
v 0.3 1.9 5.96046e-08
v 0.6 1.9 5.96046e-08
v 0.7 1.9 5.96046e-08
v 0.7 1.9 -0.1
v 0.8 1.9 -0.1
v 0.1 1.9 -0.2
v 0.2 1.9 -0.2
v 0.3 1.9 -0.3
v 0.5 1.9 -0.3
v 0.3 1.9 -0.4
v 0.5 1.9 -0.4
v 0.6 1.9 -0.4
v 0.5 1.9 -0.5
v 0.6 1.9 -0.5
v 0.6 1.9 -0.6
v 0.8 1.9 -0.6
v 0.1 1.9 -0.7
v 0.2 1.9 -0.7
v 0.6 1.9 -0.7
v 0.8 1.9 -0.7
v 0.2 1.9 -0.8
v 0.9 1.9 -0.8

# faces
f 3/3/1 2/3/1 1/3/1
f 4/3/1 2/3/1 3/3/1
f 6/3/1 5/3/1 4/3/1
f 7/3/1 5/3/1 6/3/1
f 8/3/1 5/3/1 7/3/1
f 9/3/1 5/3/1 8/3/1
f 10/3/1 8/3/1 7/3/1
f 11/3/1 8/3/1 10/3/1
f 15/1/1 13/1/1 12/1/1
f 16/1/1 13/1/1 15/1/1
f 16/3/1 15/3/1 14/3/1
f 17/1/1 13/1/1 16/1/1
f 18/3/1 16/3/1 14/3/1
f 19/3/1 16/3/1 18/3/1
f 20/4/1 19/4/1 18/4/1
f 21/4/1 19/4/1 20/4/1
f 23/3/1 22/3/1 21/3/1
f 24/3/1 22/3/1 23/3/1
f 30/3/1 25/3/1 24/3/1
f 31/4/1 26/4/1 25/4/1
f 31/3/1 25/3/1 30/3/1
f 32/3/1 27/3/1 26/3/1
f 32/4/1 26/4/1 31/4/1
f 33/3/1 27/3/1 32/3/1
f 34/3/1 29/3/1 28/3/1
f 35/3/1 29/3/1 34/3/1
f 39/1/1 37/1/1 36/1/1
f 40/1/1 37/1/1 39/1/1
f 41/3/1 39/3/1 38/3/1
f 42/3/1 39/3/1 41/3/1
f 45/1/1 44/1/1 43/1/1
f 46/1/1 44/1/1 45/1/1
f 49/3/1 48/3/1 47/3/1
f 50/3/1 48/3/1 49/3/1
f 51/3/2 52/3/2 53/3/2
f 53/3/2 52/3/2 54/3/2
f 55/1/2 56/1/2 57/1/2
f 57/1/2 56/1/2 58/1/2
f 59/1/2 60/1/2 61/1/2
f 61/1/2 60/1/2 62/1/2
f 63/3/2 64/3/2 65/3/2
f 65/3/2 64/3/2 66/3/2
f 67/1/2 68/1/2 69/1/2
f 69/1/2 68/1/2 70/1/2
f 71/3/2 72/3/2 73/3/2
f 71/3/2 73/3/2 74/3/2
f 74/3/2 73/3/2 75/3/2
f 75/3/2 76/3/2 77/3/2
f 77/3/2 76/3/2 78/3/2
f 79/3/2 80/3/2 81/3/2
f 78/3/2 79/3/2 81/3/2
f 81/3/2 80/3/2 82/3/2
f 83/1/2 84/1/2 85/1/2
f 85/1/2 84/1/2 86/1/2
f 85/2/2 86/2/2 87/2/2
f 87/2/2 86/2/2 88/2/2
f 88/1/2 89/1/2 91/1/2
f 89/2/2 90/2/2 92/2/2
f 91/1/2 89/1/2 92/1/2
f 92/2/2 90/2/2 93/2/2
f 98/3/3 95/3/3 94/3/3
f 99/3/3 95/3/3 98/3/3
f 100/3/3 95/3/3 99/3/3
f 101/4/3 96/4/3 95/4/3
f 101/3/3 95/3/3 100/3/3
f 102/4/3 96/4/3 101/4/3
f 104/3/3 98/3/3 97/3/3
f 104/3/3 99/3/3 98/3/3
f 105/4/3 100/4/3 99/4/3
f 105/3/3 99/3/3 104/3/3
f 106/3/3 102/3/3 101/3/3
f 106/4/3 100/4/3 105/4/3
f 106/3/3 101/3/3 100/3/3
f 107/3/3 104/3/3 103/3/3
f 107/3/3 105/3/3 104/3/3
f 107/3/3 106/3/3 105/3/3
f 108/3/3 106/3/3 107/3/3
f 109/3/3 106/3/3 108/3/3
f 110/3/3 106/3/3 109/3/3
f 111/3/3 102/3/3 106/3/3
f 111/3/3 106/3/3 110/3/3
f 112/3/3 102/3/3 111/3/3
f 113/3/3 111/3/3 110/3/3
f 113/4/3 112/4/3 111/4/3
f 114/3/3 102/3/3 112/3/3
f 114/4/3 112/4/3 113/4/3
f 115/3/3 102/3/3 114/3/3
f 116/3/3 109/3/3 108/3/3
f 117/3/3 109/3/3 116/3/3
f 118/3/3 109/3/3 117/3/3
f 119/4/3 110/4/3 109/4/3
f 119/3/3 109/3/3 118/3/3
f 120/3/3 113/3/3 110/3/3
f 120/4/3 110/4/3 119/4/3
f 120/3/3 114/3/3 113/3/3
f 121/3/3 114/3/3 120/3/3
f 122/3/3 114/3/3 121/3/3
f 123/4/3 115/4/3 114/4/3
f 123/3/3 114/3/3 122/3/3
f 124/3/3 102/3/3 115/3/3
f 124/4/3 115/4/3 123/4/3
f 125/3/3 102/3/3 124/3/3
f 126/3/3 118/3/3 117/3/3
f 126/4/3 119/4/3 118/4/3
f 127/3/3 120/3/3 119/3/3
f 127/4/3 119/4/3 126/4/3
f 127/3/3 121/3/3 120/3/3
f 128/4/3 122/4/3 121/4/3
f 128/3/3 121/3/3 127/3/3
f 129/3/3 123/3/3 122/3/3
f 129/4/3 122/4/3 128/4/3
f 129/3/3 124/3/3 123/3/3
f 130/4/3 125/4/3 124/4/3
f 130/3/3 124/3/3 129/3/3
f 131/4/3 125/4/3 130/4/3
f 132/3/3 129/3/3 128/3/3
f 132/3/3 128/3/3 127/3/3
f 132/3/3 131/3/3 130/3/3
f 132/3/3 130/3/3 129/3/3
f 132/3/3 126/3/3 117/3/3
f 132/3/3 127/3/3 126/3/3
f 133/3/3 131/3/3 132/3/3
f 138/3/3 135/3/3 134/3/3
f 139/3/3 135/3/3 138/3/3
f 140/3/3 135/3/3 139/3/3
f 143/1/3 137/1/3 136/1/3
f 144/1/3 137/1/3 143/1/3
f 145/3/3 141/3/3 140/3/3
f 147/1/3 143/1/3 142/1/3
f 148/1/3 143/1/3 147/1/3
f 149/1/3 143/1/3 148/1/3
f 150/1/3 147/1/3 146/1/3
f 150/1/3 148/1/3 147/1/3
f 152/1/3 150/1/3 146/1/3
f 152/1/3 151/1/3 150/1/3
f 153/1/3 151/1/3 152/1/3
f 154/3/3 141/3/3 145/3/3
f 155/3/3 141/3/3 154/3/3
f 156/1/3 151/1/3 153/1/3
f 157/1/3 151/1/3 156/1/3
f 158/1/3 151/1/3 157/1/3
f 160/4/3 155/4/3 154/4/3
f 161/4/3 155/4/3 160/4/3
f 162/3/3 161/3/3 160/3/3
f 163/1/3 158/1/3 157/1/3
f 164/2/3 159/2/3 158/2/3
f 164/1/3 158/1/3 163/1/3
f 165/2/3 159/2/3 164/2/3
f 167/3/3 161/3/3 162/3/3
f 168/3/3 161/3/3 167/3/3
f 169/1/3 166/1/3 165/1/3
f 169/1/3 165/1/3 164/1/3
f 170/2/3 167/2/3 166/2/3
f 170/1/3 166/1/3 169/1/3
f 171/2/3 167/2/3 170/2/3
f 174/3/3 173/3/3 172/3/3
f 175/3/3 173/3/3 174/3/3
f 177/3/3 176/3/3 175/3/3
f 178/3/3 176/3/3 177/3/3
f 179/4/3 178/4/3 177/4/3
f 180/4/3 178/4/3 179/4/3
f 181/3/3 180/3/3 179/3/3
f 182/3/3 180/3/3 181/3/3
f 184/3/3 180/3/3 182/3/3
f 185/3/3 180/3/3 184/3/3
f 186/1/3 184/1/3 183/1/3
f 187/1/3 184/1/3 186/1/3
f 190/3/3 189/3/3 188/3/3
f 191/3/3 189/3/3 190/3/3
f 192/3/4 193/3/4 195/3/4
f 195/3/4 193/3/4 196/3/4
f 196/3/4 193/3/4 197/3/4
f 194/1/4 195/1/4 199/1/4
f 195/1/4 196/1/4 199/1/4
f 196/2/4 197/2/4 200/2/4
f 199/1/4 196/1/4 200/1/4
f 200/2/4 197/2/4 201/2/4
f 198/1/4 199/1/4 203/1/4
f 202/1/4 203/1/4 204/1/4
f 203/1/4 199/1/4 205/1/4
f 204/1/4 203/1/4 205/1/4
f 205/1/4 199/1/4 206/1/4
f 206/1/4 199/1/4 207/1/4
f 207/1/4 199/1/4 208/1/4
f 199/2/4 200/2/4 209/2/4
f 208/1/4 199/1/4 209/1/4
f 200/2/4 201/2/4 209/2/4
f 209/2/4 201/2/4 210/2/4
f 210/2/4 201/2/4 211/2/4
f 209/1/4 210/1/4 212/1/4
f 210/2/4 211/2/4 213/2/4
f 212/1/4 210/1/4 213/1/4
f 213/2/4 211/2/4 214/2/4
f 215/3/4 216/3/4 217/3/4
f 217/3/4 216/3/4 218/3/4
f 219/3/4 220/3/4 221/3/4
f 221/3/4 220/3/4 222/3/4
f 221/2/4 222/2/4 224/2/4
f 222/3/4 223/3/4 224/3/4
f 224/3/4 223/3/4 225/3/4
f 221/2/4 224/2/4 226/2/4
f 226/2/4 224/2/4 227/2/4
f 230/1/5 229/1/5 228/1/5
f 231/1/5 229/1/5 230/1/5
f 236/1/5 233/1/5 232/1/5
f 237/1/5 233/1/5 236/1/5
f 238/1/5 235/1/5 234/1/5
f 239/1/5 235/1/5 238/1/5
f 242/3/5 241/3/5 240/3/5
f 243/3/5 241/3/5 242/3/5
f 246/1/5 245/1/5 244/1/5
f 247/1/5 245/1/5 246/1/5
f 253/3/5 249/3/5 248/3/5
f 254/3/5 249/3/5 253/3/5
f 255/3/5 251/3/5 250/3/5
f 256/3/5 251/3/5 255/3/5
f 259/1/5 253/1/5 252/1/5
f 260/1/5 253/1/5 259/1/5
f 261/1/5 258/1/5 257/1/5
f 262/1/5 258/1/5 261/1/5
f 267/3/5 264/3/5 263/3/5
f 268/3/5 264/3/5 267/3/5
f 269/3/5 266/3/5 265/3/5
f 270/3/5 266/3/5 269/3/5
f 273/3/5 272/3/5 271/3/5
f 274/3/5 272/3/5 273/3/5
f 280/3/5 276/3/5 275/3/5
f 280/1/5 277/1/5 276/1/5
f 281/2/5 278/2/5 277/2/5
f 281/1/5 277/1/5 280/1/5
f 282/1/5 279/1/5 278/1/5
f 282/2/5 278/2/5 281/2/5
f 283/1/5 279/1/5 282/1/5
f 284/3/5 280/3/5 275/3/5
f 285/2/5 281/2/5 280/2/5
f 285/3/5 280/3/5 284/3/5
f 285/2/5 282/2/5 281/2/5
f 285/2/5 283/2/5 282/2/5
f 286/2/5 283/2/5 285/2/5
f 287/4/6 288/4/6 293/4/6
f 288/3/6 289/3/6 294/3/6
f 293/4/6 288/4/6 294/4/6
f 294/3/6 289/3/6 295/3/6
f 289/4/6 290/4/6 296/4/6
f 295/3/6 289/3/6 296/3/6
f 290/3/6 291/3/6 297/3/6
f 296/4/6 290/4/6 297/4/6
f 297/3/6 291/3/6 298/3/6
f 292/3/6 293/3/6 300/3/6
f 300/3/6 293/3/6 301/3/6
f 298/2/6 299/2/6 302/2/6
f 302/2/6 299/2/6 303/2/6
f 304/3/6 305/3/6 309/3/6
f 309/3/6 305/3/6 310/3/6
f 310/3/6 305/3/6 311/3/6
f 305/4/6 306/4/6 312/4/6
f 311/3/6 305/3/6 312/3/6
f 306/3/6 307/3/6 313/3/6
f 312/4/6 306/4/6 313/4/6
f 313/3/6 307/3/6 314/3/6
f 314/1/6 315/1/6 316/1/6
f 316/1/6 315/1/6 317/1/6
f 308/3/6 309/3/6 318/3/6
f 308/3/6 318/3/6 319/3/6
f 308/3/6 319/3/6 320/3/6
f 320/3/6 319/3/6 321/3/6
f 322/3/6 323/3/6 324/3/6
f 324/3/6 323/3/6 325/3/6
f 316/2/6 317/2/6 326/2/6
f 326/2/6 317/2/6 327/2/6
f 328/3/6 329/3/6 332/3/6
f 329/4/6 330/4/6 332/4/6
f 330/3/6 331/3/6 333/3/6
f 332/4/6 330/4/6 333/4/6
f 333/3/6 331/3/6 334/3/6
f 332/3/6 333/3/6 335/3/6
f 333/4/6 334/4/6 335/4/6
f 334/3/6 331/3/6 336/3/6
f 335/4/6 334/4/6 336/4/6
f 336/3/6 331/3/6 337/3/6
f 328/3/6 332/3/6 338/3/6
f 332/3/6 335/3/6 338/3/6
f 335/3/6 336/3/6 338/3/6
f 338/3/6 336/3/6 339/3/6
f 338/4/6 339/4/6 340/4/6
f 339/3/6 336/3/6 341/3/6
f 340/4/6 339/4/6 341/4/6
f 336/4/6 337/4/6 342/4/6
f 341/3/6 336/3/6 342/3/6
f 342/4/6 337/4/6 343/4/6
f 340/3/6 341/3/6 344/3/6
f 343/4/6 337/4/6 344/4/6
f 342/3/6 343/3/6 344/3/6
f 341/3/6 342/3/6 344/3/6
f 337/3/6 331/3/6 345/3/6
f 344/4/6 337/4/6 345/4/6
f 340/3/6 344/3/6 347/3/6
f 344/3/6 345/3/6 347/3/6
f 347/3/6 345/3/6 348/3/6
f 346/3/6 347/3/6 348/3/6
f 348/3/6 345/3/6 349/3/6
f 346/3/6 348/3/6 350/3/6
f 348/4/6 349/4/6 350/4/6
f 349/3/6 345/3/6 351/3/6
f 350/4/6 349/4/6 351/4/6
f 351/3/6 345/3/6 352/3/6
f 350/3/6 351/3/6 353/3/6
f 351/4/6 352/4/6 353/4/6
f 352/3/6 345/3/6 354/3/6
f 353/4/6 352/4/6 354/4/6
f 353/3/6 354/3/6 355/3/6
f 354/3/6 345/3/6 355/3/6
f 345/3/6 331/3/6 356/3/6
f 355/3/6 345/3/6 356/3/6
f 353/3/6 355/3/6 357/3/6
f 346/3/6 350/3/6 357/3/6
f 350/3/6 353/3/6 357/3/6
f 357/3/6 355/3/6 358/3/6
f 355/4/6 356/4/6 359/4/6
f 358/3/6 355/3/6 359/3/6
f 356/3/6 331/3/6 360/3/6
f 359/4/6 356/4/6 360/4/6
f 358/3/6 359/3/6 361/3/6
f 359/3/6 360/3/6 361/3/6
f 360/3/6 331/3/6 362/3/6
f 361/3/6 360/3/6 362/3/6
